<svg width="66" height="83" viewBox="0 0 66 83" fill="none" xmlns="http://www.w3.org/2000/svg">
  <g clip-path="url(#clip0_69_5051)">
    <path d="M60.5893 44.4278C59.6648 44.244 69.9114 52.6193 60.3916 54.1748" stroke="#0F1C2C" stroke-width="1.2" stroke-linecap="round" stroke-linejoin="round"/>
    <path d="M34.0527 53.1504C34.0527 53.1504 41.6491 57.7694 41.6491 72.8682" stroke="#0F1C2C" stroke-width="1.2" stroke-linecap="round" stroke-linejoin="round"/>
    <path d="M26.5544 53.1494C26.5544 53.1494 24.5089 65.3506 23.8477 72.272" stroke="#0F1C2C" stroke-width="1.2" stroke-linecap="round" stroke-linejoin="round"/>
    <path d="M33.3934 57.6132C32.1826 58.3459 30.9114 59.0581 30.9139 59.0543C30.9165 59.0504 29.4103 58.2624 28.3459 57.6016C19.9727 53.268 10.3912 47.9304 4.41793 41.9513C2.11951 39.2066 0.368095 35.8886 0.212727 32.1631C0.151093 28.462 0.829064 24.4241 3.8658 21.1408C6.87172 17.8446 11.1514 16.4087 15.0369 16.0346C18.9866 15.708 22.0849 16.3817 25.1307 18.4025C26.746 19.5351 29.5439 22.5742 30.7393 24.2248C32.2878 22.2965 34.6659 19.6482 36.321 18.5594C39.3051 16.5603 42.4163 15.9883 46.208 16.5025C49.9317 17.0579 54.0406 18.7612 56.9451 22.1114C59.8663 25.4397 60.4492 29.0881 60.308 32.4356C60.0743 35.8051 58.5027 38.8197 56.1696 41.5425C50.5173 47.6489 41.4058 53.1639 33.3934 57.6132Z" fill="url(#paint0_linear_69_5051)"/>
    <path d="M9.19186 24.4498C8.88054 24.4479 8.57357 24.3764 8.29327 24.2408C8.01296 24.1051 7.76637 23.9087 7.57141 23.6656C7.37706 23.4237 7.23995 23.1408 7.17034 22.8383C7.10074 22.5357 7.10045 22.2213 7.16951 21.9186L8.47281 16.0925C8.47416 16.0899 8.47486 16.087 8.47486 16.0841C8.47486 16.0812 8.47416 16.0783 8.47281 16.0758L4.15974 11.5699C3.89043 11.2879 3.70595 10.9355 3.62746 10.5534C3.54896 10.1712 3.57963 9.77456 3.71594 9.40902C3.85225 9.04348 4.08869 8.7238 4.39815 8.48662C4.70761 8.24944 5.07757 8.10437 5.46561 8.06805L11.2823 7.52683C11.2885 7.52544 11.294 7.52177 11.2977 7.51655L14.0904 2.14937C14.2685 1.80402 14.5399 1.51569 14.8737 1.31724C15.2075 1.11878 15.5902 1.01818 15.9784 1.02689C16.3665 1.0356 16.7443 1.15327 17.0689 1.3665C17.3935 1.57972 17.6517 1.87994 17.8141 2.23293L20.2975 7.58468C20.3006 7.58909 20.3051 7.59227 20.3103 7.59368L26.3298 8.94737C26.7049 9.03159 27.0493 9.21855 27.3244 9.48737C27.5995 9.75618 27.7946 10.0963 27.8878 10.4697C27.9811 10.8431 27.9688 11.235 27.8524 11.6019C27.736 11.9687 27.5201 12.2959 27.2287 12.5469L23.0723 16.1465C23.0711 16.1493 23.0704 16.1524 23.0704 16.1555C23.0704 16.1585 23.0711 16.1616 23.0723 16.1645L24.0841 22.0047C24.151 22.3866 24.1096 22.7795 23.9647 23.139C23.8197 23.4985 23.5771 23.8101 23.2642 24.0385C22.9513 24.2668 22.5808 24.4028 22.1946 24.431C21.8084 24.4592 21.4221 24.3784 21.0794 24.1979L15.7841 21.4224L15.309 20.5019L15.7674 21.4224L10.1177 24.239C9.82959 24.3803 9.51262 24.4525 9.19186 24.4498Z" fill="url(#paint1_linear_69_5051)"/>
    <path d="M15.9276 2.05888C16.1271 2.0573 16.3228 2.11349 16.4912 2.22069C16.6595 2.32789 16.7933 2.48152 16.8765 2.66309L19.3662 8.01355C19.4337 8.15887 19.5337 8.28672 19.6584 8.38724C19.783 8.48777 19.9291 8.55828 20.0853 8.59334L26.1023 9.94702C26.2912 9.9893 26.4647 10.0833 26.6034 10.2185C26.7421 10.3537 26.8406 10.5248 26.8878 10.7128C26.9351 10.9007 26.9293 11.0981 26.8711 11.283C26.8128 11.4678 26.7045 11.6328 26.5581 11.7597L22.403 15.3592C22.2667 15.4772 22.1632 15.6285 22.1025 15.7983C22.0418 15.9681 22.0258 16.1507 22.0563 16.3285L23.0681 22.1688C23.1028 22.3615 23.0825 22.5602 23.0098 22.742C22.937 22.9238 22.8146 23.0815 22.6565 23.1969C22.4985 23.3124 22.3112 23.381 22.116 23.3949C21.9209 23.4088 21.7257 23.3675 21.5529 23.2756L16.2576 20.5001C16.1111 20.4231 15.9484 20.3822 15.7829 20.3806C15.6175 20.3791 15.4541 20.4169 15.3061 20.4911L9.65637 23.3065C9.47956 23.3967 9.28067 23.4345 9.08314 23.4153C8.8856 23.3961 8.69766 23.3209 8.54142 23.1984C8.38518 23.0758 8.26716 22.9112 8.20127 22.7238C8.13537 22.5363 8.12434 22.334 8.16947 22.1405L9.47276 16.3156C9.51016 16.1473 9.5056 15.9724 9.45947 15.8062C9.41334 15.6401 9.32706 15.4879 9.20825 15.3631L4.89904 10.8521C4.76403 10.7098 4.67171 10.5324 4.6326 10.3401C4.59349 10.1478 4.60917 9.94836 4.67787 9.76457C4.74656 9.58077 4.86548 9.42002 5.02107 9.30066C5.17665 9.18131 5.36262 9.10816 5.55775 9.08956L11.3744 8.54706C11.5485 8.53113 11.7157 8.47169 11.8609 8.37421C12.006 8.27673 12.1244 8.14432 12.2052 7.98913L14.998 2.62195C15.0852 2.45134 15.2181 2.30836 15.3818 2.20893C15.5455 2.10951 15.7336 2.05756 15.925 2.05888M15.925 0.00199434C15.3578 0.00127356 14.8012 0.156807 14.3163 0.451572C13.8315 0.746336 13.4369 1.16897 13.1759 1.67321L10.6374 6.55831L5.37284 7.04939C4.79255 7.10352 4.23925 7.32028 3.77636 7.67481C3.31348 8.02934 2.95976 8.5073 2.75575 9.05388C2.55175 9.60045 2.50572 10.1935 2.62295 10.7651C2.74018 11.3367 3.01592 11.8636 3.41855 12.2854L7.35411 16.3992L6.17023 21.697C6.04088 22.2697 6.0766 22.8673 6.27322 23.4205C6.46984 23.9737 6.81929 24.4596 7.28092 24.8217C7.74255 25.1838 8.29739 25.4073 8.88089 25.4661C9.4644 25.5249 10.0526 25.4166 10.577 25.1538L15.7645 22.5673L20.604 25.1037C21.2302 25.4335 21.9503 25.5384 22.6443 25.4008C23.3384 25.2633 23.9643 24.8916 24.4176 24.3478C24.7086 24.0024 24.9202 23.5972 25.0376 23.161C25.155 22.7247 25.1752 22.2679 25.0969 21.823L24.1762 16.5432L27.8999 13.3139C28.3335 12.9379 28.6544 12.4488 28.8269 11.901C28.9994 11.3533 29.0166 10.7683 28.8767 10.2113C28.7368 9.65433 28.4453 9.14713 28.0346 8.74617C27.6239 8.34521 27.1101 8.06623 26.5504 7.94028L21.0149 6.69586L18.7383 1.80177C18.4929 1.26251 18.097 0.805757 17.5983 0.48646C17.0997 0.167163 16.5195 -0.00107342 15.9276 0.00199434L15.925 0.00199434Z" fill="#FFF12E"/>
    <path d="M53.6845 24.7681C53.3634 24.7682 53.0468 24.6929 52.76 24.5483L47.1102 21.7316H47.0936L41.7969 24.5058C41.5008 24.6633 41.1705 24.7454 40.8352 24.745C40.5329 24.7448 40.2342 24.6784 39.9602 24.5505C39.6862 24.4226 39.4435 24.2362 39.249 24.0045C39.0545 23.7728 38.913 23.5013 38.8343 23.2091C38.7556 22.9168 38.7417 22.6109 38.7936 22.3127L39.8054 16.4724C39.8066 16.4698 39.8073 16.467 39.8073 16.4641C39.8073 16.4612 39.8066 16.4583 39.8054 16.4557L35.6503 12.8562C35.3602 12.605 35.1455 12.2783 35.03 11.9122C34.9144 11.5462 34.9025 11.1552 34.9957 10.7828C35.0888 10.4104 35.2834 10.0712 35.5576 9.80286C35.8319 9.53456 36.1751 9.34769 36.5491 9.26305L42.5673 7.90936C42.5701 7.90879 42.5728 7.90756 42.575 7.90578C42.5772 7.90399 42.579 7.90169 42.5802 7.89908L45.0686 2.54604C45.2316 2.1935 45.49 1.89381 45.8146 1.68102C46.1392 1.46822 46.517 1.35087 46.9049 1.3423C47.2927 1.33373 47.6753 1.43429 48.0089 1.63253C48.3426 1.83078 48.614 2.11877 48.7923 2.46376L51.5851 7.83094C51.5863 7.83365 51.5883 7.83593 51.5908 7.83753C51.5933 7.83913 51.5963 7.83996 51.5992 7.83994L57.4172 8.38244C57.8045 8.41981 58.1736 8.56555 58.4821 8.80299C58.7906 9.04042 59.0262 9.35999 59.1618 9.72514C59.2975 10.0903 59.3279 10.4863 59.2494 10.8679C59.1708 11.2495 58.9867 11.6013 58.7179 11.883L54.4087 16.3953C54.4074 16.3979 54.4068 16.4008 54.4068 16.4036C54.4068 16.4065 54.4074 16.4094 54.4087 16.412L55.7069 22.2407C55.7761 22.5433 55.776 22.8577 55.7066 23.1602C55.6372 23.4628 55.5004 23.7457 55.3062 23.9878C55.111 24.2308 54.8642 24.4273 54.5837 24.5629C54.3032 24.6986 53.996 24.77 53.6845 24.7719V24.7681Z" fill="url(#paint2_linear_69_5051)"/>
    <path d="M46.9472 2.3753C47.1388 2.37324 47.3272 2.42489 47.491 2.52439C47.6548 2.62389 47.7876 2.76729 47.8743 2.93837L50.6671 8.30426C50.7478 8.45955 50.8662 8.59209 51.0113 8.68978C51.1564 8.78747 51.3237 8.84718 51.4978 8.86348L57.3145 9.40598C57.5102 9.42398 57.6969 9.49688 57.8532 9.61631C58.0094 9.73573 58.1288 9.89685 58.1977 10.0812C58.2666 10.2655 58.2823 10.4655 58.2428 10.6583C58.2033 10.851 58.1103 11.0288 57.9745 11.171L53.6653 15.6833C53.546 15.8079 53.4594 15.96 53.4132 16.1263C53.367 16.2925 53.3628 16.4676 53.4007 16.6359L54.7028 22.4608C54.7468 22.654 54.735 22.8559 54.6687 23.0427C54.6025 23.2295 54.4845 23.3936 54.3287 23.5159C54.1728 23.6381 53.9854 23.7135 53.7883 23.7331C53.5913 23.7527 53.3927 23.7158 53.2159 23.6268L47.5661 20.8101C47.4182 20.7365 47.255 20.6991 47.0898 20.7009C46.9246 20.7027 46.7622 20.7436 46.6159 20.8204L41.3193 23.5946C41.17 23.6748 41.0033 23.7167 40.8339 23.7167C40.6817 23.716 40.5314 23.682 40.3936 23.6172C40.2558 23.5524 40.1337 23.4582 40.036 23.3414C39.9382 23.2245 39.867 23.0877 39.8274 22.9405C39.7878 22.7933 39.7808 22.6393 39.8067 22.489L40.8185 16.6488C40.8492 16.4709 40.8336 16.2881 40.773 16.1181C40.7125 15.9481 40.6092 15.7965 40.4731 15.6782L36.3167 12.0786C36.1703 11.9518 36.0619 11.7868 36.0037 11.602C35.9455 11.4171 35.9397 11.2197 35.987 11.0318C36.0342 10.8438 36.1327 10.6727 36.2714 10.5375C36.4101 10.4023 36.5836 10.3083 36.7725 10.266L42.7946 8.90976C42.9506 8.87452 43.0964 8.80393 43.2209 8.70341C43.3453 8.6029 43.445 8.47514 43.5124 8.32997L46.0034 2.97951C46.0857 2.79754 46.2192 2.64351 46.3874 2.53621C46.5557 2.42891 46.7516 2.373 46.9511 2.3753M46.9511 0.318416C46.36 0.314835 45.7805 0.481991 45.282 0.799844C44.7834 1.1177 44.387 1.57276 44.1403 2.11047L41.8599 7.011L36.3244 8.25541C35.7653 8.38158 35.252 8.66044 34.8416 9.06102C34.4312 9.46159 34.1397 9.96821 33.9995 10.5246C33.8593 11.081 33.8758 11.6655 34.0473 12.213C34.2189 12.7606 34.5386 13.2498 34.971 13.6264L38.6947 16.8558L37.7818 22.1265C37.7043 22.5724 37.7251 23.0299 37.8428 23.4669C37.9605 23.904 38.1722 24.3099 38.4631 24.6564C38.754 25.0029 39.117 25.2815 39.5268 25.4727C39.9366 25.6639 40.3831 25.7631 40.8352 25.7633C41.3362 25.762 41.8295 25.6399 42.2733 25.4072L47.1128 22.8824L52.3003 25.469C52.8249 25.7304 53.4128 25.8377 53.9958 25.7784C54.5788 25.719 55.1331 25.4955 55.5944 25.1338C56.0557 24.772 56.4052 24.2867 56.6024 23.7343C56.7995 23.1818 56.8363 22.5847 56.7084 22.0121L55.5233 16.7156L59.4588 12.598C59.8614 12.1762 60.1372 11.6494 60.2544 11.0779C60.3717 10.5065 60.3258 9.91349 60.1219 9.36695C59.9181 8.82041 59.5645 8.34244 59.1018 7.98782C58.6391 7.63321 58.086 7.4163 57.5058 7.36195L52.2413 6.87087L49.7027 1.9922C49.442 1.48778 49.0475 1.06498 48.5625 0.770188C48.0776 0.475393 47.521 0.319978 46.9536 0.320986L46.9511 0.318416Z" fill="#FFF12E"/>
    <path d="M50.9541 11.667L54.2682 11.9267" stroke="white" stroke-width="0.85184" stroke-miterlimit="10" stroke-linecap="round"/>
    <path d="M18.7754 11.4805L22.2192 12.1297" stroke="white" stroke-width="0.85184" stroke-miterlimit="10" stroke-linecap="round"/>
    <path d="M27.8018 10.875L34.8537 10.875" stroke="#FFF12E" stroke-width="1.27776" stroke-miterlimit="10"/>
    <path d="M11.0162 40.6758L13.615 42.554C10.2766 49.6875 5.15583 52.5067 1.90466 51.5593C-1.09997 50.3097 1.76599 46.1227 5.143 43.1145" stroke="#0F1C2C" stroke-width="1.2" stroke-linecap="round" stroke-linejoin="round"/>
    <path d="M12.3467 32.2158C15.1805 39.1655 21.7574 39.1655 23.2751 32.2158" stroke="#0F1C2C" stroke-width="1.5972" stroke-miterlimit="10" stroke-linecap="round"/>
    <path d="M41.7344 32.2158C44.3923 39.1655 50.5621 39.1655 51.9861 32.2158" stroke="#0F1C2C" stroke-width="1.5972" stroke-miterlimit="10" stroke-linecap="round"/>
    <path d="M32.9723 44.7605C35.1179 44.6924 36.0218 42.1804 36.1335 38.4922C36.1502 37.9085 36.0963 37.8378 35.5788 37.9098C34.6261 38.0384 33.6245 38.0384 32.9247 38.0487C31.8757 38.0692 30.8921 38.1014 30.2475 38.0564C29.8803 38.0307 29.8033 38.0474 29.7339 38.4485C29.4412 40.2392 30.1705 44.8492 32.9723 44.7605Z" fill="#0F1C2C"/>
    <mask id="mask0_69_5051" style="mask-type:alpha" maskUnits="userSpaceOnUse" x="29" y="37" width="8" height="8">
      <path d="M32.9723 44.7605C35.1179 44.6924 36.0218 42.1804 36.1335 38.4922C36.1502 37.9085 36.0963 37.8378 35.5788 37.9098C34.6261 38.0384 33.6245 38.0384 32.9247 38.0487C31.8757 38.0692 30.8921 38.1014 30.2475 38.0564C29.8803 38.0307 29.8033 38.0474 29.7339 38.4485C29.4412 40.2392 30.1705 44.8492 32.9723 44.7605Z" fill="black"/>
    </mask>
    <g mask="url(#mask0_69_5051)">
      <path d="M35.7913 51.7672C36.7749 50.3659 37.1178 48.0815 36.6208 46.1185C35.8825 43.2054 33.561 42.0536 31.9752 41.9597C31.5476 41.9353 29.1709 41.7939 27.9485 44.3187C27.0574 46.1583 27.1999 48.5469 27.8843 50.1564C29.3558 53.621 33.8062 54.5941 35.7913 51.7672Z" fill="#C917CF"/>
    </g>
    <path d="M22.0608 71.9385C19.9383 71.9385 15.0231 73.4811 13.9445 76.2296L13.7262 76.5022C13.7262 76.5022 10.6984 81.9709 15.9732 81.9709C17.9108 81.9709 24.6918 82.2679 25.2735 81.7549C26.9748 80.256 25.2054 76.4392 25.5033 75.5586C26.641 72.1943 23.0662 71.9385 22.0608 71.9385Z" fill="white" stroke="#0F1C2C" stroke-width="1.2" stroke-linecap="round" stroke-linejoin="round"/>
    <path d="M25.1602 75.8408L13.7246 76.5029" stroke="#0F1C2C" stroke-width="1.2" stroke-linecap="round" stroke-linejoin="round"/>
    <path d="M43.1404 71.8365C45.0356 70.8775 50.1166 70.0368 52.3174 72.0024L52.6345 72.1464C52.6345 72.1464 57.8002 75.6598 53.0929 78.0419C51.3633 78.9161 45.4453 82.2431 44.6954 82.049C42.501 81.4795 42.361 77.2731 41.6997 76.6226C39.1676 74.1338 42.2429 72.2903 43.1404 71.8365Z" fill="white" stroke="#0F1C2C" stroke-width="1.2" stroke-linecap="round" stroke-linejoin="round"/>
    <path d="M42.1289 76.7192L52.6336 72.1465" stroke="#0F1C2C" stroke-width="1.2" stroke-linecap="round" stroke-linejoin="round"/>
    <g opacity="0.25">
      <path d="M9.70144 23.31L15.3512 20.4947C15.4992 20.4207 15.6626 20.3829 15.828 20.3845C15.9934 20.3861 16.1561 20.4269 16.3027 20.5037L21.598 23.2792C21.7709 23.3695 21.9656 23.4096 22.1601 23.395C22.3546 23.3804 22.5411 23.3116 22.6987 23.1965C22.8562 23.0815 22.9785 22.9246 23.0518 22.7436C23.125 22.5626 23.1463 22.3648 23.1132 22.1723L22.1938 16.8617C20.0469 16.0518 17.7562 15.8114 15.0751 16.0338C13.0797 16.2154 11.1221 16.6919 9.26615 17.4479L8.21581 22.144C8.17253 22.3371 8.18478 22.5384 8.25115 22.7248C8.31752 22.9111 8.43529 23.0748 8.5908 23.1968C8.7463 23.3189 8.93318 23.3943 9.12976 23.4143C9.32633 23.4344 9.52456 23.3982 9.70144 23.31Z" fill="url(#paint3_linear_69_5051)"/>
      <path d="M39.8484 22.4904C39.815 22.6829 39.8362 22.8808 39.9094 23.0619C39.9826 23.2429 40.1049 23.3999 40.2626 23.5149C40.4203 23.6299 40.6069 23.6985 40.8015 23.7128C40.9961 23.7272 41.1907 23.6867 41.3635 23.596L46.6589 20.8269C46.8054 20.7503 46.968 20.7094 47.1334 20.7076C47.2987 20.7058 47.4622 20.7432 47.6103 20.8166L53.2601 23.6333C53.437 23.7213 53.6353 23.7573 53.8318 23.7372C54.0284 23.7171 54.2152 23.6417 54.3708 23.5197C54.5263 23.3977 54.6442 23.2342 54.7108 23.0479C54.7774 22.8617 54.7899 22.6604 54.747 22.4673L54.0921 19.5375C51.6525 17.8509 48.8584 16.897 46.2467 16.5088C44.2975 16.2414 42.5294 16.2645 40.8653 16.6206C40.8647 16.6322 40.8647 16.6438 40.8653 16.6553L39.8484 22.4904Z" fill="url(#paint4_linear_69_5051)"/>
    </g>
    <path d="M56.1237 55.9981H50.2518C49.1835 55.9981 48.5646 55.0069 48.9819 53.963L55.1131 37.508C55.4175 36.7443 56.1892 36.2031 56.9698 36.2031L62.843 36.2031C63.9113 36.2031 64.5289 37.1943 64.1116 38.2382L57.9817 54.6932C57.6761 55.4568 56.9044 55.9981 56.1237 55.9981Z" fill="#0F1C2C" stroke="#0F1C2C" stroke-width="1.0648" stroke-linecap="round" stroke-linejoin="round"/>
    <path d="M57.2272 55.9971H51.3553C50.287 55.9971 49.6681 55.0059 50.0854 53.962L56.2167 37.507C56.521 36.7434 57.2927 36.2021 58.0734 36.2021L63.9465 36.2021C65.0148 36.2021 65.6325 37.1933 65.2151 38.2372L59.0852 54.6922C58.7796 55.4559 58.0079 55.9971 57.2272 55.9971Z" fill="white" stroke="#0F1C2C" stroke-width="1.2" stroke-linecap="round" stroke-linejoin="round"/>
    <path d="M58.8039 39.6788C59.0961 39.0868 59.096 38.4897 58.8035 38.345C58.5111 38.2003 58.0371 38.5628 57.7449 39.1548C57.4527 39.7467 57.4529 40.3439 57.7453 40.4886C58.0378 40.6333 58.5117 40.2707 58.8039 39.6788Z" fill="#0F1C2C"/>
    <path d="M57.5391 52.5068C60.066 52.5068 60.025 54.1781 60.025 54.1781" stroke="#0F1C2C" stroke-width="1.2" stroke-linecap="round" stroke-linejoin="round"/>
  </g>
  <defs>
    <linearGradient id="paint0_linear_69_5051" x1="12.1953" y1="90.8755" x2="35.3091" y2="14.5765" gradientUnits="userSpaceOnUse">
      <stop offset="0.16" stop-color="#F214B8"/>
      <stop offset="0.2" stop-color="#F31EC2"/>
      <stop offset="0.33" stop-color="#F63ADD"/>
      <stop offset="0.46" stop-color="#F84EF0"/>
      <stop offset="0.59" stop-color="#FA5AFB"/>
      <stop offset="0.73" stop-color="#FA5EFF"/>
      <stop offset="0.86" stop-color="#FA67FF"/>
      <stop offset="1" stop-color="#FB76FF"/>
    </linearGradient>
    <linearGradient id="paint1_linear_69_5051" x1="83.5758" y1="-1.42575" x2="3.09814" y2="16.1671" gradientUnits="userSpaceOnUse">
      <stop stop-color="#833AE0"/>
      <stop offset="0.34" stop-color="#3F1393"/>
      <stop offset="0.69" stop-color="#240B56"/>
      <stop offset="1" stop-color="#0A031C"/>
    </linearGradient>
    <linearGradient id="paint2_linear_69_5051" x1="82.1977" y1="6.06973" x2="1.8343" y2="23.6382" gradientUnits="userSpaceOnUse">
      <stop stop-color="#833AE0"/>
      <stop offset="0.34" stop-color="#3F1393"/>
      <stop offset="0.69" stop-color="#240B56"/>
      <stop offset="1" stop-color="#0A031C"/>
    </linearGradient>
    <linearGradient id="paint3_linear_69_5051" x1="57.5072" y1="11.1179" x2="7.01364" y2="22.1564" gradientUnits="userSpaceOnUse">
      <stop offset="0.16" stop-color="#F214B8"/>
      <stop offset="0.2" stop-color="#F31EC2"/>
      <stop offset="0.33" stop-color="#F63ADD"/>
      <stop offset="0.46" stop-color="#F84EF0"/>
      <stop offset="0.59" stop-color="#FA5AFB"/>
      <stop offset="0.73" stop-color="#FA5EFF"/>
      <stop offset="0.86" stop-color="#FA67FF"/>
      <stop offset="1" stop-color="#FB76FF"/>
    </linearGradient>
    <linearGradient id="paint4_linear_69_5051" x1="67.7478" y1="15.7079" x2="18.8877" y2="26.3898" gradientUnits="userSpaceOnUse">
      <stop offset="0.16" stop-color="#F214B8"/>
      <stop offset="0.2" stop-color="#F31EC2"/>
      <stop offset="0.33" stop-color="#F63ADD"/>
      <stop offset="0.46" stop-color="#F84EF0"/>
      <stop offset="0.59" stop-color="#FA5AFB"/>
      <stop offset="0.73" stop-color="#FA5EFF"/>
      <stop offset="0.86" stop-color="#FA67FF"/>
      <stop offset="1" stop-color="#FB76FF"/>
    </linearGradient>
    <clipPath id="clip0_69_5051">
      <rect width="66" height="83" fill="white"/>
    </clipPath>
  </defs>
</svg>
