<svg width="84" height="92" viewBox="0 0 84 92" fill="none" xmlns="http://www.w3.org/2000/svg">
  <g clip-path="url(#clip0_69_5142)">
    <path d="M48.1992 90.0345C62.1889 90.8131 67.2115 91.4273 72.3121 91.3563C73.5991 91.3409 79.6802 91.2643 79.9825 89.6695C80.3154 87.9229 74.1757 86.1498 74.3234 84.8433C74.4529 83.6901 77.2483 83.4282 83.1693 83.4505" stroke="#0F1C2C" stroke-width="1.2" stroke-linecap="round" stroke-linejoin="round"/>
    <path d="M68.9013 62.8726L75.7262 55.2802C75.9678 55.0112 76.26 54.7925 76.5861 54.6366C76.9123 54.4806 77.2659 54.3904 77.6269 54.3711C77.9879 54.3518 78.3492 54.4039 78.6901 54.5242C79.031 54.6446 79.3448 54.831 79.6136 55.0726C80.1565 55.5608 80.4832 56.2444 80.5221 56.9734C80.5611 57.7024 80.3089 58.4169 79.8212 58.9601L53.1496 88.6346L49.0547 84.9547L56.3518 76.8358" fill="white"/>
    <path d="M68.9013 62.8726L75.7262 55.2802C75.9678 55.0112 76.26 54.7925 76.5861 54.6366C76.9123 54.4806 77.2659 54.3904 77.6269 54.3711C77.9879 54.3518 78.3492 54.4039 78.6901 54.5242C79.031 54.6446 79.3448 54.831 79.6136 55.0726C80.1565 55.5608 80.4832 56.2444 80.5221 56.9734C80.5611 57.7024 80.3089 58.4169 79.8212 58.9601L53.1496 88.6346L49.0547 84.9547L56.3518 76.8358M66.5766 65.4591L58.6239 74.3078" stroke="#0F1C2C" stroke-width="1.2" stroke-linecap="round" stroke-linejoin="round"/>
    <path d="M48.4366 90.6196L53.1514 88.6348L49.055 84.9521L47.5814 89.8522C47.5468 89.9676 47.5458 90.0904 47.5784 90.2064C47.611 90.3223 47.676 90.4266 47.7656 90.5071C47.8553 90.5875 47.966 90.6408 48.0848 90.6608C48.2036 90.6807 48.3256 90.6664 48.4366 90.6196Z" fill="white" stroke="#0F1C2C" stroke-width="1.2" stroke-linejoin="round"/>
    <path d="M52.5938 56.0525C53.3375 55.8714 63.4245 53.6178 67.3579 63.2953C67.3579 63.2953 69.404 61.6336 71.645 64.8274" stroke="#0F1C2C" stroke-width="1.2" stroke-linecap="round" stroke-linejoin="round"/>
    <path d="M27.5853 32.4215C24.2016 31.2586 20.9843 29.6586 18.0151 27.6622C13.7906 24.8041 10.2389 20.8289 7.93234 21.7941C7.63742 21.9035 7.38612 22.1059 7.21641 22.3708C6.35146 23.8347 8.95747 26.7903 9.77924 27.7221C10.8629 28.9492 12.7655 30.7599 15.8492 32.2335C13.0636 31.4577 10.1149 31.1777 8.54797 31.2307C6.48796 31.3003 6.38628 31.8156 6.07707 32.3811C5.65922 33.1556 6.1676 34.1918 6.42389 34.6849C6.94063 35.6933 8.18165 37.4274 13.987 39.8384C16.3674 40.8246 17.9371 41.2703 17.8744 41.6658C17.7561 42.4207 11.8978 41.436 11.1568 43.3442C10.8657 44.0949 11.4938 44.9655 11.5844 45.0908C12.6095 46.5087 14.8032 46.4837 19.8481 46.2692C22.8483 46.1438 25.3819 46.0157 27.2719 45.9126L27.5853 32.4215Z" fill="white" stroke="#0F1C2C" stroke-width="1.2" stroke-linejoin="round"/>
    <path d="M53.6758 25.9226C57.5674 20.9501 59.2012 17.7563 61.0397 15.0793C62.7752 12.5513 64.4814 10.3074 65.8088 10.6682C66.6445 10.8938 66.9886 12.0485 67.0847 12.3633C68.4873 16.9777 62.349 23.2678 62.3936 23.2957C62.4382 23.3235 65.9216 18.3246 68.0039 18.6519C70.5612 19.0531 69.4414 22.531 67.029 24.91C67.5967 24.5874 68.1908 24.3134 68.8048 24.091C70.1461 23.6035 72.0265 22.921 73.0279 23.7971C73.3342 24.1247 73.5338 24.5375 73.6004 24.981C73.879 27.0703 70.0723 30.4786 62.6972 34.9036C59.8266 32.1736 56.5436 28.6525 53.6758 25.9226Z" fill="white" stroke="#0F1C2C" stroke-width="1.2" stroke-linejoin="round"/>
    <path d="M32.2945 0.197909C32.1954 0.106095 32.0735 0.0426003 31.9414 0.01407C31.8094 -0.0144602 31.6721 -0.00697512 31.544 0.0357397C31.4158 0.0784545 31.3015 0.154824 31.213 0.256865C31.1245 0.358907 31.0651 0.482866 31.0409 0.615762C30.0325 5.83335 27.4293 20.2339 26.244 29.6189C25.0963 38.7016 23.1922 48.283 22.344 52.8167C22.2781 53.1656 22.3045 53.5257 22.4205 53.8614C22.5366 54.197 22.7383 54.4965 23.0056 54.7302C23.273 54.9639 23.5967 55.1238 23.9449 55.1939C24.293 55.2641 24.6534 55.2421 24.9904 55.1302L37.0524 49.7288L41.341 61.3186C41.4676 61.6634 41.7222 61.9461 42.0519 62.108C42.3816 62.2698 42.761 62.2984 43.1113 62.1877L59.4075 57.0495C59.7632 56.937 60.0608 56.6899 60.2367 56.361C60.4127 56.032 60.453 55.6473 60.3491 55.289L56.899 43.22L69.7549 40.412C70.0925 40.3008 70.3951 40.1033 70.6328 39.8391C70.8705 39.5749 71.035 39.2532 71.1101 38.9058C71.1851 38.5584 71.168 38.1974 71.0605 37.8586C70.9531 37.5199 70.7589 37.2151 70.4973 36.9745C68.2117 34.8755 64.8897 31.3363 60.6569 27.4405C52.272 19.7256 36.9981 4.15219 32.2945 0.197909Z" fill="url(#paint0_linear_69_5142)"/>
    <path d="M44.4805 58.8828C44.4805 58.8828 61.1653 60.2172 58.154 74.2389C58.154 74.2389 59.8184 73.6247 61.7336 76.4145" stroke="#0F1C2C" stroke-width="1.2" stroke-linecap="round" stroke-linejoin="round"/>
    <path d="M37.0244 35.5815C36.328 35.7821 36.0857 36.0105 36.1887 36.7041C37.1387 43.3564 42.3075 44.8244 46.1364 43.7227C49.9653 42.6209 54.006 39.1834 51.9042 32.4615C51.698 31.8027 51.4376 31.4489 50.7425 31.6481L37.0244 35.5815Z" fill="#0F1C2C"/>
    <mask id="mask0_69_5142" style="mask-type:alpha" maskUnits="userSpaceOnUse" x="36" y="31" width="17" height="14">
      <path d="M37.0244 35.5815C36.328 35.7821 36.0857 36.0105 36.1887 36.7041C37.1387 43.3564 42.3075 44.8244 46.1364 43.7227C49.9653 42.6209 54.006 39.1834 51.9042 32.4615C51.698 31.8027 51.4376 31.4489 50.7425 31.6481L37.0244 35.5815Z" fill="black"/>
    </mask>
    <g mask="url(#mask0_69_5142)">
      <path d="M32.8163 45.9217C33.6019 42.4772 38.7902 41.4437 40.3376 41.1373C44.817 40.2459 50.8759 40.9841 51.4609 43.4438C51.8467 45.0679 49.717 46.8995 48.7003 47.7742C43.8392 51.9527 35.5797 52.6491 33.3358 49.1266C32.4277 47.7101 32.7843 46.0652 32.8163 45.9217Z" fill="#FB76FF"/>
      <path d="M50.3101 31.414C51.1458 34.3389 48.5565 34.9783 44.6496 36.1789C40.7427 37.3795 34.7841 37.6901 34.4164 36.165C34.0487 34.6398 39.4125 31.8583 43.3194 30.6563C47.2263 29.4543 49.8839 29.9014 50.3101 31.414Z" fill="white"/>
    </g>
    <path d="M48.5501 26.3996C45.2072 21.9202 42.6834 21.3617 39.7835 22.3604C37.3795 23.1849 35.7234 25.947 35.3125 30.9403" stroke="#0F1C2C" stroke-width="1.91361" stroke-miterlimit="10" stroke-linecap="round"/>
    <path d="M0.781384 70.6409C1.21293 70.6409 1.56277 70.2911 1.56277 69.8595C1.56277 69.428 1.21293 69.0781 0.781384 69.0781C0.349838 69.0781 0 69.428 0 69.8595C0 70.2911 0.349838 70.6409 0.781384 70.6409Z" fill="#0F1C2C"/>
    <path d="M28.0861 78.9202C28.5176 78.9202 28.8675 78.5704 28.8675 78.1388C28.8675 77.7073 28.5176 77.3574 28.0861 77.3574C27.6545 77.3574 27.3047 77.7073 27.3047 78.1388C27.3047 78.5704 27.6545 78.9202 28.0861 78.9202Z" fill="#0F1C2C"/>
    <path d="M19.3615 70.468C19.793 70.468 20.1428 70.1182 20.1428 69.6867C20.1428 69.2551 19.793 68.9053 19.3615 68.9053C18.9299 68.9053 18.5801 69.2551 18.5801 69.6867C18.5801 70.1182 18.9299 70.468 19.3615 70.468Z" fill="#0F1C2C"/>
    <path d="M32.9917 75.3633C32.1264 75.3633 31.3884 74.6762 31.3375 73.8363C31.1594 71.4696 29.1743 69.6372 26.8076 69.6372C26.6803 69.6372 26.5785 69.6372 26.4513 69.6627C26.4004 69.6627 26.3495 69.6627 26.324 69.6627C25.4588 69.6627 24.7208 68.9756 24.6699 68.1357C24.5935 67.2196 25.2806 66.4052 26.1968 66.3289C28.6908 66.1253 30.574 63.9366 30.3705 61.4426C30.2941 60.5265 30.9812 59.7121 31.8974 59.6357C31.9483 59.6357 31.9992 59.6357 32.0246 59.6357C32.8899 59.6357 33.6279 60.3229 33.6788 61.1627C33.8824 63.5295 35.8675 65.3618 38.2088 65.3618C38.336 65.3618 38.4378 65.3618 38.5651 65.3363C38.616 65.3363 38.6669 65.3363 38.6923 65.3363C39.5576 65.3363 40.2956 66.0235 40.3465 66.8633C40.4228 67.7795 39.7357 68.5938 38.8196 68.6702C36.3255 68.8738 34.4423 71.0624 34.6459 73.5564C34.6714 73.989 34.5441 74.4217 34.2642 74.778C33.9842 75.1088 33.577 75.3124 33.119 75.3633C33.0935 75.3633 33.0426 75.3633 32.9917 75.3633Z" fill="white"/>
    <path d="M32.0249 60.2725C32.5594 60.2725 33.0175 60.6796 33.0684 61.2141C33.272 63.9117 35.5624 65.9731 38.2345 65.9731C38.3618 65.9731 38.5145 65.9731 38.6417 65.9476C38.6672 65.9476 38.6926 65.9476 38.7181 65.9476C39.2525 65.9476 39.7106 66.3548 39.7615 66.8892C39.8124 67.4491 39.3797 67.9581 38.8199 68.009C35.9696 68.238 33.8318 70.732 34.0609 73.5823C34.1118 74.1422 33.6791 74.6512 33.1193 74.7021C33.0938 74.7021 33.0684 74.7021 33.0429 74.7021C32.5085 74.7021 32.0504 74.2949 31.9995 73.7605C31.745 71.0629 29.48 69.0015 26.8079 69.0015C26.6806 69.0015 26.5279 69.0015 26.4007 69.0269C26.3752 69.0269 26.3498 69.0269 26.3244 69.0269C25.7899 69.0269 25.3318 68.6198 25.2809 68.0853C25.23 67.5254 25.6627 67.0165 26.2226 66.9656C29.0729 66.7365 31.2106 64.2425 30.9815 61.3922C30.9306 60.8323 31.3633 60.3234 31.9232 60.2725C31.9741 60.2725 31.9995 60.2725 32.0249 60.2725ZM32.0249 59C31.9741 59 31.8977 59 31.8468 59C31.236 59.0509 30.6761 59.3308 30.269 59.8144C29.8618 60.2725 29.6582 60.8832 29.7091 61.494C29.8872 63.6317 28.2839 65.515 26.1208 65.6931C25.51 65.744 24.9501 66.024 24.5429 66.5075C24.1357 66.9656 23.9576 67.5763 24.0085 68.1871C24.1103 69.3832 25.1028 70.3248 26.2989 70.3248C26.3498 70.3248 26.4261 70.3248 26.477 70.3248C26.5788 70.3248 26.6806 70.3248 26.7824 70.3248C28.7929 70.3248 30.5235 71.9027 30.6761 73.9132C30.7779 75.1093 31.7705 76.0509 32.9666 76.0509C33.0175 76.0509 33.0938 76.0509 33.1447 76.0509C33.7555 76 34.3154 75.7201 34.7226 75.2365C35.1297 74.7784 35.3079 74.1677 35.257 73.5569C35.0788 71.4192 36.6821 69.5359 38.8453 69.3578C39.4561 69.3069 40.016 69.0269 40.4232 68.5434C40.8303 68.0853 41.0085 67.4746 40.9576 66.8638C40.8558 65.6677 39.8633 64.726 38.6672 64.726C38.6163 64.726 38.5399 64.726 38.489 64.726C38.3872 64.726 38.2854 64.726 38.1836 64.726C36.1732 64.726 34.4426 63.1482 34.2899 61.1377C34.2136 59.9416 33.2211 59 32.0249 59Z" fill="#0F1C2C"/>
    <path d="M17.8516 84.1276C17.2926 84.074 16.8584 83.5844 16.8776 83.0388C16.9091 81.4989 15.7403 80.1923 14.2114 80.0457C14.1292 80.0378 14.0635 80.0315 13.9797 80.04C13.9468 80.0369 13.914 80.0337 13.8975 80.0321C13.3386 79.9785 12.9044 79.489 12.9235 78.9433C12.931 78.3468 13.4253 77.8633 14.0218 77.8707C15.6455 77.8937 16.9976 76.5965 17.0206 74.9728C17.028 74.3763 17.5223 73.8928 18.1189 73.9002C18.1517 73.9033 18.1846 73.9065 18.2011 73.9081C18.76 73.9617 19.1942 74.4513 19.175 74.9969C19.16 76.5384 20.3287 77.845 21.8412 77.99C21.9234 77.9979 21.9891 78.0042 22.0729 77.9957C22.1058 77.9988 22.1387 78.002 22.1551 78.0035C22.714 78.0571 23.1482 78.5467 23.1291 79.0924C23.1217 79.6889 22.6273 80.1724 22.0308 80.165C20.4071 80.142 19.055 81.4392 19.0321 83.0629C19.0217 83.3439 18.9127 83.6155 18.7098 83.8283C18.5085 84.0247 18.2328 84.131 17.9338 84.1355C17.9173 84.1339 17.8844 84.1308 17.8516 84.1276Z" fill="white"/>
    <path d="M18.1618 74.3191C18.507 74.3522 18.7777 74.6436 18.7774 74.9919C18.7419 76.7471 20.0937 78.2206 21.8199 78.3861C21.9021 78.394 22.0007 78.4035 22.0845 78.3949C22.1009 78.3965 22.1174 78.3981 22.1338 78.3997C22.479 78.4328 22.7497 78.7242 22.7495 79.0725C22.7477 79.4374 22.4367 79.7394 22.0719 79.7376C20.2165 79.709 18.6811 81.1876 18.6525 83.043C18.6507 83.4079 18.3397 83.7098 17.9749 83.708C17.9584 83.7065 17.942 83.7049 17.9255 83.7033C17.5803 83.6702 17.3096 83.3788 17.3098 83.0304C17.3125 81.2721 15.9771 79.8002 14.251 79.6347C14.1688 79.6268 14.0701 79.6173 13.9863 79.6259C13.9699 79.6243 13.9535 79.6227 13.937 79.6211C13.5918 79.588 13.3211 79.2966 13.3213 78.9483C13.3231 78.5834 13.6341 78.2814 13.999 78.2832C15.8544 78.3118 17.3898 76.8332 17.4184 74.9778C17.4202 74.6129 17.7312 74.3109 18.096 74.3128C18.1289 74.3159 18.1453 74.3175 18.1618 74.3191ZM18.2406 73.4971C18.2077 73.4939 18.1584 73.4892 18.1255 73.486C17.7278 73.4811 17.3488 73.6272 17.0558 73.9144C16.7644 74.1851 16.595 74.567 16.5901 74.9647C16.5728 76.3567 15.4204 77.4739 14.012 77.455C13.6143 77.45 13.2353 77.5962 12.9423 77.8833C12.6509 78.154 12.498 78.5375 12.4931 78.9352C12.4847 79.7142 13.0675 80.3839 13.8402 80.458C13.8731 80.4611 13.9224 80.4659 13.9553 80.469C14.021 80.4753 14.0868 80.4816 14.1525 80.4879C15.4513 80.6125 16.4714 81.7389 16.4455 83.0471C16.4372 83.8261 17.02 84.4958 17.7927 84.5699C17.8255 84.573 17.8749 84.5778 17.9077 84.5809C18.3054 84.5859 18.6845 84.4397 18.9774 84.1526C19.2688 83.8819 19.4218 83.4984 19.4267 83.1007C19.444 81.7087 20.5964 80.5915 22.0048 80.6104C22.4025 80.6154 22.7815 80.4692 23.0745 80.1821C23.3659 79.9114 23.5188 79.5279 23.5237 79.1302C23.5321 78.3512 22.9493 77.6815 22.1766 77.6074C22.1437 77.6043 22.0944 77.5995 22.0615 77.5964C21.9958 77.5901 21.93 77.5838 21.8643 77.5775C20.5655 77.4529 19.5454 76.3265 19.5713 75.0183C19.596 74.2409 19.0132 73.5712 18.2406 73.4971Z" fill="#0F1C2C"/>
    <path d="M9.08655 71.8181C8.7032 71.688 8.4795 71.2727 8.58316 70.893C8.85993 69.8176 8.25587 68.7075 7.2073 68.3518C7.15092 68.3327 7.10582 68.3174 7.04562 68.3096C7.02307 68.3019 7.00052 68.2943 6.98925 68.2904C6.6059 68.1604 6.3822 67.7451 6.48586 67.3653C6.58973 66.948 7.01654 66.6904 7.43391 66.7943C8.56945 67.0789 9.73272 66.3923 10.0173 65.2568C10.1212 64.8394 10.548 64.5819 10.9654 64.6857C10.9879 64.6934 11.0105 64.701 11.0218 64.7048C11.4051 64.8349 11.6288 65.2502 11.5252 65.6299C11.2597 66.7091 11.8637 67.8192 12.901 68.1711C12.9574 68.1902 13.0025 68.2055 13.0627 68.2134C13.0852 68.221 13.1078 68.2287 13.1191 68.2325C13.5024 68.3625 13.7261 68.7779 13.6225 69.1576C13.5186 69.575 13.0918 69.8325 12.6744 69.7286C11.5389 69.444 10.3756 70.1306 10.091 71.2662C10.0372 71.4617 9.91584 71.6342 9.73827 71.75C9.56452 71.8545 9.35352 71.8835 9.14293 71.8372C9.13165 71.8334 9.1091 71.8257 9.08655 71.8181Z" fill="white"/>
    <path d="M10.9266 64.9866C11.1634 65.0669 11.3052 65.3162 11.2474 65.5606C10.9322 66.7863 11.6371 68.0438 12.821 68.4454C12.8774 68.4645 12.945 68.4875 13.0052 68.4953C13.0165 68.4992 13.0278 68.503 13.039 68.5068C13.2758 68.5871 13.4176 68.8364 13.3598 69.0808C13.2982 69.3365 13.03 69.497 12.7743 69.4354C11.4771 69.1085 10.1552 69.8921 9.82831 71.1894C9.76671 71.4451 9.49855 71.6055 9.24285 71.5439C9.23157 71.5401 9.2203 71.5363 9.20902 71.5325C8.97225 71.4522 8.8305 71.2029 8.88826 70.9585C9.18093 69.7251 8.48726 68.4714 7.3034 68.0698C7.24702 68.0507 7.17937 68.0278 7.11917 68.0199C7.1079 68.0161 7.09662 68.0123 7.08535 68.0084C6.84857 67.9281 6.70682 67.6789 6.76459 67.4345C6.82618 67.1788 7.09435 67.0183 7.35005 67.0799C8.64726 67.4068 9.96918 66.6231 10.2961 65.3259C10.3577 65.0702 10.6258 64.9097 10.8815 64.9713C10.9041 64.9789 10.9154 64.9828 10.9266 64.9866ZM11.1179 64.4229C11.0953 64.4152 11.0615 64.4037 11.0389 64.3961C10.7607 64.3268 10.4706 64.3667 10.2175 64.5197C9.96826 64.6615 9.78627 64.9015 9.71702 65.1797C9.47467 66.1536 8.48133 66.747 7.49618 66.5008C7.21794 66.4316 6.92781 66.4715 6.67475 66.6245C6.4255 66.7662 6.25479 67.0101 6.18554 67.2883C6.05088 67.8335 6.34909 68.3999 6.87901 68.5796C6.90156 68.5873 6.93539 68.5988 6.95794 68.6064C7.00304 68.6217 7.04814 68.637 7.09324 68.6523C7.98396 68.9545 8.51352 69.9136 8.27902 70.8273C8.14436 71.3725 8.44257 71.9388 8.97249 72.1186C8.99504 72.1262 9.02886 72.1377 9.05141 72.1453C9.32966 72.2146 9.61978 72.1747 9.87285 72.0217C10.1221 71.8799 10.2928 71.6361 10.3621 71.3578C10.6044 70.384 11.5978 69.7906 12.5829 70.0368C12.8611 70.106 13.1513 70.0661 13.4043 69.9131C13.6536 69.7713 13.8243 69.5275 13.8935 69.2493C14.0282 68.7041 13.73 68.1377 13.2001 67.958C13.1775 67.9503 13.1437 67.9388 13.1211 67.9312C13.076 67.9159 13.0309 67.9006 12.9858 67.8853C12.0951 67.5831 11.5656 66.624 11.8001 65.7103C11.946 65.1689 11.6478 64.6026 11.1179 64.4229Z" fill="#0F1C2C"/>
  </g>
  <defs>
    <linearGradient id="paint0_linear_69_5142" x1="65.0419" y1="89.5585" x2="23.3073" y2="-10.0882" gradientUnits="userSpaceOnUse">
      <stop stop-color="#FF7236"/>
      <stop offset="0.08" stop-color="#FF7B35"/>
      <stop offset="0.2" stop-color="#FF9534"/>
      <stop offset="0.37" stop-color="#FFBE31"/>
      <stop offset="0.54" stop-color="#FFF12E"/>
      <stop offset="1" stop-color="#FFE856"/>
    </linearGradient>
    <clipPath id="clip0_69_5142">
      <rect width="84" height="92" fill="white"/>
    </clipPath>
  </defs>
</svg>
