<svg width="56" height="81" viewBox="0 0 56 81" fill="none" xmlns="http://www.w3.org/2000/svg">
  <path d="M7.35156 4.69434C7.35156 4.69434 13.7443 7.80084 17.1846 13.218" stroke="url(#paint0_linear_69_5110)" stroke-width="4.25763" stroke-miterlimit="10" stroke-linecap="round"/>
  <path d="M16.2871 3C16.2871 3 24.4 11.1899 22.9366 19.6365" stroke="url(#paint1_linear_69_5110)" stroke-width="4.25763" stroke-miterlimit="10" stroke-linecap="round"/>
  <path d="M2.93645 66.8246C1.70411 45.1561 1.29333 45.0534 0.702841 37.8391C-0.401124 24.078 0.625822 7.51855 22.32 7.51855C40.5226 7.51855 48.4044 18.6352 47.1207 51.9596C46.7613 60.9453 42.4738 73.4227 39.1876 73.4227C36.3892 73.4227 35.2338 61.2277 33.8475 61.9209C32.4611 62.6141 27.7628 79.2763 21.6268 80.56C17.6474 81.3815 15.5165 64.8477 13.6423 65.0788C11.9736 65.2585 10.5615 74.6037 6.45373 74.4497C4.34849 74.3726 3.2702 73.0119 2.93645 66.8246Z" fill="url(#paint2_linear_69_5110)"/>
  <path d="M32.0251 28.9821C31.8197 32.9872 30.7927 33.8601 29.7658 33.6034C28.6361 33.3466 27.8916 30.7279 27.8916 28.2119" stroke="#0F1C2C" stroke-width="1.28368" stroke-miterlimit="10" stroke-linecap="round" stroke-linejoin="round"/>
  <path d="M39.5205 21.3566C39.5205 21.3566 36.0802 23.6929 29.6105 23.8213C23.1407 23.9497 16.3115 21.8187 16.3115 21.8187C16.3115 21.8187 20.3166 14.7842 28.8402 14.7842C35.2843 14.7842 39.5205 21.3566 39.5205 21.3566Z" fill="white"/>
  <mask id="mask0_69_5110" style="mask-type:luminance" maskUnits="userSpaceOnUse" x="16" y="14" width="24" height="10">
    <path d="M39.5195 21.3566C39.5195 21.3566 36.0792 23.6929 29.6095 23.8213C23.1397 23.9497 16.3105 21.8187 16.3105 21.8187C16.3105 21.8187 19.5711 14.7842 28.8393 14.7842C35.2833 14.7842 39.5195 21.3566 39.5195 21.3566Z" fill="white"/>
  </mask>
  <g mask="url(#mask0_69_5110)">
    <path d="M29.1998 18.0701C28.0958 21.5874 30.0727 24.925 33.5899 25.5155C37.1329 26.106 39.5976 24.7196 40.7015 21.1766C41.8055 17.6337 39.8286 14.3218 36.3113 13.7313C32.7941 13.1408 30.3037 14.5272 29.1998 18.0701Z" fill="#0F1C2C"/>
  </g>
  <path d="M40.5479 26.8256C42.2636 26.8256 43.6544 26.2624 43.6544 25.5676C43.6544 24.8728 42.2636 24.3096 40.5479 24.3096C38.8322 24.3096 37.4414 24.8728 37.4414 25.5676C37.4414 26.2624 38.8322 26.8256 40.5479 26.8256Z" fill="#FCA1FF"/>
  <path d="M16.7483 27.5952C18.8185 27.5952 20.4967 26.9515 20.4967 26.1574C20.4967 25.3634 18.8185 24.7197 16.7483 24.7197C14.6782 24.7197 13 25.3634 13 26.1574C13 26.9515 14.6782 27.5952 16.7483 27.5952Z" fill="#FCA1FF"/>
  <path d="M41.5237 41.7676H20.42C16.1068 41.9216 13.7705 44.643 15.1312 48.0063C16.5433 51.4465 20.343 54.2449 23.6549 54.2449C26.1709 54.2449 28.1734 52.6275 28.9693 50.3169H33.2311C34.0783 52.6275 36.1579 54.2449 38.7766 54.2449C42.1912 54.2449 46.0936 51.4465 47.5056 48.0063C48.892 44.566 46.222 41.7676 41.5237 41.7676Z" fill="white"/>
  <path d="M41.5237 41.7676H20.42C16.1068 41.9216 13.7705 44.643 15.1312 48.0063C16.5433 51.4465 20.8821 54.2449 24.194 54.2449C26.71 54.2449 28.7126 52.6275 29.5084 50.3169H33.7703C34.6175 52.6275 36.6971 54.2449 39.3158 54.2449C42.7304 54.2449 46.0936 51.4465 47.5056 48.0063C48.892 44.566 46.222 41.7676 41.5237 41.7676Z" stroke="#0F1C2C" stroke-width="1.40681" stroke-miterlimit="10" stroke-linecap="round" stroke-linejoin="round"/>
  <path d="M23.8083 51.0097C24.5015 52.7812 20.5991 55.2715 20.5991 55.2715C17.6467 57.0944 8.63523 59.9185 6.19624 53.1663C3.98831 47.056 6.76106 42.2807 13.5389 40.2268C18.5709 38.7121 20.4964 39.2512 21.2153 40.2268C21.9598 41.2537 21.6004 43.1793 18.9303 43.359C16.3887 43.5387 14.7199 44.1549 14.8996 45.5669C15.1563 47.6978 17.2102 48.6477 22.4733 46.6452C25.0407 45.6696 25.9649 46.3114 26.3757 47.1587C26.7865 47.9802 26.6838 49.5977 23.3976 50.7787C17.9291 52.7298 14.4118 51.4975 14.4118 51.4975" fill="white"/>
  <path d="M23.8083 51.0097C24.5015 52.7812 20.5991 55.2715 20.5991 55.2715C17.6467 57.0944 8.63523 59.9185 6.19624 53.1663C3.98831 47.056 6.76106 42.2807 13.5389 40.2268C18.5709 38.7121 20.4964 39.2512 21.2153 40.2268C21.9598 41.2537 21.6004 43.1793 18.9303 43.359C16.3887 43.5387 14.7199 44.1549 14.8996 45.5669C15.1563 47.6978 17.2102 48.6477 22.4733 46.6452C25.0407 45.6696 25.9649 46.3114 26.3757 47.1587C26.7865 47.9802 26.6838 49.5977 23.3976 50.7787C17.9291 52.7298 14.4118 51.4975 14.4118 51.4975" stroke="#0F1C2C" stroke-width="1.40681" stroke-miterlimit="10" stroke-linecap="round" stroke-linejoin="round"/>
  <path d="M14.6426 54.8091C14.6426 54.8091 18.2369 55.1686 22.2163 53.9619L14.6426 54.8091Z" fill="white"/>
  <path d="M14.6426 54.8091C14.6426 54.8091 18.2369 55.1686 22.2163 53.9619" stroke="#0F1C2C" stroke-width="1.40681" stroke-miterlimit="10" stroke-linecap="round"/>
  <path d="M40.0089 51.189C39.7521 53.0632 44.168 54.5266 44.168 54.5266C47.4799 55.5792 53.3335 56.1697 54.4375 49.5973C55.5928 42.7938 50.4837 38.0442 44.0653 38.7887C41.3439 39.0968 40.2656 39.79 39.9319 40.6372C39.4441 41.8182 40.2399 42.9221 42.91 42.6141C45.9138 42.2546 46.9151 43.0248 47.1461 44.2315C47.3772 45.5152 46.761 47.2096 41.6263 46.7732C38.7252 46.5164 37.6726 46.9016 37.5442 48.2109C37.3902 49.4946 38.4171 50.6242 41.1642 50.9323C46.9408 51.5998 49.2771 49.4176 49.2771 49.4176" fill="white"/>
  <path d="M40.0089 51.189C39.7521 53.0632 44.168 54.5266 44.168 54.5266C47.4799 55.5792 53.3335 56.1697 54.4375 49.5973C55.5928 42.7938 50.4837 38.0442 44.0653 38.7887C41.3439 39.0968 40.2656 39.79 39.9319 40.6372C39.4441 41.8182 40.2399 42.9221 42.91 42.6141C45.9138 42.2546 46.9151 43.0248 47.1461 44.2315C47.3772 45.5152 46.761 47.2096 41.6263 46.7732C38.7252 46.5164 37.6726 46.9015 37.5442 48.2109C37.3902 49.4946 38.4171 50.6242 41.1642 50.9323C46.9408 51.5998 49.2771 49.4176 49.2771 49.4176" stroke="#0F1C2C" stroke-width="1.40681" stroke-miterlimit="10" stroke-linecap="round" stroke-linejoin="round"/>
  <path d="M49.3031 52.6777C49.3031 52.6777 46.0426 54.4235 42.2686 53.679L49.3031 52.6777Z" fill="white"/>
  <path d="M49.3031 52.6777C49.3031 52.6777 46.0426 54.4235 42.2686 53.679" stroke="#0F1C2C" stroke-width="1.40681" stroke-miterlimit="10" stroke-linecap="round"/>
  <path d="M46.2216 43.1016C45.1176 42.2801 43.5002 41.7666 41.5233 41.7666H20.4196C18.1603 41.8436 16.4402 42.6395 15.5159 43.8462C15.4389 43.9489 15.3619 44.0516 15.3105 44.1542L15.7983 45.823L23.3977 44.1542L46.2216 44.5907V43.1016Z" fill="white"/>
  <path d="M46.5049 43.3327C45.4009 42.3571 43.6808 41.7666 41.5242 41.7666H20.4205C17.7247 41.8693 15.7992 42.9733 15.0547 44.5907" stroke="#0F1C2C" stroke-width="1.40681" stroke-miterlimit="10" stroke-linecap="round" stroke-linejoin="round"/>
  <defs>
    <linearGradient id="paint0_linear_69_5110" x1="19.1887" y1="14.2458" x2="5.68446" y2="3.49317" gradientUnits="userSpaceOnUse">
      <stop offset="0.2" stop-color="#CC6DEF"/>
      <stop offset="1" stop-color="#AC7BF5"/>
    </linearGradient>
    <linearGradient id="paint1_linear_69_5110" x1="26.9197" y1="18.2893" x2="11.91" y2="4.45724" gradientUnits="userSpaceOnUse">
      <stop offset="0.2" stop-color="#CC6DEF"/>
      <stop offset="1" stop-color="#AC7BF5"/>
    </linearGradient>
    <linearGradient id="paint2_linear_69_5110" x1="35.4964" y1="-5.62967" x2="16.4048" y2="69.8879" gradientUnits="userSpaceOnUse">
      <stop stop-color="#FA76FF"/>
      <stop offset="0.00606855" stop-color="#F876FF"/>
      <stop offset="0.0950775" stop-color="#DD75FA"/>
      <stop offset="0.1859" stop-color="#CA74F6"/>
      <stop offset="0.2788" stop-color="#BF73F4"/>
      <stop offset="0.3771" stop-color="#BB73F3"/>
      <stop offset="0.5707" stop-color="#A55DEB"/>
      <stop offset="0.8383" stop-color="#8B43E2"/>
      <stop offset="1" stop-color="#823ADF"/>
    </linearGradient>
  </defs>
</svg>
