<svg width="79" height="74" viewBox="0 0 79 74" fill="none" xmlns="http://www.w3.org/2000/svg">
  <g clip-path="url(#clip0_69_5085)">
    <path d="M75.2456 54.1477C75.2456 52.2782 74.4037 51.6128 72.4608 51.6128L67.5819 51.3403C66.707 51.5165 65.9438 51.8777 65.4371 52.3733C64.7031 53.0944 63.9691 53.8004 63.2351 54.4987C61.5475 56.0716 57.5309 55.8701 56.0096 54.1375C55.3492 53.3682 54.6902 52.5925 54.0324 51.8017C53.5054 51.168 52.6152 50.6838 51.579 50.4456L40.6797 49.8359L40.8714 59.415C40.8714 59.415 45.5141 59.5024 51.3644 59.3073C62.6434 58.927 71.9884 58.0272 71.9884 58.0272C73.8246 57.889 75.2545 57.4023 75.2545 55.6407L75.2456 54.1477Z" fill="#0095E8"/>
    <path d="M27.4515 56.9336C27.4515 56.9336 29.0249 82.5111 16.2411 68.7002L14.5166 72.5455" stroke="#0F1C2C" stroke-width="1.2" stroke-linecap="round" stroke-linejoin="round"/>
    <path d="M40.5326 57.5117C40.5326 57.5117 42.1059 83.0892 29.3221 69.277L27.5977 73.1198" stroke="#0F1C2C" stroke-width="1.2" stroke-linecap="round" stroke-linejoin="round"/>
    <path d="M78.6031 11.9314C78.3682 9.52335 77.9834 7.85671 74.7173 7.84277L62.7475 8.20905L39.6104 9.16595C39.2902 9.17627 38.9758 9.25425 38.688 9.39472C38.4001 9.53519 38.1454 9.73497 37.9406 9.98089L37.9329 9.98976C37.2891 10.792 36.6428 11.5791 35.9964 12.3598C34.5068 14.119 30.494 14.3877 28.7797 12.849C28.033 12.1634 27.2863 11.4714 26.5397 10.7629C26.0482 10.299 25.3269 9.96188 24.5002 9.79204L20.349 9.95807C20.302 9.95807 18.843 9.87949 18.7299 10.901C18.5204 12.7831 18.6131 19.5904 18.6131 19.5904C18.6131 19.617 19.2544 40.3821 18.4747 54.6797C18.3553 56.8749 18.2982 57.9078 19.657 58.2754C31.9303 61.6809 40.2898 59.7722 44.3026 58.866H44.3153C44.9472 58.7159 45.5122 58.3629 45.9235 57.8612C46.3349 57.3596 46.5698 56.737 46.5922 56.0891L47.2868 34.8246C47.2936 34.611 47.3431 34.401 47.4323 34.2068C47.5215 34.0126 47.6487 33.8381 47.8063 33.6936C47.964 33.5491 48.149 33.4375 48.3505 33.3653C48.5519 33.2932 48.7658 33.2619 48.9796 33.2733C50.1313 33.3354 51.438 33.4215 52.8539 33.5166C53.4876 33.7665 54.0532 34.1621 54.5048 34.6712C55.2286 35.5407 55.955 36.3936 56.6813 37.239C58.355 39.1401 62.7767 39.3669 64.6282 37.6369C65.4358 36.8689 66.2435 36.0894 67.0511 35.2986C67.5819 34.7802 68.3692 34.3937 69.2759 34.1909C70.1758 34.1807 71.0673 34.1583 71.9503 34.1237C72.1281 34.1161 75.431 33.8981 75.6253 33.8791C78.7568 33.5762 78.7301 30.7752 78.9269 27.5484C79.0946 24.7639 78.9828 15.8135 78.6031 11.9314Z" fill="url(#paint0_linear_69_5085)"/>
    <path d="M40.8726 20.4264H23.3369V9.82708L40.5234 9.20605L40.8726 20.4264Z" fill="url(#paint1_linear_69_5085)"/>
    <path d="M25.0568 45.9359C25.8156 45.5483 26.389 44.8758 26.651 44.0662C26.9129 43.2567 26.842 42.3764 26.4537 41.6191C26.1667 41.0603 25.7217 40.5978 25.1738 40.2889C24.626 39.98 23.9994 39.8384 23.3717 39.8815L24.1895 39.4633C27.7921 37.6014 27.8175 36.239 27.0772 34.7967L26.8385 34.367C25.8505 32.5546 23.8098 33.8601 22.6847 33.9234L23.6346 33.6433C24.3089 32.9247 25.0708 31.3037 24.2733 29.7562C23.4758 28.2024 21.1621 27.6954 19.6053 28.4888L18.6681 28.869C15.2941 24.8133 11.0019 26.3849 9.01708 27.4622L8.78723 27.5801C7.44425 28.2667 6.24993 29.2107 5.27249 30.358C4.29504 31.5054 3.55362 32.8337 3.09054 34.2671C2.62747 35.7004 2.45182 37.2108 2.57363 38.7119C2.69543 40.213 3.11231 41.6755 3.80045 43.0158L4.09379 43.5861L4.76555 44.8966C5.95334 47.1943 8.00377 48.9297 10.4691 49.7238C12.9345 50.5178 15.6145 50.3061 17.924 49.1348L17.9379 49.1272C18.4808 49.1444 19.0191 49.0236 19.5024 48.7761L25.0568 45.9359Z" fill="white"/>
    <path d="M22.6973 40.2601L25.9075 38.6518C26.5641 38.2847 27.0525 37.6779 27.2701 36.959C27.4877 36.24 27.4176 35.4648 27.0745 34.7963V34.7963C26.3418 33.3705 24.6465 32.9079 23.2179 33.6379" stroke="#0F1C2C" stroke-width="1.2" stroke-linecap="round" stroke-linejoin="round"/>
    <path d="M18.7901 28.9123C17.2929 25.9706 13.3944 25.1835 9.41845 27.2165C5.44248 29.2494 0.0213985 35.6625 3.61006 42.656L3.82467 43.0755C8.75431 52.6723 14.404 51.1172 20.9908 47.7535" stroke="#0F1C2C" stroke-width="1.2" stroke-linecap="round" stroke-linejoin="round"/>
    <path d="M17.8848 36.0922L22.9935 33.7133C23.6883 33.3569 24.2132 32.7402 24.4531 31.9982C24.6931 31.2563 24.6285 30.4497 24.2736 29.7552V29.7552C23.9165 29.0597 23.2973 28.5344 22.5522 28.2946C21.807 28.0547 20.997 28.1201 20.3001 28.4763L15.8213 30.5333" stroke="#0F1C2C" stroke-width="1.2" stroke-linecap="round" stroke-linejoin="round"/>
    <path d="M20.3545 48.0763L25.5787 45.3869C26.2759 45.0296 26.8023 44.4105 27.0421 43.6658C27.2819 42.9212 27.2155 42.1119 26.8575 41.4161V41.4161C26.4982 40.7226 25.8779 40.1997 25.1328 39.9621C24.3876 39.7245 23.5784 39.7916 22.8828 40.1487L20.597 41.3363" stroke="#0F1C2C" stroke-width="1.2" stroke-linecap="round" stroke-linejoin="round"/>
    <path d="M12.5547 30.9485C13.5017 30.6255 14.4978 30.4699 15.4983 30.4888L12.5547 30.9485Z" fill="white"/>
    <path d="M12.5547 30.9485C13.5017 30.6255 14.4978 30.4699 15.4983 30.4888" stroke="#0F1C2C" stroke-width="1.2" stroke-linecap="round" stroke-linejoin="round"/>
    <path d="M23.2374 0.986353C19.3008 7.9292 8.53868 -1.20753 5.26114 7.29296C5.19949 7.45381 5.20222 7.63216 5.26875 7.79105L10.3559 19.7782C10.4041 19.8918 10.4834 19.9896 10.5846 20.0604C10.6859 20.1313 10.805 20.1723 10.9284 20.1789C11.0519 20.1855 11.1747 20.1574 11.283 20.0978C11.3912 20.0381 11.4805 19.9493 11.5407 19.8415C15.4785 12.8911 26.2407 22.0253 29.517 13.5337C29.5787 13.3724 29.576 13.1936 29.5093 13.0343L24.4222 1.04846C24.3738 0.934922 24.2945 0.837232 24.1932 0.766501C24.0919 0.69577 23.9727 0.654839 23.8493 0.648368C23.7258 0.641897 23.603 0.670145 23.4948 0.729897C23.3867 0.789649 23.2975 0.878505 23.2374 0.986353Z" fill="white"/>
    <path d="M23.2331 0.986471C19.2558 7.99396 8.32096 -1.39245 5.16406 7.5491L10.3794 19.8353C10.5775 20.3017 11.2772 20.3005 11.5414 19.8353C15.5186 12.8291 26.4535 22.2142 29.6104 13.274L24.395 0.986471C24.1969 0.516264 23.4972 0.518799 23.2331 0.986471Z" stroke="#0F1C2C" stroke-width="1.26931" stroke-linecap="round" stroke-linejoin="round"/>
    <path d="M14.6019 29.7814L5.27344 7.80078" stroke="#0F1C2C" stroke-width="1.2" stroke-linecap="round" stroke-linejoin="round"/>
    <path d="M58.2321 23.4401C57.7826 23.3869 57.4512 23.5022 57.5185 24.1651C57.8766 27.6657 59.0753 30.2968 60.3503 31.7695C61.6201 33.2904 62.9764 33.6516 63.5961 33.5046C66.0939 32.9317 67.5327 30.1295 67.5809 24.3476C67.5809 23.7658 67.4997 23.43 67.0565 23.4769C64.1231 23.7973 61.1627 23.785 58.2321 23.4401Z" fill="#0F1C2C"/>
    <mask id="mask0_69_5085" style="mask-type:alpha" maskUnits="userSpaceOnUse" x="57" y="23" width="11" height="11">
      <path d="M58.236 23.4401C57.7865 23.3869 57.4551 23.5022 57.5224 24.1651C57.8805 27.6657 59.0792 30.2968 60.3542 31.7695C61.6241 33.2904 62.9803 33.6516 63.6 33.5046C66.0978 32.9317 67.5366 30.1295 67.5848 24.3476C67.5848 23.7658 67.5036 23.43 67.0604 23.4769C64.127 23.7973 61.1667 23.785 58.236 23.4401Z" fill="black"/>
    </mask>
    <g mask="url(#mask0_69_5085)">
      <path d="M55.1125 29.7325C56.428 27.2104 58.5957 27.5297 60.8561 27.9645C63.7095 28.5132 66.935 31.787 66.5502 34.6361C66.2962 36.6639 64.4689 38.6994 63.6015 39.4864C61.5177 41.6081 59.2624 41.3064 57.6217 39.4041C55.9633 37.5752 54.9169 34.1443 54.828 31.6906C54.7505 29.6501 55.054 29.863 55.1125 29.7325Z" fill="#FB76FF"/>
    </g>
    <path d="M37.1729 21.929C39.4383 14.4285 46.1889 14.4589 48.382 21.9797" stroke="#0F1C2C" stroke-width="1.90397" stroke-miterlimit="10" stroke-linecap="round"/>
    <path d="M1.20809 4.75391C0.743316 5.68925 0.192192 7.94777 1.20809 9.90844" stroke="#0F1C2C" stroke-width="1.2" stroke-linecap="round" stroke-linejoin="round"/>
  </g>
  <defs>
    <linearGradient id="paint0_linear_69_5085" x1="3.80768" y1="67.0978" x2="85.9319" y2="-17.0148" gradientUnits="userSpaceOnUse">
      <stop stop-color="#1C7EFF"/>
      <stop offset="0.35" stop-color="#19B5FF"/>
      <stop offset="0.46" stop-color="#18C7FF"/>
      <stop offset="0.53" stop-color="#23CDFE"/>
      <stop offset="0.84" stop-color="#50E9FC"/>
      <stop offset="1" stop-color="#62F3FB"/>
    </linearGradient>
    <linearGradient id="paint1_linear_69_5085" x1="-7.76606" y1="55.8035" x2="74.3581" y2="-28.3091" gradientUnits="userSpaceOnUse">
      <stop stop-color="#1C7EFF"/>
      <stop offset="0.35" stop-color="#19B5FF"/>
      <stop offset="0.46" stop-color="#18C7FF"/>
      <stop offset="0.53" stop-color="#23CDFE"/>
      <stop offset="0.84" stop-color="#50E9FC"/>
      <stop offset="1" stop-color="#62F3FB"/>
    </linearGradient>
    <clipPath id="clip0_69_5085">
      <rect width="79" height="74" fill="white"/>
    </clipPath>
  </defs>
</svg>
