<svg width="24" height="24" viewBox="0 0 24 24" fill="none" xmlns="http://www.w3.org/2000/svg">
  <mask id="path-1-outside-1_1122:2334" maskUnits="userSpaceOnUse" x="2" y="0" width="21" height="24" fill="black">
    <rect fill="white" x="2" width="21" height="24"/>
    <path
      d="M20.4434 15.7357C20.8344 15.2076 21.0219 14.6414 20.998 14.0583C20.974 13.4161 20.7027 12.9134 20.4793 12.6049C20.7386 11.9205 20.8384 10.8431 19.9727 10.0065C19.3383 9.39387 18.2611 9.11924 16.769 9.19529C15.7198 9.24599 14.8421 9.45302 14.8062 9.46147H14.8022C14.6027 9.4995 14.3913 9.54597 14.1758 9.59668C14.1599 9.32627 14.2038 8.65448 14.6745 7.14191C15.2331 5.34203 15.2012 3.96466 14.5708 3.04359C13.9085 2.07605 12.8513 2 12.5401 2C12.2409 2 11.9656 2.13098 11.7701 2.37181C11.3273 2.91684 11.3792 3.92241 11.435 4.38716C10.9084 5.88284 9.40909 8.99379 8.18354 10.5684C7.47727 11.3251 7.3102 11.6585 6.54782 11.6585H5.65965C4.74206 11.6585 4 12.4486 4 13.4161V20.2819C4 21.2536 4.63185 21.4272 5.54545 21.4272H6.54782C7.19212 21.4272 7.60928 21.5495 8.26649 21.6324C8.41012 21.6535 10.9634 21.9958 13.5846 21.9409C14.0593 21.9789 14.5061 22 14.9211 22C15.6352 22 16.2576 21.9408 16.7762 21.8225C17.997 21.5479 19.0072 21.2029 19.4301 20.396C19.7532 19.7791 19.7532 19.1665 19.7014 18.7778C20.4953 18.0172 20.6349 17.1765 20.607 16.5849C20.591 16.2427 20.5192 15.9512 20.4434 15.7357Z"/>
  </mask>
  <path
    d="M20.4434 15.7357C20.8344 15.2076 21.0219 14.6414 20.998 14.0583C20.974 13.4161 20.7027 12.9134 20.4793 12.6049C20.7386 11.9205 20.8384 10.8431 19.9727 10.0065C19.3383 9.39387 18.2611 9.11924 16.769 9.19529C15.7198 9.24599 14.8421 9.45302 14.8062 9.46147H14.8022C14.6027 9.4995 14.3913 9.54597 14.1758 9.59668C14.1599 9.32627 14.2038 8.65448 14.6745 7.14191C15.2331 5.34203 15.2012 3.96466 14.5708 3.04359C13.9085 2.07605 12.8513 2 12.5401 2C12.2409 2 11.9656 2.13098 11.7701 2.37181C11.3273 2.91684 11.3792 3.92241 11.435 4.38716C10.9084 5.88284 9.40909 8.99379 8.18354 10.5684C7.47727 11.3251 7.3102 11.6585 6.54782 11.6585H5.65965C4.74206 11.6585 4 12.4486 4 13.4161V20.2819C4 21.2536 4.63185 21.4272 5.54545 21.4272H6.54782C7.19212 21.4272 7.60928 21.5495 8.26649 21.6324C8.41012 21.6535 10.9634 21.9958 13.5846 21.9409C14.0593 21.9789 14.5061 22 14.9211 22C15.6352 22 16.2576 21.9408 16.7762 21.8225C17.997 21.5479 19.0072 21.2029 19.4301 20.396C19.7532 19.7791 19.7532 19.1665 19.7014 18.7778C20.4953 18.0172 20.6349 17.1765 20.607 16.5849C20.591 16.2427 20.5192 15.9512 20.4434 15.7357Z"
    fill="#38BD60"/>
  <path
    d="M20.4434 15.7357C20.8344 15.2076 21.0219 14.6414 20.998 14.0583C20.974 13.4161 20.7027 12.9134 20.4793 12.6049C20.7386 11.9205 20.8384 10.8431 19.9727 10.0065C19.3383 9.39387 18.2611 9.11924 16.769 9.19529C15.7198 9.24599 14.8421 9.45302 14.8062 9.46147H14.8022C14.6027 9.4995 14.3913 9.54597 14.1758 9.59668C14.1599 9.32627 14.2038 8.65448 14.6745 7.14191C15.2331 5.34203 15.2012 3.96466 14.5708 3.04359C13.9085 2.07605 12.8513 2 12.5401 2C12.2409 2 11.9656 2.13098 11.7701 2.37181C11.3273 2.91684 11.3792 3.92241 11.435 4.38716C10.9084 5.88284 9.40909 8.99379 8.18354 10.5684C7.47727 11.3251 7.3102 11.6585 6.54782 11.6585H5.65965C4.74206 11.6585 4 12.4486 4 13.4161V20.2819C4 21.2536 4.63185 21.4272 5.54545 21.4272H6.54782C7.19212 21.4272 7.60928 21.5495 8.26649 21.6324C8.41012 21.6535 10.9634 21.9958 13.5846 21.9409C14.0593 21.9789 14.5061 22 14.9211 22C15.6352 22 16.2576 21.9408 16.7762 21.8225C17.997 21.5479 19.0072 21.2029 19.4301 20.396C19.7532 19.7791 19.7532 19.1665 19.7014 18.7778C20.4953 18.0172 20.6349 17.1765 20.607 16.5849C20.591 16.2427 20.5192 15.9512 20.4434 15.7357Z"
    stroke="white" stroke-width="3" mask="url(#path-1-outside-1_1122:2334)"/>
  <path
    d="M17.8564 13.6093C17.9784 14.3616 17.5666 15.0542 16.0344 15.3027C14.5021 15.5512 13.8925 15.0243 13.7705 14.2721C13.6485 13.5199 14.4642 12.7618 15.5925 12.5787C16.7208 12.3957 17.7344 12.8571 17.8564 13.6093Z"
    fill="#1B324F"/>
  <path
    d="M10.2175 18.2331C10.1364 17.7332 10.6973 17.3265 11.1805 17.4781C11.7001 17.6411 12.3276 17.7582 12.9205 17.6621C13.5134 17.5659 14.0717 17.2564 14.5132 16.9375C14.9236 16.6409 15.5843 16.8495 15.6654 17.3494V17.3494C15.7339 17.7715 15.5728 18.1996 15.2112 18.4278C14.7232 18.7358 13.9731 19.1315 13.1797 19.2602C12.3863 19.3889 11.5497 19.2505 10.9893 19.1126C10.5742 19.0104 10.2859 18.6551 10.2175 18.2331V18.2331Z"
    fill="#1B324F"/>
  <path
    d="M11.0439 14.7141C10.9219 13.9619 10.3122 13.435 8.77997 13.6835C7.24774 13.9321 6.8359 14.6247 6.95791 15.3769C7.07992 16.1291 8.0935 16.5905 9.22181 16.4075C10.3501 16.2245 11.1659 15.4663 11.0439 14.7141Z"
    fill="#1B324F"/>
</svg>
