<svg width="26" height="24" viewBox="0 0 26 24" fill="none" xmlns="http://www.w3.org/2000/svg">
  <path d="M13 22.3159C15.7482 22.3159 18.5848 21.9694 20.7457 20.5323C22.9706 19.0527 24.3382 16.5179 24.3382 12.4902C24.3382 9.89229 23.7801 7.39261 21.9926 5.55052C20.2026 3.70581 17.3207 2.66461 13 2.66461C8.67925 2.66461 5.79732 3.70581 4.00734 5.55052C2.2199 7.39261 1.66174 9.89229 1.66174 12.4902C1.66174 16.5179 3.02931 19.0527 5.25428 20.5323C7.41512 21.9694 10.2518 22.3159 13 22.3159Z" fill="#FFDC40" stroke="white" stroke-width="1.5"/>
  <path fill-rule="evenodd" clip-rule="evenodd" d="M17.1597 9.0265C16.7055 9.0265 16.3002 9.13237 15.9526 9.27296C15.6997 9.37524 15.4651 9.44174 15.2618 9.46C15.0821 9.47615 14.8053 9.46363 14.6292 9.2629C14.4431 9.05067 14.5111 8.79656 14.585 8.64286C14.6666 8.47293 14.8126 8.29318 15.0024 8.11013C15.4957 7.63415 16.2316 7.17726 17.1597 7.19671C18.0487 7.17808 18.7616 7.59689 19.2526 8.04939C19.4544 8.23542 19.6107 8.4154 19.6995 8.58378C19.7779 8.73233 19.8656 9.00177 19.6555 9.22168C19.4715 9.41428 19.189 9.41759 19.0137 9.40127C18.8073 9.38205 18.564 9.31819 18.2972 9.22024C17.9688 9.0997 17.5908 9.01598 17.1699 9.02637L17.1597 9.0265Z" fill="#1B324F"/>
  <path fill-rule="evenodd" clip-rule="evenodd" d="M8.84363 9.0265C8.38946 9.0265 7.98415 9.13237 7.63656 9.27296C7.3837 9.37524 7.14903 9.44174 6.9458 9.46C6.76607 9.47615 6.48925 9.46363 6.31317 9.2629C6.12702 9.05067 6.19511 8.79656 6.26894 8.64286C6.35057 8.47293 6.49659 8.29318 6.68632 8.11013C7.17966 7.63415 7.91561 7.17726 8.84363 7.19671C9.73262 7.17808 10.4456 7.59689 10.9365 8.04939C11.1384 8.23542 11.2947 8.4154 11.3835 8.58378C11.4619 8.73233 11.5495 9.00177 11.3395 9.22168C11.1555 9.41428 10.8729 9.41759 10.6976 9.40127C10.4912 9.38205 10.248 9.31819 9.98111 9.22024C9.65274 9.0997 9.27474 9.01598 8.85388 9.02637L8.84363 9.0265Z" fill="#1B324F"/>
  <path d="M13 12.0737C11.0123 12.0737 9.15656 11.8867 7.56951 11.5588C6.5273 11.3435 5.50386 12.151 5.9676 13.1089C7.07876 15.404 9.806 17.028 13 17.028C16.1941 17.028 18.9213 15.404 20.0325 13.1089C20.4962 12.151 19.4728 11.3435 18.4306 11.5588C16.8435 11.8867 14.9878 12.0737 13 12.0737Z" fill="#1B324F"/>
  <mask id="mask0_4778_21831" style="mask-type:alpha" maskUnits="userSpaceOnUse" x="5" y="12" width="16" height="7">
    <path d="M13 13.0737C10.5435 13.0737 8.28857 12.7881 6.49323 12.304C5.97948 12.1654 5.46049 12.5552 5.58975 13.0713C6.29787 15.899 9.34298 18.028 13 18.028C16.6571 18.028 19.7022 15.899 20.4103 13.0713C20.5396 12.5552 20.0206 12.1654 19.5068 12.304C17.7115 12.7881 15.4566 13.0737 13 13.0737Z" fill="#1B324F"/>
  </mask>
  <g mask="url(#mask0_4778_21831)">
    <path d="M7.95801 12.7339C7.95801 12.3162 8.29662 11.9776 8.71431 11.9776H17.2857C17.7034 11.9776 18.042 12.3162 18.042 12.7339V13.062C18.042 13.3277 17.9001 13.5698 17.6502 13.66C17.032 13.8829 15.622 14.2465 13 14.2465C10.378 14.2465 8.96804 13.8829 8.34988 13.66C8.09998 13.5698 7.95801 13.3277 7.95801 13.062V12.7339Z" fill="white"/>
  </g>
</svg>
