<svg width="24" height="24" viewBox="0 0 24 24" fill="none" xmlns="http://www.w3.org/2000/svg">
  <path d="M6.61585 5.83946C6.84671 5.6918 7.13973 5.68181 7.38012 5.8134C7.6205 5.945 7.76998 6.19723 7.76998 6.47127C7.76998 7.43941 7.81885 8.54411 8.47196 9.28945C10.5117 7.49882 10.5562 4.97785 10.2108 2.43428C10.1771 2.18614 10.2694 1.93755 10.457 1.77162C10.6445 1.60569 10.9025 1.54432 11.1447 1.60801C13.29 2.17223 14.7539 3.33798 15.4874 5.05613C16.0892 6.46588 16.1617 8.1621 15.8398 10.0436C16.2145 9.91759 16.5671 9.72199 16.8649 9.47327C17.407 9.02045 17.7138 8.44106 17.7138 7.85058C17.7138 7.5451 17.8991 7.27015 18.1822 7.15545C18.4653 7.04076 18.7897 7.10925 19.0024 7.3286C24.4402 12.939 20.1368 23.0833 11.8261 23.0833C8.01044 23.0833 4.19168 20.8573 3.02491 16.903C1.90515 13.108 2.86018 8.2417 6.61585 5.83946Z" fill="#FF7842" stroke="white" stroke-width="1.5" stroke-linecap="round" stroke-linejoin="round"/>
  <path d="M10.6667 14.6667C10.6667 15.9553 10.25 17 9.00004 17C7.75004 17 7.33337 15.9553 7.33337 14.6667C7.33337 13.378 8.07957 12.3333 9.00004 12.3333C9.92052 12.3333 10.6667 13.378 10.6667 14.6667Z" fill="#1B324F"/>
  <path d="M16.6667 14.6667C16.6667 15.9553 16.25 17 15 17C13.75 17 13.3334 15.9553 13.3334 14.6667C13.3334 13.378 14.0796 12.3333 15 12.3333C15.9205 12.3333 16.6667 13.378 16.6667 14.6667Z" fill="#1B324F"/>
  <path d="M9.33337 18.2649C9.33337 17.7981 9.93454 17.5273 10.3317 17.7726C10.8085 18.0671 11.4043 18.3333 12 18.3333C12.5958 18.3333 13.1916 18.0671 13.6684 17.7726C14.0655 17.5273 14.6667 17.7981 14.6667 18.2649C14.6667 18.7407 14.5094 19.2106 14.1395 19.5099C13.6742 19.8863 12.9265 20.3333 12 20.3333C11.0736 20.3333 10.3259 19.8863 9.86062 19.5099C9.49065 19.2106 9.33337 18.7407 9.33337 18.2649Z" fill="#1B324F"/>
</svg>
