<svg width="24" height="24" viewBox="0 0 24 24" fill="none" xmlns="http://www.w3.org/2000/svg">
  <path d="M12 22.0833C16.3634 22.0833 18.8619 21.2882 20.1768 19.5869C20.8279 18.7445 21.1288 17.7517 21.2741 16.7059C21.4167 15.6799 21.4167 14.5382 21.4167 13.3676V13.3333C21.4167 7.27776 17.2256 3.25 12 3.25C6.7745 3.25 2.58337 7.27776 2.58337 13.3333L2.58337 13.3676C2.58336 14.5382 2.58335 15.6799 2.72593 16.7059C2.87128 17.7517 3.17222 18.7445 3.82329 19.5869C5.13815 21.2882 7.63672 22.0833 12 22.0833Z" fill="#9EB0C5" stroke="white" stroke-width="1.5"/>
  <path fill-rule="evenodd" clip-rule="evenodd" d="M7.97657 10.2282C8.05191 10.2637 8.06895 10.2953 8.0704 10.2982C8.23506 10.6275 8.6355 10.761 8.96482 10.5963C9.29414 10.4316 9.42763 10.0312 9.26297 9.70188C8.93523 9.04638 8.20636 8.83334 7.66668 8.83334C7.12701 8.83334 6.39814 9.04638 6.0704 9.70188C5.90574 10.0312 6.03922 10.4316 6.36854 10.5963C6.69786 10.761 7.09831 10.6275 7.26297 10.2982C7.26442 10.2953 7.28145 10.2637 7.3568 10.2282C7.4331 10.1923 7.54233 10.1667 7.66668 10.1667C7.79104 10.1667 7.90026 10.1923 7.97657 10.2282Z" fill="#1B324F"/>
  <path fill-rule="evenodd" clip-rule="evenodd" d="M14.7803 9.03889C14.98 9.336 15.3809 9.42316 15.6867 9.23201C15.9989 9.03687 16.0938 8.62557 15.8987 8.31334L15.3334 8.66668C15.8987 8.31334 15.8985 8.31297 15.8982 8.31259L15.8977 8.31182L15.8967 8.31024L15.8946 8.30687L15.8898 8.29939C15.8863 8.29407 15.8823 8.28809 15.8777 8.2815C15.8687 8.26834 15.8575 8.25271 15.8441 8.235C15.8172 8.19961 15.7812 8.15576 15.7351 8.10655C15.6427 8.00804 15.5096 7.88797 15.3282 7.77183C14.9592 7.53572 14.4176 7.33334 13.6667 7.33334C12.9158 7.33334 12.3742 7.53572 12.0052 7.77183C11.8238 7.88797 11.6907 8.00804 11.5983 8.10655C11.5522 8.15576 11.5162 8.19961 11.4893 8.235C11.4759 8.25271 11.4647 8.26834 11.4557 8.2815C11.4511 8.28809 11.4471 8.29407 11.4436 8.29939L11.4388 8.30687L11.4367 8.31024L11.4357 8.31182L11.4352 8.31259C11.4349 8.31297 11.4347 8.31334 11.9958 8.66402L11.4347 8.31334C11.2396 8.62557 11.3345 9.03687 11.6467 9.23201C11.9525 9.42316 12.3534 9.336 12.5531 9.03889C12.5559 9.03548 12.5617 9.02838 12.571 9.01847C12.5959 8.99198 12.645 8.94539 12.724 8.89486C12.8759 8.79763 13.1676 8.66668 13.6667 8.66668C14.1658 8.66668 14.4575 8.79763 14.6094 8.89486C14.6884 8.94539 14.7375 8.99198 14.7624 9.01847C14.7717 9.02838 14.7775 9.03548 14.7803 9.03889ZM12.5644 9.02156C12.5645 9.02142 12.5646 9.02129 12.5646 9.02116C12.5647 9.02102 12.5648 9.02088 12.5649 9.02074C12.5649 9.02074 12.5649 9.02075 12.5649 9.02075L12.5646 9.02116L12.5644 9.02147L12.5644 9.02156Z" fill="#1B324F"/>
  <path d="M13.3333 16C13.3333 16.6667 13.3333 16.6667 10.6667 16.6667C8 16.6667 8 16.6667 8 16C8 15.6318 8 15.3333 10.6667 15.3333C13.3333 15.3333 13.3333 15.6318 13.3333 16Z" fill="#1B324F"/>
  <path d="M14.6667 12C14.6667 13.4286 14.0697 14 13.3333 14C12.597 14 12 13.4286 12 12C12 10.5714 12.597 10 13.3333 10C14.0697 10 14.6667 10.5714 14.6667 12Z" fill="#1B324F"/>
  <circle cx="7.99996" cy="12.6667" r="1.33333" fill="#1B324F"/>
</svg>
