<svg width="24" height="24" viewBox="0 0 24 24" fill="none" xmlns="http://www.w3.org/2000/svg">
<path d="M12 22.0833C17.2521 22.0833 21.4167 17.5155 21.4167 12C21.4167 6.48443 17.2521 1.91666 12 1.91666C6.74799 1.91666 2.58337 6.48443 2.58337 12C2.58337 17.5155 6.74799 22.0833 12 22.0833Z" fill="#FFDC40" stroke="white" stroke-width="1.5"/>
<path fill-rule="evenodd" clip-rule="evenodd" d="M10.4052 8.79458C10.1194 9.86151 9.48513 10.6186 8.27772 10.2951C7.07032 9.97154 6.8996 8.99878 7.18549 7.93185C7.47137 6.86492 8.42389 6.19313 9.313 6.43136C10.2021 6.6696 10.6911 7.72765 10.4052 8.79458ZM13.85 8.79458C14.1359 9.86151 14.7701 10.6186 15.9775 10.2951C17.1849 9.97154 17.3556 8.99878 17.0697 7.93185C16.7838 6.86492 15.8313 6.19313 14.9422 6.43136C14.0531 6.6696 13.5641 7.72765 13.85 8.79458ZM12 18.6667C14.0833 18.6667 15.3333 18.6667 15.3333 15C15.3333 12.975 13.6667 11.3333 12 11.3333C10.3333 11.3333 8.66667 12.975 8.66667 15C8.66667 18.6667 9.91667 18.6667 12 18.6667Z" fill="#1B324F"/>
</svg>
