<svg width="24" height="24" viewBox="0 0 24 24" fill="none" xmlns="http://www.w3.org/2000/svg">
  <path d="M12 22.0882C14.7377 22.0882 17.5121 21.7369 19.6094 20.3267C21.7483 18.8884 23.0882 16.4171 23.0882 12.4118C23.0882 9.81778 22.5366 7.37065 20.8151 5.57681C19.0908 3.78005 16.2864 2.73529 12 2.73529C7.71353 2.73529 4.90914 3.78005 3.18484 5.57681C1.46335 7.37065 0.911743 9.81778 0.911743 12.4118C0.911743 16.4171 2.25162 18.8884 4.3906 20.3267C6.48782 21.7369 9.26229 22.0882 12 22.0882Z" fill="#E23000" stroke="white"/>
  <path d="M16.9412 13.1176C16.9412 13.8973 16.9412 14.5294 14.8322 14.5294C12.7233 14.5294 12.7233 13.8973 12.7233 13.1176C12.7233 11.7059 12.7233 11.7059 14.8322 11.7059C16.9412 11.7059 16.9412 12.3379 16.9412 13.1176Z" fill="#1B324F"/>
  <path d="M11.2768 13.1176C11.2768 13.8973 11.2768 14.5294 9.16781 14.5294C7.05884 14.5294 7.05884 13.8973 7.05884 13.1176C7.05884 12.3379 7.05884 11.7059 9.16781 11.7059C11.2768 11.7059 11.2768 11.7059 11.2768 13.1176Z" fill="#1B324F"/>
  <path fill-rule="evenodd" clip-rule="evenodd" d="M3.48535 10.2941C3.48535 9.87991 3.82114 9.54413 4.23535 9.54413C5.2108 9.54413 6.44631 9.6675 7.56627 9.9147C8.12709 10.0385 8.67554 10.1969 9.15597 10.3947C9.62525 10.588 10.0851 10.841 10.4182 11.1811C10.708 11.477 10.7031 11.9518 10.4072 12.2417C10.1113 12.5315 9.6365 12.5266 9.34664 12.2307C9.21877 12.1002 8.9727 11.9415 8.58484 11.7818C8.20813 11.6266 7.74818 11.491 7.24297 11.3794C6.23088 11.1561 5.10384 11.0441 4.23535 11.0441C3.82114 11.0441 3.48535 10.7083 3.48535 10.2941Z" fill="#1B324F"/>
  <path fill-rule="evenodd" clip-rule="evenodd" d="M20.5146 10.2941C20.5146 9.87991 20.1789 9.54413 19.7646 9.54413C18.7892 9.54413 17.5537 9.6675 16.4337 9.9147C15.8729 10.0385 15.3245 10.1969 14.844 10.3947C14.3747 10.588 13.9149 10.841 13.5818 11.1811C13.292 11.477 13.2969 11.9518 13.5928 12.2417C13.8887 12.5315 14.3635 12.5266 14.6534 12.2307C14.7812 12.1002 15.0273 11.9415 15.4152 11.7818C15.7919 11.6266 16.2518 11.491 16.757 11.3794C17.7691 11.1561 18.8962 11.0441 19.7646 11.0441C20.1789 11.0441 20.5146 10.7083 20.5146 10.2941Z" fill="#1B324F"/>
  <path d="M17.3165 16.5519C17.4351 16.9944 16.8886 17.483 16.4344 17.4235C15.7819 17.338 14.868 17.3469 13.6986 17.6602C12.5292 17.9736 11.7333 18.4228 11.211 18.8231C10.8474 19.1018 10.1298 18.9518 10.0112 18.5093C9.97016 18.3561 9.97778 18.1934 10.0545 18.0545C10.3253 17.5645 11.1688 16.3807 13.2093 15.8339C15.2497 15.2872 16.5722 15.8906 17.0516 16.1796C17.1875 16.2615 17.2755 16.3986 17.3165 16.5519Z" fill="#1B324F"/>
</svg>
