<svg width="16" height="16" viewBox="0 0 16 16" fill="none" xmlns="http://www.w3.org/2000/svg">
  <path d="M4.24383 2.57136C4.39828 2.4786 4.5907 2.47611 4.74751 2.56485C4.90431 2.65359 5.00124 2.81983 5.00124 3C5.00124 3.25877 5.10871 3.78279 5.34495 4.32796C5.51135 4.71195 5.72067 5.05739 5.95664 5.31042C6.4311 4.74503 6.66773 4.19184 6.75689 3.61156C6.86645 2.89855 6.76056 2.10134 6.515 1.12155C6.47235 0.951389 6.522 0.771322 6.64583 0.647062C6.76966 0.522802 6.94955 0.472525 7.11986 0.51458C8.6479 0.891898 9.70132 1.90589 10.2595 3.21314C10.6804 4.19888 10.8188 5.34475 10.6875 6.51621C10.8022 6.35959 10.9115 6.17082 11.0117 5.95763C11.3301 5.27994 11.5001 4.47722 11.5001 4C11.5001 3.79922 11.6202 3.61791 11.8051 3.5396C11.99 3.46129 12.2038 3.50117 12.348 3.64087C14.2367 5.47039 14.486 8.19747 13.611 10.4273C12.7331 12.6646 10.6855 14.5 7.87961 14.5C5.27119 14.5 2.83837 13.2404 2.02425 10.6499C1.63249 9.40334 1.54216 7.794 1.85655 6.30514C2.17019 4.81985 2.90584 3.37487 4.24383 2.57136Z" fill="#FF7842" stroke="white" stroke-linecap="round" stroke-linejoin="round"/>
</svg>
