<svg width="16" height="16" viewBox="0 0 16 16" fill="none" xmlns="http://www.w3.org/2000/svg">
  <circle cx="8" cy="8" r="6.5" fill="#FFDC40" stroke="white"/>
  <path d="M9.41083 5.93934C9.61503 6.62522 10.068 7.11192 10.9305 6.90394C11.7929 6.69596 11.9149 6.07061 11.7107 5.38473C11.5065 4.69884 10.8261 4.26698 10.191 4.42013C9.55592 4.57328 9.20663 5.25345 9.41083 5.93934Z" fill="#1B324F"/>
  <path d="M6.9599 5.93934C6.75569 6.62522 6.30268 7.11192 5.44024 6.90394C4.57781 6.69596 4.45587 6.07061 4.66007 5.38473C4.86428 4.69884 5.54465 4.26698 6.17973 4.42013C6.81481 4.57328 7.1641 5.25345 6.9599 5.93934Z" fill="#1B324F"/>
  <path d="M10 10C10 12 9.25 12 8 12C6.75 12 6 12 6 10C6 8.89543 7 8 8 8C9 8 10 8.89543 10 10Z" fill="#1B324F"/>
</svg>
