<svg width="16" height="16" viewBox="0 0 16 16" fill="none" xmlns="http://www.w3.org/2000/svg">
  <mask id="path-1-outside-1_25:66" maskUnits="userSpaceOnUse" x="1" y="1" width="14" height="14" fill="black">
    <rect fill="white" x="1" y="1" width="14" height="14"/>
    <path
      d="M10.9943 2C9.84426 1.99948 8.73567 2.67474 7.99897 3.52055C7.27141 2.68555 6.14674 1.99949 5.00361 2C3.17615 2 2.00475 3.6326 2 5.31334C2.00427 8.60567 5.42957 11.446 8.00021 13C10.5707 11.4459 13.9957 8.60556 14 5.31334C13.9901 3.65006 12.7593 2 10.9943 2Z"/>
  </mask>
  <path
    d="M10.9943 2C9.84426 1.99948 8.73567 2.67474 7.99897 3.52055C7.27141 2.68555 6.14674 1.99949 5.00361 2C3.17615 2 2.00475 3.6326 2 5.31334C2.00427 8.60567 5.42957 11.446 8.00021 13C10.5707 11.4459 13.9957 8.60556 14 5.31334C13.9901 3.65006 12.7593 2 10.9943 2Z"
    fill="#FF5018"/>
  <path
    d="M10.9943 2C9.84426 1.99948 8.73567 2.67474 7.99897 3.52055C7.27141 2.68555 6.14674 1.99949 5.00361 2C3.17615 2 2.00475 3.6326 2 5.31334C2.00427 8.60567 5.42957 11.446 8.00021 13C10.5707 11.4459 13.9957 8.60556 14 5.31334C13.9901 3.65006 12.7593 2 10.9943 2Z"
    stroke="white" stroke-width="2" mask="url(#path-1-outside-1_25:66)"/>
</svg>
