<svg width="16" height="16" viewBox="0 0 16 16" fill="none" xmlns="http://www.w3.org/2000/svg">
  <mask id="path-1-outside-1_25:67" maskUnits="userSpaceOnUse" x="1" y="0" width="14" height="15" fill="black">
    <rect fill="white" x="1" width="14" height="15"/>
    <path
      d="M13.6072 10.079C13.8831 9.74843 14.0155 9.39405 13.9986 9.0291C13.9817 8.62712 13.7902 8.31242 13.6325 8.11936C13.8155 7.69094 13.8859 7.01657 13.2749 6.49294C12.8273 6.10948 12.067 5.93758 11.014 5.98518C10.2735 6.01692 9.65403 6.1465 9.62869 6.15179H9.62587C9.48509 6.17559 9.33586 6.20468 9.18381 6.23642C9.17255 6.06716 9.20352 5.64667 9.53577 4.69991C9.92996 3.57332 9.87912 2.22973 9.43424 1.65321C8.96685 1.0476 8.2207 1 8.00108 1C7.78991 1 7.59563 1.08198 7.45766 1.23272C7.14513 1.57388 7.18173 2.20329 7.22115 2.49419C6.84948 3.43038 5.81966 5.85905 4.95472 6.84467C4.45627 7.31826 4.53986 7.25928 4.0018 7.25928H3.09288C2.44528 7.25928 2 7.51375 2 8.11936V12.996C2 13.6042 2.44809 13.6415 3.09288 13.6415H3.8003C4.25502 13.6415 4.54943 13.718 5.01326 13.7699C5.11462 13.7831 6.91664 13.9974 8.76652 13.963C9.10158 13.9868 9.41693 14 9.70976 14C10.2138 14 10.653 13.963 11.019 13.8889C11.8806 13.717 12.5936 13.5011 12.892 12.996C13.1201 12.6099 13.1201 12.2264 13.0835 11.9831C13.6438 11.5071 13.7423 10.9808 13.7226 10.6106C13.7114 10.3964 13.6607 10.2139 13.6072 10.079Z"/>
  </mask>
  <path
    d="M13.6072 10.079C13.8831 9.74843 14.0155 9.39405 13.9986 9.0291C13.9817 8.62712 13.7902 8.31242 13.6325 8.11936C13.8155 7.69094 13.8859 7.01657 13.2749 6.49294C12.8273 6.10948 12.067 5.93758 11.014 5.98518C10.2735 6.01692 9.65403 6.1465 9.62869 6.15179H9.62587C9.48509 6.17559 9.33586 6.20468 9.18381 6.23642C9.17255 6.06716 9.20352 5.64667 9.53577 4.69991C9.92996 3.57332 9.87912 2.22973 9.43424 1.65321C8.96685 1.0476 8.2207 1 8.00108 1C7.78991 1 7.59563 1.08198 7.45766 1.23272C7.14513 1.57388 7.18173 2.20329 7.22115 2.49419C6.84948 3.43038 5.81966 5.85905 4.95472 6.84467C4.45627 7.31826 4.53986 7.25928 4.0018 7.25928H3.09288C2.44528 7.25928 2 7.51375 2 8.11936V12.996C2 13.6042 2.44809 13.6415 3.09288 13.6415H3.8003C4.25502 13.6415 4.54943 13.718 5.01326 13.7699C5.11462 13.7831 6.91664 13.9974 8.76652 13.963C9.10158 13.9868 9.41693 14 9.70976 14C10.2138 14 10.653 13.963 11.019 13.8889C11.8806 13.717 12.5936 13.5011 12.892 12.996C13.1201 12.6099 13.1201 12.2264 13.0835 11.9831C13.6438 11.5071 13.7423 10.9808 13.7226 10.6106C13.7114 10.3964 13.6607 10.2139 13.6072 10.079Z"
    fill="#38BD60"/>
  <path
    d="M13.6072 10.079C13.8831 9.74843 14.0155 9.39405 13.9986 9.0291C13.9817 8.62712 13.7902 8.31242 13.6325 8.11936C13.8155 7.69094 13.8859 7.01657 13.2749 6.49294C12.8273 6.10948 12.067 5.93758 11.014 5.98518C10.2735 6.01692 9.65403 6.1465 9.62869 6.15179H9.62587C9.48509 6.17559 9.33586 6.20468 9.18381 6.23642C9.17255 6.06716 9.20352 5.64667 9.53577 4.69991C9.92996 3.57332 9.87912 2.22973 9.43424 1.65321C8.96685 1.0476 8.2207 1 8.00108 1C7.78991 1 7.59563 1.08198 7.45766 1.23272C7.14513 1.57388 7.18173 2.20329 7.22115 2.49419C6.84948 3.43038 5.81966 5.85905 4.95472 6.84467C4.45627 7.31826 4.53986 7.25928 4.0018 7.25928H3.09288C2.44528 7.25928 2 7.51375 2 8.11936V12.996C2 13.6042 2.44809 13.6415 3.09288 13.6415H3.8003C4.25502 13.6415 4.54943 13.718 5.01326 13.7699C5.11462 13.7831 6.91664 13.9974 8.76652 13.963C9.10158 13.9868 9.41693 14 9.70976 14C10.2138 14 10.653 13.963 11.019 13.8889C11.8806 13.717 12.5936 13.5011 12.892 12.996C13.1201 12.6099 13.1201 12.2264 13.0835 11.9831C13.6438 11.5071 13.7423 10.9808 13.7226 10.6106C13.7114 10.3964 13.6607 10.2139 13.6072 10.079Z"
    stroke="white" stroke-width="2" stroke-linecap="round" stroke-linejoin="round" mask="url(#path-1-outside-1_25:67)"/>
</svg>
