<svg width="44" height="44" viewBox="0 0 44 44" fill="none" xmlns="http://www.w3.org/2000/svg">
<g clip-path="url(#clip0_4854_21544)">
<path d="M44 22C44 34.1503 34.1503 44 22 44C9.84974 44 0 34.1503 0 22C0 9.84974 9.84974 0 22 0C34.1503 0 44 9.84974 44 22Z" fill="#833AE0"/>
<g filter="url(#filter0_f_4854_21544)">
<path fill-rule="evenodd" clip-rule="evenodd" d="M6.60003 9.47271C10.7933 4.92745 16.1557 2.19999 21.9996 2.19999C27.8438 2.19999 33.2066 4.92786 37.4 9.47373L37.4 19.8C33.3538 16.5301 27.9429 14.532 21.998 14.532C16.0551 14.532 10.6458 16.5288 6.60003 19.7968L6.60003 9.47271Z" fill="url(#paint0_radial_4854_21544)" fill-opacity="0.4"/>
</g>
<path d="M32.6658 20.8042C32.4282 20.4141 32.0798 20.1035 31.6651 19.9119L29.6889 18.9921C27.6296 18.0333 25.9756 16.3773 25.0195 14.3169L24.1017 12.3399C23.9169 11.94 23.6215 11.6014 23.2504 11.3639C22.8793 11.1265 22.448 11.0002 22.0074 11C21.5668 10.9998 21.1354 11.1256 20.764 11.3627C20.3927 11.5997 20.0969 11.9381 19.9117 12.3377L18.9917 14.3139C18.0332 16.3727 16.3775 18.0264 14.3174 18.9826L12.3401 19.9003C11.9401 20.0851 11.6014 20.3804 11.364 20.7515C11.1265 21.1225 11.0002 21.5538 11 21.9943C10.9998 22.4348 11.1256 22.8662 11.3627 23.2374C11.5998 23.6087 11.9382 23.9044 12.3379 24.0896L14.3141 25.0095C16.3731 25.9679 18.027 27.6233 18.9835 29.6831L19.9013 31.6601C20.0861 32.06 20.3815 32.3986 20.7526 32.6361C21.1237 32.8735 21.555 32.9998 21.9956 33C22.4362 33.0002 22.8676 32.8744 23.239 32.6373C23.6103 32.4003 23.9061 32.0619 24.0913 31.6623L25.0113 29.6864C25.9698 27.6276 27.6255 25.9738 29.6856 25.0174L31.6629 24.0997C31.9575 23.9625 32.2199 23.7648 32.433 23.5194C32.6461 23.2741 32.8051 22.9866 32.8998 22.6757C32.9944 22.3648 33.0224 22.0375 32.9821 21.7151C32.9418 21.3926 32.8341 21.0823 32.6658 20.8042Z" fill="url(#paint1_linear_4854_21544)"/>
<path fill-rule="evenodd" clip-rule="evenodd" d="M35.228 19.2435L35.2326 19.251C35.6189 19.8896 35.8664 20.6023 35.959 21.3428C36.0515 22.0833 35.9871 22.835 35.7698 23.5489C35.5525 24.2629 35.1873 24.923 34.698 25.4865C34.2087 26.0498 33.6062 26.5039 32.9297 26.819L32.9259 26.8207L30.9488 27.7383C30.9487 27.7384 30.9489 27.7383 30.9488 27.7383C29.5306 28.3968 28.3908 29.5353 27.731 30.9525L26.8132 32.9234C26.8128 32.9244 26.8123 32.9254 26.8119 32.9264C26.3858 33.8444 25.7062 34.6214 24.8532 35.1659C23.9992 35.711 23.0071 36.0003 21.9941 35.9998C20.9811 35.9993 19.9893 35.7089 19.1359 35.163C18.2834 34.6175 17.6045 33.8398 17.1794 32.9214C17.179 32.9204 17.1785 32.9194 17.1781 32.9185L16.2625 30.9464C16.2625 30.9463 16.2625 30.9464 16.2625 30.9464C15.6041 29.5286 14.4655 28.3889 13.0481 27.7291L11.0769 26.8115C11.0758 26.811 11.0748 26.8105 11.0737 26.81C10.1558 26.3841 9.37882 25.7047 8.83422 24.8518C8.28897 23.9979 7.99948 23.0057 8 21.9926C8.00052 20.9794 8.29102 19.9875 8.83714 19.1342C9.38273 18.2816 10.1607 17.6029 11.0792 17.1779C11.0801 17.1775 11.081 17.1771 11.0818 17.1767L13.0544 16.2612C13.0544 16.2612 13.0544 16.2612 13.0544 16.2612C14.4726 15.603 15.6123 14.4646 16.272 13.0475C16.272 13.0475 16.272 13.0476 16.272 13.0475L17.1898 11.0762C17.1902 11.0752 17.1907 11.0742 17.1912 11.0732C17.6172 10.1553 18.2968 9.37827 19.1499 8.83376C20.0038 8.28865 20.9959 7.9993 22.0089 7.99982C23.022 8.00034 24.0138 8.2907 24.8671 8.83668C25.7195 9.382 26.3983 10.1596 26.8234 11.0778C26.8239 11.0789 26.8244 11.08 26.8249 11.0811L27.7406 13.0535C28.3987 14.4716 29.5373 15.6121 30.955 16.2721C30.955 16.2721 30.9549 16.2721 30.955 16.2721L32.9229 17.1882C32.9245 17.1889 32.9261 17.1896 32.9277 17.1904C33.8809 17.6317 34.6815 18.3463 35.228 19.2435ZM24.1017 12.3397L25.0195 14.3168C25.9756 16.3771 27.6296 18.0331 29.689 18.9919L31.6651 19.9117C32.0798 20.1033 32.4282 20.4139 32.6658 20.804C32.8341 21.0821 32.9418 21.3924 32.9821 21.7149C33.0224 22.0373 32.9944 22.3646 32.8998 22.6755C32.8052 22.9864 32.6461 23.2739 32.433 23.5192C32.2199 23.7646 31.9575 23.9623 31.6629 24.0995L29.6856 25.0172C27.6255 25.9736 25.9698 27.6274 25.0113 29.6862L24.0913 31.6621C23.9061 32.0618 23.6103 32.4001 23.239 32.6372C22.8676 32.8742 22.4362 33 21.9956 32.9998C21.555 32.9996 21.1237 32.8733 20.7526 32.6359C20.3815 32.3985 20.0861 32.0598 19.9013 31.6599L18.9835 29.6829C18.027 27.6231 16.3731 25.9677 14.3141 25.0093L12.3379 24.0894C11.9382 23.9043 11.5998 23.6086 11.3627 23.2373C11.1256 22.866 10.9998 22.4346 11 21.9941C11.0002 21.5536 11.1265 21.1223 11.364 20.7513C11.6014 20.3802 11.9401 20.0849 12.3401 19.9001L14.3174 18.9824C16.3776 18.0262 18.0332 16.3725 18.9917 14.3137L19.9117 12.3376C20.0969 11.9379 20.3927 11.5995 20.764 11.3625C21.1354 11.1254 21.5668 10.9996 22.0074 10.9998C22.448 11 22.8793 11.1263 23.2504 11.3637C23.6215 11.6012 23.9169 11.9398 24.1017 12.3397Z" fill="#6532B7"/>
</g>
<defs>
<filter id="filter0_f_4854_21544" x="3.52126" y="-0.878701" width="36.9575" height="23.7574" filterUnits="userSpaceOnUse" color-interpolation-filters="sRGB">
<feFlood flood-opacity="0" result="BackgroundImageFix"/>
<feBlend mode="normal" in="SourceGraphic" in2="BackgroundImageFix" result="shape"/>
<feGaussianBlur stdDeviation="1.53936" result="effect1_foregroundBlur_4854_21544"/>
</filter>
<radialGradient id="paint0_radial_4854_21544" cx="0" cy="0" r="1" gradientUnits="userSpaceOnUse" gradientTransform="translate(22 8.90295) rotate(-90) scale(7.50714 13.1375)">
<stop offset="0.670087" stop-color="white"/>
<stop offset="1" stop-color="white" stop-opacity="0"/>
</radialGradient>
<linearGradient id="paint1_linear_4854_21544" x1="30.8" y1="11" x2="11" y2="30.8" gradientUnits="userSpaceOnUse">
<stop stop-color="#00EC47"/>
<stop offset="0.16" stop-color="#38E842"/>
<stop offset="0.41" stop-color="#97E03A"/>
<stop offset="0.45" stop-color="#A8E338"/>
<stop offset="0.55" stop-color="#C8E834"/>
<stop offset="0.64" stop-color="#E0EC32"/>
<stop offset="0.75" stop-color="#F1EF30"/>
<stop offset="0.86" stop-color="#FCF02E"/>
<stop offset="0.99" stop-color="#FFF12E"/>
</linearGradient>
<clipPath id="clip0_4854_21544">
<rect width="44" height="44" fill="white"/>
</clipPath>
</defs>
</svg>
