<svg width="44" height="44" viewBox="0 0 44 44" fill="none" xmlns="http://www.w3.org/2000/svg">
<g clip-path="url(#clip0_4854_21526)">
<path d="M44 22C44 34.1503 34.1503 44 22 44C9.84974 44 0 34.1503 0 22C0 9.84974 9.84974 0 22 0C34.1503 0 44 9.84974 44 22Z" fill="url(#paint0_linear_4854_21526)"/>
<g filter="url(#filter0_f_4854_21526)">
<path fill-rule="evenodd" clip-rule="evenodd" d="M6.60003 9.47271C10.7933 4.92745 16.1557 2.19999 21.9996 2.19999C27.8438 2.19999 33.2066 4.92786 37.4 9.47373L37.4 19.8C33.3538 16.5301 27.9429 14.532 21.998 14.532C16.0551 14.532 10.6458 16.5288 6.60003 19.7968L6.60003 9.47271Z" fill="url(#paint1_radial_4854_21526)" fill-opacity="0.4"/>
</g>
<path d="M20.5857 12.4143C21.3668 11.6332 22.6331 11.6332 23.4142 12.4143L31.5857 20.5859C32.3668 21.3669 32.3668 22.6332 31.5857 23.4143L23.4142 31.5858C22.6331 32.3669 21.3668 32.3669 20.5857 31.5859L12.4142 23.4143C11.6331 22.6332 11.6331 21.3669 12.4142 20.5859L20.5857 12.4143Z" fill="url(#paint2_linear_4854_21526)"/>
<path fill-rule="evenodd" clip-rule="evenodd" d="M25.5355 10.2928L33.707 18.4643C35.6597 20.417 35.6597 23.5828 33.707 25.5354L25.5355 33.707C23.5829 35.6596 20.417 35.6596 18.4644 33.707L10.2928 25.5354C8.34022 23.5828 8.34021 20.417 10.2928 18.4643L18.4644 10.2928C20.417 8.34016 23.5829 8.34015 25.5355 10.2928ZM23.4142 12.4141C22.6331 11.633 21.3668 11.633 20.5857 12.4141L12.4142 20.5857C11.6331 21.3667 11.6331 22.633 12.4142 23.4141L20.5857 31.5857C21.3668 32.3667 22.6331 32.3667 23.4142 31.5857L31.5857 23.4141C32.3668 22.633 32.3668 21.3667 31.5857 20.5857L23.4142 12.4141Z" fill="#D99C00"/>
</g>
<defs>
<filter id="filter0_f_4854_21526" x="3.52126" y="-0.878701" width="36.9575" height="23.7574" filterUnits="userSpaceOnUse" color-interpolation-filters="sRGB">
<feFlood flood-opacity="0" result="BackgroundImageFix"/>
<feBlend mode="normal" in="SourceGraphic" in2="BackgroundImageFix" result="shape"/>
<feGaussianBlur stdDeviation="1.53936" result="effect1_foregroundBlur_4854_21526"/>
</filter>
<linearGradient id="paint0_linear_4854_21526" x1="22.5205" y1="-40.5115" x2="20.8742" y2="61.469" gradientUnits="userSpaceOnUse">
<stop offset="0.15" stop-color="#FFF75C"/>
<stop offset="0.58" stop-color="#FFDC40"/>
<stop offset="1" stop-color="#D99C00"/>
</linearGradient>
<radialGradient id="paint1_radial_4854_21526" cx="0" cy="0" r="1" gradientUnits="userSpaceOnUse" gradientTransform="translate(22 8.90295) rotate(-90) scale(7.50714 13.1375)">
<stop offset="0.670087" stop-color="white"/>
<stop offset="1" stop-color="white" stop-opacity="0"/>
</radialGradient>
<linearGradient id="paint2_linear_4854_21526" x1="30.8" y1="13.2003" x2="13.2" y2="30.8003" gradientUnits="userSpaceOnUse">
<stop stop-color="#1C7EFF"/>
<stop offset="0.35" stop-color="#19B5FF"/>
<stop offset="0.46" stop-color="#18C7FF"/>
<stop offset="0.53" stop-color="#23CDFE"/>
<stop offset="0.84" stop-color="#50E9FC"/>
<stop offset="1" stop-color="#62F3FB"/>
</linearGradient>
<clipPath id="clip0_4854_21526">
<rect width="44" height="44" fill="white"/>
</clipPath>
</defs>
</svg>
