<svg width="44" height="44" viewBox="0 0 44 44" fill="none" xmlns="http://www.w3.org/2000/svg">
<g clip-path="url(#clip0_4845_21215)">
<circle cx="22" cy="22" r="22" fill="url(#paint0_linear_4845_21215)"/>
<g filter="url(#filter0_f_4845_21215)">
<path d="M7.37836 9.56915C11.2411 5.30755 16.1806 2.7503 21.5637 2.75031C26.9472 2.75031 31.8872 5.30794 35.75 9.57011V19.2519C32.0228 16.1862 27.0385 14.3127 21.5623 14.3127C16.088 14.3127 11.1051 16.1849 7.37836 19.2489L7.37836 9.56915Z" fill="url(#paint1_radial_4845_21215)" fill-opacity="0.4"/>
</g>
<path d="M11.6383 20.403L18.1953 30.7849C19.9612 33.581 24.0388 33.581 25.8047 30.7849L32.3617 20.403C34.2542 17.4066 32.101 13.5 28.557 13.5L15.443 13.5C11.899 13.5 9.74581 17.4065 11.6383 20.403Z" fill="url(#paint2_linear_4845_21215)" stroke="#8D8D8D" stroke-width="3"/>
</g>
<defs>
<filter id="filter0_f_4845_21215" x="4.29964" y="-0.328408" width="34.5291" height="22.6591" filterUnits="userSpaceOnUse" color-interpolation-filters="sRGB">
<feFlood flood-opacity="0" result="BackgroundImageFix"/>
<feBlend mode="normal" in="SourceGraphic" in2="BackgroundImageFix" result="shape"/>
<feGaussianBlur stdDeviation="1.53936" result="effect1_foregroundBlur_4845_21215"/>
</filter>
<linearGradient id="paint0_linear_4845_21215" x1="20.5073" y1="-46.9472" x2="26.5408" y2="93.2972" gradientUnits="userSpaceOnUse">
<stop stop-color="#E6E6E6"/>
<stop offset="0.76" stop-color="#999999"/>
<stop offset="1" stop-color="#808080"/>
</linearGradient>
<radialGradient id="paint1_radial_4845_21215" cx="0" cy="0" r="1" gradientUnits="userSpaceOnUse" gradientTransform="translate(21.5642 9.03497) rotate(-90) scale(7.03865 12.1017)">
<stop offset="0.670087" stop-color="white"/>
<stop offset="1" stop-color="white" stop-opacity="0"/>
</radialGradient>
<linearGradient id="paint2_linear_4845_21215" x1="33.2412" y1="25.0678" x2="4.02697" y2="26.5939" gradientUnits="userSpaceOnUse">
<stop stop-color="#7047E7"/>
<stop offset="0.24093" stop-color="#7943E4"/>
<stop offset="0.591192" stop-color="#A034D6"/>
<stop offset="0.99" stop-color="#FF1AFF"/>
</linearGradient>
<clipPath id="clip0_4845_21215">
<rect width="44" height="44" fill="white"/>
</clipPath>
</defs>
</svg>
