<svg width="44" height="44" viewBox="0 0 44 44" fill="none" xmlns="http://www.w3.org/2000/svg">
<g clip-path="url(#clip0_4854_21514)">
<path d="M44 22C44 34.1503 34.1503 44 22 44C9.84974 44 0 34.1503 0 22C0 9.84974 9.84974 0 22 0C34.1503 0 44 9.84974 44 22Z" fill="url(#paint0_linear_4854_21514)"/>
<g filter="url(#filter0_f_4854_21514)">
<path fill-rule="evenodd" clip-rule="evenodd" d="M6.60004 9.47273C10.7933 4.92747 16.1557 2.20001 21.9996 2.20001C27.8439 2.20001 33.2066 4.92789 37.4 9.47375V19.8C33.3539 16.5302 27.9429 14.5321 21.998 14.5321C16.0552 14.5321 10.6458 16.5288 6.60004 19.7968L6.60004 9.47273Z" fill="url(#paint1_radial_4854_21514)" fill-opacity="0.4"/>
</g>
<path d="M30.8453 20.0003C31.5599 21.2379 31.5599 22.7627 30.8453 24.0003L28.1547 28.6605C27.4402 29.8981 26.1197 30.6605 24.6906 30.6605L19.3094 30.6605C17.8804 30.6605 16.5599 29.8981 15.8453 28.6605L13.1547 24.0003C12.4402 22.7627 12.4402 21.2379 13.1547 20.0003L15.8453 15.34C16.5599 14.1024 17.8804 13.34 19.3094 13.34L24.6906 13.34C26.1197 13.34 27.4402 14.1024 28.1547 15.34L30.8453 20.0003Z" fill="url(#paint2_linear_4854_21514)"/>
<path fill-rule="evenodd" clip-rule="evenodd" d="M33.4434 25.5L30.7528 30.1603C29.5024 32.3261 27.1915 33.6603 24.6906 33.6603L19.3094 33.6603C16.8086 33.6603 14.4977 32.3261 13.2472 30.1603L10.5566 25.5C9.30622 23.3342 9.30622 20.6658 10.5566 18.5L13.2472 13.8398C14.4977 11.674 16.8086 10.3398 19.3094 10.3398L24.6906 10.3398C27.1915 10.3398 29.5024 11.674 30.7528 13.8398L33.4434 18.5C34.6938 20.6658 34.6938 23.3342 33.4434 25.5ZM30.8453 24C31.5599 22.7624 31.5599 21.2376 30.8453 20L28.1547 15.3398C27.4402 14.1022 26.1197 13.3398 24.6906 13.3398L19.3094 13.3398C17.8804 13.3398 16.5599 14.1022 15.8453 15.3398L13.1547 20C12.4402 21.2376 12.4402 22.7624 13.1547 24L15.8453 28.6603C16.5599 29.8979 17.8804 30.6603 19.3094 30.6603L24.6906 30.6603C26.1197 30.6603 27.4402 29.8979 28.1547 28.6603L30.8453 24Z" fill="#16A0C1"/>
</g>
<defs>
<filter id="filter0_f_4854_21514" x="3.52132" y="-0.878701" width="36.9574" height="23.7574" filterUnits="userSpaceOnUse" color-interpolation-filters="sRGB">
<feFlood flood-opacity="0" result="BackgroundImageFix"/>
<feBlend mode="normal" in="SourceGraphic" in2="BackgroundImageFix" result="shape"/>
<feGaussianBlur stdDeviation="1.53936" result="effect1_foregroundBlur_4854_21514"/>
</filter>
<linearGradient id="paint0_linear_4854_21514" x1="21.4511" y1="-31.5239" x2="23.0986" y2="54.9382" gradientUnits="userSpaceOnUse">
<stop stop-color="#A6F2FF"/>
<stop offset="0.43" stop-color="#80E7FF"/>
<stop offset="1" stop-color="#16A0C1"/>
</linearGradient>
<radialGradient id="paint1_radial_4854_21514" cx="0" cy="0" r="1" gradientUnits="userSpaceOnUse" gradientTransform="translate(22 8.90295) rotate(-90) scale(7.50714 13.1375)">
<stop offset="0.670087" stop-color="white"/>
<stop offset="1" stop-color="white" stop-opacity="0"/>
</radialGradient>
<linearGradient id="paint2_linear_4854_21514" x1="33.0001" y1="13.1998" x2="11.0001" y2="30.7998" gradientUnits="userSpaceOnUse">
<stop stop-color="#FF7236"/>
<stop offset="0.102599" stop-color="#FF7B35"/>
<stop offset="0.218601" stop-color="#FF9534"/>
<stop offset="0.456002" stop-color="#FFBE31"/>
<stop offset="0.6875" stop-color="#FFF12E"/>
<stop offset="1" stop-color="#FFFF56"/>
</linearGradient>
<clipPath id="clip0_4854_21514">
<rect width="44" height="44" fill="white"/>
</clipPath>
</defs>
</svg>
