<svg width="283" height="483" viewBox="0 0 283 483" fill="none" xmlns="http://www.w3.org/2000/svg">
  <path d="M44.8586 34.1625L100.836 46.0093" stroke="#4FE131" stroke-width="5.45096" stroke-miterlimit="10" stroke-linecap="round"/>
  <path d="M70.5528 309.372L122.711 285.848" stroke="#FFF540" stroke-width="5.45096" stroke-miterlimit="10" stroke-linecap="round"/>
  <path d="M82.0002 266.869L105.936 263.3" stroke="#E3B3FF" stroke-width="5.45096" stroke-miterlimit="10" stroke-linecap="round"/>
  <path d="M109.066 356.16C102.413 361.094 95.7653 366.041 89.2021 371.093C88.7086 371.473 88.2708 371.855 87.8571 372.236C87.8399 372.251 87.8218 372.265 87.803 372.277C87.8132 372.271 87.8232 372.265 87.8327 372.258C83.9188 375.897 83.5068 379.673 83.7597 384.398C84.1212 391.135 85.9423 397.503 87.4621 403.828C88.9772 410.132 91.0192 417.305 90.0213 424.305C85.787 424.221 81.567 423.786 77.4047 423.004C67.9095 421.135 58.6493 418.225 49.7918 414.327C48.2918 415.275 46.8498 416.313 45.4736 417.434C42.0284 419.974 38.5935 422.529 35.1689 425.1C31.7411 427.664 28.3217 430.24 24.9109 432.827C25.1863 432.622 20.7803 436.123 20.714 436.098C32.4221 440.927 44.8618 445.415 58.732 445.902C65.7029 446.335 72.6451 444.685 78.6752 441.161C86.8596 436.109 94.5594 429.555 102.228 423.76C106.554 420.49 111.055 417.446 114.36 413.218C122.953 402.215 118.717 391.113 116.329 381.18C116.019 379.883 115.702 378.586 115.394 377.285C116.786 377.991 118.161 378.709 119.533 379.422C124.092 381.789 128.537 384.514 133.585 386.175C137.446 387.33 141.506 387.664 145.504 387.155C150.708 386.564 155.273 382.281 159.512 379.137C165.405 374.767 171.273 370.364 177.116 365.929C179.073 364.549 180.932 363.034 182.68 361.397C185.38 358.688 186.136 354.842 186.501 351.734C187.536 343.005 184.087 335.785 182.071 328.11C181.324 325.606 181.18 322.961 181.651 320.391C190.068 314.308 197.868 307.206 206.496 301.551C200.202 305.672 193.216 308.55 187.044 312.825C177.085 319.723 167.346 327.184 157.816 334.664C155.687 336.153 154.001 338.19 152.936 340.559C149.985 347.851 155.101 355.463 156.511 361.633C156.553 361.82 156.596 362.011 156.64 362.207C151.399 359.716 146.622 356.585 142.834 354.73C137.204 351.971 131.119 349.078 124.204 348.643C121.798 348.453 119.392 348.998 117.303 350.207C114.459 352.051 111.71 354.038 109.066 356.16Z" fill="#DEFFD8"/>
  <path d="M115.394 377.285C116.53 377.863 117.657 378.451 118.781 379.034C111.505 372.505 100.031 370.313 88.3614 371.787C88.19 371.939 88.0197 372.088 87.857 372.236L87.8029 372.277C87.8131 372.271 87.8231 372.265 87.8326 372.258C83.9187 375.897 83.5067 379.673 83.7596 384.398C84.1211 391.135 85.9422 397.503 87.462 403.829C88.9771 410.133 91.0191 417.305 90.0212 424.306L90.0173 424.304C90.0124 424.342 90.016 424.378 90.0097 424.414C89.5314 428.716 88.0372 432.843 85.6503 436.455C91.2993 432.381 96.773 427.883 102.228 423.761C106.554 420.49 111.055 417.446 114.36 413.218C122.953 402.215 118.717 391.113 116.329 381.181C116.019 379.883 115.702 378.586 115.394 377.285Z" fill="#4FE131"/>
  <path d="M182.376 319.852C178.388 321.735 174.485 323.863 170.533 325.856C167.209 328.14 163.912 330.473 160.669 332.884C159.928 333.436 159.13 333.909 158.29 334.294C158.133 334.416 157.973 334.539 157.816 334.664C155.688 336.153 154.002 338.19 152.936 340.559C149.985 347.851 155.101 355.463 156.511 361.633C156.553 361.82 156.597 362.011 156.64 362.207C156.246 362.018 155.861 361.821 155.473 361.629C155.736 362.382 155.941 363.153 156.086 363.937C157.691 372.577 153.542 381.478 145.045 387.198C145.2 387.181 145.353 387.171 145.505 387.155C150.708 386.564 155.273 382.281 159.512 379.137C165.405 374.767 171.274 370.364 177.117 365.929C179.074 364.549 180.933 363.034 182.681 361.397C185.38 358.688 186.136 354.842 186.501 351.734C187.536 343.005 184.088 335.785 182.071 328.11C181.325 325.606 181.181 322.961 181.651 320.391C181.895 320.213 182.136 320.032 182.376 319.852Z" fill="#4FE131"/>
  <g opacity="0.8">
    <path d="M42.552 148.886C40.6336 148.859 38.7299 149.225 36.9583 149.962C33.0057 151.687 29.784 154.744 27.8552 158.602C25.9227 162.036 24.3759 165.699 21.2372 168.238C21.1426 168.314 21.0438 168.383 20.9458 168.455C18.4591 166.778 16.3647 164.583 14.8061 162.02C14.7139 161.87 12.633 161.837 12.6655 161.84C10.9414 161.72 9.21694 161.611 7.49225 161.51C5.76691 161.408 4.04154 161.312 2.31608 161.223C2.41719 161.229 0.21106 161.215 0.169862 161.148C0.832427 162.216 1.58111 163.229 2.4084 164.175C5.55877 167.707 9.84873 170.021 14.5304 170.714C15.4894 170.853 16.4279 170.901 17.3963 170.947C19.7647 171.058 22.1451 170.95 24.5123 171.077C24.8233 171.092 25.1338 171.11 25.444 171.127C28.278 171.542 31.1705 171.268 33.8759 170.327C38.6918 168.247 40.6399 162.639 43.0852 158.438C44.7941 155.474 47.2977 153.047 50.3133 151.431C53.8656 154.245 56.8366 157.723 59.0607 161.671C60.5309 164.425 62.5926 166.818 65.0977 168.68C66.6792 169.452 68.4282 169.817 70.1864 169.742C74.4163 170.034 78.6837 170.421 82.9254 170.439C85.709 170.451 87.6635 168.464 89.228 166.392C90.765 163.867 92.7553 161.649 95.0986 159.848C95.1307 159.827 95.1626 159.808 95.1944 159.788C95.6006 160.215 95.9867 160.669 96.3556 161.144C97.4635 162.305 98.3413 163.665 98.9424 165.153C99.0686 165.601 105.748 165.631 106.256 165.662C108.687 165.935 111.133 166.056 113.579 166.025L113.334 165.354C112.586 163.978 111.675 162.697 110.62 161.539C109.253 159.769 107.36 158.478 105.212 157.852C102.533 157.214 99.7804 156.936 97.0275 157.024L89.301 156.663C87.9991 156.62 86.6962 156.712 85.4135 156.939C83.488 157.35 81.664 158.142 80.0481 159.267C78.4322 160.392 77.0569 161.827 76.0027 163.49C75.7256 163.901 75.4371 164.328 75.1393 164.756C74.8513 164.333 74.5763 163.913 74.3117 163.507C72.3439 160.113 69.9525 156.984 67.1952 154.193C64.2599 151.503 60.4847 149.91 56.5094 149.685C51.8668 149.319 47.2063 149.044 42.552 148.886Z" fill="#DEFFD8"/>
    <path d="M95.0983 159.848C95.1303 159.827 95.1623 159.808 95.1941 159.788C95.2026 159.796 95.2097 159.807 95.2184 159.817C97.4735 158.084 100.278 157.223 103.116 157.392C101.097 157.131 99.0628 157.009 97.0271 157.024L89.3006 156.663C87.9987 156.62 86.6959 156.712 85.4131 156.939C83.4877 157.35 81.6636 158.142 80.0477 159.267C78.4318 160.392 77.0565 161.828 76.0023 163.49C75.7252 163.901 75.4368 164.328 75.139 164.756C75.1007 164.7 75.0647 164.643 75.0275 164.589C74.2582 166.016 73.0499 167.158 71.5814 167.844C70.4316 168.635 69.1502 169.214 67.7972 169.554C68.5924 169.657 69.4033 169.686 70.1861 169.742C74.416 170.035 78.6834 170.421 82.9252 170.44C85.7088 170.451 87.6632 168.464 89.2277 166.392C90.7647 163.868 92.7549 161.649 95.0983 159.848Z" fill="#4FE131"/>
    <path d="M47.6654 150.206C46.6111 149.72 45.5257 149.306 44.4163 148.965C43.7943 148.939 43.173 148.907 42.552 148.886C40.6335 148.859 38.7299 149.225 36.9583 149.961C33.0056 151.686 29.7839 154.744 27.8551 158.601C25.9227 162.035 24.3758 165.698 21.2372 168.238C21.1426 168.314 21.0437 168.383 20.9458 168.455C20.8896 168.416 20.8343 168.375 20.7779 168.336C20.7655 168.345 20.7547 168.354 20.7437 168.364C18.998 169.754 16.871 170.58 14.6449 170.733C15.7329 170.877 19.022 170.991 24.5122 171.076C24.8232 171.092 25.1336 171.109 25.4438 171.126C28.2779 171.542 31.1704 171.267 33.8758 170.326C38.6917 168.246 40.6398 162.638 43.0851 158.437C44.7689 155.521 47.2228 153.123 50.178 151.508C49.3907 150.983 48.5481 150.546 47.6654 150.206Z" fill="#4FE131"/>
  </g>
  <path d="M231.559 434.72C234.403 431.561 237.243 428.393 240.029 425.174C240.227 424.944 240.413 424.704 240.587 424.454L240.611 424.428L240.599 424.441C242.188 422.175 241.965 420.064 241.292 417.472C240.187 413.827 238.805 410.323 237.157 406.99C235.656 403.609 233.784 399.785 233.491 395.857C235.718 395.624 237.933 395.587 240.112 395.745C245.32 396.179 250.398 397.176 255.272 398.722C255.932 398.102 256.554 397.433 257.129 396.723C258.605 395.095 260.074 393.459 261.534 391.816C262.997 390.174 264.455 388.527 265.906 386.876C265.79 387.009 267.647 384.786 267.683 384.797C261.122 382.899 254.226 381.239 247.057 381.881C243.665 382.005 240.243 383.393 237.372 385.807C233.836 389.338 230.47 393.062 227.291 396.959C225.328 398.903 223.635 401.138 222.281 403.574C219.139 410.212 222.589 416.062 224.955 421.387C225.264 422.082 225.576 422.778 225.884 423.477C225.089 423.178 224.3 422.871 223.515 422.567C220.946 421.425 218.278 420.488 215.531 419.764C213.527 419.376 211.405 419.458 209.303 420.005C206.702 420.673 204.854 423.337 203.042 425.35C200.522 428.148 198.018 430.963 195.53 433.796C194.685 434.688 193.905 435.648 193.197 436.663C192.299 438.453 191.997 440.439 192.349 442.249C192.822 447.135 195.421 450.893 197.337 454.997C197.991 456.265 198.367 457.708 198.441 459.231C194.823 463.142 191.64 467.572 187.864 471.262C190.617 468.572 193.871 466.527 196.546 463.76C200.86 459.299 204.997 454.542 209.024 449.788C209.963 448.792 210.606 447.533 210.851 446.214C211.526 441.994 208.026 438.129 206.593 434.815C206.549 434.714 206.505 434.612 206.461 434.508C209.436 435.537 212.246 436.953 214.401 437.728C217.581 439.115 221.054 439.839 224.657 439.864C225.83 439.844 227.02 439.378 228.018 438.547C229.263 437.343 230.446 436.065 231.559 434.72Z" fill="#F8F2FF"/>
  <path d="M225.884 423.476C225.234 423.231 224.588 422.982 223.945 422.733C228.646 425.74 234.545 426.458 240.381 424.735C240.452 424.641 240.523 424.547 240.588 424.454L240.612 424.428L240.599 424.44C242.189 422.175 241.966 420.063 241.293 417.472C240.188 413.827 238.805 410.322 237.158 406.99C235.656 403.608 233.785 399.785 233.491 395.856L233.494 395.855C233.491 395.835 233.486 395.815 233.484 395.794C233.217 393.531 233.51 391.145 234.335 388.863C231.907 391.483 229.616 394.325 227.292 396.959C225.328 398.902 223.635 401.138 222.282 403.574C219.14 410.212 222.59 416.061 224.956 421.387C225.264 422.081 225.576 422.778 225.884 423.476Z" fill="#E3B3FF"/>
  <path d="M198.132 459.576C199.96 458.275 201.717 456.845 203.516 455.484C204.958 454.005 206.378 452.501 207.767 450.958C208.085 450.602 208.441 450.287 208.825 450.023C208.89 449.944 208.957 449.867 209.024 449.789C209.963 448.792 210.606 447.534 210.851 446.215C211.526 441.995 208.025 438.13 206.592 434.815C206.548 434.715 206.505 434.613 206.461 434.508C206.684 434.585 206.904 434.668 207.126 434.75C206.906 434.356 206.712 433.944 206.546 433.516C205.611 431.439 205.397 428.982 205.937 426.529C206.477 424.076 207.742 421.764 209.533 419.954C209.456 419.972 209.379 419.986 209.303 420.005C206.702 420.673 204.853 423.337 203.041 425.351C200.521 428.149 198.017 430.964 195.53 433.796C194.685 434.689 193.904 435.649 193.197 436.664C192.298 438.454 191.997 440.439 192.348 442.25C192.822 447.136 195.42 450.894 197.337 454.998C197.991 456.266 198.367 457.708 198.44 459.232C198.336 459.345 198.234 459.46 198.132 459.576Z" fill="#E3B3FF"/>
  <path d="M41.3483 280.479C42.6451 281.464 44.4948 281.212 45.4798 279.915C46.4648 278.618 46.2121 276.769 44.9154 275.784C43.6186 274.799 41.7689 275.051 40.7839 276.348C39.7988 277.645 40.0516 279.494 41.3483 280.479Z" fill="#FFF540"/>
  <path d="M15.3473 241.479C16.6441 242.464 18.4938 242.212 19.4788 240.915C20.4639 239.618 20.2111 237.769 18.9144 236.784C17.6176 235.799 15.7679 236.051 14.7829 237.348C13.7979 238.645 14.0506 240.494 15.3473 241.479Z" fill="#E3B3FF"/>
  <path d="M75.5915 5.89952C77.0152 6.68996 78.8101 6.17657 79.6006 4.75283C80.391 3.32909 79.8776 1.53415 78.4539 0.743714C77.0301 -0.0467228 75.2352 0.466668 74.4448 1.8904C73.6543 3.31414 74.1677 5.10909 75.5915 5.89952Z" fill="#E3B3FF"/>
  <path d="M272.088 450.631L264.229 444.565L278.5 424.548L282.866 431.851L272.088 450.631Z" fill="#FFF540"/>
  <path d="M71.2812 222.765L62 221.791L62.1617 202L69.4351 205.272L71.2812 222.765Z" fill="#FFF540"/>
</svg>
