<svg width="327" height="472" viewBox="0 0 327 472" fill="none" xmlns="http://www.w3.org/2000/svg">
  <path d="M180.87 62.4503L158.798 87.1553" stroke="#4FE131" stroke-width="5.45096" stroke-miterlimit="10" stroke-linecap="round"/>
  <path d="M262.534 433.098C253.573 431.94 252.808 432.157 245.787 437.844C245.391 438.165 244.908 438.36 244.4 438.403C243.892 438.447 243.382 438.337 242.937 438.089C242.492 437.84 242.131 437.464 241.902 437.009C241.672 436.553 241.585 436.04 241.65 435.534C242.808 426.573 242.59 425.808 236.903 418.787C236.582 418.391 236.388 417.907 236.344 417.399C236.3 416.891 236.41 416.382 236.659 415.937C236.907 415.491 237.283 415.131 237.739 414.901C238.194 414.672 238.708 414.584 239.214 414.65C248.174 415.808 248.94 415.591 255.961 409.904C256.357 409.583 256.841 409.388 257.349 409.345C257.857 409.301 258.366 409.411 258.811 409.659C259.257 409.908 259.617 410.284 259.847 410.739C260.076 411.195 260.164 411.708 260.099 412.214C258.941 421.175 259.157 421.94 264.844 428.961C265.165 429.357 265.36 429.84 265.403 430.348C265.447 430.857 265.337 431.366 265.089 431.811C264.84 432.256 264.464 432.617 264.008 432.846C263.553 433.076 263.039 433.164 262.534 433.098Z" fill="#FFF540"/>
  <path d="M284.345 278.715C282.275 279.177 280.115 279.005 278.144 278.223C276.173 277.44 274.484 276.083 273.295 274.327C270.36 270.606 268.739 265.965 266.633 261.769C265.137 258.142 263.159 254.733 260.751 251.635C253.921 256.987 248.955 264.36 246.563 272.701C246.334 273.641 234.958 274.755 233.987 274.916C233.116 275.059 221.528 276.23 221.37 276.878C223.672 267.388 230.813 259.38 238.493 253.705C242.007 251.061 246.037 249.185 250.321 248.197C251.153 248.009 251.988 247.839 252.825 247.676L273.475 244.263C274.938 244.045 276.412 243.901 277.889 243.833C286.201 243.504 289.512 252.799 292.47 258.899C293.574 261.177 294.806 264.24 296.39 267.078C296.665 266.642 296.933 266.212 297.186 265.791C297.374 265.48 300.842 265.095 300.861 265.09C303.824 264.569 306.791 264.065 309.761 263.578C312.73 263.087 315.701 262.607 318.675 262.138C319.918 262.039 321.155 261.864 322.377 261.615C319.917 265.894 316.618 269.632 312.678 272.605C310.704 273.931 308.454 274.788 306.098 275.11C298.873 276.434 291.621 277.635 284.345 278.715Z" fill="#E3B3FF"/>
  <path d="M292.344 271.454C289.76 273.994 286.987 276.333 284.048 278.452C283.874 278.577 283.697 278.695 283.523 278.816C281.567 279.115 279.568 278.852 277.756 278.057C275.945 277.262 274.398 275.968 273.295 274.327C270.359 270.606 268.739 265.964 266.633 261.768C265.137 258.141 263.159 254.733 260.751 251.635C260.717 251.661 260.683 251.691 260.649 251.721C260.516 251.573 260.373 251.44 260.232 251.304C258.941 249.564 257.023 248.394 254.884 248.043C254.405 247.868 253.916 247.717 253.423 247.575L273.475 244.262C274.938 244.044 276.411 243.9 277.889 243.832C286.2 243.503 289.512 252.798 292.47 258.898C293.53 261.086 294.714 263.999 296.208 266.737C295.054 268.414 293.761 269.992 292.344 271.454Z" fill="#F8F2FF"/>
  <path d="M94.1581 60.0546C95.3222 57.6991 95.9909 55.1299 96.123 52.5058C96.3196 46.6033 94.4367 40.8193 90.8031 36.1636C87.6986 31.7544 84.0797 27.6827 82.7898 22.3073C82.7507 22.1457 82.7257 21.9822 82.694 21.8197C86.2321 19.733 90.1798 18.4366 94.2662 18.0198C94.505 17.9954 95.7717 15.441 95.7485 15.4797C96.9129 13.4195 98.0645 11.3526 99.2033 9.27873C100.347 7.2069 101.481 5.13078 102.607 3.05039C102.541 3.17176 103.857 0.452908 103.965 0.440957C102.254 0.630675 100.561 0.959978 98.9031 1.42558C92.6819 3.23961 87.2946 7.17942 83.6804 12.5582C82.9437 13.6615 82.3316 14.7944 81.7043 15.9647C80.173 18.8281 78.9025 21.8322 77.354 24.6847C77.1504 25.0586 76.9463 25.4326 76.7417 25.8067C74.8138 29.3498 72.9166 32.5874 72.7638 36.7016C72.4979 43.878 78.2845 49.5918 82.0371 55.0872C84.6948 58.9455 86.2202 63.4703 86.4407 68.1501C81.1111 71.1908 74.3518 72.262 68.6292 72.9315C64.36 73.1281 60.1871 74.2672 56.4101 76.267C54.5241 77.7671 53.0428 79.7148 52.101 81.9329C49.2463 86.9876 46.2547 92.0338 43.7347 97.2673C42.0806 100.702 43.3861 104.289 45.0256 107.443C46.9851 111.214 49.0729 114.223 49.6574 118.554C49.6643 118.606 49.6688 118.657 49.6743 118.708C48.8989 118.96 48.1112 119.172 47.3143 119.345C45.2269 120.03 43.0285 120.315 40.8353 120.182C40.2053 120.073 36.2346 128.311 35.8974 128.922C35.6118 129.44 30.8159 137.49 31.1368 137.761L32.1122 137.854C34.253 137.74 36.3723 137.368 38.424 136.746C41.4179 136.099 44.1291 134.518 46.1673 132.232C48.5342 129.296 50.4998 126.058 52.0124 122.603L57.0114 113.263C57.8297 111.679 58.4822 110.015 58.9585 108.297C59.5842 105.674 59.6803 102.953 59.2413 100.293C58.8023 97.6326 57.8369 95.0868 56.4016 92.8044C56.058 92.2185 55.7001 91.6113 55.3466 90.9907C56.0396 90.8851 56.7208 90.7917 57.3777 90.7028C62.7318 90.2693 68.009 89.1568 73.0824 87.3919C78.1379 85.349 82.3308 81.6196 84.9493 76.8369C88.1373 71.3159 91.2226 65.7151 94.1581 60.0546Z" fill="#F8F2FF"/>
  <path d="M49.6575 118.554C49.6644 118.606 49.6689 118.657 49.6744 118.708L49.627 118.723C50.7204 122.095 49.6692 126.227 47.9725 129.913C49.4836 127.571 50.8334 125.128 52.0126 122.603L57.0115 113.263C57.8298 111.679 58.4823 110.015 58.9586 108.296C59.5843 105.674 59.6805 102.953 59.2414 100.293C58.8024 97.6325 57.837 95.0867 56.4017 92.8043C56.0581 92.2184 55.7002 91.6112 55.3467 90.9906C55.4397 90.9764 55.53 90.9653 55.6191 90.9516C54.3074 89.1607 53.6079 86.9947 53.6244 84.7748C53.3253 82.8877 53.3642 80.9624 53.7393 79.0889C53.1443 80.0119 52.6299 80.9968 52.1011 81.9326C49.2464 86.9873 46.2549 92.0335 43.7348 97.267C42.0807 100.701 43.3862 104.288 45.0258 107.443C46.9852 111.214 49.073 114.223 49.6575 118.554Z" fill="#E3B3FF"/>
  <path d="M89.513 65.5983C90.7354 64.5819 91.8877 63.484 92.9619 62.312C93.36 61.56 93.7654 60.8102 94.1578 60.0546C95.3218 57.6992 95.9906 55.13 96.1226 52.5059C96.3192 46.6034 94.4364 40.8194 90.8027 36.1637C87.6982 31.7545 84.0794 27.6828 82.7895 22.3074C82.7504 22.1457 82.7253 21.9823 82.6937 21.8198C82.7744 21.7712 82.8594 21.729 82.9395 21.6807L82.925 21.6234C82.2356 18.6469 82.4673 15.5311 83.5893 12.6893C82.7696 13.9491 80.6911 17.9475 77.3536 24.6846C77.15 25.0586 76.9459 25.4326 76.7413 25.8067C74.8134 29.3497 72.9162 32.5874 72.7634 36.7016C72.4975 43.8779 78.2841 49.5917 82.0367 55.0872C84.6499 58.8874 86.1678 63.333 86.4245 67.9378C87.5371 67.2742 88.5729 66.4896 89.513 65.5983Z" fill="#E3B3FF"/>
  <path d="M220.348 18.4795C221.645 19.4645 223.495 19.2118 224.48 17.915C225.465 16.6183 225.212 14.7685 223.915 13.7835C222.619 12.7985 220.769 13.0512 219.784 14.348C218.799 15.6447 219.052 17.4945 220.348 18.4795Z" fill="#FFEB6B"/>
  <path d="M296.348 407.479C297.645 408.464 299.495 408.212 300.48 406.915C301.465 405.618 301.212 403.769 299.915 402.784C298.619 401.799 296.769 402.051 295.784 403.348C294.799 404.645 295.052 406.494 296.348 407.479Z" fill="#4FE131"/>
  <path d="M2.34734 48.4795C3.6441 49.4645 5.49384 49.2118 6.47885 47.915C7.46386 46.6183 7.21114 44.7685 5.91439 43.7835C4.61764 42.7985 2.7679 43.0512 1.78288 44.348C0.797871 45.6447 1.05059 47.4945 2.34734 48.4795Z" fill="#E3B3FF"/>
  <path d="M233.318 150.826L237.102 157.291L224.226 166.595L222.885 160.335L233.318 150.826Z" fill="#FFF540"/>
  <path d="M266.899 153.618L269.572 146.439L289.451 169.01L284.829 171.79L266.899 153.618Z" fill="#4FE131"/>
  <path d="M284.735 464.271L286.32 471.766L257.447 463.344L259.862 458.522L284.735 464.271Z" fill="#E3B3FF"/>
  <path d="M110.464 53.9544L114.977 51.1463L122.643 59.6027L118.126 60.7373L110.464 53.9544Z" fill="#FFF540"/>
  <path d="M270.761 100.373C273.415 98.5396 275.664 96.1802 277.369 93.4417C281.445 87.1987 282.172 79.9515 281.401 72.7342C280.695 66.1484 279.238 59.6233 281.058 53.083C281.112 52.8859 281.181 52.6967 281.244 52.5031C286.285 52.3717 291.295 53.3332 295.929 55.3217C297.023 54.8122 298.063 54.1952 299.034 53.4797C301.512 51.9609 303.981 50.4288 306.439 48.8832C308.9 47.3405 311.355 45.7878 313.804 44.2251C313.66 44.3179 316.694 42.1843 316.817 42.2337C314.866 41.4182 312.853 40.7625 310.797 40.2732C303.038 38.5125 294.908 39.5305 287.823 43.1499C286.375 43.8963 285.042 44.7448 283.673 45.6285C280.322 47.7896 277.168 50.2573 273.804 52.3947C273.364 52.6765 272.923 52.9566 272.481 53.2351C268.298 55.8889 264.333 58.2341 261.717 62.5587C257.154 70.1057 259.959 79.6842 260.712 87.8184C261.264 93.5434 260.205 99.3088 257.654 104.464C250.12 104.551 242.228 101.672 235.687 98.9791C230.9 97.011 225.848 95.0024 220.584 95.2783C217.582 95.4338 215.054 97.2775 212.582 98.7905C206.505 102.515 200.286 106.149 194.461 110.264C190.639 112.964 189.903 117.591 189.784 121.957C189.638 127.17 190.085 131.642 188.132 136.643C188.11 136.7 188.082 136.757 188.059 136.817C187.077 136.625 186.104 136.383 185.146 136.093C182.497 135.586 179.968 134.58 177.694 133.129C177.083 132.638 167.91 139.114 167.185 139.571C166.569 139.955 156.623 145.735 156.806 146.215L157.797 146.9C160.163 148.052 162.66 148.916 165.232 149.472C168.831 150.562 172.684 150.481 176.234 149.241C180.524 147.5 184.564 145.196 188.248 142.39L199.177 135.345C201 134.133 202.694 132.735 204.229 131.173C206.463 128.732 208.188 125.869 209.302 122.752C210.416 119.635 210.898 116.328 210.718 113.023C210.698 112.188 210.676 111.325 210.667 110.447C211.473 110.747 212.26 111.054 213.018 111.35C219.245 113.781 225.136 116.32 231.847 117.155C238.491 117.975 245.214 116.471 250.875 112.898C257.588 108.874 264.237 104.701 270.761 100.373Z" fill="#FFF540"/>
  <path d="M188.132 136.644C188.11 136.701 188.083 136.758 188.06 136.818L187.998 136.804C187.163 141.078 183.572 144.884 179.553 147.828C182.571 146.215 185.476 144.398 188.248 142.391L199.177 135.345C201.001 134.133 202.694 132.736 204.229 131.174C206.463 128.732 208.188 125.869 209.302 122.753C210.417 119.636 210.898 116.329 210.718 113.024C210.698 112.189 210.676 111.325 210.667 110.448C210.775 110.488 210.878 110.528 210.982 110.569C210.642 107.865 211.182 105.123 212.523 102.75C213.325 100.545 214.514 98.5014 216.035 96.7147C214.846 97.35 213.707 98.1027 212.582 98.7911C206.505 102.516 200.286 106.149 194.462 110.264C190.64 112.965 189.903 117.592 189.784 121.957C189.639 127.17 190.085 131.643 188.132 136.644Z" fill="#FFFBB4"/>
  <path d="M262.474 103.557C264.391 103.193 266.282 102.701 268.133 102.084C269.009 101.515 269.891 100.953 270.762 100.374C273.416 98.5397 275.665 96.1804 277.369 93.4418C281.445 87.1989 282.173 79.9517 281.401 72.7343C280.696 66.1485 279.239 59.6234 281.058 53.0831C281.113 52.886 281.181 52.6969 281.245 52.5032C281.36 52.4988 281.476 52.5054 281.591 52.5028L281.61 52.4309C282.643 48.8247 284.75 45.6183 287.649 43.2378C286.018 44.1005 281.404 47.1529 273.805 52.3949C273.364 52.6766 272.923 52.9568 272.481 53.2353C268.299 55.889 264.333 58.2342 261.717 62.5589C257.154 70.1058 259.96 79.6844 260.712 87.8185C261.252 93.4546 260.232 99.1308 257.764 104.226C259.354 104.177 260.933 103.952 262.474 103.557Z" fill="#FFFBB4"/>
</svg>
