<svg width="24" height="24" viewBox="0 0 24 24" fill="none" xmlns="http://www.w3.org/2000/svg">
  <circle cx="12" cy="12" r="11" fill="#E0E0E0"/>
  <path d="M8.4677 15.5524C8.72184 15.8006 9.12822 15.7984 9.37968 15.5475L12 12.9337L14.6393 15.5498C14.8906 15.7988 15.2959 15.7982 15.5464 15.5483C15.7972 15.2981 15.7985 14.8922 15.5493 14.6405L12.9261 11.9902L15.5358 9.38689C15.792 9.13133 15.792 8.71633 15.5358 8.46078C15.2805 8.20612 14.8673 8.20612 14.612 8.46078L12 11.0663L9.38802 8.46078C9.13273 8.20612 8.71949 8.20612 8.46419 8.46078C8.20801 8.71633 8.20801 9.13133 8.46419 9.38689L11.0739 11.9902L8.45981 14.6313C8.20637 14.8873 8.20991 15.3008 8.4677 15.5524Z" fill="#0F1C2C"/>
</svg>
