<svg width="24" height="24" viewBox="0 0 24 24" fill="none" xmlns="http://www.w3.org/2000/svg">
  <path d="M16.8527 10.4487H16.3816L16.3794 8.05726C16.3762 5.45047 14.2929 3.33114 11.733 3.33333C9.17097 3.33442 7.08877 5.45593 7.08986 8.06054L7.09423 10.4531H6.92591C6.04603 10.4542 5.33119 11.1811 5.33338 12.0773V19.1971C5.33338 20.0934 6.04931 20.8202 6.92919 20.8202L16.856 20.8147C17.7359 20.8147 18.4507 20.089 18.4485 19.1927V12.0686C18.4485 11.1734 17.7326 10.4487 16.8527 10.4487ZM8.83432 10.3274L8.83104 7.99387C8.83104 6.38826 10.2006 5.08431 11.8882 5.08103C13.5758 5.08103 14.9476 6.38607 14.9476 7.9895L14.9509 10.322L8.83432 10.3274Z" fill="#CCCCCC"/>
</svg>
