<svg width="24" height="24" viewBox="0 0 24 24" fill="none" xmlns="http://www.w3.org/2000/svg">
  <path fill-rule="evenodd" clip-rule="evenodd" d="M7.51903 2H16.4803C19.5237 2 21.9996 4.47596 21.9995 7.51915V16.4804C21.9995 19.5236 19.5237 21.9995 16.4803 21.9995H7.51903C4.47584 21.9995 2 19.5237 2 16.4804V7.51915C2 4.47596 4.47584 2 7.51903 2ZM12.001 6.84632C9.15937 6.84632 6.8476 9.15812 6.8476 11.9998C6.8476 14.8413 9.15937 17.153 12.001 17.153C14.8426 17.153 17.1544 14.8413 17.1544 11.9998C17.1544 9.15812 14.8426 6.84632 12.001 6.84632ZM12.001 15.3784C10.1379 15.3784 8.62206 13.8628 8.62206 11.9997C8.62206 10.1365 10.1378 8.62069 12.001 8.62069C13.8642 8.62069 15.3799 10.1365 15.3799 11.9997C15.3799 13.8628 13.864 15.3784 12.001 15.3784ZM16.452 5.72294C16.6935 5.48043 17.0293 5.34203 17.3712 5.34203C17.7143 5.34203 18.0502 5.48043 18.2916 5.72294C18.5341 5.96426 18.6725 6.30023 18.6725 6.64329C18.6725 6.98516 18.5341 7.32113 18.2916 7.56363C18.049 7.80496 17.7143 7.94455 17.3712 7.94455C17.0293 7.94455 16.6933 7.80496 16.452 7.56363C16.2095 7.32113 16.0699 6.98528 16.0699 6.64329C16.0699 6.30023 16.2094 5.96426 16.452 5.72294Z" fill="white"/>
</svg>
