<svg width="24" height="24" viewBox="0 0 24 24" fill="none" xmlns="http://www.w3.org/2000/svg">
<g clip-path="url(#clip0_5675_24442)">
<rect y="3" width="24" height="18" rx="2" fill="#012169"/>
<path d="M-2.67236 19.7141L2.6089 21.9476L24.1198 5.42838L26.9056 2.10927L21.258 1.36275L12.4842 8.48136L5.42223 13.2776L-2.67236 19.7141Z" fill="white"/>
<path d="M-1.94935 21.2789L0.741212 22.5751L25.9052 1.80089H22.1274L-1.94935 21.2789Z" fill="#C8102E"/>
<path d="M26.6724 19.7141L21.3911 21.9476L-0.119785 5.42838L-2.90553 2.10927L2.74202 1.36275L11.5158 8.48136L18.5778 13.2776L26.6724 19.7141Z" fill="white"/>
<path d="M26.4922 20.8372L23.8016 22.1333L13.0865 13.2388L9.90974 12.245L-3.17358 2.12064H0.604277L13.6803 12.0047L17.1535 13.1964L26.4922 20.8372Z" fill="#C8102E"/>
<path d="M9.16665 9.5H9.66665V9V2H14.3333V9V9.5H14.8333H25.0206V14.5H14.8333H14.3333V15V22H9.66665V15V14.5H9.16665H-0.97937V9.5H9.16665Z" fill="#C8102E" stroke="white"/>
</g>
<rect x="0.5" y="3.5" width="23" height="17" rx="1.5" stroke="#0F1C2C" stroke-opacity="0.2"/>
<defs>
<clipPath id="clip0_5675_24442">
<rect y="3" width="24" height="18" rx="2" fill="white"/>
</clipPath>
</defs>
</svg>
