<svg width="16" height="16" viewBox="0 0 16 16" fill="none" xmlns="http://www.w3.org/2000/svg">
  <path
    d="M13.3536 6.35355C13.5488 6.15829 13.5488 5.84171 13.3536 5.64645C13.1583 5.45118 12.8417 5.45118 12.6464 5.64645L13.3536 6.35355ZM8 11L7.64645 11.3536L8 11.7071L8.35355 11.3536L8 11ZM3.35355 5.64645C3.15829 5.45118 2.84171 5.45118 2.64645 5.64645C2.45118 5.84171 2.45118 6.15829 2.64645 6.35355L3.35355 5.64645ZM12.6464 5.64645L7.64645 10.6464L8.35355 11.3536L13.3536 6.35355L12.6464 5.64645ZM8.35355 10.6464L3.35355 5.64645L2.64645 6.35355L7.64645 11.3536L8.35355 10.6464Z"
    fill="currentColor"/>
</svg>
