<svg width="16" height="16" viewBox="0 0 16 16" fill="none" xmlns="http://www.w3.org/2000/svg">
  <path fill-rule="evenodd" clip-rule="evenodd" d="M5.56702 3.15194C6.80966 0.99962 9.56181 0.262181 11.7141 1.50482C13.8664 2.74746 14.6039 5.49962 13.3612 7.65194L9.86125 13.7141C8.89475 15.3881 6.75418 15.9617 5.08016 14.9952C3.40613 14.0287 2.83257 11.8881 3.79907 10.2141L6.79907 5.01796C7.48942 3.82223 9.0184 3.41254 10.2141 4.1029C11.4099 4.79325 11.8196 6.32223 11.1292 7.51796L8.62919 11.8481C8.49112 12.0872 8.18533 12.1692 7.94618 12.0311C7.70704 11.893 7.6251 11.5872 7.76317 11.3481L10.2632 7.01796C10.6774 6.30052 10.4316 5.38314 9.71413 4.96892C8.99669 4.55471 8.07931 4.80052 7.66509 5.51796L4.66509 10.7141C3.97474 11.9098 4.38442 13.4388 5.58016 14.1292C6.77589 14.8195 8.30486 14.4098 8.99522 13.2141L12.4952 7.15194C13.4617 5.47791 12.8882 3.33735 11.2141 2.37085C9.54011 1.40435 7.39954 1.97791 6.43304 3.65194L3.43304 8.84809C3.29497 9.08723 2.98918 9.16917 2.75003 9.0311C2.51088 8.89303 2.42895 8.58723 2.56702 8.34809L5.56702 3.15194Z" fill="currentColor"/>
</svg>
