<svg width="16" height="16" viewBox="0 0 16 16" fill="none" xmlns="http://www.w3.org/2000/svg">
  <g clip-path="url(#clip0_7311_27346)">
    <path fill-rule="evenodd" clip-rule="evenodd" d="M7.99999 1.5C5.51184 1.5 3.49999 3.51186 3.49999 6C3.49999 6.93412 3.77628 7.78757 4.25095 8.50005C4.94697 9.53049 6.0462 10.255 7.32209 10.4409L7.33688 10.4433C7.54986 10.4809 7.77074 10.5 7.99999 10.5C8.22924 10.5 8.45012 10.4809 8.66309 10.4433L8.67788 10.4409C9.95376 10.255 11.053 9.53051 11.749 8.50009C12.2237 7.7876 12.5 6.93414 12.5 6C12.5 4.54145 11.8069 3.24963 10.7315 2.42541C10.5124 2.25743 10.4709 1.94358 10.6389 1.72441C10.8068 1.50524 11.1207 1.46374 11.3399 1.63173C12.6502 2.63608 13.5 4.21569 13.5 6C13.5 7.1368 13.1623 8.18292 12.5803 9.05592L12.5787 9.05831C11.7332 10.311 10.3928 11.1994 8.82946 11.4294C8.55908 11.4767 8.28244 11.5 7.99999 11.5C7.71754 11.5 7.44089 11.4767 7.17051 11.4294C5.60721 11.1994 4.26682 10.311 3.42128 9.05831L3.41967 9.05593C2.83767 8.18293 2.49999 7.1368 2.49999 6C2.49999 2.95957 4.95956 0.5 7.99999 0.5C8.27613 0.5 8.49999 0.723858 8.49999 1C8.49999 1.27614 8.27613 1.5 7.99999 1.5Z" fill="currentColor"/>
    <path fill-rule="evenodd" clip-rule="evenodd" d="M3.97554 8.50233C4.12069 8.51638 4.25248 8.59309 4.33636 8.71238C5.01204 9.67317 6.08418 10.3547 7.33576 10.5297L7.35 10.5319C7.53474 10.5632 7.72557 10.5809 7.92278 10.5846C7.94808 10.5806 7.97381 10.5786 7.99976 10.5786C8.02586 10.5785 8.05174 10.5806 8.07719 10.5846C8.27441 10.5809 8.46524 10.5632 8.64998 10.5319L8.66421 10.5297C9.91579 10.3547 10.9879 9.67317 11.6636 8.71238C11.7475 8.59309 11.8793 8.51638 12.0244 8.50233C12.1696 8.48828 12.3136 8.53829 12.4188 8.63928L15.1418 11.2529C15.839 11.9125 15.4598 13.0206 14.5725 13.2223L13.4227 13.4831C13.4224 13.4832 13.422 13.4833 13.4216 13.4834C13.3277 13.5057 13.2887 13.5632 13.2799 13.6022L13.2775 13.6128L13.033 14.5981C13.033 14.5982 13.033 14.598 13.033 14.5981C12.7979 15.5474 11.5813 15.7902 10.9593 15.0861L8.00032 11.8232L5.04089 15.0926C4.41898 15.7969 3.20222 15.5545 2.96706 14.6051C2.96703 14.605 2.96708 14.6052 2.96706 14.6051L2.72317 13.6219C2.72311 13.6216 2.72324 13.6222 2.72317 13.6219C2.70708 13.5598 2.65278 13.506 2.58661 13.4919L2.58028 13.4906L1.42767 13.229C0.533531 13.0258 0.167076 11.9162 0.856745 11.2542L3.58114 8.63928C3.68634 8.53829 3.83039 8.48828 3.97554 8.50233ZM9.04044 11.4816L11.7082 14.4233C11.7597 14.482 11.8367 14.5058 11.9187 14.4873C12 14.4689 12.0471 14.419 12.0623 14.3579L12.3057 13.3765C12.4105 12.9227 12.775 12.6074 13.1954 12.5093L13.1984 12.5086L14.3508 12.2471C14.4331 12.2284 14.4774 12.1761 14.4934 12.1224C14.509 12.07 14.4984 12.0206 14.4541 11.9788L14.4507 11.9757L12.1234 9.74186C11.3437 10.6269 10.267 11.2552 9.04044 11.4816ZM6.96058 11.4818C5.73356 11.2556 4.6565 10.6271 3.87652 9.74186L1.54921 11.9757C1.50111 12.0219 1.49092 12.0755 1.50676 12.1288C1.52293 12.1832 1.567 12.2352 1.64913 12.2538L2.79881 12.5147C3.23365 12.6088 3.58292 12.9437 3.69253 13.3762L3.69315 13.3787L3.93764 14.3643C3.95276 14.4254 3.99993 14.4756 4.08127 14.494C4.16323 14.5126 4.24035 14.4888 4.29183 14.4301L4.29711 14.424L6.96058 11.4818Z" fill="currentColor"/>
    <path fill-rule="evenodd" clip-rule="evenodd" d="M4.99999 5C4.99999 4.72386 5.22384 4.5 5.49999 4.5H10.5C10.7761 4.5 11 4.72386 11 5C11 5.27614 10.7761 5.5 10.5 5.5H5.49999C5.22384 5.5 4.99999 5.27614 4.99999 5Z" fill="currentColor"/>
    <path fill-rule="evenodd" clip-rule="evenodd" d="M4.99999 7C4.99999 6.72386 5.22384 6.5 5.49999 6.5H8.49999C8.77613 6.5 8.99999 6.72386 8.99999 7C8.99999 7.27614 8.77613 7.5 8.49999 7.5H5.49999C5.22384 7.5 4.99999 7.27614 4.99999 7Z" fill="currentColor"/>
  </g>
  <defs>
    <clipPath id="clip0_7311_27346">
      <rect width="16" height="16" fill="white"/>
    </clipPath>
  </defs>
</svg>
