<svg width="16" height="16" viewBox="0 0 16 16" fill="none" xmlns="http://www.w3.org/2000/svg">
  <path fill-rule="evenodd" clip-rule="evenodd"
        d="M10.5707 7.65618C10.3474 8.01167 10.0806 8.33706 9.77771 8.62489C9.95877 8.65239 10.1442 8.66665 10.3329 8.66665C12.358 8.66665 13.9996 7.02502 13.9996 4.99998C13.9996 2.97494 12.358 1.33331 10.3329 1.33331C10.1442 1.33331 9.95877 1.34757 9.77771 1.37507C10.0806 1.6629 10.3474 1.98829 10.5707 2.34377C11.9321 2.46409 12.9996 3.60737 12.9996 4.99998C12.9996 6.39259 11.9321 7.53587 10.5707 7.65618Z"
        fill="currentColor"/>
  <path fill-rule="evenodd" clip-rule="evenodd"
        d="M13.3328 14.6666L14.499 14.6666C15.3274 14.6666 16.0218 13.9804 15.7795 13.1882C15.1165 11.021 13.0326 9.42018 10.5383 9.33673C11.0317 9.6904 11.4744 10.1048 11.8542 10.5682C13.3029 11.0317 14.412 12.1366 14.8232 13.4807C14.8279 13.4959 14.8283 13.5042 14.8284 13.5065C14.8284 13.5089 14.8282 13.5099 14.828 13.5107C14.8278 13.5117 14.824 13.5265 14.802 13.5505C14.7527 13.6046 14.6443 13.6666 14.499 13.6666H14.4783H14.4576H14.437H14.4163H14.3958H14.3752H14.3547H14.3342H14.3138H14.2934H14.273H14.2527H14.2324H14.2121H14.1918H14.1716H14.1514H14.1313H14.1111H14.0911H14.071H14.051H14.031H14.011H13.991H13.9711H13.9513H13.9314H13.9116H13.8918H13.872H13.8523H13.8326H13.8129H13.7933H13.7737H13.7541H13.7345H13.715H13.6955H13.676H13.6565H13.6371H13.6177H13.5983H13.579H13.5597H13.5404H13.5211H13.5019H13.4827H13.4635H13.4443H13.4252H13.4061H13.387H13.3679H13.3489H13.3299H13.3109H13.292H13.273H13.2546C13.3061 13.9928 13.3328 14.3268 13.3328 14.6666Z"
        fill="currentColor"/>
  <path
    d="M11.3013 13.3345C11.3655 13.5445 11.3116 13.7337 11.1713 13.8875C11.0232 14.0498 10.7787 14.1666 10.4989 14.1666H10.4808H10.4627H10.4446H10.4266H10.4086H10.3906H10.3726H10.3547H10.3368H10.3189H10.3011H10.2832H10.2654H10.2476H10.2299H10.2121H10.1944H10.1767H10.1591H10.1414H10.1238H10.1062H10.0886H10.0711H10.0536H10.0361H10.0186H10.0011H9.98371H9.9663H9.94892H9.93156H9.91422H9.89691H9.87961H9.86234H9.84509H9.82787H9.81066H9.79348H9.77632H9.75918H9.74206H9.72497H9.70789H9.69084H9.6738H9.65679H9.6398H9.62283H9.60588H9.58895H9.57204H9.55515H9.53828H9.52143H9.50461H9.4878H9.47101H9.45424H9.43749H9.42076H9.40405H9.38735H9.37068H9.35403H9.33739H9.32078H9.30418H9.2876H9.27104H9.25449H9.23797H9.22146H9.20498H9.18851H9.17205H9.15562H9.1392H9.1228H9.10642H9.09005H9.0737H9.05737H9.04105H9.02476H9.00848H8.99221H8.97596H8.95973H8.94351H8.92731H8.91113H8.89496H8.87881H8.86267H8.84655H8.83044H8.81435H8.79828H8.78222H8.76617H8.75014H8.73413H8.71813H8.70214H8.68617H8.67021H8.65426H8.63834H8.62242H8.60652H8.59063H8.57476H8.55889H8.54305H8.52721H8.51139H8.49558H8.47979H8.46401H8.44824H8.43248H8.41674H8.40101H8.38529H8.36958H8.35389H8.3382H8.32253H8.30687H8.29122H8.27559H8.25996H8.24435H8.22875H8.21316H8.19758H8.18201H8.16645H8.1509H8.13536H8.11984H8.10432H8.08881H8.07332H8.05783H8.04235H8.02689H8.01143H7.99598H7.98055H7.96512H7.9497H7.93429H7.91889H7.90349H7.88811H7.87274H7.85737H7.84201H7.82666H7.81132H7.79599H7.78066H7.76534H7.75003H7.73473H7.71944H7.70415H7.68887H7.6736H7.65833H7.64307H7.62782H7.61258H7.59734H7.58211H7.56688H7.55167H7.53645H7.52125H7.50605H7.49085H7.47566H7.46048H7.4453H7.43013H7.41496H7.3998H7.38465H7.3695H7.35435H7.33921H7.32407H7.30894H7.29381H7.27869H7.26357H7.24845H7.23334H7.21823H7.20313H7.18803H7.17294H7.15784H7.14275H7.12767H7.11258H7.0975H7.08243H7.06735H7.05228H7.03721H7.02215H7.00708H6.99202H6.97696H6.9619H6.94685H6.93179H6.91674H6.90169H6.88664H6.87159H6.85654H6.8415H6.82645H6.81141H6.79637H6.78132H6.76628H6.75124H6.7362H6.72116H6.70612H6.69108H6.67604H6.661H6.64596H6.63092H6.61587H6.60083H6.58579H6.57074H6.5557H6.54065H6.52561H6.51056H6.49551H6.48046H6.4654H6.45035H6.43529H6.42023H6.40517H6.39011H6.37504H6.35998H6.34491H6.32983H6.31476H6.29968H6.2846H6.26951H6.25443H6.23933H6.22424H6.20914H6.19404H6.17894H6.16383H6.14871H6.1336H6.11847H6.10335H6.08822H6.07308H6.05795H6.0428H6.02765H6.0125H5.99734H5.98218H5.96701H5.95183H5.93665H5.92147H5.90628H5.89108H5.87588H5.86067H5.84545H5.83023H5.815H5.79977H5.78453H5.76928H5.75402H5.73876H5.72349H5.70822H5.69293H5.67764H5.66235H5.64704H5.63173H5.61641H5.60108H5.58574H5.57039H5.55504H5.53968H5.52431H5.50893H5.49354H5.47814H5.46274H5.44732H5.4319H5.41647H5.40102H5.38557H5.37011H5.35464H5.33916H5.32367H5.30817H5.29266H5.27713H5.2616H5.24606H5.23051H5.21494H5.19937H5.18378H5.16819H5.15258H5.13696H5.12133H5.10569H5.09004H5.07437H5.05869H5.04301H5.02731H5.01159H4.99587H4.98013H4.96438H4.94862H4.93284H4.91705H4.90125H4.88544H4.86961H4.85377H4.83792H4.82205H4.80617H4.79027H4.77437H4.75844H4.74251H4.72656H4.71059H4.69461H4.67862H4.66261H4.64659H4.63055H4.6145H4.59843H4.58235H4.56625H4.55014H4.53401H4.51787H4.50171H4.48553H4.46934H4.45313H4.43691H4.42067H4.40441H4.38814H4.37185H4.35554H4.33922H4.32288H4.30652H4.29015H4.27376H4.25735H4.24092H4.22448H4.20802H4.19154H4.17504H4.15853H4.14199H4.12544H4.10887H4.09228H4.07568H4.05905H4.04241H4.02574H4.00906H3.99236H3.97564H3.9589H3.94214H3.92536H3.90857H3.89175H3.87491H3.85805H3.84117H3.82427H3.80736H3.79042H3.77346H3.75648H3.73947H3.72245H3.70541H3.68835H3.67126H3.65415H3.63702H3.61988H3.6027H3.58551H3.5683H3.55106H3.5338H3.51652H3.49921H3.48189H3.46454H3.44717H3.42977H3.41236H3.39492H3.37745H3.35997H3.34246H3.32492H3.30737H3.28979H3.27218H3.25455H3.2369H3.21923H3.20153H3.1838H3.16605H3.14828H3.13048H3.11266H3.09481H3.07694H3.05904H3.04112H3.02317H3.00519H2.9872H2.96917H2.95112H2.93304H2.91494H2.89681H2.87866H2.86047H2.84227H2.82403H2.80577H2.78748H2.76917H2.75083H2.73246H2.71406H2.69564H2.67719H2.65871H2.64021H2.62167H2.60311H2.58452H2.56591H2.54726H2.52859H2.50988H2.49115H2.47239H2.45361H2.43479H2.41594H2.39707H2.37816H2.35923H2.34027H2.32127H2.30225H2.2832H2.26412H2.24501H2.22587H2.20669H2.18749H2.16826C1.88848 14.1666 1.64371 14.0498 1.49546 13.8874C1.35498 13.7335 1.30111 13.5443 1.36531 13.3345C1.97879 11.329 3.95711 9.83331 6.33329 9.83331C8.70948 9.83331 10.6878 11.329 11.3013 13.3345Z"
    stroke="currentColor"/>
  <path
    d="M9.49996 4.99998C9.49996 6.74888 8.08219 8.16665 6.33329 8.16665C4.58439 8.16665 3.16663 6.74888 3.16663 4.99998C3.16663 3.25108 4.58439 1.83331 6.33329 1.83331C8.08219 1.83331 9.49996 3.25108 9.49996 4.99998Z"
    stroke="currentColor"/>
</svg>
