<svg width="16" height="16" viewBox="0 0 16 16" fill="currentColor" stroke="currentColor"
     xmlns="http://www.w3.org/2000/svg">
  <path
    d="M12.741 2.21797C13.0292 1.92765 13.4965 1.92765 13.7847 2.21797C14.0729 2.50828 14.0729 2.97898 13.7847 3.26929L9.08749 8.00092L13.7839 12.7317C14.0721 13.0221 14.0721 13.4928 13.7839 13.7831C13.4957 14.0734 13.0284 14.0734 12.7402 13.7831L8.00029 9.00846L3.2604 13.7831C2.97219 14.0734 2.50491 14.0734 2.2167 13.7831C1.92849 13.4928 1.92849 13.0221 2.2167 12.7317L6.91309 8.00092L2.21589 3.26929C1.92769 2.97898 1.92769 2.50828 2.21589 2.21797C2.50409 1.92766 2.97136 1.92766 3.25956 2.21797L7.95676 6.9496L8.00029 6.99322L12.741 2.21797Z"
    />
</svg>
