<svg width="16" height="16" viewBox="0 0 16 16" fill="none" xmlns="http://www.w3.org/2000/svg">
<path fill-rule="evenodd" clip-rule="evenodd" d="M1.69973 6C2.12371 6.41072 2.92758 7.12352 3.97534 7.75205C5.11535 8.43593 6.51065 9 8.00001 9C9.48936 9 10.8847 8.43593 12.0247 7.75205C13.0724 7.12352 13.8763 6.41072 14.3003 6C13.8763 5.58928 13.0724 4.87648 12.0247 4.24795C10.8847 3.56407 9.48936 3 8.00001 3C6.51065 3 5.11535 3.56408 3.97534 4.24795C2.92758 4.87648 2.12371 5.58928 1.69973 6ZM3.46092 3.39041C4.68817 2.65421 6.26372 2 8.00001 2C9.73629 2 11.3118 2.65421 12.5391 3.39041C13.7693 4.12839 14.6831 4.96893 15.1056 5.38929C15.4466 5.72856 15.4466 6.27144 15.1056 6.61071C14.6831 7.03107 13.7693 7.87161 12.5391 8.60959C11.3118 9.34579 9.7363 10 8.00001 10C6.26372 10 4.68817 9.34579 3.46092 8.60959C2.23072 7.87161 1.31687 7.03107 0.894383 6.61071C0.553395 6.27144 0.553394 5.72856 0.894383 5.38929C1.31687 4.96893 2.23072 4.12839 3.46092 3.39041ZM3.13015 11.6635C3.3158 11.4595 3.63163 11.4444 3.83592 11.6296L3.83591 11.6296L3.8355 11.6293L3.83512 11.6289C3.83506 11.6289 3.8354 11.6292 3.83612 11.6298L3.83592 11.6296C3.836 11.6297 3.83609 11.6298 3.83617 11.6299C3.83632 11.63 3.83647 11.6301 3.50001 12L3.16355 12.3699C2.95928 12.184 2.94433 11.8678 3.13015 11.6635ZM3.50001 12L3.83647 11.6301L3.84513 11.6376C3.85423 11.6455 3.8695 11.6584 3.89084 11.6756C3.93353 11.7101 4.0004 11.762 4.09065 11.8255C4.27127 11.9526 4.54459 12.1258 4.90424 12.3C5.62298 12.6483 6.68444 13 8.04304 13C9.40107 13 10.4394 12.6486 11.1338 12.3025C11.4815 12.1292 11.7431 11.9572 11.9149 11.8312C12.0007 11.7683 12.0639 11.717 12.1039 11.683C12.1239 11.6661 12.1381 11.6535 12.1465 11.6459L12.1541 11.639L12.1548 11.6383L12.1552 11.638C12.3545 11.4481 12.67 11.455 12.8607 11.6538C13.052 11.853 13.0455 12.1695 12.8462 12.3607L12.5 12C12.8462 12.3607 12.8461 12.3609 12.8459 12.3611L12.8455 12.3614L12.8446 12.3623L12.8425 12.3643L12.8363 12.3701L12.817 12.3878C12.8011 12.4022 12.7789 12.4218 12.7505 12.4459C12.6938 12.494 12.6122 12.5599 12.5063 12.6376C12.2946 12.7929 11.9846 12.9958 11.5798 13.1975C10.7693 13.6014 9.57912 14 8.04304 14C6.50752 14 5.29747 13.6017 4.46822 13.2C4.05388 12.9992 3.73408 12.7974 3.5151 12.6433C3.40554 12.5662 3.32098 12.5008 3.26219 12.4533C3.23279 12.4295 3.20981 12.4102 3.19334 12.3961L3.17353 12.3788L3.16731 12.3733L3.16512 12.3713L3.16426 12.3705L3.16389 12.3702C3.16372 12.37 3.16355 12.3699 3.50001 12ZM8.00001 8C9.10458 8 10 7.10457 10 6C10 4.89543 9.10458 4 8.00001 4C6.89544 4 6.00001 4.89543 6.00001 6C6.00001 7.10457 6.89544 8 8.00001 8Z" fill="currentColor"/>
</svg>
