<svg width="16" height="16" viewBox="0 0 16 16" fill="none" xmlns="http://www.w3.org/2000/svg">
  <path fill-rule="evenodd" clip-rule="evenodd" d="M13.7737 6.843L11.3719 9.24433C10.0971 10.519 8.0301 10.519 6.75523 9.24433C6.4518 8.94096 6.2206 8.59273 6.0616 8.22099C6.33647 8.01699 6.64585 7.89321 7.00674 7.88478C7.11572 8.12111 7.26761 8.34253 7.4624 8.53729C8.34671 9.42143 9.78046 9.42143 10.6648 8.53729L13.0665 6.13596C13.9508 5.25182 13.9508 3.81834 13.0665 2.93419C12.1822 2.05005 10.7485 2.05005 9.86417 2.93419L8.01354 4.78449C7.56464 4.65999 7.11678 4.64121 6.69039 4.69514C6.71162 4.67269 6.73324 4.65047 6.75523 4.62848L9.157 2.22715C10.4319 0.952521 12.4988 0.952522 13.7737 2.22715C15.0486 3.50179 15.0486 5.56837 13.7737 6.843ZM9.24465 11.3712L6.84288 13.7725C5.56801 15.0472 3.50104 15.0472 2.22617 13.7725C0.951302 12.4979 0.951303 10.4313 2.22617 9.15668L4.62794 6.75535C5.90281 5.48072 7.96978 5.48072 9.24465 6.75535C9.61123 7.12186 9.87241 7.55386 10.0282 8.01367C9.74303 8.21096 9.42871 8.31525 9.07422 8.31562C8.96546 8.004 8.78654 7.71141 8.53748 7.46239C7.65317 6.57825 6.21943 6.57825 5.33512 7.46239L2.93334 9.86372C2.04904 10.7479 2.04904 12.1813 2.93334 13.0655C3.81765 13.9496 5.2514 13.9496 6.13571 13.0655L7.98431 11.2172C8.43206 11.3369 8.87901 11.3573 9.30513 11.3091C9.2853 11.33 9.26514 11.3507 9.24465 11.3712Z" fill="currentColor"/>
</svg>
