<svg width="16" height="16" viewBox="0 0 16 16" fill="none" xmlns="http://www.w3.org/2000/svg">
  <path fill-rule="evenodd" clip-rule="evenodd" d="M10.4 2C9.40072 2 8.52128 2.57889 8.00002 3.38876C7.47876 2.5789 6.59931 2.00001 5.60002 2.00001H1.5C1.22386 2.00001 1 2.22387 1 2.50001V11.5C1 11.7762 1.22386 12 1.5 12H6C6.34526 12 6.73073 12.1564 7.03218 12.424C7.33366 12.6916 7.50002 13.0229 7.50002 13.3334C7.50002 13.6095 7.72388 13.8334 8.00002 13.8334C8.27616 13.8334 8.50002 13.6095 8.50002 13.3334C8.50002 13.0229 8.66638 12.6916 8.96785 12.424C9.2693 12.1564 9.65476 12 10 12H14.5C14.7762 12 15 11.7761 15 11.5V2.5C15 2.22386 14.7762 2 14.5 2H10.4ZM8.50002 11.5176C8.9285 11.2022 9.4601 11 10 11H14V3H10.4C9.41526 3 8.50002 3.97473 8.50002 5.03706V11.5176ZM7.50002 11.5176V5.03706C7.50002 3.97473 6.58479 3.00001 5.60002 3.00001H2V11H6C6.53992 11 7.07153 11.2022 7.50002 11.5176Z" fill="currentColor"/>
</svg>
