<svg width="16" height="16" viewBox="0 0 16 16" fill="currentColor" stroke="currentColor"
     xmlns="http://www.w3.org/2000/svg">
  <mask id="header-goal" fill="white" stroke="none">
    <path
      d="M3.0053 1.75665L3.62362 6.7032C3.80735 8.17304 4.39989 9.52102 5.57357 10.4247C5.85299 10.6399 5.98883 10.9589 5.98563 11.2745C5.97248 12.5736 3.9974 12.774 3.9974 14.1869C3.9974 14.6359 4.36146 15 4.81055 15H11.1895C11.6385 15 12.0026 14.6359 12.0026 14.1869C12.0026 12.774 10.0275 12.5736 10.0144 11.2745C10.0112 10.9589 10.147 10.6399 10.4264 10.4247C11.6001 9.52102 12.1927 8.17304 12.3764 6.7032L12.9947 1.75665C12.9983 1.72812 13 1.69982 13 1.67188C13 1.30626 12.7029 1 12.3267 1H3.67326C3.29711 1 3.00003 1.30626 3 1.67188C3 1.69982 3.00173 1.72812 3.0053 1.75665Z"/>
  </mask>
  <path
    d="M3.0053 1.75665L3.62362 6.7032C3.80735 8.17304 4.39989 9.52102 5.57357 10.4247C5.85299 10.6399 5.98883 10.9589 5.98563 11.2745C5.97248 12.5736 3.9974 12.774 3.9974 14.1869C3.9974 14.6359 4.36146 15 4.81055 15H11.1895C11.6385 15 12.0026 14.6359 12.0026 14.1869C12.0026 12.774 10.0275 12.5736 10.0144 11.2745C10.0112 10.9589 10.147 10.6399 10.4264 10.4247C11.6001 9.52102 12.1927 8.17304 12.3764 6.7032L12.9947 1.75665C12.9983 1.72812 13 1.69982 13 1.67188C13 1.30626 12.7029 1 12.3267 1H3.67326C3.29711 1 3.00003 1.30626 3 1.67188C3 1.69982 3.00173 1.72812 3.0053 1.75665Z"
    fill="none" stroke-width="2" mask="url(#header-goal)"/>
  <path d="M12 3.5L13.7962 3.5C14.1828 3.5 14.4962 3.8134 14.4962 4.2V5.50383C14.4962 7.71085 12.707 9.5 10.5 9.5V9.5"
        fill="none"/>
  <path d="M3.33554 3.5H2.20486C1.81826 3.5 1.50486 3.8134 1.50486 4.2V5.50486C1.50486 7.71131 3.29355 9.5 5.5 9.5V9.5"
        fill="none"/>
</svg>
