<svg width="16" height="16" viewBox="0 0 16 16" fill="none" xmlns="http://www.w3.org/2000/svg">
  <path fill-rule="evenodd" clip-rule="evenodd" d="M6.75393 2.20288C6.75393 1.43756 7.38361 0.833313 8.14021 0.833313C8.89681 0.833313 9.52649 1.43756 9.52649 2.20288V4.7679L10.021 3.35504C10.2104 2.64196 10.9332 2.2124 11.6514 2.36405C12.3809 2.51808 12.8665 3.22136 12.7232 3.96093C12.7204 3.97525 12.717 3.98945 12.713 4.00348L12.1919 5.82284L12.4024 5.50048C12.5341 5.30284 12.7432 5.01012 13.0589 4.84904C13.4313 4.65897 13.8459 4.697 14.2581 4.94552C14.6481 5.18065 14.7937 5.58621 14.8166 5.93208C14.8384 6.26291 14.7575 6.61044 14.6015 6.89314C14.4553 7.26121 14.2579 7.59396 14.0549 7.90515C13.9521 8.06275 13.8587 8.19945 13.767 8.33357C13.6532 8.50019 13.5421 8.66283 13.419 8.85662C13.0163 9.49046 12.6755 10.1812 12.5953 11.1329L12.5938 11.1486C12.4209 12.6375 12.1073 13.6836 11.4587 14.3374C10.7894 15.0122 9.87018 15.1666 8.79197 15.1666H7.54936C6.68907 15.1662 5.86415 14.8204 5.26753 14.2064C5.25386 14.1923 5.24102 14.1774 5.2291 14.1619L2.15016 10.1394C1.80398 9.81222 1.65066 9.32814 1.75383 8.859C1.86087 8.37222 2.22523 7.98569 2.69986 7.84105C3.1704 7.69766 3.68434 7.81137 4.04823 8.14288L4.57575 8.59478L3.23383 3.63047C3.23173 3.62273 3.22983 3.61493 3.22811 3.60709C3.06392 2.85829 3.55121 2.13438 4.29331 1.97774C5.0182 1.82472 5.74548 2.26381 5.92766 2.98387L6.75393 5.07921V2.20288ZM8.14021 1.83331C7.91786 1.83331 7.75393 2.0077 7.75393 2.20288V7.71012C7.75393 7.95027 7.58321 8.1565 7.34729 8.20133C7.11136 8.24617 6.87689 8.11695 6.78879 7.89355L4.98433 3.31763C4.97456 3.29284 4.96678 3.26732 4.96108 3.2413C4.91866 3.04788 4.71763 2.9102 4.49984 2.95618C4.28832 3.00082 4.16714 3.19621 4.20301 3.38368L5.96405 9.89849C6.0213 10.1103 5.93382 10.3346 5.74834 10.4517C5.56285 10.5689 5.32269 10.5514 5.15609 10.4087L3.39122 8.8968C3.38639 8.89266 3.38163 8.88844 3.37697 8.88412C3.27595 8.79066 3.12825 8.75591 2.99137 8.79762C2.8552 8.83912 2.75834 8.94713 2.73049 9.07376C2.7028 9.19971 2.74548 9.33325 2.84848 9.42299C2.87373 9.44499 2.89671 9.46947 2.91707 9.49607L6.00432 13.5294C6.40913 13.9353 6.96579 14.1664 7.54959 14.1666H8.79197C9.81424 14.1666 10.3763 14.0086 10.7487 13.6332C11.1412 13.2376 11.4297 12.4976 11.5995 11.0408C11.6997 9.8722 12.1263 9.0265 12.5749 8.32037C12.6937 8.13333 12.833 7.92855 12.963 7.73729C13.0562 7.60033 13.1446 7.4703 13.2174 7.35869C13.4129 7.05909 13.5723 6.78314 13.6826 6.49742C13.6924 6.47206 13.7042 6.44754 13.718 6.4241C13.7877 6.30539 13.8282 6.14063 13.8188 5.998C13.8094 5.85561 13.7606 5.81324 13.7418 5.80192C13.6432 5.74246 13.5858 5.73141 13.5625 5.72951C13.544 5.72801 13.5316 5.73046 13.5134 5.73976C13.4894 5.75203 13.4516 5.77901 13.3999 5.83556C13.3486 5.89171 13.2956 5.96353 13.2359 6.05315L11.2177 9.14297C11.0824 9.35004 10.8161 9.42711 10.5912 9.32428C10.3662 9.22145 10.2503 8.96962 10.3184 8.73186L11.7443 3.75377C11.7705 3.5711 11.6498 3.38576 11.4448 3.34247C11.2309 3.2973 11.032 3.42959 10.9856 3.61905C10.9818 3.63464 10.9772 3.65003 10.9719 3.66517L9.49842 7.87529C9.41788 8.10543 9.18309 8.24391 8.94272 8.20306C8.70235 8.16221 8.52649 7.95394 8.52649 7.71012V2.20288C8.52649 2.0077 8.36256 1.83331 8.14021 1.83331Z" fill="currentColor"/>
</svg>
