<svg width="16" height="16" viewBox="0 0 16 16" fill="none" xmlns="http://www.w3.org/2000/svg">
  <path
    d="M12.6066 6.94975L12.9602 7.3033C13.069 7.19443 13.1217 7.04147 13.1029 6.88866C13.084 6.73584 12.9959 6.60022 12.8638 6.521L12.6066 6.94975ZM6.94975 12.6066L6.521 12.8639C6.60022 12.9959 6.73584 13.084 6.88866 13.1029C7.04147 13.1217 7.19443 13.069 7.3033 12.9602L6.94975 12.6066ZM2.7071 5.53554L2.35355 5.18199C2.19131 5.34422 2.16031 5.59605 2.27835 5.79279L2.7071 5.53554ZM5.53553 2.70712L5.79277 2.27837C5.59604 2.16033 5.34421 2.19133 5.18197 2.35356L5.53553 2.70712ZM6.59619 2.35355C6.79146 2.15829 6.79146 1.84171 6.59619 1.64645C6.40093 1.45118 6.08435 1.45118 5.88909 1.64645L6.59619 2.35355ZM1.64645 5.88909C1.45118 6.08435 1.45118 6.40093 1.64645 6.59619C1.84171 6.79146 2.15829 6.79146 2.35355 6.59619L1.64645 5.88909ZM13.6673 6.59619C13.8625 6.40093 13.8625 6.08435 13.6673 5.88909C13.472 5.69383 13.1554 5.69383 12.9602 5.88909L13.6673 6.59619ZM5.88909 12.9602C5.69383 13.1554 5.69383 13.472 5.88909 13.6673C6.08435 13.8625 6.40093 13.8625 6.59619 13.6673L5.88909 12.9602ZM13.3137 14.0208C13.509 14.2161 13.8256 14.2161 14.0208 14.0208C14.2161 13.8256 14.2161 13.509 14.0208 13.3137L13.3137 14.0208ZM10.1317 9.42462C9.93647 9.22936 9.61988 9.22936 9.42462 9.42462C9.22936 9.61988 9.22936 9.93647 9.42462 10.1317L10.1317 9.42462ZM12.253 6.59619L6.59619 12.253L7.3033 12.9602L12.9602 7.3033L12.253 6.59619ZM7.37849 12.3494L3.13585 5.27829L2.27835 5.79279L6.521 12.8639L7.37849 12.3494ZM3.06065 5.8891L5.88908 3.06067L5.18197 2.35356L2.35355 5.18199L3.06065 5.8891ZM5.27828 3.13586L12.3494 7.37849L12.8638 6.521L5.79277 2.27837L5.27828 3.13586ZM5.88909 1.64645L1.64645 5.88909L2.35355 6.59619L6.59619 2.35355L5.88909 1.64645ZM12.9602 5.88909L5.88909 12.9602L6.59619 13.6673L13.6673 6.59619L12.9602 5.88909ZM14.0208 13.3137L10.1317 9.42462L9.42462 10.1317L13.3137 14.0208L14.0208 13.3137Z"
    fill="currentColor"/>
</svg>
