<svg width="16" height="16" viewBox="0 0 16 16" fill="none" xmlns="http://www.w3.org/2000/svg">
  <path
    d="M5.67415 9.935C5.64098 9.935 5.61488 9.92694 5.59695 9.91828C5.90402 9.17907 6.82057 8.565 8 8.565C9.17943 8.565 10.096 9.17907 10.4031 9.91829C10.3851 9.92694 10.359 9.935 10.3259 9.935H5.67415ZM10.4815 9.93962L10.481 9.93829L10.4815 9.93962ZM5.86687 5.5C5.86687 6.6425 6.82397 7.565 8 7.565C9.17603 7.565 10.1331 6.6425 10.1331 5.5C10.1331 4.3575 9.17603 3.435 8 3.435C6.82397 3.435 5.86687 4.3575 5.86687 5.5ZM11.0269 9.74235C10.6258 8.68929 9.41657 7.935 8 7.935C6.58343 7.935 5.37416 8.68929 4.97311 9.74235C4.88924 9.96259 4.95049 10.1718 5.09018 10.3227C5.22843 10.472 5.44327 10.565 5.67415 10.565H10.3259C10.5568 10.565 10.7716 10.472 10.9098 10.3227C11.0495 10.1718 11.1108 9.96259 11.0269 9.74235ZM9.4861 5.5C9.4861 6.29049 8.82282 6.935 8 6.935C7.17718 6.935 6.5139 6.29049 6.5139 5.5C6.5139 4.70951 7.17718 4.065 8 4.065C8.82282 4.065 9.4861 4.70951 9.4861 5.5Z"
    fill="currentColor" stroke="currentColor" stroke-width="0.13" />
  <path
    d="M2.5 6.68423V3.443C2.5 3.23458 2.62929 3.04802 2.82444 2.97484L7.82444 1.09984C7.93763 1.05739 8.06237 1.05739 8.17556 1.09984L13.1756 2.97484C13.3707 3.04802 13.5 3.23458 13.5 3.443V6.68423C13.5 9.16651 12.2718 11.488 10.2197 12.8846L8.28131 14.2037C8.11156 14.3193 7.88844 14.3193 7.71869 14.2037L5.78032 12.8846C3.72819 11.488 2.5 9.16651 2.5 6.68423Z"
    stroke="currentColor" />
</svg>
