<svg width="16" height="16" viewBox="0 0 16 16" fill="none" xmlns="http://www.w3.org/2000/svg">
  <path
    d="M13.2677 13.7038C13.3401 13.9003 13.2953 14.0759 13.1632 14.2235C13.0213 14.3819 12.7784 14.5 12.4985 14.5H12.4788H12.4592H12.4396H12.4201H12.4006H12.3811H12.3616H12.3421H12.3227H12.3033H12.284H12.2647H12.2454H12.2261H12.2068H12.1876H12.1684H12.1492H12.1301H12.111H12.0919H12.0729H12.0538H12.0348H12.0158H11.9969H11.978H11.959H11.9402H11.9213H11.9025H11.8837H11.8649H11.8462H11.8274H11.8088H11.7901H11.7714H11.7528H11.7342H11.7156H11.6971H11.6785H11.66H11.6416H11.6231H11.6047H11.5863H11.5679H11.5495H11.5312H11.5128H11.4945H11.4763H11.458H11.4398H11.4216H11.4034H11.3853H11.3671H11.349H11.3309H11.3128H11.2948H11.2767H11.2587H11.2407H11.2228H11.2048H11.1869H11.169H11.1511H11.1332H11.1154H11.0976H11.0798H11.062H11.0442H11.0265H11.0087H10.991H10.9734H10.9557H10.938H10.9204H10.9028H10.8852H10.8676H10.8501H10.8325H10.815H10.7975H10.78H10.7626H10.7451H10.7277H10.7103H10.6929H10.6755H10.6581H10.6408H10.6234H10.6061H10.5888H10.5716H10.5543H10.537H10.5198H10.5026H10.4854H10.4682H10.451H10.4339H10.4167H10.3996H10.3825H10.3654H10.3483H10.3313H10.3142H10.2972H10.2802H10.2632H10.2462H10.2292H10.2122H10.1953H10.1783H10.1614H10.1445H10.1276H10.1107H10.0939H10.077H10.0602H10.0433H10.0265H10.0097H9.9929H9.97611H9.95934H9.94258H9.92583H9.90909H9.89236H9.87565H9.85895H9.84225H9.82557H9.8089H9.79224H9.77559H9.75895H9.74232H9.72571H9.7091H9.6925H9.67591H9.65933H9.64276H9.6262H9.60965H9.59311H9.57658H9.56006H9.54354H9.52704H9.51054H9.49405H9.47757H9.4611H9.44463H9.42818H9.41173H9.39529H9.37886H9.36243H9.34602H9.32961H9.3132H9.29681H9.28042H9.26403H9.24766H9.23129H9.21492H9.19857H9.18222H9.16587H9.14953H9.1332H9.11687H9.10055H9.08423H9.06792H9.05162H9.03531H9.01902H9.00273H8.98644H8.97016H8.95388H8.93761H8.92134H8.90507H8.88881H8.87255H8.8563H8.84005H8.8238H8.80756H8.79132H8.77508H8.75884H8.74261H8.72638H8.71016H8.69393H8.67771H8.66149H8.64527H8.62906H8.61284H8.59663H8.58042H8.56421H8.548H8.5318H8.51559H8.49939H8.48318H8.46698H8.45078H8.43457H8.41837H8.40217H8.38597H8.36977H8.35357H8.33737H8.32116H8.30496H8.28876H8.27255H8.25635H8.24014H8.22393H8.20773H8.19152H8.1753H8.15909H8.14288H8.12666H8.11044H8.09422H8.078H8.06177H8.04554H8.02931H8.01308H7.99684H7.9806H7.96436H7.94811H7.93187H7.91561H7.89936H7.8831H7.86683H7.85057H7.83429H7.81802H7.80174H7.78545H7.76916H7.75287H7.73657H7.72027H7.70396H7.68764H7.67132H7.655H7.63867H7.62233H7.60599H7.58964H7.57329H7.55693H7.54056H7.52419H7.50781H7.49142H7.47503H7.45862H7.44222H7.4258H7.40938H7.39295H7.37651H7.36007H7.34362H7.32716H7.31069H7.29421H7.27773H7.26123H7.24473H7.22822H7.2117H7.19517H7.17864H7.16209H7.14553H7.12897H7.11239H7.09581H7.07922H7.06261H7.046H7.02937H7.01274H6.99609H6.97944H6.96277H6.9461H6.92941H6.91271H6.896H6.87928H6.86255H6.8458H6.82905H6.81228H6.7955H6.77871H6.7619H6.74509H6.72826H6.71142H6.69457H6.6777H6.66082H6.64393H6.62703H6.61011H6.59318H6.57623H6.55927H6.5423H6.52531H6.50831H6.4913H6.47427H6.45723H6.44017H6.4231H6.40601H6.38891H6.37179H6.35466H6.33752H6.32035H6.30318H6.28598H6.26877H6.25155H6.23431H6.21705H6.19978H6.18249H6.16518H6.14786H6.13052H6.11317H6.09579H6.0784H6.061H6.04357H6.02613H6.00867H5.99119H5.9737H5.95619H5.93866H5.92111H5.90354H5.88596H5.86835H5.85073H5.83309H5.81543H5.79775H5.78005H5.76233H5.74459H5.72684H5.70906H5.69126H5.67345H5.65561H5.63775H5.61988H5.60198H5.58406H5.56612H5.54816H5.53018H5.51218H5.49416H5.47612H5.45805H5.43997H5.42186H5.40373H5.38558H5.3674H5.34921H5.33099H5.31275H5.29449H5.2762H5.25789H5.23956H5.22121H5.20283H5.18443H5.16601H5.14756H5.12909H5.1106H5.09208H5.07354H5.05497H5.03638H5.01776H4.99912H4.98046H4.96177H4.94306H4.92432H4.90556H4.88677H4.86795H4.84911H4.83025H4.81136H4.79244H4.7735H4.75453H4.73553H4.71651H4.69746H4.67839H4.65929H4.64016H4.62101H4.60183H4.58262H4.56338H4.54412H4.52483H4.50551H4.48616H4.46679H4.44738H4.42795H4.40849H4.38901H4.36949H4.34994H4.33037H4.31077H4.29114H4.27148H4.25179H4.23207H4.21232H4.19254H4.17273H4.15289H4.13303H4.11313H4.0932H4.07324H4.05325H4.03323H4.01318H3.9931H3.97298H3.95284H3.93267H3.91246H3.89222H3.87195H3.85165H3.83132H3.81095H3.79055H3.77012H3.74966H3.72917H3.70864H3.68808H3.66749H3.64686H3.6262H3.60551H3.58479H3.56403H3.54323H3.52241H3.50155C3.22169 14.5 2.9787 14.3819 2.83681 14.2235C2.7047 14.0759 2.65995 13.9003 2.73233 13.7038C3.3994 11.8925 5.46723 10.5 8 10.5C10.5328 10.5 12.6006 11.8925 13.2677 13.7038Z"
    stroke="currentColor"/>
  <circle cx="8" cy="5" r="3.5" stroke="currentColor"/>
</svg>
