<svg width="16" height="16" viewBox="0 0 16 16" fill="none" xmlns="http://www.w3.org/2000/svg">
  <path fill-rule="evenodd" clip-rule="evenodd"
        d="M8.01278 12.167C7.75211 12.3025 7.54473 12.4017 7.40241 12.4671C7.26502 12.53 7.07724 12.4953 6.9119 12.3794C6.86953 12.3497 6.82736 12.3198 6.7854 12.2897C6.28428 13.2149 6.00704 13.9504 5.88008 14.7124C5.82183 15.062 5.79522 15.4173 5.79315 15.799C6.12423 15.688 6.46337 15.569 6.80405 15.443C8.65343 14.7594 10.548 13.8733 11.4436 12.9776C12.3126 12.1087 11.8346 11.3076 11.1817 10.2133C11.1702 10.1939 11.1586 10.1744 11.1469 10.1549C10.8684 10.3681 10.5974 10.5657 10.3364 10.7483C10.3876 10.8342 10.4361 10.9155 10.4804 10.991C10.6665 11.3079 10.7877 11.536 10.8574 11.7256C10.9235 11.9053 10.9174 11.9835 10.9122 12.0126C10.9087 12.032 10.8921 12.115 10.7365 12.2705C10.3316 12.6755 9.57942 13.1433 8.58834 13.6159C8.08679 13.8551 7.54744 14.0847 6.99952 14.299C7.17544 13.7015 7.48332 13.051 7.99456 12.1846C8.0006 12.1788 8.00668 12.1729 8.01278 12.167ZM3.64446 9.15108C3.62443 9.12322 3.6045 9.09527 3.58465 9.06723C3.41203 8.82363 3.367 8.54406 3.46434 8.34376C3.50982 8.25052 3.56587 8.13873 3.63287 8.01033C2.825 8.48037 2.2067 8.7683 1.6367 8.93613C1.85092 8.38821 2.08056 7.84886 2.31975 7.34731C2.79239 6.35623 3.26014 5.60409 3.66512 5.19911C3.82065 5.04358 3.90365 5.02699 3.9231 5.02347C3.95214 5.01821 4.03034 5.01213 4.21011 5.07825C4.39965 5.14796 4.62776 5.26912 4.94469 5.45521C5.00779 5.49226 5.07491 5.5322 5.14539 5.57422C5.3311 5.31521 5.53213 5.04622 5.749 4.76981C5.7401 4.7645 5.73122 4.7592 5.72236 4.75392C4.62802 4.10102 3.82693 3.62308 2.95802 4.492C2.06235 5.38767 1.17624 7.28222 0.492636 9.1316C0.366708 9.47228 0.247652 9.81142 0.136673 10.1425C0.518385 10.1404 0.873621 10.1138 1.22327 10.0556C1.98487 9.92868 2.71998 9.65168 3.64446 9.15108ZM6.54183 12.111C6.21581 11.8663 5.90261 11.6089 5.60222 11.3387C5.63406 12.0098 5.45808 12.2189 5.3044 12.287C4.95918 12.4399 4.59161 12.571 4.20984 12.6993C4.1122 12.7322 4.01131 12.7656 3.9091 12.7994L3.90907 12.7994L3.90906 12.7994L3.90906 12.7994C3.63127 12.8913 3.34378 12.9865 3.08568 13.0823C3.10771 12.8734 3.14131 12.6581 3.19028 12.4434C3.32501 11.8524 3.56424 11.3151 3.94915 10.9082C4.1304 10.7166 4.35828 10.5384 4.6516 10.3944C4.42261 10.1432 4.20265 9.88302 3.99171 9.61378C2.43066 10.5183 2.08481 12.3138 2.05247 13.5766C2.0318 14.3839 2.13925 14.9735 2.13925 14.9735C2.23318 14.6253 2.57895 14.3817 3.06007 14.1699C3.39067 14.0243 3.78518 13.8938 4.20581 13.7546C4.69157 13.5938 5.21215 13.4216 5.70936 13.2013C6.19691 12.9854 6.43908 12.574 6.54183 12.111Z"
        fill="currentColor"/>
  <path
    d="M14.7716 5.16892L14.7716 5.16889L14.7686 5.17691L14.7367 5.26524C14.3889 6.14497 13.8671 7.0216 13.0917 7.79325C10.5233 10.3484 8.0182 11.6295 7.23811 11.9921C7.2378 11.992 7.23749 11.9919 7.23717 11.9917C7.22665 11.9872 7.21354 11.9802 7.19886 11.9699L7.19879 11.9698C5.94426 11.0908 4.87687 10.0275 3.99275 8.77835L3.99259 8.77812C3.94557 8.71177 3.92369 8.65105 3.91658 8.6079C3.91167 8.57812 3.91449 8.56311 3.9153 8.55967C4.32446 7.72163 5.63331 5.3003 8.1566 2.83077C8.94851 2.05574 9.84561 1.54113 10.7438 1.20345L10.7553 1.19913L10.7665 1.19425L10.7949 1.18195C12.6947 0.481845 14.5647 0.574064 15.3402 0.657138C15.4159 1.43005 15.4891 3.28815 14.7716 5.16892Z"
    stroke="currentColor"/>
  <circle cx="10.7429" cy="5.19241" r="1.5" transform="rotate(45 10.7429 5.19241)" stroke="currentColor"/>
</svg>
