<svg width="16" height="16" viewBox="0 0 16 16" fill="none" xmlns="http://www.w3.org/2000/svg">
<path fill-rule="evenodd" clip-rule="evenodd" d="M8 14C11.3137 14 14 11.3137 14 8C14 4.68629 11.3137 2 8 2C4.68629 2 2 4.68629 2 8C2 11.3137 4.68629 14 8 14ZM8 15C11.866 15 15 11.866 15 8C15 4.13401 11.866 1 8 1C4.13401 1 1 4.13401 1 8C1 11.866 4.13401 15 8 15ZM8.61754 11.3966C8.61754 11.7377 8.34105 12.0142 7.99998 12.0142C7.6589 12.0142 7.38241 11.7377 7.38241 11.3966C7.38241 11.0555 7.6589 10.779 7.99998 10.779C8.34105 10.779 8.61754 11.0555 8.61754 11.3966ZM7.10844 4.94046C7.26272 4.77215 7.46149 4.65095 7.68177 4.59087C7.89012 4.53405 8.10988 4.53405 8.31823 4.59087L8.50137 4.64082C8.63617 4.67759 8.76604 4.74012 8.88029 4.82321C9.08123 4.96935 9.23126 5.17891 9.30302 5.41377L9.31812 5.46317C9.34105 5.53821 9.3527 5.61624 9.3527 5.6947C9.3527 5.87435 9.29165 6.04866 9.17957 6.18905L8.77784 6.69223L8.32619 7.18494C7.79479 7.76464 7.5 8.52247 7.5 9.30889V9.30904V9.30919V9.30934V9.30949V9.30964V9.30979V9.30994V9.31009V9.31024V9.31039V9.31054V9.31069V9.31084V9.31099V9.31114V9.31129V9.31144V9.31159V9.31174V9.31189V9.31204V9.31219V9.31234V9.31249V9.31264V9.31279V9.31294V9.31309V9.31324V9.31339V9.31354V9.31369V9.31384V9.31399V9.31414V9.31429V9.31444V9.31459V9.31474V9.31489V9.31504V9.31519V9.31534V9.31549V9.31565V9.3158V9.31595V9.3161V9.31625V9.3164V9.31655V9.3167V9.31685V9.317V9.31715V9.3173V9.31745V9.3176V9.31775V9.3179V9.31805V9.3182V9.31836V9.31851V9.31866V9.31881V9.31896V9.31911V9.31926V9.31941V9.31956V9.31971V9.31986V9.32001V9.32017V9.32032V9.32047V9.32062V9.32077V9.32092V9.32107V9.32122V9.32137V9.32152V9.32167V9.32183V9.32198V9.32213V9.32228V9.32243V9.32258V9.32273V9.32288V9.32303V9.32318V9.32334V9.32349V9.32364V9.32379V9.32394V9.32409V9.32424V9.32439V9.32454V9.3247V9.32485V9.325V9.32515V9.3253V9.32545V9.3256V9.32576V9.32591V9.32606V9.32621V9.32636V9.32651V9.32666V9.32682V9.32697V9.32712V9.32727V9.32742V9.32757V9.32772V9.32788V9.32803V9.32818V9.32833V9.32848V9.32863V9.32878V9.32894V9.32909V9.32924V9.32939V9.32954V9.32969V9.32985V9.33V9.33015V9.3303V9.33045V9.33061V9.33076V9.33091V9.33106V9.33121V9.33136V9.33152V9.33167V9.33182V9.33197V9.33212V9.33228V9.33243V9.33258V9.33273V9.33288V9.33304V9.33319V9.33334V9.33349V9.33364V9.3338V9.33395V9.3341V9.33425V9.3344V9.33456V9.33471V9.33486V9.33501V9.33517V9.33532V9.33547V9.33562V9.33577V9.33593V9.33608V9.33623V9.33638V9.33653V9.33669V9.33684V9.33699V9.33714V9.3373V9.33745V9.3376V9.33775V9.33791V9.33806V9.33821V9.33836V9.33852V9.33867V9.33882V9.33897V9.33912V9.33928V9.33943V9.33958V9.33974V9.33989V9.34004V9.34019V9.34035V9.3405V9.34065V9.3408V9.34096V9.34111V9.34126V9.34141V9.34157V9.34172V9.34187V9.34203V9.34218V9.34233V9.34248V9.34264V9.34279V9.34294V9.34309V9.34325V9.3434V9.34355V9.34371V9.34386V9.34401V9.34417V9.34432V9.34447V9.34462V9.34478V9.34493V9.34508V9.34524V9.34539V9.34554V9.3457V9.34585V9.346V9.34616V9.34631V9.34646V9.34661V9.34677V9.34692V9.34707V9.34723V9.34738V9.34753V9.34769V9.34784V9.34799V9.34815V9.3483V9.34845V9.34861V9.34876V9.34891V9.34907V9.34922V9.34937V9.34953V9.34968V9.34983V9.34999V9.35014V9.35029V9.35045V9.3506V9.35075V9.35091V9.35106V9.35122V9.35137V9.35152V9.35168V9.35183V9.35198V9.35214V9.35229V9.35244V9.3526V9.35275V9.35291V9.35306V9.35321V9.35337V9.35352V9.35367V9.35383V9.35398V9.35414V9.35429V9.35444V9.3546V9.35475V9.35491V9.35506V9.35521V9.35537V9.35552V9.35567V9.35583V9.35598V9.35614V9.35629V9.35645V9.3566V9.35675V9.35691V9.35706V9.35722V9.35737V9.35752V9.35768V9.35783V9.35799V9.35814V9.35829V9.35845V9.3586V9.35876V9.35891V9.35907V9.35922V9.35937V9.35953V9.35968V9.35984V9.35999V9.36015V9.3603V9.36045V9.36061V9.36076V9.36092V9.36107V9.36123V9.36138V9.36154V9.36169V9.36185V9.362V9.36215V9.36231V9.36246V9.36262V9.36277V9.36293V9.36308V9.36324V9.36339V9.36355V9.3637V9.36386V9.36401V9.36416V9.36432V9.36447V9.36463V9.36478V9.36494V9.36509V9.36525V9.3654V9.36556V9.36571V9.36587V9.36602V9.36618V9.36633V9.36649V9.36664V9.3668V9.36695V9.36711V9.36726V9.36742V9.36757V9.36773V9.36788V9.36804V9.36819V9.36835V9.3685V9.36866V9.36881V9.36897V9.36912V9.36928V9.36943V9.36959V9.36974V9.3699V9.37005V9.37021V9.37037V9.37052V9.37068V9.37083V9.37099V9.37114V9.3713V9.37145V9.37161V9.37176V9.37192V9.37207V9.37223V9.37239V9.37254V9.3727V9.37285V9.37301V9.37316V9.37332V9.37347V9.37363V9.37379V9.37394V9.3741V9.37425V9.37441V9.37456V9.37472V9.37487V9.37503V9.37519V9.37534V9.3755V9.37565V9.37581V9.37597V9.37612V9.37628V9.37643V9.37659V9.37674V9.3769V9.37706V9.37721V9.37737V9.37752V9.37768V9.37784V9.37799V9.37815V9.3783V9.37846V9.37862V9.37877V9.37893V9.37908V9.37924V9.3794V9.37955V9.37971V9.37986V9.38002V9.38018V9.38033V9.38049V9.38064V9.3808V9.38096V9.38111V9.38127V9.38143V9.38158V9.38174V9.3819V9.38205V9.38221V9.38236V9.38252V9.38268V9.38283V9.38299V9.38315V9.3833V9.38346V9.38362V9.38377V9.38393V9.38409V9.38424V9.3844V9.38456V9.38471V9.38487V9.38503V9.38518V9.38534V9.3855V9.38565V9.38581V9.38597V9.38612V9.38628V9.38644V9.38659V9.38675V9.38691V9.38706V9.38722V9.38738C7.5 9.66352 7.72386 9.88738 8 9.88738C8.27614 9.88738 8.5 9.66352 8.5 9.38738V9.38722V9.38706V9.38691V9.38675V9.38659V9.38644V9.38628V9.38612V9.38597V9.38581V9.38565V9.3855V9.38534V9.38518V9.38503V9.38487V9.38471V9.38456V9.3844V9.38424V9.38409V9.38393V9.38377V9.38362V9.38346V9.3833V9.38315V9.38299V9.38283V9.38268V9.38252V9.38236V9.38221V9.38205V9.3819V9.38174V9.38158V9.38143V9.38127V9.38111V9.38096V9.3808V9.38064V9.38049V9.38033V9.38018V9.38002V9.37986V9.37971V9.37955V9.3794V9.37924V9.37908V9.37893V9.37877V9.37862V9.37846V9.3783V9.37815V9.37799V9.37784V9.37768V9.37752V9.37737V9.37721V9.37706V9.3769V9.37674V9.37659V9.37643V9.37628V9.37612V9.37597V9.37581V9.37565V9.3755V9.37534V9.37519V9.37503V9.37487V9.37472V9.37456V9.37441V9.37425V9.3741V9.37394V9.37379V9.37363V9.37347V9.37332V9.37316V9.37301V9.37285V9.3727V9.37254V9.37239V9.37223V9.37207V9.37192V9.37176V9.37161V9.37145V9.3713V9.37114V9.37099V9.37083V9.37068V9.37052V9.37037V9.37021V9.37005V9.3699V9.36974V9.36959V9.36943V9.36928V9.36912V9.36897V9.36881V9.36866V9.3685V9.36835V9.36819V9.36804V9.36788V9.36773V9.36757V9.36742V9.36726V9.36711V9.36695V9.3668V9.36664V9.36649V9.36633V9.36618V9.36602V9.36587V9.36571V9.36556V9.3654V9.36525V9.36509V9.36494V9.36478V9.36463V9.36447V9.36432V9.36416V9.36401V9.36386V9.3637V9.36355V9.36339V9.36324V9.36308V9.36293V9.36277V9.36262V9.36246V9.36231V9.36215V9.362V9.36185V9.36169V9.36154V9.36138V9.36123V9.36107V9.36092V9.36076V9.36061V9.36045V9.3603V9.36015V9.35999V9.35984V9.35968V9.35953V9.35937V9.35922V9.35907V9.35891V9.35876V9.3586V9.35845V9.35829V9.35814V9.35799V9.35783V9.35768V9.35752V9.35737V9.35722V9.35706V9.35691V9.35675V9.3566V9.35645V9.35629V9.35614V9.35598V9.35583V9.35567V9.35552V9.35537V9.35521V9.35506V9.35491V9.35475V9.3546V9.35444V9.35429V9.35414V9.35398V9.35383V9.35367V9.35352V9.35337V9.35321V9.35306V9.35291V9.35275V9.3526V9.35244V9.35229V9.35214V9.35198V9.35183V9.35168V9.35152V9.35137V9.35122V9.35106V9.35091V9.35075V9.3506V9.35045V9.35029V9.35014V9.34999V9.34983V9.34968V9.34953V9.34937V9.34922V9.34907V9.34891V9.34876V9.34861V9.34845V9.3483V9.34815V9.34799V9.34784V9.34769V9.34753V9.34738V9.34723V9.34707V9.34692V9.34677V9.34661V9.34646V9.34631V9.34616V9.346V9.34585V9.3457V9.34554V9.34539V9.34524V9.34508V9.34493V9.34478V9.34462V9.34447V9.34432V9.34417V9.34401V9.34386V9.34371V9.34355V9.3434V9.34325V9.34309V9.34294V9.34279V9.34264V9.34248V9.34233V9.34218V9.34203V9.34187V9.34172V9.34157V9.34141V9.34126V9.34111V9.34096V9.3408V9.34065V9.3405V9.34035V9.34019V9.34004V9.33989V9.33974V9.33958V9.33943V9.33928V9.33912V9.33897V9.33882V9.33867V9.33852V9.33836V9.33821V9.33806V9.33791V9.33775V9.3376V9.33745V9.3373V9.33714V9.33699V9.33684V9.33669V9.33653V9.33638V9.33623V9.33608V9.33593V9.33577V9.33562V9.33547V9.33532V9.33517V9.33501V9.33486V9.33471V9.33456V9.3344V9.33425V9.3341V9.33395V9.3338V9.33364V9.33349V9.33334V9.33319V9.33304V9.33288V9.33273V9.33258V9.33243V9.33228V9.33212V9.33197V9.33182V9.33167V9.33152V9.33136V9.33121V9.33106V9.33091V9.33076V9.33061V9.33045V9.3303V9.33015V9.33V9.32985V9.32969V9.32954V9.32939V9.32924V9.32909V9.32894V9.32878V9.32863V9.32848V9.32833V9.32818V9.32803V9.32788V9.32772V9.32757V9.32742V9.32727V9.32712V9.32697V9.32682V9.32666V9.32651V9.32636V9.32621V9.32606V9.32591V9.32576V9.3256V9.32545V9.3253V9.32515V9.325V9.32485V9.3247V9.32454V9.32439V9.32424V9.32409V9.32394V9.32379V9.32364V9.32349V9.32334V9.32318V9.32303V9.32288V9.32273V9.32258V9.32243V9.32228V9.32213V9.32198V9.32183V9.32167V9.32152V9.32137V9.32122V9.32107V9.32092V9.32077V9.32062V9.32047V9.32032V9.32017V9.32001V9.31986V9.31971V9.31956V9.31941V9.31926V9.31911V9.31896V9.31881V9.31866V9.31851V9.31836V9.3182V9.31805V9.3179V9.31775V9.3176V9.31745V9.3173V9.31715V9.317V9.31685V9.3167V9.31655V9.3164V9.31625V9.3161V9.31595V9.3158V9.31565V9.31549V9.31534V9.31519V9.31504V9.31489V9.31474V9.31459V9.31444V9.31429V9.31414V9.31399V9.31384V9.31369V9.31354V9.31339V9.31324V9.31309V9.31294V9.31279V9.31264V9.31249V9.31234V9.31219V9.31204V9.31189V9.31174V9.31159V9.31144V9.31129V9.31114V9.31099V9.31084V9.31069V9.31054V9.31039V9.31024V9.31009V9.30994V9.30979V9.30964V9.30949V9.30934V9.30919V9.30904V9.30889C8.5 8.77267 8.701 8.25594 9.06334 7.86066L9.52652 7.35538L9.53804 7.34281L9.54868 7.32948L9.96105 6.81298C10.2146 6.4954 10.3527 6.10108 10.3527 5.6947C10.3527 5.51721 10.3263 5.3407 10.2745 5.17095L10.2594 5.12155C10.1233 4.67637 9.84259 4.28657 9.46846 4.01447C9.25746 3.86102 9.01768 3.74511 8.76449 3.67606L8.58135 3.62611C8.20073 3.52231 7.79927 3.52231 7.41865 3.62611C7.01625 3.73586 6.65313 3.95726 6.37129 4.26473L6.34973 4.28824C6.12936 4.52865 5.96215 4.81282 5.85902 5.12222L5.82735 5.21724L5.75015 5.44882L5.67296 5.68041C5.58563 5.94238 5.72721 6.22554 5.98918 6.31287C6.25116 6.40019 6.53432 6.25861 6.62164 5.99664L6.69883 5.76505L6.77603 5.53346L6.8077 5.43844C6.86638 5.26242 6.96151 5.10074 7.08689 4.96397L7.10844 4.94046Z" fill="currentColor"/>
</svg>
