<svg width="16" height="16" viewBox="0 0 16 16" fill="currentColor" stroke="currentColor" xmlns="http://www.w3.org/2000/svg">
  <path fill-rule="evenodd" clip-rule="evenodd"
        d="M8.00007 2.85387C9.11239 2.85387 9.41169 1.07765 10.6584 1.5942C11.888 2.10368 10.8614 3.57785 11.6433 4.36074C12.4287 5.14729 13.8923 4.10045 14.408 5.34768C14.9168 6.57801 13.1463 6.89411 13.1463 8.00174C13.1463 9.10956 14.9178 9.42603 14.4078 10.6567C13.898 11.8868 12.4222 10.859 11.6392 11.642C10.8541 12.427 11.8985 13.8872 10.6535 14.4032C9.42574 14.912 9.10821 13.1479 8.00296 13.1479C6.89146 13.1479 6.5945 14.9212 5.3487 14.4062C4.11918 13.898 5.14471 12.4251 4.36272 11.6431C3.57608 10.8566 2.11162 11.9055 1.59368 10.6594C1.0825 9.4295 2.85331 9.11184 2.85331 8.00462C2.85331 6.89288 1.07847 6.59537 1.59388 5.34955C2.10263 4.11983 3.57808 5.14644 4.36035 4.36346C5.14571 3.5774 4.102 2.11267 5.34812 1.59685C6.59396 1.08114 6.88921 2.85387 8.00007 2.85387Z"
        fill="none" stroke-linecap="round" stroke-linejoin="round"/>
  <path fill-rule="evenodd" clip-rule="evenodd"
        d="M8 10.5C9.38071 10.5 10.5 9.38071 10.5 8C10.5 6.61929 9.38071 5.5 8 5.5C6.61929 5.5 5.5 6.61929 5.5 8C5.5 9.38071 6.61929 10.5 8 10.5Z"
        fill="none" stroke-linecap="round" stroke-linejoin="round"/>
</svg>
