<svg width="16" height="16" viewBox="0 0 16 16" fill="none" xmlns="http://www.w3.org/2000/svg">
  <path fill-rule="evenodd" clip-rule="evenodd" d="M5 3V2.33333C5 1.85596 5.26032 1.50002 5.53017 1.29763C5.79972 1.09547 6.12627 1 6.44444 1H9.55556C9.87373 1 10.2003 1.09547 10.4698 1.29763C10.7397 1.50002 11 1.85596 11 2.33333V3H14C14.2761 3 14.5 3.22386 14.5 3.5C14.5 3.77614 14.2761 4 14 4H12.9629L12.1924 13.5513C12.1664 14.3025 11.5718 15 10.7227 15H5.27731C4.42817 15 3.83361 14.3025 3.80761 13.5513L3.03709 4H2C1.72386 4 1.5 3.77614 1.5 3.5C1.5 3.22386 1.72386 3 2 3H5ZM4.04034 4L4.80672 13.5C4.80672 13.7761 5.01741 14 5.27731 14H10.7227C10.9826 14 11.1933 13.7761 11.1933 13.5L11.9597 4H10H6H4.04034ZM9 3H9.55556H10V2.33333C10 2.14924 9.80102 2 9.55556 2H6.44444C6.19898 2 6 2.14924 6 2.33333V3H6.44444H7H9Z" fill="currentColor"/>
</svg>
