<svg width="24" height="24" viewBox="0 0 24 24" fill="currentColor" stroke="currentColor"
     xmlns="http://www.w3.org/2000/svg">
  <path
    d="M11.8438 19.015C13.1345 19.015 14.1772 18.3043 14.1772 17.0137H9.5105C9.5105 18.3043 10.5538 19.015 11.8438 19.015Z"
    stroke="none"/>
  <path
    d="M8.94141 15.0083C9.4613 15.0083 9.88275 14.5869 9.88275 14.067C9.88275 13.5471 9.4613 13.1257 8.94141 13.1257C8.42153 13.1257 8.00008 13.5471 8.00008 14.067C8.00008 14.5869 8.42153 15.0083 8.94141 15.0083Z"
    stroke="none"/>
  <path
    d="M14.7467 15.007C15.2663 15.007 15.6874 14.5858 15.6874 14.0663C15.6874 13.5468 15.2663 13.1257 14.7467 13.1257C14.2272 13.1257 13.8061 13.5468 13.8061 14.0663C13.8061 14.5858 14.2272 15.007 14.7467 15.007Z"
    stroke="none"/>
  <path
    d="M20.7012 12.154C20.3739 11.96 19.9599 11.932 19.5925 12.0527C19.5919 12.046 19.5905 12.04 19.5899 12.0333H19.6832C19.6825 11.8047 19.6698 11.5807 19.6538 11.3587C20.0852 10.536 20.3338 9.60202 20.3338 8.60735C20.3338 5.32535 17.6738 2.66602 14.3919 2.66602C13.5392 2.66602 12.7339 2.85868 12.0005 3.18268C11.2672 2.85868 10.4625 2.66602 9.60918 2.66602C6.32785 2.66602 3.66718 5.32535 3.66718 8.60802C3.66718 9.60202 3.91518 10.5367 4.34718 11.3593C4.33118 11.5813 4.31852 11.8053 4.31785 12.034H4.41118C4.41052 12.0407 4.40985 12.0473 4.40852 12.054C4.04318 11.9347 3.63118 11.9607 3.30385 12.152C3.01518 12.3207 2.55252 12.758 2.69252 13.79C2.83518 14.8427 3.52052 15.3013 4.07118 15.67C4.34052 15.8507 4.57318 16.006 4.69252 16.194L4.87318 16.4787C5.97985 19.4133 8.64185 21.3327 12.0005 21.3327C15.3592 21.3327 18.0212 19.4133 19.1272 16.4767L19.3085 16.192C19.4278 16.0047 19.6598 15.8493 19.9292 15.6693C20.4798 15.3007 21.1652 14.842 21.3079 13.7893C21.4479 12.7613 20.9879 12.3233 20.7012 12.154ZM3.48585 13.6813C3.45252 13.436 3.43718 13.0007 3.70852 12.8413C3.89918 12.73 4.17385 12.7793 4.31985 12.8893L4.33452 12.9007C4.32852 13.0393 4.31652 13.176 4.31652 13.3173C4.31652 13.8867 4.36652 14.4367 4.45985 14.964C4.00052 14.656 3.57585 14.3487 3.48585 13.6813ZM12.0005 20.5327C8.01185 20.5327 5.11652 17.4987 5.11652 13.318C5.11652 12.0107 5.39985 10.8147 5.91118 9.78935C6.48585 10.088 6.95918 10.2553 7.77518 10.2553C9.12518 10.2553 10.2159 9.24802 10.9972 8.27868C11.9865 9.27002 13.4199 10.2553 14.8919 10.2553C15.9352 10.2553 17.0818 9.98468 17.9338 9.51202C18.5392 10.598 18.8839 11.888 18.8839 13.318C18.8845 17.4987 15.9892 20.5327 12.0005 20.5327ZM20.5152 13.6813C20.4252 14.3487 20.0005 14.656 19.5405 14.9647C19.6345 14.4373 19.6838 13.8873 19.6838 13.3173C19.6838 13.176 19.6712 13.0393 19.6658 12.9007L19.6825 12.888C19.8292 12.7793 20.1059 12.7313 20.2939 12.8427C20.5645 13.0027 20.5492 13.4367 20.5152 13.6813Z"
    stroke="none"/>
</svg>
