<svg width="24" height="24" viewBox="0 0 24 24" fill="none" xmlns="http://www.w3.org/2000/svg">
  <mask id="path-1-outside-1_2670:6025" maskUnits="userSpaceOnUse" x="0" y="0" width="24" height="24" fill="black">
    <rect fill="white" width="24" height="24"/>
    <path
      d="M20.0802 4.03018C18.9683 3.05975 16.3003 2.01931 12.1602 2H12.0137C11.0411 2 6.07494 2.10139 3.88481 4.10742C2.66247 5.32891 2.06691 7.15148 2.01168 9.8455L2.00448 10.1086C1.95164 12.4116 2.3079 16.7568 6.2823 18.1062C6.27749 18.9728 5.80837 20.8847 5.80837 21.1068C5.80837 21.3362 5.90683 21.8093 6.28146 21.9565C6.35591 21.9855 6.43515 22 6.5192 22C6.73533 22 6.95627 21.8986 7.14118 21.7103C7.70312 21.1406 9.24485 19.277 9.75876 18.6518C10.0782 18.6663 10.4264 18.6759 10.7986 18.6759C13.5002 18.6759 16.9823 18.2583 17.2945 18.1569C17.3401 18.1424 17.4074 18.1279 17.4914 18.1062C18.4328 17.8841 21.2953 17.2106 21.8092 13.0199C22.3496 8.66023 21.7324 5.46651 20.0802 4.03018Z"/>
  </mask>
  <path
    d="M20.0802 4.03018C18.9683 3.05975 16.3003 2.01931 12.1602 2H12.0137C11.0411 2 6.07494 2.10139 3.88481 4.10742C2.66247 5.32891 2.06691 7.15148 2.01168 9.8455L2.00448 10.1086C1.95164 12.4116 2.3079 16.7568 6.2823 18.1062C6.27749 18.9728 5.80837 20.8847 5.80837 21.1068C5.80837 21.3362 5.90683 21.8093 6.28146 21.9565C6.35591 21.9855 6.43515 22 6.5192 22C6.73533 22 6.95627 21.8986 7.14118 21.7103C7.70312 21.1406 9.24485 19.277 9.75876 18.6518C10.0782 18.6663 10.4264 18.6759 10.7986 18.6759C13.5002 18.6759 16.9823 18.2583 17.2945 18.1569C17.3401 18.1424 17.4074 18.1279 17.4914 18.1062C18.4328 17.8841 21.2953 17.2106 21.8092 13.0199C22.3496 8.66023 21.7324 5.46651 20.0802 4.03018Z"
    stroke="currentColor" stroke-width="3" stroke-miterlimit="10" stroke-linecap="round" stroke-linejoin="round"
    mask="url(#path-1-outside-1_2670:6025)"/>
  <path d="M7 8H17M7 10.5H17M7 13H13.4286" stroke="currentColor" stroke-width="1.5" stroke-miterlimit="10"
        stroke-linecap="round" stroke-linejoin="round"/>
</svg>
