<svg width="24" height="24" viewBox="0 0 24 24" fill="none" xmlns="http://www.w3.org/2000/svg">
  <path fill-rule="evenodd" clip-rule="evenodd" d="M17 20H21.4987C22.3271 20 23.0174 19.3196 22.8303 18.5125C22.0997 15.3611 19.0953 13 15.5 13C14.8871 13 14.2914 13.0686 13.7212 13.1981C14.2036 13.5944 14.6435 14.0361 15.0334 14.5161C15.187 14.5054 15.3426 14.5 15.5 14.5C18.306 14.5 20.5758 16.2459 21.274 18.5H21.2666H21.2378H21.2091H21.1804H21.1518H21.1232H21.0947H21.0662H21.0378H21.0094H20.981H20.9527H20.9245H20.8963H20.8682H20.8401H20.812H20.784H20.756H20.7281H20.7003H20.6724H20.6447H20.6169H20.5893H20.5616H20.534H20.5065H20.479H20.4515H20.4241H20.3967H20.3694H20.3421H20.3148H20.2876H20.2605H20.2333H20.2062H20.1792H20.1522H20.1253H20.0983H20.0715H20.0446H20.0178H19.9911H19.9643H19.9377H19.911H19.8844H19.8579H19.8313H19.8049H19.7784H19.752H19.7256H19.6993H19.673H19.6467H19.6205H19.5943H19.5681H19.542H19.5159H19.4899H19.4639H19.4379H19.4119H19.386H19.3601H19.3343H19.3085H19.2827H19.257H19.2312H19.2056H19.1799H19.1543H19.1287H19.1032H19.0776H19.0521H19.0267H19.0013H18.9759H18.9505H18.9251H18.8998H18.8745H18.8493H18.8241H18.7989H18.7737H18.7486H18.7234H18.6984H18.6733H18.6483H18.6233H18.5983H18.5733H18.5484H18.5235H18.4986H18.4738H18.449H18.4242H18.3994H18.3747H18.3499H18.3252H18.3006H18.2759H18.2513H18.2267H18.2021H18.1775H18.153H18.1285H18.104H18.0795H18.055H18.0306H18.0062H17.9818H17.9574H17.9331H17.9087H17.8844H17.8601H17.8358H17.8116H17.7874H17.7631H17.7389H17.7148H17.6906H17.6664H17.6423H17.6182H17.5941H17.57H17.546H17.5219H17.4979H17.4739H17.4499H17.4259H17.4019H17.3779H17.354H17.3301H17.3062H17.2822H17.2584H17.2345H17.2106H17.1868H17.1629H17.1391H17.1153H17.0915H17.0677H17.0439H17.0201H16.9964H16.9726H16.9489H16.9252H16.9014H16.8777H16.8686C16.955 18.9878 17 19.4889 17 20ZM13.5795 9.80482C13.3975 10.2849 13.1601 10.7378 12.8753 11.1557C13.6141 11.6871 14.5205 12 15.5 12C17.9853 12 20 9.98528 20 7.5C20 5.01472 17.9853 3 15.5 3C14.5205 3 13.6141 3.31294 12.8753 3.8443C13.1601 4.26224 13.3975 4.71512 13.5795 5.19517C14.0999 4.76114 14.7695 4.5 15.5 4.5C17.1569 4.5 18.5 5.84315 18.5 7.5C18.5 9.15685 17.1569 10.5 15.5 10.5C14.7694 10.5 14.0999 10.2389 13.5795 9.80482ZM1.72593 18.5H1.72651H1.75433H1.78211H1.80984H1.83752H1.86516H1.89274H1.92028H1.94777H1.97522H2.00262H2.02997H2.05727H2.08453H2.11174H2.13891H2.16603H2.19311H2.22014H2.24712H2.27406H2.30096H2.32781H2.35461H2.38138H2.40809H2.43477H2.4614H2.48798H2.51453H2.54103H2.56748H2.5939H2.62027H2.6466H2.67289H2.69913H2.72533H2.7515H2.77762H2.80369H2.82973H2.85573H2.88168H2.9076H2.93347H2.95931H2.9851H3.01086H3.03657H3.06225H3.08788H3.11348H3.13904H3.16455H3.19003H3.21548H3.24088H3.26625H3.29157H3.31686H3.34212H3.36733H3.39251H3.41765H3.44275H3.46782H3.49285H3.51785H3.54281H3.56773H3.59262H3.61747H3.64228H3.66707H3.69181H3.71652H3.7412H3.76584H3.79045H3.81503H3.83957H3.86407H3.88855H3.91299H3.93739H3.96177H3.98611H4.01042H4.03469H4.05894H4.08315H4.10733H4.13148H4.15559H4.17968H4.20373H4.22776H4.25175H4.27571H4.29964H4.32354H4.34742H4.37126H4.39507H4.41885H4.4426H4.46633H4.49002H4.51369H4.53733H4.56094H4.58452H4.60807H4.63159H4.65509H4.67856H4.702H4.72542H4.74881H4.77217H4.79551H4.81881H4.8421H4.86535H4.88858H4.91179H4.93497H4.95812H4.98125H5.00436H5.02744H5.05049H5.07352H5.09653H5.11951H5.14247H5.1654H5.18831H5.2112H5.23407H5.25691H5.27973H5.30252H5.3253H5.34805H5.37078H5.39349H5.41617H5.43884H5.46148H5.48411H5.50671H5.52929H5.55185H5.57439H5.59691H5.61941H5.64189H5.66435H5.68679H5.70921H5.73161H5.754H5.77636H5.79871H5.82104H5.84335H5.86564H5.88791H5.91017H5.93241H5.95463H5.97683H5.99902H6.02119H6.04334H6.06548H6.0876H6.10971H6.1318H6.15387H6.17593H6.19798H6.22H6.24202H6.26402H6.286H6.30797H6.32993H6.35187H6.37379H6.39571H6.41761H6.4395H6.46137H6.48323H6.50508H6.52692H6.54874H6.57055H6.59235H6.61414H6.63592H6.65768H6.67943H6.70118H6.72291H6.74463H6.76634H6.78804H6.80973H6.83141H6.85308H6.87474H6.89639H6.91803H6.93966H6.96129H6.9829H7.00451H7.0261H7.0477H7.06928H7.09085H7.11242H7.13398H7.15553H7.17707H7.19861H7.22014H7.24167H7.26318H7.2847H7.3062H7.3277H7.3492H7.37069H7.39217H7.41365H7.43512H7.45659H7.47806H7.49952H7.52097H7.54243H7.56387H7.58532H7.60676H7.6282H7.64963H7.67107H7.69249H7.71392H7.73535H7.75677H7.77819H7.79961H7.82103H7.84244H7.86386H7.88527H7.90668H7.92809H7.94951H7.97092H7.99233H8.01374H8.03515H8.05656H8.07797H8.09939H8.1208H8.14221H8.16363H8.18505H8.20647H8.22789H8.24931H8.27074H8.29217H8.3136H8.33503H8.35647H8.3779H8.39935H8.42079H8.44224H8.4637H8.48516H8.50662H8.52808H8.54955H8.57103H8.59251H8.614H8.63549H8.65699H8.67849H8.7H8.72151H8.74303H8.76456H8.78609H8.80763H8.82918H8.85073H8.8723H8.89386H8.91544H8.93703H8.95862H8.98022H9.00183H9.02345H9.04508H9.06671H9.08836H9.11001H9.13167H9.15335H9.17503H9.19672H9.21843H9.24014H9.26187H9.2836H9.30535H9.32711H9.34888H9.37066H9.39245H9.41425H9.43607H9.4579H9.47974H9.50159H9.52346H9.54534H9.56723H9.58914H9.61106H9.63299H9.65494H9.6769H9.69887H9.72086H9.74287H9.76489H9.78692H9.80897H9.83103H9.85311H9.87521H9.89732H9.91945H9.94159H9.96375H9.98593H10.0081H10.0303H10.0526H10.0748H10.0971H10.1194H10.1417H10.164H10.1863H10.2087H10.231H10.2534H10.2758H10.2983H10.3207H10.3432H10.3657H10.3882H10.4107H10.4332H10.4558H10.4784H10.501H10.5236H10.5463H10.569H10.5917H10.6144H10.6371H10.6599H10.6827H10.7055H10.7283H10.7511H10.774H10.7969H10.8198H10.8428H10.8657H10.8887H10.9118H10.9348H10.9579H10.9809H11.0041H11.0272H11.0504H11.0736H11.0968H11.12H11.1433H11.1666H11.1899H11.2132H11.2366H11.26H11.2834H11.3069H11.3304H11.3539H11.3774H11.401H11.4246H11.4482H11.4718H11.4955H11.5192H11.5429H11.5667H11.5905H11.6143H11.6382H11.6621H11.686H11.7099H11.7339H11.7579H11.7819H11.806H11.8301H11.8542H11.8784H11.9026H11.9268H11.9511H11.9753H11.9997H12.024H12.0484H12.0728H12.0973H12.1218H12.1463H12.1708H12.1954H12.22H12.2447H12.2694H12.2941H12.3189H12.3437H12.3685H12.3934H12.4183H12.4432H12.4682H12.4932H12.5182H12.5433H12.5684H12.5936H12.6188H12.644H12.6693H12.6946H12.7199H12.7453H12.7707H12.7962H12.8217H12.8472H12.8728H12.8984H12.924H12.9497H12.9755H13.0012H13.027H13.0529H13.0788H13.1047H13.1307H13.1567H13.1828H13.2088H13.235H13.2612H13.274C12.5758 16.2459 10.306 14.5 7.49998 14.5C4.69394 14.5 2.42414 16.2459 1.72593 18.5ZM1.50194 18.5C1.5004 18.5 1.49967 18.4998 1.49969 18.4998L1.50194 18.5ZM13.4987 20C14.3271 20 15.0174 19.3196 14.8303 18.5125C14.0996 15.3611 11.0952 13 7.49998 13C3.90472 13 0.900314 15.3611 0.169652 18.5125C-0.0174549 19.3196 0.673714 20 1.50214 20H13.4987ZM7.49998 10.5C9.15683 10.5 10.5 9.15685 10.5 7.5C10.5 5.84315 9.15683 4.5 7.49998 4.5C5.84312 4.5 4.49998 5.84315 4.49998 7.5C4.49998 9.15685 5.84312 10.5 7.49998 10.5ZM7.49998 12C9.98526 12 12 9.98528 12 7.5C12 5.01472 9.98526 3 7.49998 3C5.0147 3 2.99998 5.01472 2.99998 7.5C2.99998 9.98528 5.0147 12 7.49998 12Z" fill="currentColor"/>
</svg>
