<svg width="24" height="24" viewBox="0 0 24 24" fill="none" xmlns="http://www.w3.org/2000/svg">
  <path fill-rule="evenodd" clip-rule="evenodd" d="M12.4519 19.4866C12.3024 19.4955 12.1517 19.5 12 19.5C11.8482 19.5 11.6975 19.4955 11.5479 19.4866C10.4854 18.2151 9.69281 16.7927 9.22745 15.25H14.7693C14.3034 16.7937 13.5118 18.2182 12.4519 19.4866ZM14.6585 19.0152C16.4606 18.3319 17.9309 16.9741 18.7612 15.25H16.3279C15.9743 16.5913 15.4069 17.853 14.6585 19.0152ZM19.2947 13.75C19.4289 13.1886 19.5 12.6026 19.5 12C19.5 11.3974 19.4289 10.8115 19.2947 10.25H16.64C16.7129 10.81 16.75 11.3843 16.7499 11.9736C16.7499 12.5773 16.7085 13.1699 16.6283 13.75H19.2947ZM18.7612 8.75002C17.9361 7.03662 16.4788 5.68498 14.692 4.99761C15.4476 6.16651 16.0075 7.41467 16.351 8.75002H18.7612ZM12.4761 4.51487C13.56 5.81843 14.3428 7.22124 14.795 8.75002H9.21224C9.66723 7.20611 10.4466 5.78364 11.4993 4.51645C11.6648 4.50554 11.8317 4.5 12 4.5C12.1599 4.5 12.3187 4.505 12.4761 4.51487ZM9.28945 5.00477C7.51106 5.69435 6.06107 7.04255 5.23882 8.75002H7.6563C7.99977 7.41653 8.55359 6.16192 9.28945 5.00477ZM4.70526 10.25C4.57106 10.8115 4.5 11.3974 4.5 12C4.5 12.6026 4.57106 13.1886 4.70526 13.75H7.36964C7.29053 13.1744 7.24987 12.586 7.24994 11.9862C7.25001 11.3963 7.28881 10.8172 7.36442 10.25H4.70526ZM5.23884 15.25C6.06886 16.9736 7.53854 18.3311 9.33995 19.0146C8.59022 17.8521 8.02221 16.5916 7.66895 15.25H5.23884ZM21 12C21 16.9706 16.9706 21 12 21C7.02944 21 3 16.9706 3 12C3 7.02944 7.02944 3 12 3C16.9706 3 21 7.02944 21 12ZM8.87954 10.25H15.1255C15.2081 10.808 15.25 11.3821 15.2499 11.9734C15.2499 12.5783 15.203 13.1711 15.1119 13.75H8.88574C8.79599 13.1757 8.74987 12.5874 8.74994 11.9864C8.75001 11.395 8.79394 10.8157 8.87954 10.25Z" fill="currentColor"/>
</svg>
