<svg width="24" height="24" viewBox="0 0 24 24" fill="none" xmlns="http://www.w3.org/2000/svg">
  <path fill-rule="evenodd" clip-rule="evenodd"
        d="M17.0579 13.8665L20.6606 10.2645C22.5729 8.35258 22.5729 5.25271 20.6606 3.34076C18.7483 1.42881 15.6478 1.42881 13.7355 3.34076L10.1328 6.94275C10.0999 6.97573 10.0674 7.00907 10.0356 7.04274C10.6752 6.96185 11.347 6.99002 12.0203 7.17676L14.7963 4.40132C16.1227 3.07511 18.2733 3.07511 19.5998 4.40132C20.9263 5.72754 20.9263 7.87776 19.5998 9.20397L15.9971 12.806C14.6707 14.1322 12.5201 14.1322 11.1936 12.806C10.9014 12.5138 10.6736 12.1817 10.5101 11.8272C9.96877 11.8398 9.50471 12.0255 9.09241 12.3315C9.33089 12.8891 9.67771 13.4115 10.1328 13.8665C12.0451 15.7785 15.1456 15.7785 17.0579 13.8665Z"
        fill="currentColor"/>
  <path fill-rule="evenodd" clip-rule="evenodd"
        d="M10.2643 20.6588L13.867 17.0568C13.8977 17.0261 13.928 16.9951 13.9577 16.9637C13.3185 17.036 12.6481 17.0054 11.9765 16.8259L9.20356 19.5983C7.8771 20.9245 5.72648 20.9245 4.40002 19.5983C3.07355 18.272 3.07355 16.1218 4.40001 14.7956L8.00267 11.1936C9.32914 9.8674 11.4798 9.8674 12.8062 11.1936C13.1798 11.5671 13.4482 12.006 13.6113 12.4735C14.1431 12.4729 14.6145 12.3165 15.0423 12.0205C14.8086 11.3308 14.4169 10.6828 13.867 10.1331C11.9547 8.22111 8.85422 8.22111 6.94192 10.1331L3.33926 13.735C1.42695 15.647 1.42695 18.7469 3.33926 20.6588C5.25156 22.5708 8.35202 22.5708 10.2643 20.6588Z"
        fill="currentColor"/>
</svg>
