<svg width="24" height="24" fill="none" stroke="currentColor" xmlns="http://www.w3.org/2000/svg"><g clip-path="url(#a)"><path d="m17.372 5.64.698-2.094a1 1 0 0 1 1.164-.66l2.454.541a1 1 0 0 0 1.15-.62L23.707.52m-3.485 7.99 2.323-.476m-7.707-5L15.33.638m-1.102 6.55 1.954 6.91m-6.84-8.794 2.863 10.609M6.55 11.866l2.06 5.513m-4.37-.13L9.493 4.628a1.145 1.145 0 0 1 1.873-.363l7.331 7.453c.57.58.372 1.553-.38 1.862l-12.584 5.17c-.943.387-1.883-.558-1.492-1.5Z" stroke="currentColor" stroke-linecap="round"/></g><defs><clipPath id="a"><path fill="#fff" transform="translate(.217)" d="M0 0h23.82v30H0z"/></clipPath></defs></svg>
