<svg width="24" height="24" viewBox="0 0 24 24" fill="none" xmlns="http://www.w3.org/2000/svg">
  <path fill-rule="evenodd" clip-rule="evenodd" d="M5.5 1.75C3.98122 1.75 2.75 2.98122 2.75 4.5L2.75 19.5C2.75 21.0188 3.98122 22.25 5.5 22.25H14.5C14.9142 22.25 15.25 21.9142 15.25 21.5C15.25 21.0858 14.9142 20.75 14.5 20.75H5.5C4.80964 20.75 4.25 20.1904 4.25 19.5L4.25 4.5C4.25 3.80964 4.80964 3.25 5.5 3.25L14.5 3.25C14.9142 3.25 15.25 2.91421 15.25 2.5C15.25 2.08579 14.9142 1.75 14.5 1.75L5.5 1.75ZM17.0605 7.00172C16.7854 6.69214 16.3113 6.66426 16.0017 6.93945C15.6921 7.21464 15.6643 7.6887 15.9395 7.99828L18.8298 11.2499L8 11.2499C7.58579 11.2499 7.25 11.5856 7.25 11.9999C7.25 12.4141 7.58579 12.7499 8 12.7499L18.8299 12.7499L15.9394 16.0017C15.6643 16.3113 15.6921 16.7854 16.0017 17.0606C16.3113 17.3357 16.7854 17.3079 17.0606 16.9983L21.0606 12.4981L21.5035 11.9998L21.0605 11.5016L17.0605 7.00172Z" fill="currentColor"/>
</svg>
