<svg width="24" height="24" viewBox="0 0 24 24" fill="none" xmlns="http://www.w3.org/2000/svg">
  <path
    d="M4.44504 12.4955C4.24535 12.7152 4.19402 13.0319 4.31411 13.3034C4.43421 13.5749 4.70314 13.75 5 13.75H9.95943L7.28849 21.7628C7.17849 22.0928 7.30982 22.4551 7.6057 22.638C7.90159 22.8209 8.28437 22.7763 8.53033 22.5303L19.5303 11.5303C19.7448 11.3158 19.809 10.9932 19.6929 10.713C19.5768 10.4327 19.3033 10.25 19 10.25H13.0406L15.7115 2.23717C15.8236 1.90085 15.6849 1.53196 15.379 1.35281C15.0731 1.17366 14.6835 1.23318 14.445 1.4955L4.44504 12.4955Z"
    stroke="currentColor" stroke-width="1.5" stroke-linejoin="round"/>
</svg>
