<svg width="24" height="24" viewBox="0 0 24 24" fill="none" xmlns="http://www.w3.org/2000/svg">
  <path fill-rule="evenodd" clip-rule="evenodd"
        d="M14.3754 11.2836C14.1568 11.7441 13.8857 12.1748 13.5698 12.568C14.1538 12.845 14.8068 13 15.4961 13C17.9814 13 19.9961 10.9853 19.9961 8.5C19.9961 6.01472 17.9814 4 15.4961 4C14.8068 4 14.1538 4.15497 13.5698 4.43197C13.8857 4.82515 14.1568 5.25586 14.3754 5.71635C14.7216 5.57681 15.0999 5.5 15.4961 5.5C17.153 5.5 18.4961 6.84315 18.4961 8.5C18.4961 10.1569 17.153 11.5 15.4961 11.5C15.0999 11.5 14.7216 11.4232 14.3754 11.2836Z"
        fill="currentColor"/>
  <path fill-rule="evenodd" clip-rule="evenodd"
        d="M16.9474 20H20.7928C21.4586 20 22.0133 19.454 21.8708 18.8037C21.2701 16.0632 18.6461 14 15.5 14C14.9908 14 14.4953 14.054 14.0198 14.1563C14.4665 14.5606 14.8731 15.0131 15.2325 15.5062C15.3209 15.5021 15.4101 15.5 15.5 15.5C17.7395 15.5 19.5435 16.8042 20.2144 18.5H20.2143H20.1896H20.165H20.1405H20.116H20.0915H20.0671H20.0427H20.0184H19.9941H19.9698H19.9456H19.9214H19.8972H19.8731H19.8491H19.825H19.8011H19.7771H19.7532H19.7293H19.7055H19.6817H19.6579H19.6342H19.6105H19.5868H19.5632H19.5396H19.5161H19.4926H19.4691H19.4457H19.4223H19.3989H19.3756H19.3523H19.329H19.3058H19.2826H19.2594H19.2363H19.2132H19.1901H19.1671H19.1441H19.1212H19.0982H19.0753H19.0524H19.0296H19.0068H18.984H18.9613H18.9386H18.9159H18.8932H18.8706H18.848H18.8254H18.8029H18.7804H18.7579H18.7355H18.7131H18.6907H18.6683H18.646H18.6237H18.6014H18.5791H18.5569H18.5347H18.5125H18.4904H18.4683H18.4462H18.4241H18.402H18.38H18.358H18.3361H18.3141H18.2922H18.2703H18.2484H18.2266H18.2048H18.183H18.1612H18.1394H18.1177H18.096H18.0743H18.0526H18.031H18.0094H17.9878H17.9662H17.9446H17.9231H17.9016H17.8801H17.8586H17.8371H17.8157H17.7943H17.7729H17.7515H17.7302H17.7088H17.6875H17.6662H17.6449H17.6236H17.6024H17.5811H17.5599H17.5387H17.5175H17.4964H17.4752H17.4541H17.433H17.4119H17.3908H17.3697H17.3486H17.3276H17.3066H17.2855H17.2645H17.2436H17.2226H17.2016H17.1807H17.1597H17.1388H17.1179H17.097H17.0761H17.0553H17.0344H17.0136H16.9927H16.9719H16.9511H16.9303H16.9095H16.8887H16.8679H16.8472H16.8264H16.8057H16.7849H16.7642H16.7435H16.7228H16.7021H16.6814H16.6671C16.7991 18.9845 16.8937 19.4857 16.9474 20Z"
        fill="currentColor"/>
  <path
    d="M14.1382 18.9643C14.1518 19.0263 14.1387 19.0784 14.0876 19.1329C14.0288 19.1957 13.9235 19.25 13.7928 19.25H13.7693H13.7458H13.7224H13.6989H13.6756H13.6522H13.6289H13.6057H13.5825H13.5593H13.5361H13.513H13.49H13.4669H13.4439H13.421H13.398H13.3752H13.3523H13.3295H13.3067H13.284H13.2613H13.2386H13.216H13.1934H13.1708H13.1483H13.1258H13.1033H13.0809H13.0585H13.0362H13.0139H12.9916H12.9693H12.9471H12.9249H12.9028H12.8806H12.8585H12.8365H12.8145H12.7925H12.7705H12.7486H12.7267H12.7048H12.683H12.6612H12.6394H12.6177H12.596H12.5743H12.5527H12.5311H12.5095H12.4879H12.4664H12.4449H12.4234H12.402H12.3806H12.3592H12.3379H12.3166H12.2953H12.274H12.2528H12.2316H12.2104H12.1892H12.1681H12.147H12.1259H12.1049H12.0839H12.0629H12.0419H12.021H12.0001H11.9792H11.9583H11.9375H11.9167H11.8959H11.8752H11.8544H11.8337H11.8131H11.7924H11.7718H11.7512H11.7306H11.71H11.6895H11.669H11.6485H11.628H11.6076H11.5872H11.5668H11.5464H11.526H11.5057H11.4854H11.4651H11.4448H11.4246H11.4044H11.3842H11.364H11.3438H11.3237H11.3036H11.2835H11.2634H11.2434H11.2233H11.2033H11.1833H11.1633H11.1434H11.1234H11.1035H11.0836H11.0637H11.0439H11.024H11.0042H10.9844H10.9646H10.9448H10.9251H10.9053H10.8856H10.8659H10.8462H10.8266H10.8069H10.7873H10.7676H10.748H10.7284H10.7089H10.6893H10.6698H10.6502H10.6307H10.6112H10.5917H10.5723H10.5528H10.5334H10.514H10.4945H10.4751H10.4558H10.4364H10.417H10.3977H10.3783H10.359H10.3397H10.3204H10.3011H10.2819H10.2626H10.2433H10.2241H10.2049H10.1857H10.1665H10.1473H10.1281H10.1089H10.0898H10.0706H10.0515H10.0323H10.0132H9.9941H9.97499H9.9559H9.93682H9.91774H9.89867H9.87961H9.86056H9.84152H9.82249H9.80346H9.78444H9.76543H9.74643H9.72743H9.70844H9.68946H9.67049H9.65152H9.63256H9.6136H9.59465H9.5757H9.55676H9.53783H9.5189H9.49998H9.48106H9.46215H9.44324H9.42434H9.40544H9.38655H9.36765H9.34877H9.32988H9.31101H9.29213H9.27326H9.25439H9.23552H9.21666H9.19779H9.17893H9.16008H9.14122H9.12237H9.10352H9.08467H9.06582H9.04697H9.02813H9.00928H8.99044H8.9716H8.95275H8.93391H8.91507H8.89622H8.87738H8.85854H8.83969H8.82085H8.802H8.78316H8.76431H8.74546H8.72661H8.70775H8.6889H8.67004H8.65118H8.63232H8.61346H8.59459H8.57572H8.55685H8.53798H8.5191H8.50021H8.48133H8.46244H8.44354H8.42464H8.40574H8.38683H8.36792H8.34901H8.33008H8.31116H8.29222H8.27329H8.25434H8.23539H8.21644H8.19748H8.17851H8.15953H8.14055H8.12156H8.10257H8.08357H8.06456H8.04554H8.02651H8.00748H7.98844H7.96939H7.95033H7.93127H7.91219H7.89311H7.87402H7.85492H7.83581H7.81669H7.79756H7.77842H7.75927H7.74011H7.72094H7.70176H7.68256H7.66336H7.64415H7.62492H7.60569H7.58644H7.56718H7.54791H7.52863H7.50933H7.49003H7.47071H7.45137H7.43203H7.41267H7.3933H7.37392H7.35452H7.33511H7.31568H7.29624H7.27679H7.25732H7.23784H7.21834H7.19883H7.1793H7.15976H7.1402H7.12063H7.10104H7.08144H7.06182H7.04218H7.02253H7.00286H6.98318H6.96348H6.94376H6.92402H6.90427H6.8845H6.86471H6.8449H6.82508H6.80524H6.78538H6.7655H6.7456H6.72568H6.70575H6.68579H6.66582H6.64583H6.62581H6.60578H6.58573H6.56566H6.54557H6.52545H6.50532H6.48516H6.46499H6.44479H6.42457H6.40434H6.38408H6.36379H6.34349H6.32316H6.30281H6.28244H6.26205H6.24163H6.22119H6.20073H6.18025H6.15974H6.13921H6.11865H6.09807H6.07747H6.05684H6.03619H6.01551H5.99481H5.97408H5.95333H5.93255H5.91175H5.89092H5.87007H5.84919H5.82828H5.80735H5.78639H5.76541H5.7444H5.72336H5.70229H5.6812H5.66008H5.63893H5.61776H5.59656H5.57532H5.55407H5.53278H5.51146H5.49012H5.46874H5.44734H5.42591H5.40445H5.38296H5.36144H5.33989H5.31831H5.2967H5.27506H5.25339H5.23168H5.20995H5.18819H5.16639H5.14457H5.12271H5.10082H5.0789H5.05694H5.03496H5.01294H4.99089H4.96881H4.94669H4.92454H4.90236H4.88015H4.8579H4.83562H4.8133H4.79095H4.76857H4.74615H4.7237H4.70121H4.67869H4.65613H4.63354H4.61091H4.58825H4.56555H4.54281H4.52004H4.49723H4.47439H4.45151H4.4286H4.40564H4.38265H4.35963H4.33656H4.31346H4.29032H4.26714H4.24393H4.22067H4.19738H4.17405H4.15068H4.12728H4.10383H4.08035H4.05682H4.03326H4.00965H3.98601H3.96233H3.9386H3.91484H3.89104H3.86719H3.8433H3.81938H3.79541H3.7714H3.74735H3.72326H3.69913H3.67495H3.65073H3.62647H3.60217H3.57783H3.55344H3.52901H3.50453H3.48002H3.45546H3.43085H3.40621H3.38151H3.35678H3.332H3.30718H3.28231H3.25739H3.23243H3.20743C3.07678 19.25 2.97132 19.1956 2.9124 19.1328C2.86129 19.0783 2.84825 19.0262 2.86182 18.9643C3.38021 16.5993 5.67308 14.75 8.5 14.75C11.3269 14.75 13.6198 16.5993 14.1382 18.9643Z"
    stroke="currentColor" stroke-width="1.5"/>
  <circle cx="8.5" cy="8.5" r="3.75" stroke="currentColor" stroke-width="1.5"/>
</svg>
