<svg width="24" height="24" viewBox="0 0 24 24" fill="currentColor" stroke="currentColor"
     xmlns="http://www.w3.org/2000/svg">
  <path
    d="M12.0001 19.0163C13.2907 19.0163 14.3334 18.3056 14.3334 17.015H9.66675C9.66675 18.3056 10.7101 19.0163 12.0001 19.0163Z"
    stroke="none"/>
  <path
    d="M9.09767 15.0096C9.61755 15.0096 10.039 14.5882 10.039 14.0683C10.039 13.5484 9.61755 13.127 9.09767 13.127C8.57778 13.127 8.15633 13.5484 8.15633 14.0683C8.15633 14.5882 8.57778 15.0096 9.09767 15.0096Z"
    stroke="none"/>
  <path
    d="M14.903 15.0083C15.4225 15.0083 15.8437 14.5871 15.8437 14.0676C15.8437 13.5481 15.4225 13.127 14.903 13.127C14.3835 13.127 13.9623 13.5481 13.9623 14.0676C13.9623 14.5871 14.3835 15.0083 14.903 15.0083Z"
    stroke="none"/>
  <path
    d="M20.4987 3.82868C20.6027 3.17735 20.6094 2.66602 20.6094 2.66602C20.6094 2.66602 19.7454 3.04402 18.9234 3.60602C18.8807 3.23535 18.8234 2.97468 18.8234 2.97468C18.8234 2.97468 16.6501 4.14535 17.4334 5.60068C16.3581 4.81402 15.1061 4.42002 14.0527 4.42002C13.3241 4.42002 12.6321 4.56735 12.0001 4.83268C11.3687 4.56802 10.6754 4.42002 9.94741 4.42002C8.89408 4.42002 7.64208 4.81335 6.56675 5.60068C7.35008 4.14535 5.17741 2.97468 5.17741 2.97468C5.17741 2.97468 5.12008 3.23602 5.07675 3.60668C4.25541 3.04468 3.39075 2.66668 3.39075 2.66668C3.39075 2.66668 3.39675 3.17802 3.50141 3.82935C3.02208 3.73602 2.66675 3.74135 2.66675 3.74135C2.66675 3.74135 3.35341 7.54002 5.45208 6.65335C4.23275 8.14002 3.61875 10.3734 4.57541 13.3634C4.25075 13.3387 3.92475 13.4227 3.67875 13.6174C3.46741 13.7827 3.12875 14.1794 3.23475 14.97C3.36141 15.904 4.11475 16.3494 4.66475 16.6747C4.93875 16.836 5.19741 16.9894 5.29608 17.1434L5.46208 17.4047C6.71008 19.7394 9.17141 21.3354 12.0001 21.3354C14.8287 21.3354 17.2907 19.7394 18.5381 17.4047L18.7047 17.1434C18.8027 16.9894 19.0614 16.836 19.3354 16.6747C19.8854 16.35 20.6387 15.9047 20.7661 14.97C20.8727 14.1787 20.5334 13.7827 20.3221 13.6174C20.0747 13.4227 19.7494 13.3387 19.4247 13.3634C20.3827 10.3734 19.7674 8.14002 18.5487 6.65335C20.6474 7.54002 21.3334 3.74135 21.3334 3.74135C21.3334 3.74135 20.9781 3.73602 20.4987 3.82868ZM3.98208 14.8694C3.95208 14.6494 3.95608 14.3574 4.14475 14.2094C4.27008 14.1114 4.45141 14.0947 4.60208 14.126C4.61808 14.7467 4.71141 15.3474 4.87208 15.9207C4.43341 15.6554 4.05008 15.3747 3.98208 14.8694ZM17.8834 17.0294L17.8661 17.056L17.8701 17.0587C16.7474 19.1534 14.5381 20.582 12.0001 20.582C9.46208 20.582 7.25275 19.1527 6.13075 17.0587L6.13408 17.056L6.11675 17.0294C5.62608 16.1007 5.34475 15.046 5.34475 13.9267C5.34475 12.7807 5.63608 11.702 6.14808 10.76C6.29208 11.7147 6.46808 12.4167 6.46808 12.4167C6.46808 12.4167 8.37475 10.1287 8.51008 8.27002C8.52875 8.25868 8.54741 8.24735 8.56541 8.23668C9.63208 11.0327 11.5614 11.804 11.5614 11.804C11.5614 11.804 11.3881 10.6054 11.0367 9.66335C11.5894 10.6447 12.7034 11.2907 13.3227 11.6114C13.3227 11.6114 12.6861 9.32935 11.6614 8.23935C11.6614 8.23935 14.2614 10.894 16.1314 12.406C15.7794 10.5173 14.7507 9.49868 13.9961 8.13935C14.8674 9.22602 16.7667 11.2067 17.6601 11.572C17.6601 11.572 17.4514 10.5213 17.0467 9.61935C17.2941 9.93068 17.5254 10.2533 17.7434 10.5813C18.3187 11.566 18.6547 12.7067 18.6547 13.9287C18.6547 15.046 18.3741 16.102 17.8834 17.0294ZM19.8554 14.2094C20.0441 14.358 20.0481 14.6494 20.0181 14.8694C19.9494 15.3747 19.5661 15.656 19.1287 15.9207C19.2887 15.3474 19.3821 14.746 19.3981 14.126C19.5481 14.0947 19.7307 14.1107 19.8554 14.2094Z"
    stroke="none"/>
</svg>
