<svg width="24" height="24" viewBox="0 0 24 24" fill="none" xmlns="http://www.w3.org/2000/svg">
<path fill-rule="evenodd" clip-rule="evenodd" d="M5.50022 2.51094L6.4277 9.93077C6.68061 11.9541 7.4798 13.697 8.97044 14.8447C9.65442 15.3714 9.98616 16.1556 9.9784 16.9218C9.96373 18.3704 8.87688 19.2135 8.21731 19.7252L8.21722 19.7253C8.17549 19.7577 8.13547 19.7887 8.09754 19.8185C7.30057 20.4444 6.9961 20.7694 6.9961 21.2803C6.9961 21.4016 7.09447 21.5 7.21582 21.5H16.7842C16.9055 21.5 17.0039 21.4016 17.0039 21.2803C17.0039 20.7694 16.6994 20.4444 15.9025 19.8185C15.8645 19.7887 15.8244 19.7576 15.7827 19.7252C15.1231 19.2135 14.0363 18.3704 14.0216 16.9218C14.0138 16.1556 14.3456 15.3714 15.0296 14.8447C16.5202 13.697 17.3194 11.9541 17.5723 9.93077L18.4998 2.51093L18.5 2.5079L18.4999 2.5071L18.4999 2.50699C18.4995 2.50614 18.4985 2.50436 18.4967 2.50252C18.4959 2.50169 18.4951 2.50109 18.4946 2.50071L18.494 2.50034L18.4938 2.50026L18.4938 2.50026L18.4938 2.50025C18.4937 2.50023 18.4926 2.5 18.4901 2.5H5.50989C5.50744 2.5 5.50635 2.50023 5.50625 2.50025L5.50625 2.50025L5.50616 2.50027L5.50022 2.51094ZM4.80357 5L4.50795 2.63498C4.5026 2.59218 4.5 2.54974 4.5 2.50781C4.50005 1.95939 4.94566 1.5 5.50989 1.5H18.4901C19.0543 1.5 19.5 1.95939 19.5 2.50781C19.5 2.54974 19.4974 2.59218 19.4921 2.63498L19.1964 5H20.8C21.4627 5 22 5.53726 22 6.2V10.5C22 12.9853 19.9853 15 17.5 15H16.358C16.1367 15.2256 15.8975 15.4385 15.6396 15.6371C15.2205 15.9598 15.0168 16.4383 15.0216 16.9117C15.0312 17.8637 15.7432 18.4224 16.469 18.9919C17.2289 19.5882 18.0039 20.1963 18.0039 21.2803C18.0039 21.9539 17.4578 22.5 16.7842 22.5H7.21582C6.54219 22.5 5.9961 21.9539 5.9961 21.2803C5.9961 20.1963 6.77115 19.5882 7.53104 18.9919C8.25684 18.4224 8.96881 17.8637 8.97845 16.9117C8.98324 16.4383 8.77948 15.9598 8.36036 15.6371C8.10247 15.4385 7.86329 15.2256 7.642 15H6.5C4.01472 15 2 12.9853 2 10.5V6.2C2 5.53726 2.53726 5 3.2 5H4.80357ZM4.92857 6L5.43542 10.0548C5.6151 11.4922 6.05545 12.852 6.82808 14H6.5C4.567 14 3 12.433 3 10.5V6.2C3 6.08954 3.08954 6 3.2 6H4.92857ZM18.5646 10.0548L19.0714 6H20.8C20.9105 6 21 6.08954 21 6.2V10.5C21 12.433 19.433 14 17.5 14H17.1719C17.9446 12.852 18.3849 11.4922 18.5646 10.0548Z" fill="currentColor"/>
</svg>
