<svg width="24" height="24" viewBox="0 0 24 24" fill="none" xmlns="http://www.w3.org/2000/svg">
  <path fill-rule="evenodd" clip-rule="evenodd" d="M10.1309 3.30435C10.1309 2.15637 11.0754 1.25 12.2103 1.25C13.3452 1.25 14.2897 2.15637 14.2897 3.30435V6.66877L14.778 5.11226C15.0567 4.03477 16.1455 3.38418 17.2272 3.61259C18.3214 3.84364 19.0498 4.89856 18.8348 6.00791C18.8321 6.0223 18.8288 6.03661 18.8252 6.05081L18.3737 7.81869C18.5559 7.59509 18.7905 7.36497 19.0883 7.21298C19.647 6.92788 20.2689 6.98493 20.8872 7.3577C21.4722 7.7104 21.6906 8.31873 21.7249 8.83755C21.7577 9.33353 21.6364 9.85453 21.4027 10.2785C21.1952 10.8057 20.9438 11.2919 20.6909 11.7558C20.6118 11.9007 20.5337 12.0418 20.4564 12.1813C20.2715 12.5148 20.0915 12.8398 19.9153 13.1898C19.4303 14.153 19.017 15.2281 18.893 16.6994C18.8923 16.7073 18.8915 16.7151 18.8906 16.7229C18.6313 18.9563 18.161 20.5254 17.188 21.5062C16.1841 22.5183 14.8053 22.75 13.188 22.75H11.324C10.0336 22.7494 8.79623 22.2307 7.90129 21.3096C7.88078 21.2885 7.86153 21.2662 7.84365 21.2428L3.22524 15.2091C2.70596 14.7184 2.476 13.9922 2.63074 13.2885C2.7913 12.5584 3.33785 11.9786 4.04979 11.7616C4.75559 11.5465 5.52651 11.7171 6.07235 12.2144L6.92371 12.9437L5.06137 5.49852C5.0596 5.49142 5.05793 5.4843 5.05636 5.47716C4.81007 4.35396 5.54101 3.26809 6.65416 3.03313C7.74479 2.80292 8.83901 3.46622 9.10815 4.55213L10.1309 7.34133V3.30435ZM12.2103 2.75C11.8768 2.75 11.6309 3.01159 11.6309 3.30435V11.5652C11.6309 11.9288 11.3701 12.2401 11.012 12.3037C10.654 12.3672 10.3019 12.1648 10.1767 11.8234L7.68426 5.02603C7.67258 4.99419 7.66308 4.96159 7.65581 4.92846C7.5922 4.63834 7.29065 4.43183 6.96396 4.50079C6.64463 4.56819 6.46257 4.86462 6.51978 5.14749L8.94965 14.8615C9.02886 15.1782 8.89415 15.5097 8.6165 15.6814C8.33885 15.8531 7.98204 15.8254 7.73413 15.6131L5.08682 13.3452C5.07958 13.339 5.07245 13.3327 5.06545 13.3262C4.91392 13.186 4.69238 13.1339 4.48705 13.1965C4.2828 13.2587 4.13751 13.4207 4.09574 13.6107C4.0542 13.7996 4.11821 13.9999 4.27272 14.1345C4.3106 14.1675 4.34506 14.2042 4.3756 14.2441L9.00648 20.2942C9.6137 20.903 10.4487 21.2496 11.3244 21.25H13.188C14.7214 21.25 15.5644 21.013 16.1231 20.4498C16.7118 19.8564 17.1445 18.7465 17.3993 16.5614C17.5452 14.852 18.0333 13.5921 18.5755 12.5152C18.7658 12.1372 18.9685 11.7714 19.1589 11.4279C19.2329 11.2943 19.305 11.1641 19.3739 11.0378C19.6264 10.5745 19.8486 10.14 20.0239 9.68555C20.0386 9.64751 20.0563 9.61073 20.077 9.57557C20.1816 9.39751 20.2423 9.15037 20.2282 8.93643C20.2141 8.72284 20.1409 8.65929 20.1127 8.6423C19.9648 8.55312 19.8787 8.53654 19.8437 8.53369C19.816 8.53144 19.7975 8.53512 19.7701 8.54907C19.7341 8.56746 19.6774 8.60794 19.5999 8.69277C19.5279 8.77156 19.4537 8.87095 19.371 8.99353L16.859 13.6599C16.6793 13.9935 16.279 14.1408 15.926 14.0031C15.573 13.8653 15.3781 13.4859 15.4719 13.1188L17.3652 5.70558C17.4095 5.42888 17.2279 5.14582 16.9173 5.08023C16.5964 5.01247 16.2981 5.21091 16.2284 5.4951C16.2246 5.51054 16.2203 5.52585 16.2156 5.54101L14.2553 11.7897C14.1445 12.1431 13.7923 12.3626 13.4262 12.3066C13.0601 12.2505 12.7897 11.9356 12.7897 11.5652V3.30435C12.7897 3.01159 12.5438 2.75 12.2103 2.75Z" fill="currentColor"/>
</svg>
