<svg width="24" height="24" viewBox="0 0 24 24" fill="none" xmlns="http://www.w3.org/2000/svg">
  <mask id="path-1-outside-1_1725:3343" maskUnits="userSpaceOnUse" x="1" y="1" width="22" height="21" fill="black">
    <rect fill="white" x="1" y="1" width="22" height="21"/>
    <path
      d="M16.4915 3C14.7664 2.99923 13.1035 4.01211 11.9985 5.28082C10.9071 4.02832 9.2201 2.99923 7.50541 3C4.76423 3 3.00713 5.44891 3 7.97C3.0064 12.9085 8.14435 17.169 12.0003 19.5C15.8561 17.1689 20.9936 12.9083 21 7.97C20.9852 5.47509 19.139 3 16.4915 3Z"/>
  </mask>
  <path
    d="M16.4915 3C14.7664 2.99923 13.1035 4.01211 11.9985 5.28082C10.9071 4.02832 9.2201 2.99923 7.50541 3C4.76423 3 3.00713 5.44891 3 7.97C3.0064 12.9085 8.14435 17.169 12.0003 19.5C15.8561 17.1689 20.9936 12.9083 21 7.97C20.9852 5.47509 19.139 3 16.4915 3Z"
    stroke="currentColor" stroke-width="3" mask="url(#path-1-outside-1_1725:3343)"/>
</svg>
