<svg width="24" height="24" viewBox="0 0 24 24" fill="none" xmlns="http://www.w3.org/2000/svg">
  <path
    d="M21.1495 7.51911V7.51915V16.4804C21.1495 19.0541 19.0542 21.1495 16.4803 21.1495H7.51903C4.94529 21.1495 2.85 19.0543 2.85 16.4804V7.51915C2.85 4.94537 4.9453 2.85 7.51903 2.85H16.4803C19.0543 2.85 21.1496 4.94542 21.1495 7.51911Z"
    stroke="currentColor" stroke-width="1.7"/>
  <path
    d="M12.001 6.84631C9.15942 6.84631 6.84766 9.15812 6.84766 11.9998C6.84766 14.8413 9.15942 17.153 12.001 17.153C14.8427 17.153 17.1544 14.8413 17.1544 11.9998C17.1544 9.15812 14.8427 6.84631 12.001 6.84631ZM12.001 15.3784C10.138 15.3784 8.62211 13.8628 8.62211 11.9997C8.62211 10.1365 10.1379 8.62068 12.001 8.62068C13.8642 8.62068 15.38 10.1365 15.38 11.9997C15.38 13.8628 13.8641 15.3784 12.001 15.3784Z"
    fill="currentColor"/>
  <path
    d="M17.3711 5.34204C17.0292 5.34204 16.6934 5.48045 16.4519 5.72296C16.2093 5.96428 16.0698 6.30024 16.0698 6.6433C16.0698 6.9853 16.2094 7.32114 16.4519 7.56365C16.6933 7.80497 17.0292 7.94456 17.3711 7.94456C17.7142 7.94456 18.0489 7.80497 18.2915 7.56365C18.534 7.32114 18.6724 6.98518 18.6724 6.6433C18.6724 6.30024 18.534 5.96428 18.2915 5.72296C18.0501 5.48045 17.7142 5.34204 17.3711 5.34204Z"
    fill="currentColor"/>
</svg>
