<svg width="24" height="24" fill="none" xmlns="http://www.w3.org/2000/svg"><mask id="a" maskUnits="userSpaceOnUse" x="2.385" y=".195" width="20" height="23" fill="#000"><path fill="#fff" d="M2.385.195h20v23h-20z"/><path d="M19.862 15.339c.368-.505.544-1.047.522-1.605a2.576 2.576 0 0 0-.489-1.39c.244-.656.338-1.687-.476-2.487-.598-.586-1.611-.85-3.016-.776-.987.048-1.813.246-1.847.254h-.004c-.188.037-.387.081-.59.13-.014-.26.027-.902.47-2.35.526-1.722.496-3.04-.098-3.921-.623-.926-1.618-.999-1.91-.999a.916.916 0 0 0-.726.356c-.416.522-.367 1.484-.315 1.929-.496 1.43-1.907 4.408-3.06 5.915-.665.723-.822 1.043-1.54 1.043h-.836c-.863 0-1.562.756-1.562 1.681v6.57c0 .93.595 1.096 1.455 1.096h.943c.607 0 1 .117 1.618.197.135.02 2.538.347 5.005.295.447.036.867.056 1.258.056.672 0 1.258-.056 1.746-.17 1.15-.262 2.1-.592 2.498-1.365.304-.59.304-1.176.255-1.548.747-.728.879-1.532.852-2.098a2.914 2.914 0 0 0-.153-.813Z"/></mask><path d="M19.862 15.339c.368-.505.544-1.047.522-1.605a2.576 2.576 0 0 0-.489-1.39c.244-.656.338-1.687-.476-2.487-.598-.586-1.611-.85-3.016-.776-.987.048-1.813.246-1.847.254h-.004c-.188.037-.387.081-.59.13-.014-.26.027-.902.47-2.35.526-1.722.496-3.04-.098-3.921-.623-.926-1.618-.999-1.91-.999a.916.916 0 0 0-.726.356c-.416.522-.367 1.484-.315 1.929-.496 1.43-1.907 4.408-3.06 5.915-.665.723-.822 1.043-1.54 1.043h-.836c-.863 0-1.562.756-1.562 1.681v6.57c0 .93.595 1.096 1.455 1.096h.943c.607 0 1 .117 1.618.197.135.02 2.538.347 5.005.295.447.036.867.056 1.258.056.672 0 1.258-.056 1.746-.17 1.15-.262 2.1-.592 2.498-1.365.304-.59.304-1.176.255-1.548.747-.728.879-1.532.852-2.098a2.914 2.914 0 0 0-.153-.813Z" fill="#38BD60"/><path d="M19.862 15.339c.368-.505.544-1.047.522-1.605a2.576 2.576 0 0 0-.489-1.39c.244-.656.338-1.687-.476-2.487-.598-.586-1.611-.85-3.016-.776-.987.048-1.813.246-1.847.254h-.004c-.188.037-.387.081-.59.13-.014-.26.027-.902.47-2.35.526-1.722.496-3.04-.098-3.921-.623-.926-1.618-.999-1.91-.999a.916.916 0 0 0-.726.356c-.416.522-.367 1.484-.315 1.929-.496 1.43-1.907 4.408-3.06 5.915-.665.723-.822 1.043-1.54 1.043h-.836c-.863 0-1.562.756-1.562 1.681v6.57c0 .93.595 1.096 1.455 1.096h.943c.607 0 1 .117 1.618.197.135.02 2.538.347 5.005.295.447.036.867.056 1.258.056.672 0 1.258-.056 1.746-.17 1.15-.262 2.1-.592 2.498-1.365.304-.59.304-1.176.255-1.548.747-.728.879-1.532.852-2.098a2.914 2.914 0 0 0-.153-.813Z" stroke="#fff" stroke-width="3" mask="url(#a)"/></svg>
