<svg width="24" height="24" viewBox="0 0 24 24" fill="none" xmlns="http://www.w3.org/2000/svg">
  <path fill-rule="evenodd" clip-rule="evenodd"
        d="M3.18481 14.9803L3.70252 20.5268C3.7813 21.3714 4.2649 22 4.83566 22H19.0637C19.6261 22 20.1051 21.3894 20.1935 20.5599L20.7884 14.9835C20.6938 14.9944 20.5975 15 20.5 15H19.2781L18.702 20.4008L18.7019 20.4009C18.698 20.4381 18.6925 20.471 18.6863 20.5H5.21311C5.20591 20.4667 5.19991 20.4291 5.19603 20.3875L5.19602 20.3874L4.69317 15H3.49997C3.39323 15 3.28804 14.9933 3.18481 14.9803Z"
        fill="currentColor"/>
  <path fill-rule="evenodd" clip-rule="evenodd"
        d="M8.10766 5.40046L8.35248 4.51666L15.6431 4.50113L15.8923 5.40046C16.0723 6.05019 16.6636 6.50002 17.3378 6.50002H18.6261L19.0293 10H20.5C20.5131 10 20.5262 10.0001 20.5392 10.0003L20.1123 6.29415C20.0353 5.55217 19.5635 5.00002 19.0064 5.00002H17.3378L17 3.78036C16.9364 3.33309 16.5474 3.00018 16.0881 3.00018L7.909 3.0176C7.45657 3.0176 7.07099 3.34098 6.99996 3.78036L6.6621 5.00002H5.12084C4.57193 5.00002 4.10447 5.53637 4.0181 6.26532L3.52649 10H5.03943L5.50014 6.50002H6.6621C7.3363 6.50002 7.92767 6.05019 8.10766 5.40046Z"
        fill="currentColor"/>
  <rect x="1.75" y="10.75" width="20.5" height="3.5" rx="1.75" stroke="currentColor" stroke-width="1.5"/>
</svg>
