<svg width="36" height="36" viewBox="0 0 36 36" xmlns="http://www.w3.org/2000/svg">
  <path d="M28 20C26.8954 20 26 19.1046 26 18C26 16.8954 26.8954 16 28 16C29.1046 16 30 16.8954 30 18C30 19.1046 29.1046 20 28 20Z" fill="currentColor"/>
  <path d="M18 20C16.8954 20 16 19.1046 16 18C16 16.8954 16.8954 16 18 16C19.1046 16 20 16.8954 20 18C20 19.1046 19.1046 20 18 20Z" fill="currentColor"/>
  <path d="M8 20C6.89543 20 6 19.1046 6 18C6 16.8954 6.89543 16 8 16C9.10457 16 10 16.8954 10 18C10 19.1046 9.10457 20 8 20Z" fill="currentColor"/>
</svg>
