<svg width="24" height="24" viewBox="0 0 24 24" fill="none" xmlns="http://www.w3.org/2000/svg">
  <path
    d="M5 16.5616V7.43845C5 5.64925 5 4.75466 5.37617 4.23148C5.70438 3.77501 6.20956 3.47775 6.76798 3.41253C7.408 3.33778 8.19002 3.77223 9.75406 4.64114L17.9649 9.2027C19.6087 10.116 20.4307 10.5726 20.7034 11.1745C20.9412 11.6992 20.9412 12.3009 20.7034 12.8255C20.4307 13.4274 19.6087 13.884 17.9649 14.7973L9.75406 19.3589C8.19002 20.2278 7.408 20.6622 6.76798 20.5875C6.20956 20.5222 5.70438 20.225 5.37617 19.7685C5 19.2453 5 18.3507 5 16.5616Z"
    fill="currentColor"/>
</svg>
