<svg width="24" height="24" viewBox="0 0 24 24" fill="none" xmlns="http://www.w3.org/2000/svg">
<path fill-rule="evenodd" clip-rule="evenodd" d="M12 22.5C17.799 22.5 22.5 17.799 22.5 12C22.5 6.20101 17.799 1.5 12 1.5C6.20101 1.5 1.5 6.20101 1.5 12C1.5 17.799 6.20101 22.5 12 22.5ZM12 24C18.6274 24 24 18.6274 24 12C24 5.37258 18.6274 0 12 0C5.37258 0 0 5.37258 0 12C0 18.6274 5.37258 24 12 24ZM13 18C13 18.5523 12.5523 19 12 19C11.4477 19 11 18.5523 11 18C11 17.4477 11.4477 17 12 17C12.5523 17 13 17.4477 13 18ZM10.5124 7.5055C10.7698 7.22467 11.1015 7.02245 11.469 6.92221C11.8167 6.8274 12.1833 6.8274 12.531 6.92221L12.8275 7.00308C13.0529 7.06454 13.2697 7.16898 13.4605 7.30772C13.7962 7.55187 14.0469 7.90194 14.167 8.29479L14.1914 8.37478C14.2303 8.50194 14.25 8.63416 14.25 8.76711C14.25 9.07153 14.1466 9.3669 13.9566 9.60479L13.3048 10.4212L12.5721 11.2205L12.5529 11.2415C11.7149 12.1557 11.25 13.3508 11.25 14.5909V14.5918V14.5928V14.5937V14.5947V14.5956V14.5966V14.5975V14.5985V14.5994V14.6004V14.6013V14.6023V14.6032V14.6042V14.6052V14.6061V14.6071V14.6081V14.609V14.61V14.611V14.612V14.613V14.6139V14.6149V14.6159V14.6169V14.6179V14.6189V14.6198V14.6208V14.6218V14.6228V14.6238V14.6248V14.6258V14.6268V14.6278V14.6288V14.6298V14.6308V14.6318V14.6329V14.6339V14.6349V14.6359V14.6369V14.6379V14.6389V14.64V14.641V14.642V14.643V14.644V14.6451V14.6461V14.6471V14.6482V14.6492V14.6502V14.6513V14.6523V14.6533V14.6544V14.6554V14.6564V14.6575V14.6585V14.6596V14.6606V14.6616V14.6627V14.6637V14.6648V14.6658V14.6669V14.6679V14.669V14.67V14.6711V14.6721V14.6732V14.6742V14.6753V14.6763V14.6774V14.6784V14.6795V14.6806V14.6816V14.6827V14.6837V14.6848V14.6859V14.6869V14.688V14.6891V14.6901V14.6912V14.6922V14.6933V14.6944V14.6954V14.6965V14.6976V14.6986V14.6997V14.7008V14.7019V14.7029V14.704V14.7051V14.7061V14.7072V14.7083V14.7093V14.7104V14.7115V14.7126V14.7136V14.7147V14.7158V14.7169V14.7179V14.719V14.7201V14.7212V14.7222V14.7233V14.7244V14.7255V14.7265V14.7276V14.7287V14.7298V14.7308V14.7319V14.733V14.734V14.7351V14.7362V14.7373V14.7383V14.7394V14.7405V14.7416V14.7426V14.7437V14.7448V14.7459V14.7469V14.748V14.7491V14.7502V14.7512V14.7523V14.7534V14.7544V14.7555V14.7566V14.7577V14.7587V14.7598V14.7609V14.7619V14.763V14.7641V14.7651V14.7662V14.7673V14.7683V14.7694V14.7705V14.7715V14.7726V14.7736V14.7747V14.7758V14.7768V14.7779V14.779V14.78V14.7811V14.7821V14.7832V14.7842V14.7853V14.7863V14.7874V14.7885V14.7895V14.7906V14.7916V14.7927V14.7937V14.7948V14.7958V14.7968V14.7979V14.7989V14.8V14.801V14.8021V14.8031V14.8041V14.8052V14.8062V14.8072V14.8083V14.8093V14.8103V14.8114V14.8124V14.8134V14.8145V14.8155V14.8165V14.8175V14.8186V14.8196V14.8206V14.8216V14.8226V14.8236V14.8247V14.8257V14.8267V14.8277V14.8287V14.8297V14.8307V14.8317V14.8327V14.8337V14.8347V14.8357V14.8367V14.8377V14.8387V14.8397V14.8407V14.8417V14.8427V14.8437V14.8446V14.8456V14.8466V14.8476V14.8486V14.8495V14.8505V14.8515V14.8525V14.8534V14.8544V14.8554V14.8563V14.8573V14.8582V14.8592V14.8602V14.8611V14.8621V14.863V14.864V14.8649V14.8659V14.8668V14.8677V14.8687V14.8696V14.8706V14.8715V14.8724V14.8733V14.8743V14.8752V14.8761V14.877V14.878V14.8789V14.8798V14.8807V14.8816V14.8825V14.8834V14.8843V14.8852V14.8861V14.887V14.8879V14.8888V14.8897V14.8906V14.8914V14.8923V14.8932V14.8941V14.8949V14.8958V14.8967V14.8976V14.8984V14.8993V14.9001V14.901V14.9018V14.9027V14.9035V14.9044V14.9052V14.9061V14.9069V14.9077V14.9086V14.9094V14.9102V14.911V14.9119V14.9127V14.9135V14.9143V14.9151V14.9159V14.9167V14.9175V14.9183V14.9191V14.9199V14.9207V14.9215V14.9223V14.9231V14.9238V14.9246V14.9254V14.9261V14.9269V14.9277V14.9284V14.9292V14.9299V14.9307V14.9314V14.9322V14.9329V14.9337V14.9344V14.9351V14.9359V14.9366V14.9373V14.938V14.9387V14.9394V14.9401V14.9409V14.9416V14.9422V14.9429V14.9436V14.9443V14.945V14.9457V14.9464V14.947V14.9477V14.9484V14.949V14.9497V14.9504V14.951V14.9517V14.9523V14.9529V14.9536V14.9542V14.9548V14.9555V14.9561V14.9567V14.9573V14.9579V14.9585V14.9592V14.9598V14.9603V14.9609V14.9615V14.9621V14.9627V14.9633V14.9638V14.9644V14.965V14.9655V14.9661V14.9667V14.9672V14.9678V14.9683V14.9688V14.9694V14.9699V14.9704V14.9709V14.9715V14.972V14.9725V14.973V14.9735V14.974V14.9745V14.975V14.9755V14.9759V14.9764V14.9769V14.9774V14.9778V14.9783V14.9787V14.9792V14.9796V14.9801V14.9805V14.9809V14.9814V14.9818V14.9822V14.9826V14.983V14.9834V14.9838V14.9842V14.9846V14.985V14.9854V14.9858V14.9862V14.9865V14.9869V14.9872V14.9876V14.988V14.9883V14.9886V14.989V14.9893V14.9896V14.99V14.9903V14.9906V14.9909V14.9912V14.9915V14.9918V14.9921V14.9924V14.9926V14.9929V14.9932V14.9934V14.9937V14.994V14.9942V14.9945V14.9947V14.9949V14.9952V14.9954V14.9956V14.9958V14.996V14.9962V14.9964V14.9966V14.9968V14.997V14.9972V14.9973V14.9975V14.9977V14.9978V14.998V14.9981V14.9983V14.9984V14.9985V14.9986V14.9988V14.9989V14.999V14.9991V14.9992V14.9993V14.9994V14.9994V14.9995V14.9996V14.9997V14.9997V14.9998V14.9998V14.9999V14.9999V14.9999V15V15V15V15C11.25 15.4142 11.5858 15.75 12 15.75C12.4142 15.75 12.75 15.4142 12.75 15V15V15V15V14.9999V14.9999V14.9999V14.9998V14.9998V14.9997V14.9997V14.9996V14.9995V14.9994V14.9994V14.9993V14.9992V14.9991V14.999V14.9989V14.9988V14.9986V14.9985V14.9984V14.9983V14.9981V14.998V14.9978V14.9977V14.9975V14.9973V14.9972V14.997V14.9968V14.9966V14.9964V14.9962V14.996V14.9958V14.9956V14.9954V14.9952V14.9949V14.9947V14.9945V14.9942V14.994V14.9937V14.9934V14.9932V14.9929V14.9926V14.9924V14.9921V14.9918V14.9915V14.9912V14.9909V14.9906V14.9903V14.99V14.9896V14.9893V14.989V14.9886V14.9883V14.988V14.9876V14.9872V14.9869V14.9865V14.9862V14.9858V14.9854V14.985V14.9846V14.9842V14.9838V14.9834V14.983V14.9826V14.9822V14.9818V14.9814V14.9809V14.9805V14.9801V14.9796V14.9792V14.9787V14.9783V14.9778V14.9774V14.9769V14.9764V14.9759V14.9755V14.975V14.9745V14.974V14.9735V14.973V14.9725V14.972V14.9715V14.9709V14.9704V14.9699V14.9694V14.9688V14.9683V14.9678V14.9672V14.9667V14.9661V14.9655V14.965V14.9644V14.9638V14.9633V14.9627V14.9621V14.9615V14.9609V14.9603V14.9598V14.9592V14.9585V14.9579V14.9573V14.9567V14.9561V14.9555V14.9548V14.9542V14.9536V14.9529V14.9523V14.9517V14.951V14.9504V14.9497V14.949V14.9484V14.9477V14.947V14.9464V14.9457V14.945V14.9443V14.9436V14.9429V14.9422V14.9416V14.9409V14.9401V14.9394V14.9387V14.938V14.9373V14.9366V14.9359V14.9351V14.9344V14.9337V14.9329V14.9322V14.9314V14.9307V14.9299V14.9292V14.9284V14.9277V14.9269V14.9261V14.9254V14.9246V14.9238V14.9231V14.9223V14.9215V14.9207V14.9199V14.9191V14.9183V14.9175V14.9167V14.9159V14.9151V14.9143V14.9135V14.9127V14.9119V14.911V14.9102V14.9094V14.9086V14.9077V14.9069V14.9061V14.9052V14.9044V14.9035V14.9027V14.9018V14.901V14.9001V14.8993V14.8984V14.8976V14.8967V14.8958V14.8949V14.8941V14.8932V14.8923V14.8914V14.8906V14.8897V14.8888V14.8879V14.887V14.8861V14.8852V14.8843V14.8834V14.8825V14.8816V14.8807V14.8798V14.8789V14.878V14.877V14.8761V14.8752V14.8743V14.8733V14.8724V14.8715V14.8706V14.8696V14.8687V14.8677V14.8668V14.8659V14.8649V14.864V14.863V14.8621V14.8611V14.8602V14.8592V14.8582V14.8573V14.8563V14.8554V14.8544V14.8534V14.8525V14.8515V14.8505V14.8495V14.8486V14.8476V14.8466V14.8456V14.8446V14.8437V14.8427V14.8417V14.8407V14.8397V14.8387V14.8377V14.8367V14.8357V14.8347V14.8337V14.8327V14.8317V14.8307V14.8297V14.8287V14.8277V14.8267V14.8257V14.8247V14.8236V14.8226V14.8216V14.8206V14.8196V14.8186V14.8175V14.8165V14.8155V14.8145V14.8134V14.8124V14.8114V14.8103V14.8093V14.8083V14.8072V14.8062V14.8052V14.8041V14.8031V14.8021V14.801V14.8V14.7989V14.7979V14.7968V14.7958V14.7948V14.7937V14.7927V14.7916V14.7906V14.7895V14.7885V14.7874V14.7863V14.7853V14.7842V14.7832V14.7821V14.7811V14.78V14.779V14.7779V14.7768V14.7758V14.7747V14.7736V14.7726V14.7715V14.7705V14.7694V14.7683V14.7673V14.7662V14.7651V14.7641V14.763V14.7619V14.7609V14.7598V14.7587V14.7577V14.7566V14.7555V14.7544V14.7534V14.7523V14.7512V14.7502V14.7491V14.748V14.7469V14.7459V14.7448V14.7437V14.7426V14.7416V14.7405V14.7394V14.7383V14.7373V14.7362V14.7351V14.734V14.733V14.7319V14.7308V14.7298V14.7287V14.7276V14.7265V14.7255V14.7244V14.7233V14.7222V14.7212V14.7201V14.719V14.7179V14.7169V14.7158V14.7147V14.7136V14.7126V14.7115V14.7104V14.7093V14.7083V14.7072V14.7061V14.7051V14.704V14.7029V14.7019V14.7008V14.6997V14.6986V14.6976V14.6965V14.6954V14.6944V14.6933V14.6922V14.6912V14.6901V14.6891V14.688V14.6869V14.6859V14.6848V14.6837V14.6827V14.6816V14.6806V14.6795V14.6784V14.6774V14.6763V14.6753V14.6742V14.6732V14.6721V14.6711V14.67V14.669V14.6679V14.6669V14.6658V14.6648V14.6637V14.6627V14.6616V14.6606V14.6596V14.6585V14.6575V14.6564V14.6554V14.6544V14.6533V14.6523V14.6513V14.6502V14.6492V14.6482V14.6471V14.6461V14.6451V14.644V14.643V14.642V14.641V14.64V14.6389V14.6379V14.6369V14.6359V14.6349V14.6339V14.6329V14.6318V14.6308V14.6298V14.6288V14.6278V14.6268V14.6258V14.6248V14.6238V14.6228V14.6218V14.6208V14.6198V14.6189V14.6179V14.6169V14.6159V14.6149V14.6139V14.613V14.612V14.611V14.61V14.609V14.6081V14.6071V14.6061V14.6052V14.6042V14.6032V14.6023V14.6013V14.6004V14.5994V14.5985V14.5975V14.5966V14.5956V14.5947V14.5937V14.5928V14.5918V14.5909C12.75 13.7261 13.0742 12.8926 13.6586 12.2551L13.6779 12.2341L14.4279 11.4159L14.4452 11.397L14.4611 11.377L15.1288 10.5407C15.531 10.037 15.75 9.41163 15.75 8.76711C15.75 8.48561 15.7082 8.20567 15.6259 7.93646L15.6015 7.85646C15.3851 7.14814 14.9382 6.5277 14.3427 6.09462C14.0068 5.85033 13.6251 5.66583 13.2222 5.55594L12.9257 5.47506C12.3196 5.30978 11.6804 5.30978 11.0743 5.47506C10.4336 5.64981 9.85542 6.00235 9.40665 6.49192L9.37175 6.52999C9.02057 6.91309 8.75412 7.36593 8.58977 7.85897L8.53849 8.01283L8.41349 8.38783L8.28849 8.76283C8.1575 9.15579 8.36987 9.58053 8.76283 9.71151C9.15579 9.8425 9.58053 9.63013 9.71151 9.23717L9.83651 8.86217L9.96151 8.48717L10.0128 8.33331C10.1105 8.04033 10.2688 7.77123 10.4775 7.54357L10.5124 7.5055Z" fill="currentColor"/>
</svg>
