<svg width="24" height="24" viewBox="0 0 24 24" fill="none" xmlns="http://www.w3.org/2000/svg">
  <path
    d="M12 20V6.5M12 6.5H7.95C5.05414 6.5 5.05414 2 7.95 2C11.1 2 12 6.5 12 6.5ZM12 6.5H16.05C18.9459 6.5 18.9459 2 16.05 2C12.9 2 12 6.5 12 6.5ZM19.2 11V18C19.2 19.1046 18.3046 20 17.2 20H6.8C5.69543 20 4.8 19.1046 4.8 18V11H19.2ZM5 11H19C20.1046 11 21 10.1046 21 9V8.5C21 7.39543 20.1046 6.5 19 6.5L5 6.5C3.89543 6.5 3 7.39543 3 8.5V9C3 10.1046 3.89543 11 5 11Z"
    stroke="currentColor" stroke-width="1.5"/>
</svg>
