<svg width="24" height="24" fill="currentColor" xmlns="http://www.w3.org/2000/svg"><path fill-rule="evenodd" clip-rule="evenodd" d="M19.177 14.03H10.47a.5.5 0 0 1-.5-.5V4.822a.5.5 0 0 1 .5-.5h8.706a.5.5 0 0 1 .5.5v8.706a.5.5 0 0 1-.5.5Zm2-.5a2 2 0 0 1-2 2h-3.648v3.646a2 2 0 0 1-2 2H4.824a2 2 0 0 1-2-2v-8.705a2 2 0 0 1 2-2H8.47V4.823a2 2 0 0 1 2-2h8.706a2 2 0 0 1 2 2v8.706ZM8.47 9.97H4.824a.5.5 0 0 0-.5.5v8.706a.5.5 0 0 0 .5.5h8.705a.5.5 0 0 0 .5-.5V15.53h-3.558a2 2 0 0 1-2-2V9.971Z" fill="currentColor"/></svg>
