<svg width="24" height="24" viewBox="0 0 24 24" fill="none" xmlns="http://www.w3.org/2000/svg">
  <path fill-rule="evenodd" clip-rule="evenodd" d="M17 20.5H20C20.2761 20.5 20.5 20.2761 20.5 20V7.57992C20.5 7.43492 20.437 7.29705 20.3275 7.20208L16.1968 3.62216C16.1059 3.54337 15.9896 3.5 15.8693 3.5H15V7C15 7.55228 14.5523 8 14 8H7C6.44772 8 6 7.55228 6 7V3.5H4C3.72386 3.5 3.5 3.72386 3.5 4V20C3.5 20.2761 3.72386 20.5 4 20.5H6V14C6 13.4477 6.44772 13 7 13H16C16.5523 13 17 13.4477 17 14V20.5ZM17 22H20C21.1046 22 22 21.1046 22 20V7.57992C22 6.99989 21.7482 6.44843 21.3099 6.06855L17.1792 2.48862C16.8156 2.17348 16.3505 2 15.8693 2H15H13.5H7.5H6H4C2.89543 2 2 2.89543 2 4V20C2 21.1046 2.89543 22 4 22H6H7.5H15.5H17ZM15.5 20.5V14.5H7.5V20.5H15.5ZM7.5 3.5H13.5V6.5H7.5V3.5Z" fill="currentColor"/>
</svg>
