<svg width="24" height="24" viewBox="0 0 24 24" fill="none" xmlns="http://www.w3.org/2000/svg">
  <path fill-rule="evenodd" clip-rule="evenodd"
        d="M17.6563 10.6667C17.6563 14.5558 14.5141 17.7085 10.6379 17.7085C6.76183 17.7085 3.61962 14.5558 3.61962 10.6667C3.61962 6.7777 6.76183 3.62501 10.6379 3.62501C14.5141 3.62501 17.6563 6.7777 17.6563 10.6667ZM16.1828 17.3124C14.6824 18.5739 12.7486 19.3335 10.6379 19.3335C5.86734 19.3335 2 15.4532 2 10.6667C2 5.88023 5.86734 2 10.6379 2C15.4086 2 19.2759 5.88023 19.2759 10.6667C19.2759 12.7504 18.543 14.6623 17.3218 16.1572L21.7628 20.613C22.0791 20.9303 22.0791 21.4447 21.7628 21.762C21.4466 22.0793 20.9338 22.0793 20.6176 21.762L16.1828 17.3124Z"
        fill="currentColor"/>
</svg>
