<svg width="24" height="24" viewBox="0 0 24 24" fill="none" xmlns="http://www.w3.org/2000/svg">
  <path
    d="M15.4894 4.01334C15.0414 3.92018 14.6019 4.33032 14.6019 4.7683C14.5212 5.81686 13.3514 6.69765 11.9798 6.69765C10.6083 6.69765 9.43843 5.81686 9.35775 4.7683C9.35775 4.33032 8.91826 3.92018 8.47028 4.01334C4.78615 4.56055 2.5 7.89219 2.5 11.4371C2.5 11.8985 2.86306 12.276 3.30679 12.276H5.36233C5.91861 12.276 6.36797 12.73 6.36228 13.2862L6.29193 20.1612C6.29193 20.5919 6.65456 21 7.09873 21H16.9013C17.3454 21 17.7081 20.5919 17.7081 20.1612L17.6377 13.2442C17.632 12.688 18.0814 12.234 18.6376 12.234H20.6932C21.1369 12.234 21.5 11.8566 21.5 11.3952C21.5 7.97189 19.1826 4.51619 15.4894 4.01334Z"
    stroke="currentColor" stroke-width="1.5"/>
</svg>
