<svg width="24" height="24" viewBox="0 0 24 24" fill="currentColor" stroke="currentColor"
     xmlns="http://www.w3.org/2000/svg">
  <mask id="path-1-outside-1" maskUnits="userSpaceOnUse" x="3" y="4" width="18" height="19" fill="black">
    <rect fill="white" stroke="none" x="3" y="4" width="18" height="19"/>
    <path stroke="none" fill-rule="evenodd" clip-rule="evenodd"
          d="M19 5L17.4 19.6087C17.4 20.0621 17.05 21 16 21H8C6.95 21 6.6 20.0621 6.6 19.6087L5 5"/>
  </mask>
  <path
    d="M17.4 19.6087L15.9089 19.4454C15.903 19.4996 15.9 19.5541 15.9 19.6087H17.4ZM6.6 19.6087H8.1C8.1 19.5541 8.09702 19.4996 8.09108 19.4454L6.6 19.6087ZM17.5089 4.83669L15.9089 19.4454L18.8911 19.772L20.4911 5.16331L17.5089 4.83669ZM15.9 19.6087C15.9 19.572 15.9033 19.5525 15.9037 19.5497C15.9044 19.5455 15.9043 19.5479 15.9021 19.5544C15.8969 19.5706 15.8913 19.5776 15.8945 19.5734C15.9003 19.5657 15.9221 19.5406 15.9629 19.5191C15.9823 19.5089 15.9992 19.5032 16.0101 19.5006C16.0208 19.498 16.0188 19.5 16 19.5V22.5C17.0434 22.5 17.8202 22.0047 18.293 21.3754C18.7175 20.8104 18.9 20.1424 18.9 19.6087H15.9ZM16 19.5H8V22.5H16V19.5ZM8 19.5C7.9812 19.5 7.97919 19.498 7.9899 19.5006C8.00084 19.5032 8.01765 19.5089 8.03705 19.5191C8.07789 19.5406 8.09971 19.5657 8.10548 19.5734C8.10867 19.5776 8.10312 19.5706 8.09787 19.5544C8.09574 19.5479 8.09558 19.5455 8.09628 19.5497C8.09675 19.5525 8.1 19.572 8.1 19.6087H5.1C5.1 20.1424 5.28251 20.8104 5.70702 21.3754C6.17979 22.0047 6.95656 22.5 8 22.5V19.5ZM8.09108 19.4454L6.49108 4.83669L3.50892 5.16331L5.10892 19.772L8.09108 19.4454Z"
    stroke="none" mask="url(#path-1-outside-1)"/>
  <mask id="path-3-outside-2" maskUnits="userSpaceOnUse" x="6" y="1" width="12" height="4" fill="black">
    <rect fill="white" x="6" y="1" width="12" height="4"/>
    <path stroke="none" fill-rule="evenodd" clip-rule="evenodd"
          d="M8 5V3.66667C8 3.23212 8.25976 3 8.75367 3H15.2C15.6939 3 16 3.23212 16 3.66667V5"/>
  </mask>
  <path
    d="M9.5 5V3.66667H6.5V5H9.5ZM9.5 3.66667C9.5 3.75445 9.46358 4.04724 9.1869 4.29261C8.94107 4.51064 8.71686 4.5 8.75367 4.5V1.5C8.29657 1.5 7.69553 1.60542 7.19634 2.04814C6.6663 2.51822 6.5 3.14433 6.5 3.66667H9.5ZM8.75367 4.5H15.2V1.5H8.75367V4.5ZM15.2 4.5C15.2358 4.5 15.0562 4.51079 14.8393 4.33451C14.7258 4.24228 14.6319 4.12067 14.5712 3.9826C14.5124 3.84877 14.5 3.73473 14.5 3.66667H17.5C17.5 3.06674 17.2702 2.44428 16.7312 2.00625C16.2377 1.60527 15.6581 1.5 15.2 1.5V4.5ZM14.5 3.66667V5H17.5V3.66667H14.5Z"
    stroke="none" mask="url(#path-3-outside-2)"/>
  <path fill="none" d="M2 5H22" stroke-width="1.5" stroke-linecap="round" stroke-linejoin="round"/>
</svg>
