<svg width="24" height="24" viewBox="0 0 24 24" fill="none" xmlns="http://www.w3.org/2000/svg">
<path fill-rule="evenodd" clip-rule="evenodd" d="M10.1507 4.60368C11.8954 4.32787 13.3931 4.59079 14.456 4.92366C14.9871 5.08996 15.4064 5.27276 15.689 5.41159C15.8301 5.48092 15.9367 5.53902 16.0055 5.57821C16.0398 5.5978 16.0647 5.61263 16.0797 5.62173L16.0948 5.63097L16.0951 5.63116L16.0955 5.63142L16.0957 5.63152L16.0964 5.63199C16.4447 5.8544 16.9075 5.75312 17.131 5.4052C17.3549 5.0567 17.2539 4.59269 16.9054 4.36882L16.5051 4.99195C16.9054 4.36882 16.9051 4.36866 16.9048 4.36849L16.9043 4.36812L16.9029 4.36725L16.8994 4.36505L16.8895 4.35882L16.8578 4.33933C16.8315 4.32335 16.7948 4.30153 16.748 4.2749C16.6546 4.22165 16.5209 4.14904 16.3503 4.06523C16.0094 3.89778 15.5187 3.68462 14.9043 3.49221C13.6763 3.10764 11.9407 2.80207 9.91647 3.12208L9.91643 3.12209C7.88506 3.44332 6.01416 4.38608 4.59232 5.8141C3.16982 7.24278 2.27508 9.07921 2.0538 11.0449C1.83248 13.0109 2.2982 14.9885 3.37409 16.674C4.44943 18.3586 6.07288 19.6561 7.98996 20.3762C9.90669 21.0961 12.0177 21.202 14.0026 20.6786C15.9878 20.1552 17.7449 19.0292 19.0009 17.4642C19.6717 16.6283 20.2655 15.2573 20.528 13.8391C20.6693 13.0751 20.7237 12.2462 20.6163 11.446L21.4295 12.4744C21.6907 12.8047 22.1634 12.8703 22.4852 12.6208C22.807 12.3713 22.8562 11.9013 22.595 11.571L20.2078 8.55239L19.5309 7.69638L18.9806 8.59794L16.8818 12.0363C16.6694 12.3842 16.7859 12.848 17.1418 13.0723C17.4978 13.2967 17.9585 13.1965 18.1708 12.8487L19.0806 11.3583C19.2165 12.015 19.1989 12.7778 19.053 13.5662C18.8245 14.8008 18.3124 15.9255 17.831 16.5253C16.7826 17.8317 15.3052 18.7839 13.6202 19.2282C11.9349 19.6725 10.1419 19.5821 8.51741 18.9719C6.89326 18.3619 5.5331 17.2685 4.63846 15.8669C3.74437 14.4662 3.3621 12.832 3.54438 11.2127C3.7267 9.59313 4.46496 8.06795 5.65527 6.87246C6.84624 5.67631 8.4242 4.87671 10.1507 4.60368Z" fill="currentColor"/>
</svg>
