<svg width="24" height="24" viewBox="0 0 24 24" fill="none" xmlns="http://www.w3.org/2000/svg">
  <path fill-rule="evenodd" clip-rule="evenodd" d="M10.1072 4.72948C10.1331 4.98151 10.2942 5.27382 10.6313 5.52363C10.9727 5.77666 11.4506 5.94766 11.9798 5.94766C12.509 5.94766 12.987 5.77666 13.3284 5.52363C13.6655 5.27382 13.8265 4.98151 13.8524 4.72949C13.8647 4.27943 14.0884 3.88655 14.3828 3.62807C14.683 3.36452 15.1255 3.18273 15.6123 3.2732C19.7435 3.84794 22.25 7.68923 22.25 11.3952C22.25 12.243 21.5784 12.9841 20.6932 12.9841H18.6376C18.4986 12.9841 18.3862 13.0975 18.3876 13.2366L18.4581 20.1612C18.4581 20.96 17.8043 21.75 16.9013 21.75H7.09873C6.1957 21.75 5.54193 20.96 5.54193 20.1612V20.1535L5.61231 13.2786C5.61374 13.1395 5.5014 13.026 5.36233 13.026H3.30679C2.42157 13.026 1.75 12.2849 1.75 11.4371C1.75 7.60378 4.22922 3.89476 8.34216 3.27417C8.83108 3.18145 9.27563 3.36359 9.57685 3.62807C9.87123 3.88654 10.095 4.27942 10.1072 4.72948ZM8.58615 4.75437L8.58047 4.75521C5.33588 5.23714 3.25 8.18619 3.25 11.4371C3.25 11.4687 3.26199 11.4935 3.27755 11.5097C3.29272 11.5255 3.30335 11.526 3.30679 11.526H5.36233C6.33583 11.526 7.1222 12.3205 7.11224 13.2939L7.04196 20.1622C7.04213 20.1657 7.0432 20.1743 7.04845 20.1869C7.05444 20.2014 7.06397 20.2164 7.07583 20.2291C7.08919 20.2433 7.09873 20.2484 7.1028 20.25H16.8972C16.9013 20.2484 16.9108 20.2433 16.9242 20.2291C16.936 20.2164 16.9456 20.2014 16.9516 20.1869C16.9568 20.1743 16.9579 20.1657 16.958 20.1622L16.8877 13.2519C16.8778 12.2785 17.6642 11.4841 18.6376 11.4841H20.6932C20.6967 11.4841 20.7073 11.4835 20.7224 11.4677C20.738 11.4516 20.75 11.4267 20.75 11.3952C20.75 8.26107 18.6305 5.19794 15.3882 4.75649L15.3734 4.75447C15.3731 4.75472 15.3728 4.75498 15.3725 4.75524C15.3678 4.75934 15.3633 4.76413 15.3594 4.76925C15.3559 4.77379 15.3535 4.7778 15.3519 4.78081V4.79712L15.3497 4.82585C15.2887 5.61822 14.824 6.28225 14.2215 6.72876C13.615 7.17827 12.8222 7.44766 11.9798 7.44766C11.1375 7.44766 10.3447 7.17827 9.73816 6.72876C9.13564 6.28225 8.67093 5.61822 8.60996 4.82585L8.60775 4.79712V4.78081C8.60619 4.7778 8.60375 4.77379 8.60027 4.76925C8.59634 4.76413 8.59183 4.75934 8.58716 4.75524C8.58682 4.75494 8.58648 4.75465 8.58615 4.75437ZM16.895 20.2507C16.8949 20.2507 16.8962 20.2502 16.8972 20.25L16.895 20.2507ZM7.10499 20.2507C7.10499 20.2507 7.10365 20.2503 7.1028 20.25L7.10499 20.2507Z" fill="currentColor"/>
</svg>
