<svg width="24" height="24" viewBox="0 0 24 24" fill="none" xmlns="http://www.w3.org/2000/svg">
  <path
    d="M22.878 17.7404C22.8502 17.681 22.8242 17.6316 22.8001 17.5921C22.401 16.8801 21.6385 16.0062 20.5128 14.9701L20.4891 14.9464L20.4771 14.9348L20.4651 14.9228H20.453C19.9422 14.4404 19.6186 14.116 19.4832 13.9499C19.2353 13.6335 19.1798 13.3133 19.3152 12.9888C19.4109 12.7437 19.7705 12.2259 20.393 11.4349C20.7205 11.0157 20.9798 10.6797 21.1713 10.4266C22.5525 8.60744 23.1514 7.44499 22.9677 6.93876L22.8963 6.82047C22.8484 6.74925 22.7246 6.68409 22.5253 6.62467C22.3255 6.56538 22.0701 6.55557 21.7586 6.59509L18.3099 6.61869C18.254 6.59908 18.1742 6.60091 18.0703 6.62467C17.9665 6.64844 17.9146 6.66037 17.9146 6.66037L17.8546 6.69008L17.8069 6.72577C17.767 6.74937 17.7231 6.79088 17.6751 6.85022C17.6274 6.90934 17.5875 6.97874 17.5557 7.05781C17.1802 8.01479 16.7533 8.90453 16.2742 9.72701C15.9788 10.2174 15.7075 10.6425 15.4597 11.0024C15.2123 11.3621 15.0047 11.6272 14.8372 11.7971C14.6694 11.9671 14.518 12.1034 14.382 12.2063C14.2463 12.3093 14.1426 12.3528 14.0708 12.3369C13.9989 12.321 13.9312 12.3052 13.867 12.2894C13.7554 12.2182 13.6655 12.1213 13.5978 11.9987C13.5297 11.8761 13.4839 11.7219 13.46 11.536C13.4362 11.35 13.4221 11.19 13.418 11.0555C13.4143 10.9212 13.416 10.7312 13.4241 10.486C13.4324 10.2408 13.4362 10.0748 13.4362 9.98779C13.4362 9.6872 13.4421 9.36098 13.4539 9.00904C13.466 8.65709 13.4758 8.37824 13.484 8.17281C13.4921 7.96717 13.4959 7.7496 13.4959 7.52024C13.4959 7.29087 13.4818 7.11099 13.4539 6.98044C13.4264 6.85005 13.3842 6.72348 13.3285 6.60078C13.2725 6.4782 13.1906 6.38338 13.083 6.31607C12.9753 6.24884 12.8413 6.19549 12.6819 6.15584C12.2587 6.06098 11.7199 6.00967 11.0651 6.00169C9.58027 5.9859 8.62619 6.08089 8.20306 6.28652C8.03542 6.37341 7.88371 6.49212 7.74806 6.64229C7.60432 6.81635 7.58427 6.91134 7.68804 6.92696C8.16712 6.99806 8.50627 7.16813 8.70588 7.43701L8.77781 7.57949C8.83377 7.68229 8.88963 7.86429 8.94554 8.12523C9.00137 8.38618 9.0374 8.67484 9.05325 8.99104C9.0931 9.56849 9.0931 10.0628 9.05325 10.474C9.01328 10.8853 8.97553 11.2056 8.9395 11.435C8.90347 11.6643 8.84962 11.8502 8.77781 11.9925C8.70588 12.1348 8.65802 12.2219 8.63403 12.2534C8.61008 12.285 8.59012 12.3049 8.57426 12.3127C8.47049 12.3521 8.36257 12.3722 8.25088 12.3722C8.13902 12.3722 8.00337 12.3168 7.84373 12.206C7.68414 12.0952 7.51851 11.943 7.34683 11.7492C7.17516 11.5554 6.98155 11.2845 6.76592 10.9366C6.55046 10.5886 6.3269 10.1774 6.09537 9.70287L5.90381 9.35874C5.78407 9.13735 5.62049 8.81499 5.41291 8.39195C5.20521 7.96875 5.02162 7.55938 4.86203 7.16393C4.79823 6.99785 4.70239 6.87141 4.57467 6.7844L4.51474 6.7487C4.47489 6.71713 4.41093 6.68359 4.32318 6.64786C4.23531 6.61217 4.14362 6.58657 4.04774 6.57082L0.766556 6.59442C0.431261 6.59442 0.203761 6.66967 0.0839705 6.81997L0.0360293 6.89106C0.0120797 6.93066 0 6.9939 0 7.08095C0 7.16796 0.0239496 7.27475 0.0718908 7.40119C0.550883 8.51644 1.07178 9.59201 1.63457 10.6281C2.19737 11.6641 2.68643 12.4987 3.10146 13.131C3.51657 13.7638 3.93969 14.361 4.37083 14.9224C4.80196 15.484 5.08735 15.8438 5.22698 16.0019C5.36677 16.1603 5.47658 16.2788 5.5564 16.3578L5.85583 16.6425C6.04743 16.8324 6.32878 17.0597 6.70002 17.3246C7.07135 17.5897 7.48243 17.8506 7.93349 18.1079C8.38464 18.3647 8.90947 18.5743 9.5083 18.7364C10.107 18.8986 10.6898 18.9638 11.2567 18.9323H12.6338C12.9131 18.9084 13.1247 18.8214 13.2686 18.6713L13.3162 18.6118C13.3482 18.5646 13.3782 18.4913 13.4059 18.3926C13.4339 18.2937 13.4479 18.1848 13.4479 18.0664C13.4397 17.7263 13.4658 17.4199 13.5255 17.1471C13.5852 16.8743 13.6533 16.6687 13.7293 16.5302C13.8054 16.3918 13.8912 16.2751 13.9867 16.1804C14.0824 16.0855 14.1506 16.0281 14.1906 16.0083C14.2304 15.9884 14.2622 15.9749 14.2861 15.9668C14.4777 15.9035 14.7032 15.9648 14.9629 16.1508C15.2224 16.3367 15.4658 16.5662 15.6935 16.8389C15.921 17.1119 16.1944 17.4182 16.5137 17.7582C16.8332 18.0984 17.1125 18.3512 17.3519 18.5175L17.5913 18.6599C17.7512 18.7549 17.9588 18.8419 18.2143 18.921C18.4694 19 18.6928 19.0198 18.8847 18.9802L21.9502 18.9329C22.2534 18.9329 22.4894 18.8831 22.6567 18.7845C22.8244 18.6856 22.924 18.5767 22.9562 18.4582C22.9882 18.3396 22.9899 18.2051 22.9622 18.0547C22.9338 17.9046 22.9059 17.7997 22.878 17.7404Z"
    fill="currentColor"/>
</svg>
