<svg width="24" height="24" viewBox="0 0 24 24" fill="none" xmlns="http://www.w3.org/2000/svg">
  <path
    d="M22.8833 17.7404C22.8567 17.681 22.8319 17.6316 22.8088 17.5921C22.4271 16.8801 21.6977 16.0062 20.621 14.9701L20.5982 14.9464L20.5868 14.9348L20.5753 14.9228H20.5638C20.0751 14.4404 19.7657 14.116 19.6361 13.9499C19.399 13.6335 19.3459 13.3133 19.4754 12.9888C19.567 12.7437 19.9109 12.2259 20.5064 11.4349C20.8196 11.0157 21.0676 10.6797 21.2508 10.4266C22.572 8.60744 23.1448 7.44499 22.9691 6.93876L22.9008 6.82047C22.855 6.74925 22.7366 6.68409 22.5459 6.62467C22.3548 6.56538 22.1105 6.55557 21.8126 6.59509L18.5138 6.61869C18.4604 6.59908 18.3841 6.60091 18.2846 6.62467C18.1853 6.64844 18.1357 6.66037 18.1357 6.66037L18.0783 6.69008L18.0327 6.72577C17.9945 6.74937 17.9525 6.79088 17.9066 6.85022C17.861 6.90934 17.8229 6.97874 17.7924 7.05781C17.4332 8.01479 17.0249 8.90453 16.5666 9.72701C16.284 10.2174 16.0245 10.6425 15.7876 11.0024C15.5509 11.3621 15.3523 11.6272 15.1921 11.7971C15.0316 11.9671 14.8868 12.1034 14.7567 12.2063C14.6269 12.3093 14.5277 12.3528 14.4591 12.3369C14.3903 12.321 14.3255 12.3052 14.2641 12.2894C14.1573 12.2182 14.0714 12.1213 14.0066 11.9987C13.9415 11.8761 13.8977 11.7219 13.8748 11.536C13.852 11.35 13.8385 11.19 13.8346 11.0555C13.8311 10.9212 13.8327 10.7312 13.8405 10.486C13.8484 10.2408 13.852 10.0748 13.852 9.98779C13.852 9.6872 13.8576 9.36098 13.869 9.00904C13.8805 8.65709 13.8899 8.37824 13.8977 8.17281C13.9055 7.96717 13.9091 7.7496 13.9091 7.52024C13.9091 7.29087 13.8956 7.11099 13.869 6.98044C13.8427 6.85005 13.8023 6.72348 13.749 6.60078C13.6955 6.4782 13.6171 6.38338 13.5142 6.31607C13.4111 6.24884 13.283 6.19549 13.1305 6.15584C12.7257 6.06098 12.2103 6.00967 11.584 6.00169C10.1637 5.9859 9.25114 6.08089 8.84641 6.28652C8.68605 6.37341 8.54094 6.49212 8.41119 6.64229C8.2737 6.81635 8.25452 6.91134 8.35378 6.92696C8.81203 6.99806 9.13643 7.16813 9.32736 7.43701L9.39617 7.57949C9.44969 7.68229 9.50313 7.86429 9.55661 8.12523C9.61001 8.38618 9.64447 8.67484 9.65963 8.99104C9.69775 9.56849 9.69775 10.0628 9.65963 10.474C9.6214 10.8853 9.58529 11.2056 9.55083 11.435C9.51637 11.6643 9.46485 11.8502 9.39617 11.9925C9.32736 12.1348 9.28159 12.2219 9.25864 12.2534C9.23573 12.285 9.21663 12.3049 9.20147 12.3127C9.10221 12.3521 8.99898 12.3722 8.89214 12.3722C8.78515 12.3722 8.6554 12.3168 8.5027 12.206C8.35005 12.0952 8.19161 11.943 8.0274 11.7492C7.86319 11.5554 7.678 11.2845 7.47175 10.9366C7.26565 10.5886 7.05181 10.1774 6.83035 9.70287L6.64713 9.35874C6.53259 9.13735 6.37612 8.81499 6.17757 8.39195C5.97889 7.96875 5.80329 7.55938 5.65063 7.16393C5.58961 6.99785 5.49794 6.87141 5.37577 6.7844L5.31844 6.7487C5.28033 6.71713 5.21915 6.68359 5.13522 6.64786C5.05117 6.61217 4.96346 6.58657 4.87175 6.57082L1.73323 6.59442C1.41251 6.59442 1.1949 6.66967 1.08032 6.81997L1.03446 6.89106C1.01155 6.93066 1 6.9939 1 7.08095C1 7.16796 1.02291 7.27475 1.06877 7.40119C1.52693 8.51644 2.02518 9.59201 2.5635 10.6281C3.10183 11.6641 3.56963 12.4987 3.96661 13.131C4.36367 13.7638 4.7684 14.361 5.18079 14.9224C5.59318 15.484 5.86616 15.8438 5.99972 16.0019C6.13343 16.1603 6.23847 16.2788 6.31482 16.3578L6.60123 16.6425C6.7845 16.8324 7.05362 17.0597 7.40872 17.3246C7.7639 17.5897 8.15711 17.8506 8.58856 18.1079C9.02009 18.3647 9.5221 18.5743 10.0949 18.7364C10.6676 18.8986 11.225 18.9638 11.7672 18.9323H13.0845C13.3517 18.9084 13.5541 18.8214 13.6917 18.6713L13.7372 18.6118C13.7679 18.5646 13.7966 18.4913 13.8231 18.3926C13.8499 18.2937 13.8632 18.1848 13.8632 18.0664C13.8554 17.7263 13.8803 17.4199 13.9375 17.1471C13.9946 16.8743 14.0596 16.6687 14.1324 16.5302C14.2052 16.3918 14.2872 16.2751 14.3786 16.1804C14.4701 16.0855 14.5354 16.0281 14.5737 16.0083C14.6117 15.9884 14.6421 15.9749 14.665 15.9668C14.8482 15.9035 15.0639 15.9648 15.3123 16.1508C15.5606 16.3367 15.7934 16.5662 16.0111 16.8389C16.2288 17.1119 16.4903 17.4182 16.7957 17.7582C17.1013 18.0984 17.3685 18.3512 17.5975 18.5175L17.8265 18.6599C17.9794 18.7549 18.178 18.8419 18.4224 18.921C18.6663 19 18.8801 19.0198 19.0636 18.9802L21.9959 18.9329C22.2859 18.9329 22.5116 18.8831 22.6717 18.7845C22.8321 18.6856 22.9273 18.5767 22.9581 18.4582C22.9887 18.3396 22.9904 18.2051 22.9639 18.0547C22.9367 17.9046 22.91 17.7997 22.8833 17.7404Z"
    stroke="currentColor" stroke-width="1.5"/>
</svg>
