<svg width="16" height="16" viewBox="0 0 16 16" fill="none" xmlns="http://www.w3.org/2000/svg">
<path d="M2 3C2 2.44772 2.44772 2 3 2H5C5.55228 2 6 2.44772 6 3V6H3C2.44772 6 2 5.55228 2 5V3Z" fill="currentColor"/>
<path d="M6 6L10.0001 6V10H6.00007L6 6Z" fill="currentColor"/>
<path d="M9.99993 3C9.99993 2.44772 10.4476 2 10.9999 2H12.9999C13.5522 2 13.9999 2.44772 13.9999 3V5C13.9999 5.55228 13.5522 6 12.9999 6L10.0001 6L9.99993 3Z" fill="currentColor"/>
<path d="M2 11C2 10.4477 2.44772 10 3 10L6.00007 10L6 13C6 13.5523 5.55228 14 5 14H3C2.44772 14 2 13.5523 2 13V11Z" fill="currentColor"/>
<path d="M10.0001 10L12.9999 10C13.5522 10 13.9999 10.4477 13.9999 11V13C13.9999 13.5523 13.5522 14 12.9999 14H10.9999C10.4476 14 9.99993 13.5523 9.99993 13L10.0001 10Z" fill="currentColor"/>
</svg>
