<svg width="16" height="16" viewBox="0 0 16 16" fill="none" xmlns="http://www.w3.org/2000/svg">
<path d="M8 0C3.582 0 0 3.582 0 8C0 12.418 3.582 16 8 16C12.418 16 16 12.418 16 8C16 3.582 12.418 0 8 0ZM10.377 5.376C10.856 5.376 11.244 5.764 11.244 6.243C11.244 6.722 10.856 7.11 10.377 7.11C9.898 7.11 9.51 6.722 9.51 6.243C9.51 5.764 9.898 5.376 10.377 5.376ZM5.522 5.376C6.001 5.376 6.389 5.764 6.389 6.243C6.389 6.722 6 7.11 5.522 7.11C5.044 7.11 4.655 6.722 4.655 6.243C4.655 5.764 5.043 5.376 5.522 5.376ZM11.928 10.031C10.965 11.262 9.491 11.996 7.897 11.996C6.428 11.996 5.058 11.372 4.094 10.302C3.902 10.089 3.92 9.76 4.133 9.568C4.347 9.376 4.675 9.393 4.868 9.607C5.636 10.461 6.727 10.957 7.898 10.957C9.168 10.957 10.341 10.373 11.109 9.391C11.286 9.165 11.613 9.125 11.839 9.302C12.065 9.478 12.105 9.805 11.928 10.031Z" fill="currentColor"/>
</svg>
