<svg width="16" height="16" viewBox="0 0 16 16" fill="none" xmlns="http://www.w3.org/2000/svg">
  <path d="M2 8C2 6.89543 2.89543 6 4 6H12C13.1046 6 14 6.89543 14 8V12C14 13.1046 13.1046 14 12 14H4C2.89543 14 2 13.1046 2 12V8Z" fill="#B5BABF"/>
  <path fill-rule="evenodd" clip-rule="evenodd" d="M10.5 6V5C10.5 3.61929 9.38071 2.5 8 2.5C6.61929 2.5 5.5 3.61929 5.5 5V6C5.5 7.38071 6.61929 8.5 8 8.5C9.38071 8.5 10.5 7.38071 10.5 6ZM8 1C5.79086 1 4 2.79086 4 5V6C4 8.20914 5.79086 10 8 10C10.2091 10 12 8.20914 12 6V5C12 2.79086 10.2091 1 8 1Z" fill="#B5BABF"/>
</svg>
