<svg width="16" height="16" viewBox="0 0 16 16" fill="none" xmlns="http://www.w3.org/2000/svg">
<path d="M7.0406 1.19704C7.34258 0.267652 8.65742 0.267653 8.9594 1.19704L10.0383 4.51771C10.1734 4.93334 10.5607 5.21475 10.9977 5.21475H14.4893C15.4665 5.21475 15.8728 6.46524 15.0822 7.03963L12.2575 9.09192C11.904 9.34879 11.756 9.80412 11.8911 10.2198L12.97 13.5404C13.272 14.4698 12.2083 15.2427 11.4177 14.6683L8.59294 12.616C8.23938 12.3591 7.76062 12.3591 7.40706 12.616L4.58233 14.6683C3.79175 15.2427 2.72802 14.4698 3.03 13.5404L4.10895 10.2198C4.24399 9.80412 4.09605 9.34879 3.74249 9.09192L0.917763 7.03963C0.127177 6.46524 0.533485 5.21475 1.5107 5.21475H5.00226C5.43928 5.21475 5.82661 4.93334 5.96165 4.51771L7.0406 1.19704Z" fill="currentColor"/>
</svg>
