<svg width="333" height="213" viewBox="0 0 333 213" fill="none" xmlns="http://www.w3.org/2000/svg">
  <mask id="mask0_0_1" style="mask-type:alpha" maskUnits="userSpaceOnUse" x="0" y="0" width="333" height="213">
    <rect width="333" height="213" rx="24" fill="white"/>
  </mask>
  <g mask="url(#mask0_0_1)">
    <rect x="111.525" y="231.662" width="252.934" height="164.166" transform="rotate(-54.1373 111.525 231.662)" fill="#DAF0FE"/>
  </g>
  <g clip-path="url(#clip0_0_1)">
    <path d="M263.442 145.124C263.442 141.84 261.972 140.671 258.578 140.671L250.055 140.193C248.527 140.502 247.194 141.137 246.309 142.007C245.027 143.274 243.744 144.514 242.462 145.741C239.514 148.504 232.498 148.15 229.84 145.107C228.687 143.755 227.536 142.392 226.386 141.003C225.466 139.89 223.911 139.039 222.101 138.621L203.062 137.55L203.396 154.378C203.396 154.378 211.506 154.531 221.726 154.189C241.428 153.521 257.753 151.94 257.753 151.94C260.96 151.697 263.458 150.842 263.458 147.747L263.442 145.124Z" fill="#4EA9FE"/>
    <path d="M179.953 150.019C179.953 150.019 182.701 194.952 160.37 170.69L157.357 177.445" stroke="#0F1C2C" stroke-width="2" stroke-linecap="round" stroke-linejoin="round"/>
    <path d="M202.804 151.035C202.804 151.035 205.553 195.969 183.221 171.704L180.209 178.455" stroke="#0F1C2C" stroke-width="2" stroke-linecap="round" stroke-linejoin="round"/>
    <path d="M269.305 70.9621C268.895 66.7317 268.223 63.8038 262.518 63.7793L241.608 64.4228L201.192 66.1038C200.632 66.1219 200.083 66.2589 199.58 66.5057C199.077 66.7525 198.632 67.1034 198.275 67.5354L198.261 67.551C197.137 68.9604 196.008 70.3431 194.878 71.7146C192.276 74.805 185.267 75.2771 182.272 72.5741C180.968 71.3695 179.663 70.1538 178.359 68.9092C177.501 68.0943 176.241 67.502 174.797 67.2037L167.545 67.4954C167.463 67.4954 164.914 67.3573 164.717 69.1519C164.351 72.4583 164.513 84.4169 164.513 84.4169C164.513 84.4637 165.633 120.943 164.271 146.06C164.062 149.917 163.963 151.731 166.336 152.377C187.776 158.36 202.378 155.007 209.388 153.415H209.41C210.514 153.151 211.501 152.531 212.22 151.65C212.938 150.768 213.348 149.674 213.388 148.536L214.601 111.18C214.613 110.805 214.699 110.436 214.855 110.094C215.011 109.753 215.233 109.447 215.509 109.193C215.784 108.939 216.107 108.743 216.459 108.616C216.811 108.489 217.185 108.434 217.558 108.454C219.57 108.564 221.853 108.715 224.326 108.882C225.433 109.321 226.421 110.016 227.21 110.91C228.474 112.438 229.743 113.936 231.012 115.421C233.935 118.761 241.659 119.16 244.894 116.12C246.304 114.771 247.715 113.402 249.126 112.012C250.053 111.102 251.429 110.423 253.012 110.066C254.584 110.049 256.142 110.009 257.684 109.948C257.995 109.935 263.764 109.552 264.104 109.519C269.574 108.987 269.527 104.066 269.871 98.3973C270.164 93.5056 269.969 77.7819 269.305 70.9621Z" fill="url(#paint0_linear_0_1)"/>
    <path d="M203.398 85.8843H172.766V67.2638L202.788 66.1729L203.398 85.8843Z" fill="url(#paint1_linear_0_1)"/>
    <path d="M175.77 130.698C177.095 130.017 178.097 128.836 178.554 127.414C179.012 125.991 178.888 124.445 178.21 123.115C177.708 122.133 176.931 121.32 175.974 120.778C175.017 120.235 173.923 119.986 172.826 120.062L174.255 119.327C180.548 116.057 180.592 113.663 179.299 111.129L178.882 110.374C177.156 107.191 173.591 109.484 171.626 109.595L173.285 109.103C174.463 107.841 175.794 104.993 174.401 102.274C173.008 99.5446 168.966 98.654 166.247 100.048L164.61 100.716C158.716 93.5909 151.218 96.3518 147.751 98.2443L147.349 98.4514C145.003 99.6577 142.917 101.316 141.21 103.332C139.502 105.347 138.207 107.681 137.398 110.199C136.589 112.717 136.282 115.37 136.495 118.007C136.708 120.644 137.436 123.214 138.638 125.568L139.151 126.57L140.324 128.872C142.399 132.909 145.981 135.958 150.287 137.353C154.594 138.747 159.275 138.376 163.31 136.318L163.334 136.305C164.282 136.335 165.223 136.122 166.067 135.688L175.77 130.698Z" fill="white"/>
    <path d="M171.649 120.728L177.257 117.902C178.404 117.257 179.257 116.191 179.637 114.928C180.018 113.665 179.895 112.303 179.296 111.129V111.129C178.016 108.624 175.054 107.812 172.559 109.094" stroke="#0F1C2C" stroke-width="2" stroke-linecap="round" stroke-linejoin="round"/>
    <path d="M164.825 100.792C162.21 95.6241 155.399 94.2414 148.454 97.8127C141.509 101.384 132.039 112.65 138.308 124.936L138.683 125.673C147.294 142.532 157.163 139.801 168.669 133.891" stroke="#0F1C2C" stroke-width="2" stroke-linecap="round" stroke-linejoin="round"/>
    <path d="M163.243 113.405L172.167 109.226C173.381 108.6 174.298 107.517 174.717 106.213C175.136 104.91 175.023 103.493 174.403 102.273V102.273C173.78 101.051 172.698 100.128 171.396 99.7069C170.095 99.2856 168.68 99.4004 167.462 100.026L159.639 103.64" stroke="#0F1C2C" stroke-width="2" stroke-linecap="round" stroke-linejoin="round"/>
    <path d="M167.559 134.459L176.685 129.735C177.902 129.107 178.822 128.019 179.241 126.711C179.66 125.403 179.544 123.981 178.918 122.759V122.759C178.291 121.541 177.207 120.622 175.905 120.205C174.604 119.787 173.19 119.905 171.975 120.532L167.982 122.619" stroke="#0F1C2C" stroke-width="2" stroke-linecap="round" stroke-linejoin="round"/>
    <path d="M153.931 104.368C155.585 103.802 157.325 103.529 159.073 103.562L153.931 104.368Z" fill="white"/>
    <path d="M153.931 104.368C155.585 103.802 157.325 103.529 159.073 103.562" stroke="#0F1C2C" stroke-width="2" stroke-linecap="round" stroke-linejoin="round"/>
    <path d="M172.591 51.733C165.715 63.9299 146.915 47.8789 141.19 62.8122C141.082 63.0948 141.087 63.4081 141.203 63.6872L150.089 84.7457C150.174 84.9453 150.312 85.1171 150.489 85.2415C150.666 85.366 150.874 85.4382 151.09 85.4498C151.305 85.4614 151.52 85.4119 151.709 85.3072C151.898 85.2024 152.054 85.0464 152.159 84.857C159.038 72.6468 177.838 88.6933 183.561 73.7756C183.669 73.4923 183.664 73.1783 183.547 72.8984L174.661 51.8421C174.576 51.6427 174.438 51.4711 174.261 51.3468C174.084 51.2226 173.876 51.1507 173.66 51.1393C173.444 51.1279 173.23 51.1775 173.041 51.2825C172.852 51.3875 172.696 51.5436 172.591 51.733Z" fill="white"/>
    <path d="M172.585 51.7311C165.637 64.0416 146.536 47.552 141.021 63.2601L150.132 84.844C150.478 85.6634 151.7 85.6611 152.162 84.844C159.109 72.5358 178.211 89.0232 183.725 73.3173L174.615 51.7311C174.269 50.9051 173.046 50.9096 172.585 51.7311Z" stroke="#0F1C2C" stroke-width="2" stroke-linecap="round" stroke-linejoin="round"/>
    <path d="M157.509 102.319L141.214 63.7041" stroke="#0F1C2C" stroke-width="2" stroke-linecap="round" stroke-linejoin="round"/>
    <path d="M233.724 91.1783C232.939 91.0847 232.36 91.2874 232.477 92.4518C233.103 98.6015 235.197 103.224 237.424 105.811C239.642 108.483 242.011 109.117 243.094 108.859C247.457 107.853 249.97 102.93 250.055 92.7724C250.055 91.7505 249.913 91.1604 249.138 91.2428C244.014 91.8057 238.843 91.7841 233.724 91.1783Z" fill="#0F1C2C"/>
    <mask id="mask1_0_1" style="mask-type:alpha" maskUnits="userSpaceOnUse" x="232" y="91" width="19" height="18">
      <path d="M233.728 91.1773C232.942 91.0838 232.363 91.2864 232.481 92.4508C233.107 98.6005 235.201 103.223 237.428 105.81C239.646 108.482 242.015 109.116 243.098 108.858C247.461 107.852 249.974 102.929 250.058 92.7715C250.058 91.7495 249.917 91.1595 249.142 91.2418C244.018 91.8048 238.847 91.7831 233.728 91.1773Z" fill="black"/>
    </mask>
    <g mask="url(#mask1_0_1)">
      <path d="M228.27 102.233C230.568 97.8023 234.355 98.3634 238.303 99.1271C243.287 100.091 248.922 105.842 248.25 110.847C247.806 114.41 244.614 117.986 243.099 119.368C239.459 123.096 235.519 122.566 232.653 119.224C229.756 116.011 227.928 109.984 227.773 105.673C227.638 102.088 228.168 102.462 228.27 102.233Z" fill="#FB76FF"/>
    </g>
    <path d="M196.935 88.5242C200.892 75.3476 212.684 75.4011 216.515 88.6132" stroke="#0F1C2C" stroke-width="3" stroke-miterlimit="10" stroke-linecap="round"/>
    <path d="M134.112 58.3516C133.3 59.9947 132.337 63.9624 134.112 67.4068" stroke="#0F1C2C" stroke-width="2" stroke-linecap="round" stroke-linejoin="round"/>
  </g>
  <rect x="290.367" y="35.6592" width="27.1303" height="27.1303" rx="4" transform="rotate(17.4748 290.367 35.6592)" stroke="#4EA9FE" stroke-width="3"/>
  <defs>
    <linearGradient id="paint0_linear_0_1" x1="138.65" y1="167.876" x2="282.94" y2="20.9276" gradientUnits="userSpaceOnUse">
      <stop stop-color="#1C7EFF"/>
      <stop offset="0.35" stop-color="#19B5FF"/>
      <stop offset="0.46" stop-color="#18C7FF"/>
      <stop offset="0.53" stop-color="#23CDFE"/>
      <stop offset="0.84" stop-color="#50E9FC"/>
      <stop offset="1" stop-color="#62F3FB"/>
    </linearGradient>
    <linearGradient id="paint1_linear_0_1" x1="118.434" y1="148.033" x2="262.723" y2="1.08482" gradientUnits="userSpaceOnUse">
      <stop stop-color="#1C7EFF"/>
      <stop offset="0.35" stop-color="#19B5FF"/>
      <stop offset="0.46" stop-color="#18C7FF"/>
      <stop offset="0.53" stop-color="#23CDFE"/>
      <stop offset="0.84" stop-color="#50E9FC"/>
      <stop offset="1" stop-color="#62F3FB"/>
    </linearGradient>
    <clipPath id="clip0_0_1">
      <rect width="138" height="130" fill="white" transform="translate(132 50)"/>
    </clipPath>
  </defs>
</svg>
