<svg width="333" height="265" viewBox="0 0 333 265" fill="none" xmlns="http://www.w3.org/2000/svg">
  <mask id="mask0_69_1905" style="mask-type:alpha" maskUnits="userSpaceOnUse" x="0" y="0" width="333" height="265">
    <rect width="333" height="265" rx="24" fill="white"/>
  </mask>
  <g mask="url(#mask0_69_1905)">
    <rect x="111.525" y="285.662" width="252.934" height="164.166" transform="rotate(-54.1373 111.525 285.662)" fill="#F5E2FE"/>
    <path d="M248.587 113.192C248.587 113.192 238.239 118.221 232.671 126.989" stroke="url(#paint0_linear_69_1905)" stroke-width="6.89157" stroke-miterlimit="10" stroke-linecap="round"/>
    <path d="M234.125 110.449C234.125 110.449 220.993 123.706 223.362 137.378" stroke="url(#paint1_linear_69_1905)" stroke-width="6.89157" stroke-miterlimit="10" stroke-linecap="round"/>
    <path d="M255.734 213.758C257.729 178.684 258.394 178.518 259.35 166.841C261.137 144.567 259.474 117.763 224.359 117.763C194.896 117.763 182.138 135.757 184.216 189.697C184.798 204.241 191.738 224.438 197.057 224.438C201.586 224.438 203.456 204.699 205.701 205.821C207.945 206.943 215.549 233.913 225.481 235.99C231.923 237.32 235.372 210.558 238.405 210.932C241.107 211.223 243.392 226.349 250.041 226.1C253.449 225.975 255.194 223.773 255.734 213.758Z" fill="url(#paint2_linear_69_1905)"/>
    <path d="M208.651 152.505C208.984 158.987 210.646 160.4 212.308 159.985C214.137 159.569 215.342 155.33 215.342 151.258" stroke="#0F1C2C" stroke-width="2.07782" stroke-miterlimit="10" stroke-linecap="round" stroke-linejoin="round"/>
    <path d="M196.517 140.162C196.517 140.162 202.086 143.943 212.558 144.151C223.03 144.359 234.084 140.91 234.084 140.91C234.084 140.91 227.601 129.523 213.805 129.523C203.374 129.523 196.517 140.162 196.517 140.162Z" fill="white"/>
    <mask id="mask1_69_1905" style="mask-type:luminance" maskUnits="userSpaceOnUse" x="196" y="129" width="39" height="16">
      <path d="M196.519 140.161C196.519 140.161 202.088 143.943 212.56 144.15C223.032 144.358 234.086 140.909 234.086 140.909C234.086 140.909 228.808 129.522 213.806 129.522C203.376 129.522 196.519 140.161 196.519 140.161Z" fill="white"/>
    </mask>
    <g mask="url(#mask1_69_1905)">
      <path d="M213.223 134.842C215.01 140.535 211.81 145.937 206.117 146.893C200.382 147.849 196.393 145.605 194.606 139.87C192.819 134.135 196.019 128.774 201.712 127.819C207.405 126.863 211.436 129.107 213.223 134.842Z" fill="#0F1C2C"/>
    </g>
    <path d="M194.854 149.014C192.077 149.014 189.826 148.102 189.826 146.978C189.826 145.853 192.077 144.941 194.854 144.941C197.632 144.941 199.883 145.853 199.883 146.978C199.883 148.102 197.632 149.014 194.854 149.014Z" fill="#FCA1FF"/>
    <path d="M233.377 150.26C230.026 150.26 227.31 149.218 227.31 147.933C227.31 146.647 230.026 145.605 233.377 145.605C236.728 145.605 239.444 146.647 239.444 147.933C239.444 149.218 236.728 150.26 233.377 150.26Z" fill="#FCA1FF"/>
    <path d="M193.276 173.199H227.435C234.416 173.449 238.198 177.854 235.996 183.297C233.71 188.866 227.56 193.396 222.199 193.396C218.126 193.396 214.885 190.778 213.597 187.037H206.698C205.327 190.778 201.961 193.396 197.722 193.396C192.195 193.396 185.879 188.866 183.593 183.297C181.349 177.729 185.671 173.199 193.276 173.199Z" fill="white"/>
    <path d="M193.276 173.199H227.435C234.416 173.449 238.198 177.854 235.996 183.297C233.71 188.866 226.687 193.396 221.326 193.396C217.254 193.396 214.012 190.778 212.724 187.037H205.826C204.454 190.778 201.088 193.396 196.849 193.396C191.322 193.396 185.879 188.866 183.593 183.297C181.349 177.729 185.671 173.199 193.276 173.199Z" stroke="#0F1C2C" stroke-width="2.27712" stroke-miterlimit="10" stroke-linecap="round" stroke-linejoin="round"/>
    <path d="M221.949 188.159C220.827 191.027 227.144 195.058 227.144 195.058C231.923 198.008 246.509 202.579 250.457 191.65C254.031 181.76 249.543 174.03 238.572 170.706C230.427 168.254 227.31 169.127 226.147 170.706C224.942 172.368 225.523 175.485 229.845 175.776C233.959 176.066 236.66 177.064 236.37 179.349C235.954 182.799 232.629 184.336 224.11 181.095C219.955 179.516 218.459 180.555 217.794 181.926C217.129 183.256 217.295 185.874 222.614 187.785C231.466 190.944 237.159 188.949 237.159 188.949" fill="white"/>
    <path d="M221.949 188.159C220.827 191.027 227.144 195.058 227.144 195.058C231.923 198.008 246.509 202.579 250.457 191.65C254.031 181.76 249.543 174.03 238.572 170.706C230.427 168.254 227.31 169.127 226.147 170.706C224.942 172.368 225.523 175.485 229.845 175.776C233.959 176.066 236.66 177.064 236.37 179.349C235.954 182.799 232.629 184.336 224.11 181.095C219.955 179.516 218.459 180.555 217.794 181.926C217.129 183.256 217.295 185.874 222.614 187.785C231.466 190.944 237.159 188.949 237.159 188.949" stroke="#0F1C2C" stroke-width="2.27712" stroke-miterlimit="10" stroke-linecap="round" stroke-linejoin="round"/>
    <path d="M236.785 194.31C236.785 194.31 230.967 194.892 224.526 192.938L236.785 194.31Z" fill="white"/>
    <path d="M236.785 194.31C236.785 194.31 230.967 194.892 224.526 192.938" stroke="#0F1C2C" stroke-width="2.27712" stroke-miterlimit="10" stroke-linecap="round"/>
    <path d="M195.728 188.45C196.143 191.483 188.996 193.852 188.996 193.852C183.635 195.556 174.16 196.512 172.373 185.873C170.503 174.861 178.773 167.173 189.162 168.378C193.567 168.877 195.312 169.999 195.852 171.37C196.642 173.282 195.354 175.069 191.032 174.57C186.17 173.988 184.549 175.235 184.175 177.188C183.801 179.266 184.798 182.009 193.11 181.302C197.805 180.887 199.509 181.51 199.717 183.629C199.966 185.707 198.304 187.536 193.858 188.034C184.507 189.115 180.726 185.582 180.726 185.582" fill="white"/>
    <path d="M195.728 188.45C196.143 191.483 188.996 193.852 188.996 193.852C183.635 195.556 174.16 196.512 172.373 185.873C170.503 174.861 178.773 167.173 189.162 168.378C193.567 168.877 195.312 169.999 195.852 171.37C196.642 173.282 195.354 175.069 191.032 174.57C186.17 173.988 184.549 175.235 184.175 177.188C183.801 179.266 184.798 182.009 193.11 181.302C197.805 180.887 199.509 181.51 199.717 183.629C199.966 185.707 198.304 187.536 193.858 188.034C184.507 189.115 180.726 185.582 180.726 185.582" stroke="#0F1C2C" stroke-width="2.27712" stroke-miterlimit="10" stroke-linecap="round" stroke-linejoin="round"/>
    <path d="M180.684 190.86C180.684 190.86 185.962 193.686 192.07 192.481L180.684 190.86Z" fill="white"/>
    <path d="M180.684 190.86C180.684 190.86 185.962 193.686 192.07 192.481" stroke="#0F1C2C" stroke-width="2.27712" stroke-miterlimit="10" stroke-linecap="round"/>
    <path d="M185.67 175.36C187.457 174.03 190.075 173.199 193.275 173.199H227.434C231.091 173.324 233.876 174.612 235.372 176.565C235.496 176.732 235.621 176.898 235.704 177.064L234.915 179.765L222.614 177.064L185.67 177.77V175.36Z" fill="white"/>
    <path d="M185.213 175.734C187 174.155 189.784 173.199 193.275 173.199H227.434C231.797 173.365 234.914 175.152 236.119 177.77" stroke="#0F1C2C" stroke-width="2.27712" stroke-miterlimit="10" stroke-linecap="round" stroke-linejoin="round"/>
    <circle cx="280.5" cy="96.5" r="15" stroke="#823ADF" stroke-width="3"/>
    <path d="M151.238 111L158.913 141.151" stroke="#823ADF" stroke-width="3" stroke-linecap="round"/>
    <path d="M170.151 122.238L140 129.913" stroke="#823ADF" stroke-width="3" stroke-linecap="round"/>
    <path d="M308.07 179L297.012 208.081" stroke="#823ADF" stroke-width="3" stroke-linecap="round"/>
    <path d="M317.082 199.07L288 188.012" stroke="#823ADF" stroke-width="3" stroke-linecap="round"/>
  </g>
  <defs>
    <linearGradient id="paint0_linear_69_1905" x1="229.427" y1="128.653" x2="251.285" y2="111.248" gradientUnits="userSpaceOnUse">
      <stop offset="0.2" stop-color="#CC6DEF"/>
      <stop offset="1" stop-color="#AC7BF5"/>
    </linearGradient>
    <linearGradient id="paint1_linear_69_1905" x1="216.915" y1="135.197" x2="241.21" y2="112.808" gradientUnits="userSpaceOnUse">
      <stop offset="0.2" stop-color="#CC6DEF"/>
      <stop offset="1" stop-color="#AC7BF5"/>
    </linearGradient>
    <linearGradient id="paint2_linear_69_1905" x1="203.032" y1="96.4805" x2="233.934" y2="218.716" gradientUnits="userSpaceOnUse">
      <stop stop-color="#FA76FF"/>
      <stop offset="0.00606855" stop-color="#F876FF"/>
      <stop offset="0.0950775" stop-color="#DD75FA"/>
      <stop offset="0.1859" stop-color="#CA74F6"/>
      <stop offset="0.2788" stop-color="#BF73F4"/>
      <stop offset="0.3771" stop-color="#BB73F3"/>
      <stop offset="0.5707" stop-color="#A55DEB"/>
      <stop offset="0.8383" stop-color="#8B43E2"/>
      <stop offset="1" stop-color="#823ADF"/>
    </linearGradient>
  </defs>
</svg>
