<svg width="99" height="102" viewBox="0 0 99 102" fill="none" xmlns="http://www.w3.org/2000/svg">
  <path fill-rule="evenodd" clip-rule="evenodd" d="M67.7893 34.8253C66.2416 33.4458 64.0156 33.4773 62.7384 33.8781C63.5752 32.8336 65.5236 31.9772 66.098 31.8733C66.5353 32.0399 67.7891 33.3501 67.7891 34.8252L67.7893 34.8253ZM72.7309 29.1128C71.7132 23.5773 59.0594 27.245 52.687 24.8937C52.5648 26.5074 54.6487 29.0931 56.6421 30.0501C53.2347 33.0564 50.1757 39.1136 49.5585 46.5138C48.9432 39.1136 45.884 33.0564 42.4768 30.0501C44.47 29.0931 46.5556 26.5074 46.4319 24.8937C40.0595 27.245 27.4056 23.5773 26.3859 29.1128C26.1715 30.2842 26.7259 32.0697 27.3249 32.5829C27.4319 32.2116 27.9914 30.9971 29.7553 30.7249C38.6703 29.3554 46.1133 43.3244 39.3948 48.9724C39.2925 49.0581 39.3498 49.2167 39.4886 49.2167H59.6315C59.7686 49.2167 59.8264 49.0581 59.7258 48.9724C53.0052 43.3244 60.4484 29.3554 69.3633 30.7249C71.1288 30.9971 71.6863 32.2116 71.7938 32.5828C72.3927 32.0697 72.9471 30.2844 72.7309 29.1126V29.1128ZM74.8992 16.4077C74.7392 15.8848 79.9663 15.8717 79.9663 19.1979C79.9663 21.4272 76.8397 22.4831 76.8397 24.7965C76.8397 25.8739 77.9798 26.6643 78.3296 26.6643C77.5243 22.9501 80.8543 24.8937 81.7534 25.5884C79.9665 20.5937 83.9893 20.6252 83.5932 18.335C83.3177 16.7344 79.8213 17.218 78.5557 16.4077C76.3102 14.9706 73.6538 9.37869 71.903 14.9706C75.1667 18.0514 73.2676 22.5854 69.1245 22.5854C69.1245 22.5854 69.1012 23.2503 69.1392 23.3031C74.081 23.0571 75.8036 19.3647 74.8993 16.4077H74.8992ZM17.245 25.5884C18.1444 24.8937 21.4739 22.9501 20.6706 26.6643C21.0186 26.6643 22.1587 25.8739 22.1587 24.7965C22.1587 22.4831 19.0319 21.4272 19.0319 19.1979C19.0319 15.8715 24.2592 15.8848 24.099 16.4077C23.1965 19.3645 24.9194 23.0573 29.8609 23.3031C29.8972 23.2503 29.8741 22.5854 29.8741 22.5854C25.7326 22.5854 23.8334 18.0511 27.0956 14.9706C25.3447 9.37869 22.6883 14.9706 20.4428 16.4077C19.1774 17.2181 15.6809 16.7344 15.4053 18.335C15.0108 20.6252 19.0318 20.5938 17.2448 25.5884H17.245ZM31.2766 34.8252C32.8258 33.4456 35.0517 33.4772 36.3274 33.878C35.494 32.8334 33.5422 31.977 32.9695 31.8731C32.5322 32.0398 31.2767 33.3499 31.2767 34.825L31.2766 34.8252ZM51.9098 3.85926L49.4991 0.871094L47.0886 3.85926L49.4993 7.00415L51.9101 3.85926H51.9098ZM65.6708 12.8949L63.9564 10.7712L62.2437 12.8949L63.9564 14.9705L65.6708 12.8947V12.8949ZM79.5754 74.2784L77.4023 71.9402L75.2292 74.2784L77.4023 76.3292L79.5754 74.278V74.2784ZM36.7562 12.8946L35.0417 10.7708L33.329 12.8946L35.0417 14.9703L36.756 12.8946H36.7562ZM31.8457 23.3028H38.2395C43.615 23.3028 46.0341 19.9484 46.765 17.0393H52.2348C52.9658 19.9485 55.3828 23.3029 60.7604 23.3029H67.1542C67.1542 23.3029 68.2726 21.7602 68.553 20.9963C69.563 18.2473 68.2726 16.9652 66.39 16.9652L63.9562 19.2077L61.5225 16.9652C59.6398 16.9652 58.3496 18.2473 59.3595 20.9963C59.4882 21.3479 59.7968 21.8641 60.0886 22.3179C57.8199 22.001 54.9241 20.4221 54.2888 17.0393C54.2888 17.0393 55.9652 14.3318 56.386 13.2362C57.8976 9.29624 55.967 7.68556 53.1439 7.68556L49.499 12.0418L45.8543 7.68556C43.0312 7.68556 41.1006 9.29608 42.6137 13.2362C43.033 14.332 44.711 17.0395 44.711 17.0395C44.0741 20.4223 41.1783 22.0011 38.9096 22.318C39.2033 21.8643 39.5102 21.3479 39.6389 20.9965C40.6469 18.2475 39.3601 16.9654 37.4756 16.9654L35.042 19.2078L32.6084 16.9654C30.7242 16.9654 29.4371 18.2475 30.4454 20.9965C30.7257 21.7604 31.8462 23.3031 31.8462 23.3031L31.8457 23.3028ZM97.9496 43.4528C96.7151 44.0881 89.4751 47.5365 80.2005 46.261C80.2965 45.8112 80.378 45.3583 80.4447 44.9031C86.6174 44.1523 91.635 43.0881 94.8327 41.2797C98.4776 39.2172 100.071 34.2937 98.2316 30.6306C98.184 30.5382 98.0521 30.5218 97.986 30.5991C96.978 31.779 90.6385 38.7899 80.6511 40.9694C80.6255 40.4435 80.5782 39.9189 80.5092 39.3971C85.36 36.6001 90.0957 33.3775 92.3513 30.4308C95.7603 25.9756 95.4466 20.2932 92.2029 17.3956C92.1692 17.3663 92.1247 17.3531 92.0808 17.3594C92.0368 17.3658 91.9977 17.391 91.9734 17.4288C90.9472 19.1496 81.3411 34.9352 70.7942 41.7497C70.6655 41.8334 70.5357 41.9154 70.4049 41.9957C70.1028 42.1822 70.07 42.5814 70.3274 42.819C71.5432 43.9393 72.299 45.4986 72.299 47.2296C72.299 50.239 70.0171 52.7421 67.0008 53.2849C65.4679 53.5868 63.2551 53.4993 61.13 52.7851C61.0343 52.7536 60.9353 52.8179 60.9353 52.9153V62.4476C60.9353 62.6008 61.1649 62.6388 61.2191 62.4917C62.5109 59.0121 66.3785 58.2727 68.0699 58.2727C68.6788 61.9919 69.766 65.0726 71.1784 66.7308C73.4782 69.4252 77.2339 69.3874 78.8625 67.5244C78.8893 67.4936 78.9009 67.452 78.8938 67.4114C78.8867 67.3709 78.8617 67.3358 78.826 67.3163C77.8692 66.7573 72.3944 63.3401 71.2986 57.7399C71.7313 57.5881 72.1534 57.4164 72.5578 57.2133C74.3249 60.1868 76.8972 62.8351 78.9679 63.8465C82.4463 65.5429 85.6306 64.7177 87.0431 62.2346C87.0942 62.1471 87.0316 62.0381 86.9275 62.0283C84.776 61.8533 78.1727 59.9294 75.361 55.2418C75.6829 54.9413 75.9981 54.6278 76.2918 54.2945C79.2336 56.5715 83.3935 58.5845 86.3717 58.9954C89.8563 59.4772 93.8048 58.3469 93.9007 54.2269C93.9022 54.1443 93.8297 54.0767 93.744 54.0819C92.5047 54.1575 84.3025 54.5206 78.4582 51.1099C78.6612 50.7176 78.8505 50.318 79.0258 49.912C79.0258 49.912 87.8567 52.0341 92.041 51.331C96.1991 50.6332 98.6345 47.4817 98.1642 43.5614C98.151 43.4636 98.0389 43.4061 97.9497 43.4523L97.9496 43.4528ZM19.9723 49.9125C20.1481 50.3185 20.3379 50.718 20.5414 51.1104C14.6989 54.5194 6.50005 54.1596 5.25603 54.0823C5.16856 54.0771 5.09599 54.1481 5.09754 54.229C5.19524 58.3474 9.14193 59.4775 12.6265 58.9959C15.6033 58.585 19.7646 56.572 22.7064 54.295C23.0019 54.6283 23.3154 54.9417 23.6369 55.2421C20.8238 59.9294 14.2222 61.8535 12.0705 62.0285C11.9666 62.0383 11.9055 62.1472 11.9552 62.2347C13.3676 64.7179 16.5521 65.5429 20.032 63.8467C22.1012 62.8353 24.6734 60.187 26.4407 57.2138C26.8464 57.4166 27.2688 57.5883 27.6994 57.7401C26.6038 63.3402 21.1292 66.7574 20.172 67.3165C20.1367 67.3363 20.1121 67.3713 20.105 67.4117C20.098 67.4521 20.1093 67.4936 20.1357 67.5246C21.7644 69.3875 25.5215 69.4254 27.8213 66.7309C29.2341 65.0726 30.3196 61.9921 30.9284 58.273C32.6212 58.273 36.4871 59.0124 37.7791 62.492C37.8352 62.639 38.0644 62.6008 38.0644 62.4476V52.9153C38.0644 52.818 37.9639 52.7537 37.8682 52.7851C35.7431 53.4993 33.5304 53.587 31.9992 53.2849C28.9814 52.7422 26.6995 50.2392 26.6995 47.2296C26.6995 45.4984 27.4567 43.9376 28.6711 42.8172C28.9301 42.5812 28.8955 42.1818 28.5951 41.9955C28.4633 41.9152 28.3324 41.8332 28.2025 41.7495C17.6623 34.9385 8.06089 19.1645 7.02638 17.4318C6.9783 17.3509 6.86293 17.3345 6.7919 17.3971C3.55298 20.2962 3.23787 25.977 6.64675 30.4305C8.90233 33.3772 13.6376 36.5998 18.4871 39.3967C18.4187 39.9186 18.3719 40.4431 18.3469 40.969C8.36778 38.791 2.03339 31.7915 1.01531 30.6036C0.9477 30.5227 0.812164 30.5393 0.766106 30.6317C-1.07 34.2964 0.523722 39.2167 4.16538 41.2792C7.36305 43.0876 12.3807 44.1518 18.5533 44.9026C18.62 45.3579 18.7014 45.8108 18.7974 46.2606C9.53272 47.5345 2.29578 44.0943 1.05176 43.4539C0.959331 43.4061 0.847056 43.4655 0.83558 43.5645C0.36725 47.485 2.80071 50.6332 6.95876 51.331C11.1415 52.0341 19.9723 49.912 19.9723 49.912V49.9125ZM77.4021 79.3404L74.1846 76.7664C72.9009 77.5437 71.9571 78.7782 71.5908 80.2251C69.6554 80.5006 64.3785 79.3094 64.8915 78.5192C70.6749 70.2492 66.2512 65.3255 60.935 65.5994V71.1535C60.935 72.9371 59.4038 74.3824 57.5178 74.3824H53.8468C51.2133 74.3824 49.499 77.0737 49.499 77.0737C49.499 77.0737 47.7849 74.3824 45.1514 74.3824H41.4801C39.5928 74.3824 38.0649 72.9371 38.0649 71.1535V65.5995C32.7486 65.3258 28.3214 70.2495 34.1066 78.5193C34.6147 79.3013 29.1911 80.5538 26.6469 80.2369C25.977 79.5306 25.0099 79.0852 23.9275 79.0852C23.4674 79.0853 23.0109 79.1686 22.5794 79.3311C22.5794 79.3311 12.5823 69.7082 12.3991 69.6141L12.4816 69.4194C13.0508 68.337 12.1797 67.1572 11.6287 67.2399C12.2687 66.4594 12.2987 63.0421 8.74772 62.2517C8.85162 62.9382 8.90435 64.3392 8.90435 64.3392C8.90435 64.3392 6.16384 62.8326 4.7877 64.1327C3.57841 65.5882 5.25649 68.2281 5.25649 68.2281C5.25649 68.2281 3.85398 68.2628 3.16265 68.2033C4.17918 71.6981 7.58806 71.4505 8.3256 70.7609C8.27753 71.317 9.51039 72.1089 10.5547 71.4735L11.0134 71.2476C11.0943 71.358 20.8309 80.7105 20.8309 80.7105C20.3837 81.3853 20.1709 82.2137 20.3176 83.0964C20.5487 84.4759 21.6792 85.6193 23.123 85.9162C24.1424 86.1243 25.1011 85.9228 25.87 85.4657L28.4474 87.898C28.6769 88.1093 28.987 88.2411 29.3333 88.2165C29.9637 88.1734 30.4356 87.6536 30.3878 87.0581C30.368 86.7892 30.2327 86.5583 30.0462 86.3833C30.0049 86.337 27.4211 83.8983 27.4211 83.8983C29.5526 82.3784 33.5242 81.3079 36.8209 81.3079C37.4001 81.3079 37.6722 80.8097 37.4726 80.3209C35.9793 76.6695 39.1903 74.0247 42.5117 76.1779C43.9606 77.1168 45.4324 78.9664 46.5412 82.0519C41.0912 83.3936 34.2488 87.0892 32.8644 91.1238C32.3314 92.6815 34.092 94.8048 36.2303 95.2324C36.2682 95.2409 36.3078 95.2337 36.3404 95.2122C36.3729 95.1908 36.3957 95.157 36.4035 95.1184C37.5207 89.0958 43.8912 84.6076 47.2062 83.8453C47.3729 84.299 47.3183 84.1523 47.485 84.6043C43.8748 86.3401 40.3735 90.0015 39.3736 94.3541C38.9148 96.3474 41.1011 98.1443 42.9062 98.6362C42.9969 98.6608 43.0861 98.5965 43.091 98.5074C43.4342 93.0029 45.825 88.3284 47.9666 86.2015C48.0253 86.6173 48.0694 87.035 48.0988 87.4539C48.0988 87.4539 45.906 93.6662 45.906 98.1988C45.906 100.307 48.9881 101.779 49.4436 101.986C50.0127 101.779 53.0933 100.307 53.0933 98.1988C53.0933 93.6661 50.9005 87.4539 50.9005 87.4539C50.9304 87.0349 50.975 86.6172 51.0342 86.2015C53.1743 88.3284 55.5666 93.0012 55.9082 98.5055C55.9132 98.5947 56.0039 98.6608 56.0928 98.636C57.8997 98.1444 60.0844 96.3476 59.6273 94.3544C58.6255 90.0017 55.126 86.3404 51.5157 84.6046C51.6807 84.1524 51.6263 84.2992 51.793 83.8455C55.1096 84.6077 61.4786 89.0956 62.5956 95.1183C62.6037 95.1568 62.6265 95.1905 62.659 95.2119C62.6915 95.2332 62.7311 95.2406 62.769 95.2323C64.9056 94.805 66.6694 92.6813 66.1332 91.1239C64.7522 87.0893 57.908 83.3938 52.4581 82.052C53.5685 78.9666 55.0401 77.1169 56.4889 76.178C59.8087 74.0248 63.0196 76.6699 61.5263 80.3214C61.3266 80.8097 61.5972 81.3079 62.1781 81.3079C65.9069 81.3079 70.5005 82.6775 72.3186 84.5139C73.4804 86.2861 75.627 87.4196 78.0492 87.1768C80.8014 86.9031 83.0455 84.8009 83.3556 82.2023C83.6263 79.9252 82.468 77.8808 80.6217 76.7671L77.4023 79.3412L77.4021 79.3404ZM53.6866 62.7528C54.8334 62.3208 56.6303 62.6705 56.5692 64.3534C56.5545 64.7344 57.0809 64.7345 57.1188 64.345C57.462 61.8256 55.7871 61.0994 54.0349 61.3949C53.8172 60.5285 53.639 59.7712 53.436 59.0205C53.2744 58.4135 53.2149 57.2731 53.9064 57.2731C54.2793 57.2731 54.1292 58.3342 54.0946 58.7911C54.0632 59.192 54.205 59.4346 54.5253 59.4461C54.725 59.4543 54.9742 59.1955 55.1226 59.0236C56.126 57.8703 56.3586 56.0851 55.1837 55.224C54.2005 54.5011 51.7386 55.039 51.0618 56.0686C50.9598 55.6807 50.4713 55.0406 50.2368 54.7615C50.0093 54.4896 49.9499 54.3031 50.265 54.0639C50.4136 53.9483 50.8624 53.4947 50.8624 53.026C50.8624 52.7488 50.6512 52.2372 49.9797 52.2372C49.4499 52.2372 48.861 52.6102 48.861 53.4418C48.861 53.6267 48.9055 53.8249 49.0226 54.0377C48.6876 53.9814 47.7785 54.0046 47.3116 54.1217L53.768 72.1349C55.6161 71.2076 56.9707 69.7391 56.9707 68.1634C56.9707 66.8202 55.0251 67.2657 54.0797 68.3135C53.7761 66.6108 53.5055 65.0383 53.2102 63.4706C53.1296 63.0383 53.3456 62.8833 53.6871 62.7529L53.6866 62.7528ZM44.5573 50.5167L45.9136 54.3478C44.7521 54.6285 42.8843 55.4896 42.8843 56.6297C42.8843 58.148 45.5259 59.1362 47.0539 59.0173C46.9779 59.3638 47.0655 59.6724 47.3031 59.9544C46.7487 59.9544 45.7027 60.2168 45.3593 60.593C44.5492 59.8258 43.2819 59.5469 42.6796 60.0139C42.0742 60.4842 42.0562 61.2812 42.688 62.1821C43.1284 62.8058 43.2936 63.4213 42.7986 64.1438C44.6399 64.1438 43.9616 61.7102 44.6827 61.7102C44.5888 62.1821 44.6465 62.7282 44.8561 63.3338C44.9948 63.7363 44.9948 64.0218 44.7572 64.4095C44.1632 65.3749 43.2393 67.5924 43.3646 69.5972C42.7607 69.5938 42.4538 69.4435 42.6668 68.6055C42.7458 68.2934 42.5562 68.0707 42.3054 68.4553C42.0282 68.8794 41.8945 69.6037 41.8945 69.9136C41.8945 71.6992 43.9865 72.0588 44.7851 71.681C47.0953 73.9537 51.6328 73.3475 53.1524 72.5852L45.1632 50.2984C44.9997 49.8778 44.4142 50.079 44.5576 50.5163L44.5573 50.5167ZM44.28 68.8745C44.115 67.9569 45.3707 66.3169 46.968 64.7346C46.628 65.7657 46.8392 67.5429 47.5058 68.1551C46.3473 68.1551 44.9713 68.3761 44.2802 68.8745H44.28Z" fill="#E7C301"/>
</svg>
