<svg width="93" height="93" viewBox="0 0 93 93" fill="none" xmlns="http://www.w3.org/2000/svg">
  <path d="M23.2553 0C17.0876 0 11.1725 2.4501 6.81131 6.81131C2.4501 11.1725 0 17.0876 0 23.2553L0 69.75C0 75.9177 2.4501 81.8327 6.81131 86.1939C11.1725 90.5551 17.0876 93.0052 23.2553 93.0052H69.75C75.9177 93.0052 81.8327 90.5551 86.1939 86.1939C90.5551 81.8327 93.0052 75.9177 93.0052 69.75V0H23.2553Z" fill="#B1EC52"/>
  <path d="M76.8479 34.8599H65.6801L55.0576 46.4927V23.2559H46.4426V28.8871C46.1614 28.5231 45.8645 28.1631 45.5321 27.811C42.3986 24.4935 37.8828 22.8184 32.1098 22.8184C25.4341 22.8184 21.6383 25.8061 19.6281 28.3116C17.1318 31.4241 16.0203 35.6692 16.7915 39.1299C18.7873 48.0878 27.1 49.5185 33.2055 50.3121C38.0261 50.9388 42.6377 51.8138 42.5155 56.1102C42.3841 60.5694 37.3612 61.6665 34.0621 61.6665C25.4695 61.6665 25.1792 55.3153 25.1792 55.3153H15.9375C16.0689 57.6999 16.7941 61.5285 19.7293 64.8158C22.9456 68.4144 27.7675 70.2394 34.0621 70.2394C38.8919 70.2394 43.2894 68.6627 46.4426 65.8734V69.7007H55.0602V58.73L58.1097 55.3928L66.8153 69.7007H76.8452L64.177 48.7447L76.8479 34.8599ZM25.4183 37.1368C24.6576 33.8101 27.9764 30.867 32.2687 30.867C36.1354 30.867 40.0113 31.7342 41.4854 37.1249H46.4426V45.3523C40.2622 40.2729 26.8648 43.4604 25.4183 37.1368Z" fill="#4D5759"/>
</svg>
