<svg width="24" height="24" viewBox="0 0 24 24" fill="none" xmlns="http://www.w3.org/2000/svg">
  <path fill-rule="evenodd" clip-rule="evenodd"
        d="M15.5013 12C15.2494 12.3354 14.97 12.6489 14.6665 12.9374C14.9381 12.9786 15.2162 13 15.4993 13C18.5369 13 20.9993 10.5376 20.9993 7.5C20.9993 4.46243 18.5369 2 15.4993 2C15.2162 2 14.9381 2.02139 14.6665 2.06264C14.97 2.35106 15.2494 2.66463 15.5013 3C17.9856 3.00106 19.9993 5.01537 19.9993 7.5C19.9993 9.98463 17.9856 11.9989 15.5013 12Z"
        fill="currentColor"/>
  <path fill-rule="evenodd" clip-rule="evenodd"
        d="M19.9991 22L22.4976 22C23.326 22 24.0152 21.3215 23.8526 20.5092C23.1289 16.8952 19.8227 14.1394 15.8073 14.0051C16.2975 14.3566 16.7544 14.748 17.1727 15.1742C20.0905 15.7935 22.3296 17.9968 22.872 20.7056C22.8842 20.7663 22.8725 20.8166 22.819 20.8734C22.7561 20.9401 22.6417 21 22.4976 21H22.4637H22.43H22.3963H22.3626H22.329H22.2955H22.262H22.2286H22.1953H22.162H22.1288H22.0956H22.0625H22.0295H21.9965H21.9635H21.9307H21.8979H21.8651H21.8324H21.7998H21.7672H21.7346H21.7022H21.6698H21.6374H21.6051H21.5728H21.5406H21.5085H21.4764H21.4444H21.4124H21.3804H21.3486H21.3167H21.285H21.2533H21.2216H21.19H21.1584H21.1269H21.0954H21.064H21.0327H21.0013H20.9701H20.9389H20.9077H20.8766H20.8455H20.8145H20.7835H20.7526H20.7217H20.6909H20.6601H20.6293H20.5987H20.568H20.5374H20.5068H20.4763H20.4459H20.4154H20.3851H20.3547H20.3244H20.2942H20.264H20.2338H20.2037H20.1736H20.1436H20.1136H20.0836H20.0537H20.0239H19.994H19.9642H19.9472C19.9815 21.3289 19.9991 21.6625 19.9991 22Z"
        fill="currentColor"/>
  <path
    d="M17.3624 20.6074C17.4493 21.041 17.0853 21.5 16.4977 21.5H16.4665H16.4354H16.4043H16.3732H16.3423H16.3113H16.2805H16.2496H16.2189H16.1881H16.1575H16.1269H16.0963H16.0658H16.0353H16.0049H15.9745H15.9442H15.9139H15.8837H15.8535H15.8234H15.7933H15.7633H15.7333H15.7034H15.6735H15.6437H15.6139H15.5841H15.5544H15.5248H15.4952H15.4656H15.4361H15.4066H15.3772H15.3478H15.3185H15.2892H15.26H15.2308H15.2016H15.1725H15.1434H15.1144H15.0854H15.0565H15.0276H14.9987H14.9699H14.9411H14.9124H14.8837H14.855H14.8264H14.7979H14.7693H14.7408H14.7124H14.684H14.6556H14.6273H14.599H14.5707H14.5425H14.5144H14.4862H14.4581H14.4301H14.402H14.3741H14.3461H14.3182H14.2903H14.2625H14.2347H14.2069H14.1792H14.1515H14.1238H14.0962H14.0686H14.0411H14.0135H13.9861H13.9586H13.9312H13.9038H13.8765H13.8491H13.8218H13.7946H13.7674H13.7402H13.713H13.6859H13.6588H13.6318H13.6047H13.5777H13.5508H13.5238H13.4969H13.47H13.4432H13.4164H13.3896H13.3628H13.3361H13.3094H13.2827H13.2561H13.2294H13.2028H13.1763H13.1497H13.1232H13.0968H13.0703H13.0439H13.0175H12.9911H12.9647H12.9384H12.9121H12.8858H12.8596H12.8334H12.8072H12.781H12.7548H12.7287H12.7026H12.6765H12.6505H12.6244H12.5984H12.5724H12.5465H12.5205H12.4946H12.4687H12.4428H12.4169H12.3911H12.3653H12.3395H12.3137H12.2879H12.2622H12.2365H12.2108H12.1851H12.1594H12.1338H12.1082H12.0826H12.057H12.0314H12.0058H11.9803H11.9548H11.9293H11.9038H11.8783H11.8529H11.8274H11.802H11.7766H11.7512H11.7258H11.7005H11.6751H11.6498H11.6245H11.5992H11.5739H11.5486H11.5234H11.4981H11.4729H11.4476H11.4224H11.3972H11.372H11.3469H11.3217H11.2965H11.2714H11.2463H11.2212H11.196H11.1709H11.1459H11.1208H11.0957H11.0706H11.0456H11.0205H10.9955H10.9705H10.9455H10.9205H10.8954H10.8705H10.8455H10.8205H10.7955H10.7705H10.7456H10.7206H10.6957H10.6707H10.6458H10.6209H10.5959H10.571H10.5461H10.5212H10.4963H10.4714H10.4465H10.4216H10.3967H10.3718H10.3469H10.322H10.2971H10.2722H10.2474H10.2225H10.1976H10.1727H10.1479H10.123H10.0981H10.0732H10.0484H10.0235H9.99862H9.97375H9.94888H9.924H9.89913H9.87425H9.84937H9.82449H9.79961H9.77472H9.74984H9.72495H9.70005H9.67516H9.65026H9.62535H9.60045H9.57554H9.55062H9.5257H9.50078H9.47585H9.45091H9.42597H9.40103H9.37608H9.35112H9.32615H9.30118H9.27621H9.25122H9.22623H9.20123H9.17623H9.15121H9.12619H9.10116H9.07612H9.05108H9.02602H9.00095H8.97588H8.9508H8.9257H8.9006H8.87548H8.85036H8.82522H8.80007H8.77492H8.74975H8.72457H8.69937H8.67417H8.64895H8.62372H8.59848H8.57322H8.54796H8.52267H8.49738H8.47207H8.44675H8.42141H8.39606H8.37069H8.34531H8.31991H8.2945H8.26907H8.24363H8.21817H8.19269H8.1672H8.14169H8.11616H8.09062H8.06506H8.03948H8.01388H7.98827H7.96264H7.93698H7.91131H7.88562H7.85992H7.83419H7.80844H7.78268H7.75689H7.73108H7.70525H7.6794H7.65353H7.62764H7.60173H7.5758H7.54984H7.52387H7.49787H7.47184H7.4458H7.41973H7.39364H7.36752H7.34138H7.31522H7.28904H7.26283H7.23659H7.21033H7.18405H7.15774H7.1314H7.10504H7.07865H7.05224H7.0258H6.99934H6.97284H6.94632H6.91978H6.8932H6.8666H6.83997H6.81331H6.78663H6.75991H6.73317H6.7064H6.6796H6.65277H6.62591H6.59902H6.5721H6.54515H6.51816H6.49115H6.46411H6.43704H6.40993H6.38279H6.35563H6.32842H6.30119H6.27393H6.24663H6.2193H6.19193H6.16453H6.1371H6.10964H6.08214H6.0546H6.02703H5.99943H5.97179H5.94412H5.91641H5.88867H5.86089H5.83307H5.80522H5.77733H5.7494H5.72144H5.69344H5.6654H5.63733H5.60921H5.58106H5.55287H5.52464H5.49638H5.46807H5.43973H5.41134H5.38292H5.35445H5.32595H5.29741H5.26882H5.2402H5.21153H5.18282H5.15407H5.12528H5.09645H5.06757H5.03866H5.0097H4.9807H4.95165H4.92256H4.89343H4.86426H4.83504H4.80577H4.77646H4.74711H4.71772H4.68827H4.65879H4.62925H4.59967H4.57005H4.54038H4.51066H4.4809H4.45109H4.42123H4.39133H4.36138H4.33138H4.30133H4.27124H4.24109H4.2109H4.18066H4.15037H4.12003H4.08964H4.05921H4.02872H3.99818H3.96759H3.93695H3.90626H3.87552H3.84473H3.81389H3.78299H3.75204H3.72105H3.68999H3.65889H3.62773H3.59653H3.56526H3.53395H3.50258H3.47115H3.43967H3.40814H3.37656H3.34491H3.31322H3.28147H3.24966H3.2178H3.18588H3.1539H3.12187H3.08978H3.05764H3.02544H2.99318H2.96086H2.92849H2.89606H2.86357H2.83102H2.79842H2.76575H2.73303H2.70024H2.6674H2.6345H2.60153H2.56851H2.53543H2.50229C1.91471 21.5 1.55074 21.0411 1.63758 20.6074C2.32973 17.151 5.56871 14.5 9.5 14.5C13.4313 14.5 16.6703 17.151 17.3624 20.6074Z"
    stroke="currentColor"/>
  <circle cx="9.5" cy="7.5" r="5" stroke="currentColor"/>
</svg>
