<svg width="24" height="24" viewBox="0 0 24 24" fill="none" xmlns="http://www.w3.org/2000/svg">
  <mask id="path-1-inside-1_27:0" fill="white">
    <path
      d="M11.9691 1.00001L11.972 1L12.0313 1C14.8327 1.00842 17.6377 2.08042 19.7788 4.2215C21.0698 5.5099 21.9719 7.04445 22.4866 8.67098C22.4901 8.68129 22.4938 8.69242 22.4974 8.7043L22.5011 8.71673L22.5088 8.74148L22.5364 8.8295V8.83249C23.1549 10.8984 23.155 13.1095 22.5339 15.176V15.1787L22.5077 15.2619L22.4982 15.2921L22.4948 15.3038C22.4911 15.3158 22.4875 15.327 22.4839 15.3373C21.9688 16.9624 21.0662 18.4913 19.7788 19.7787C17.6378 21.9197 14.8354 22.9918 12.0313 23.0002L12.0284 23.0002H11.9727L11.9691 23.0002C9.1644 22.9918 6.36245 21.9168 4.22202 19.7792C2.93459 18.4918 2.03157 16.9623 1.51652 15.3373C1.51293 15.3269 1.50925 15.3157 1.5056 15.3037L1.50242 15.2931L1.48954 15.2517L1.46654 15.1787V15.1764C1.28651 14.5794 1.15987 13.9732 1.08424 13.3607C0.997277 12.6646 0.977634 11.9653 1.02536 11.2663L1.02592 11.2581C1.02839 11.2259 1.03088 11.1961 1.03316 11.1688L1.03404 11.1582C1.0507 10.9531 1.07263 10.7481 1.09676 10.5497L1.09829 10.5371C1.12618 10.3308 1.1597 10.1246 1.19867 9.91863L1.19889 9.91747C1.27781 9.50313 1.38172 9.09356 1.50737 8.69148L1.50787 8.68988C2.02205 7.05464 2.9293 5.51659 4.22085 4.22223C6.36184 2.08124 9.16496 1.00842 11.9691 1.00001Z"/>
  </mask>
  <path
    d="M11.9691 1.00001L11.972 1L12.0313 1C14.8327 1.00842 17.6377 2.08042 19.7788 4.2215C21.0698 5.5099 21.9719 7.04445 22.4866 8.67098C22.4901 8.68129 22.4938 8.69242 22.4974 8.7043L22.5011 8.71673L22.5088 8.74148L22.5364 8.8295V8.83249C23.1549 10.8984 23.155 13.1095 22.5339 15.176V15.1787L22.5077 15.2619L22.4982 15.2921L22.4948 15.3038C22.4911 15.3158 22.4875 15.327 22.4839 15.3373C21.9688 16.9624 21.0662 18.4913 19.7788 19.7787C17.6378 21.9197 14.8354 22.9918 12.0313 23.0002L12.0284 23.0002H11.9727L11.9691 23.0002C9.1644 22.9918 6.36245 21.9168 4.22202 19.7792C2.93459 18.4918 2.03157 16.9623 1.51652 15.3373C1.51293 15.3269 1.50925 15.3157 1.5056 15.3037L1.50242 15.2931L1.48954 15.2517L1.46654 15.1787V15.1764C1.28651 14.5794 1.15987 13.9732 1.08424 13.3607C0.997277 12.6646 0.977634 11.9653 1.02536 11.2663L1.02592 11.2581C1.02839 11.2259 1.03088 11.1961 1.03316 11.1688L1.03404 11.1582C1.0507 10.9531 1.07263 10.7481 1.09676 10.5497L1.09829 10.5371C1.12618 10.3308 1.1597 10.1246 1.19867 9.91863L1.19889 9.91747C1.27781 9.50313 1.38172 9.09356 1.50737 8.69148L1.50787 8.68988C2.02205 7.05464 2.9293 5.51659 4.22085 4.22223C6.36184 2.08124 9.16496 1.00842 11.9691 1.00001Z"
    stroke="currentColor" stroke-width="2" stroke-miterlimit="10" mask="url(#path-1-inside-1_27:0)"/>
  <path d="M2 8.5H22" stroke="currentColor" stroke-miterlimit="10"/>
  <path d="M2 15.5H22" stroke="currentColor" stroke-miterlimit="10"/>
  <path
    d="M7 12L6.5 12L7 12ZM10.6231 1.66959C10.8055 1.46233 11.1215 1.44225 11.3287 1.62473C11.536 1.80721 11.5561 2.12315 11.3736 2.33041L10.6231 1.66959ZM11.3751 21.6696C11.5576 21.8769 11.5375 22.1928 11.3302 22.3753C11.123 22.5578 10.807 22.5377 10.6245 22.3304L11.3751 21.6696ZM6.5 12C6.49974 8.14915 8.05234 4.58937 10.6231 1.66959L11.3736 2.33041C8.93739 5.09742 7.49976 8.42942 7.5 12L6.5 12ZM10.6245 22.3304C8.11444 19.4789 6.50026 15.813 6.5 12L7.5 12C7.50024 15.5311 8.99829 18.9696 11.3751 21.6696L10.6245 22.3304Z"
    fill="currentColor"/>
  <path
    d="M17 12L16.5 12L17 12ZM13.373 1.66959C13.1906 1.46233 12.8746 1.44225 12.6674 1.62473C12.4601 1.80721 12.44 2.12315 12.6225 2.33041L13.373 1.66959ZM12.6249 21.6696C12.4424 21.8769 12.4625 22.1928 12.6698 22.3753C12.877 22.5578 13.193 22.5377 13.3755 22.3304L12.6249 21.6696ZM17.5 12C17.5001 10.2727 17.0172 8.31881 16.2701 6.4966C15.5223 4.67247 14.4947 2.94351 13.373 1.66959L12.6225 2.33041C13.657 3.50534 14.6306 5.13364 15.3449 6.87594C16.06 8.62016 16.5001 10.4419 16.5 12L17.5 12ZM13.3755 22.3304C15.9459 19.4104 17.4997 15.9223 17.5 12L16.5 12C16.4998 15.6394 15.0629 18.9001 12.6249 21.6696L13.3755 22.3304Z"
    fill="currentColor"/>
</svg>
