<svg width="24" height="24" viewBox="0 0 24 24" fill="none" xmlns="http://www.w3.org/2000/svg">
  <path
    d="M8.51123 14.935C8.43897 14.935 8.38507 14.9119 8.35456 14.8915C8.81023 13.7561 10.2067 12.815 12 12.815C13.7933 12.815 15.1898 13.7561 15.6454 14.8915C15.6149 14.9119 15.561 14.935 15.4888 14.935H8.51123ZM8.8328 8.25C8.8328 9.94479 10.2529 11.315 12 11.315C13.7471 11.315 15.1672 9.94479 15.1672 8.25C15.1672 6.55521 13.7471 5.185 12 5.185C10.2529 5.185 8.8328 6.55521 8.8328 8.25ZM16.51 14.6251C15.9142 13.0609 14.1146 11.935 12 11.935C9.88538 11.935 8.08575 13.0609 7.49004 14.6251C7.36916 14.9425 7.45691 15.2435 7.65911 15.4619C7.85988 15.6787 8.17326 15.815 8.51123 15.815H15.4888C15.8268 15.815 16.1401 15.6787 16.3409 15.4619C16.5431 15.2435 16.6308 14.9425 16.51 14.6251ZM14.2616 8.25C14.2616 9.45471 13.2511 10.435 12 10.435C10.7489 10.435 9.73835 9.45471 9.73835 8.25C9.73835 7.04529 10.7489 6.065 12 6.065C13.2511 6.065 14.2616 7.04529 14.2616 8.25Z"
    fill="currentColor" stroke="currentColor" stroke-width="0.13" />
  <path
    d="M20.1756 4.34984C20.3707 4.42302 20.5 4.60958 20.5 4.818V12.1426C20.5 14.6248 19.2718 16.9463 17.2197 18.3429L12.2813 21.7037C12.1116 21.8193 11.8884 21.8193 11.7187 21.7037L6.78032 18.3429C4.72819 16.9463 3.5 14.6248 3.5 12.1426V4.818C3.5 4.60958 3.62929 4.42302 3.82444 4.34984L11.8244 1.34984C11.9376 1.30739 12.0624 1.30739 12.1756 1.34984L20.1756 4.34984Z"
    stroke="currentColor" />
</svg>
