<svg width="24" height="24" viewBox="0 0 24 24" fill="none" xmlns="http://www.w3.org/2000/svg">
  <path
    d="M12.5 21V6.75M12.5 6.75H8.225C5.16826 6.75 5.16826 2 8.225 2C11.55 2 12.5 6.75 12.5 6.75ZM12.5 6.75H16.775C19.8317 6.75 19.8317 2 16.775 2C13.45 2 12.5 6.75 12.5 6.75ZM20.1 11.5V19C20.1 20.1046 19.2046 21 18.1 21H6.9C5.79543 21 4.9 20.1046 4.9 19V11.5H20.1ZM5 11.5H20C21.1046 11.5 22 10.6046 22 9.5V8.75C22 7.64543 21.1046 6.75 20 6.75L5 6.75C3.89543 6.75 3 7.64543 3 8.75V9.5C3 10.6046 3.89543 11.5 5 11.5Z"
    stroke="currentColor"/>
</svg>
