<svg width="24" height="24" viewBox="0 0 24 24" fill="currentColor" stroke="currentColor" xmlns="http://www.w3.org/2000/svg">
  <path
    d="M12 22.5C11.3434 22.5 10.8182 22.0586 10.4244 21.5034C10.0215 20.9353 9.67901 20.1456 9.39977 19.2147C8.83936 17.3467 8.5 14.7961 8.5 12C8.5 9.20394 8.83936 6.65327 9.39977 4.78526C9.67901 3.85444 10.0215 3.06474 10.4244 2.49658C10.8182 1.94142 11.3434 1.5 12 1.5C12.6566 1.5 13.1818 1.94142 13.5756 2.49658C13.9785 3.06474 14.321 3.85444 14.6002 4.78526C15.1606 6.65327 15.5 9.20394 15.5 12C15.5 14.7961 15.1606 17.3467 14.6002 19.2147C14.321 20.1456 13.9785 20.9353 13.5756 21.5034C13.1818 22.0586 12.6566 22.5 12 22.5Z"
    fill="none"/>
  <path
    d="M2.04177 17.7499C1.70227 17.1619 1.87121 16.458 2.19478 15.828C2.53051 15.1743 3.10589 14.4499 3.84918 13.6999C5.341 12.1948 7.59334 10.5033 10.2511 8.96885C12.9088 7.43442 15.4998 6.32958 17.5492 5.79021C18.5704 5.52147 19.4855 5.3854 20.2194 5.42148C20.9267 5.45624 21.6209 5.66191 21.9604 6.24995C22.2999 6.83798 22.1309 7.54193 21.8074 8.17189C21.4716 8.82555 20.8962 9.55001 20.1529 10.3C18.6611 11.8051 16.4088 13.4966 13.7511 15.031C11.0933 16.5655 8.5023 17.6703 6.45288 18.2097C5.43177 18.4784 4.51667 18.6145 3.78273 18.5784C3.07538 18.5436 2.38127 18.338 2.04177 17.7499Z"
    fill="none"/>
  <path
    d="M21.9621 17.7501C22.3016 17.162 22.1327 16.4581 21.8091 15.8281C21.4734 15.1745 20.898 14.45 20.1547 13.7001C18.6629 12.1949 16.4106 10.5034 13.7528 8.96898C11.0951 7.43454 8.50408 6.3297 6.45466 5.79033C5.43354 5.52159 4.51845 5.38552 3.78451 5.4216C3.07716 5.45637 2.38305 5.66203 2.04355 6.25007C1.70405 6.8381 1.87299 7.54205 2.19655 8.17201C2.53229 8.82567 3.10767 9.55013 3.85096 10.3001C5.34278 11.8052 7.59512 13.4967 10.2528 15.0312C12.9106 16.5656 15.5016 17.6704 17.551 18.2098C18.5721 18.4785 19.4872 18.6146 20.2212 18.5785C20.9285 18.5438 21.6226 18.3381 21.9621 17.7501Z"
    fill="none"/>
</svg>
