<svg width="24" height="24" viewBox="0 0 24 24" fill="none" xmlns="http://www.w3.org/2000/svg">
  <path fill-rule="evenodd" clip-rule="evenodd" d="M6.88505 5.68222C7.16964 6.0139 7.60279 6.25 8.225 6.25H11.8513C11.8423 6.22041 11.8328 6.18998 11.8229 6.15876C11.6884 5.73384 11.4774 5.17258 11.1713 4.61596C10.5474 3.48167 9.60945 2.5 8.225 2.5C7.60279 2.5 7.16964 2.7361 6.88505 3.06778C6.59146 3.40994 6.43245 3.88312 6.43245 4.375C6.43245 4.86688 6.59146 5.34006 6.88505 5.68222ZM12 7.25V11H5C4.17157 11 3.5 10.3284 3.5 9.5V8.75C3.5 7.92157 4.17157 7.25 5 7.25H12ZM6.05746 6.25C5.6338 5.71363 5.43245 5.03587 5.43245 4.375C5.43245 3.67938 5.65552 2.96506 6.12612 2.4166C6.60572 1.85765 7.31885 1.5 8.225 1.5C10.1655 1.5 11.3651 2.89333 12.0475 4.13404C12.2274 4.46119 12.3771 4.78709 12.5 5.09C12.6229 4.78709 12.7726 4.46119 12.9525 4.13404C13.6349 2.89333 14.8344 1.5 16.775 1.5C17.6812 1.5 18.3943 1.85765 18.8739 2.4166C19.3445 2.96506 19.5676 3.67938 19.5676 4.375C19.5676 5.03587 19.3662 5.71363 18.9425 6.25H20C21.3807 6.25 22.5 7.36929 22.5 8.75V9.5C22.5 10.6739 21.6909 11.6588 20.6 11.9275V19C20.6 20.3807 19.4807 21.5 18.1 21.5H6.9C5.51929 21.5 4.4 20.3807 4.4 19V11.9275C3.30907 11.6588 2.5 10.6739 2.5 9.5V8.75C2.5 7.36929 3.61929 6.25 5 6.25H6.05746ZM5.4 12H12V20.5H6.9C6.07157 20.5 5.4 19.8284 5.4 19V12ZM13 20.5H18.1C18.9284 20.5 19.6 19.8284 19.6 19V12H13V20.5ZM13 11H20C20.8284 11 21.5 10.3284 21.5 9.5V8.75C21.5 7.92157 20.8284 7.25 20 7.25L13 7.25V11ZM16.775 6.25C17.3972 6.25 17.8304 6.0139 18.115 5.68222C18.4085 5.34006 18.5676 4.86688 18.5676 4.375C18.5676 3.88312 18.4085 3.40994 18.115 3.06778C17.8304 2.7361 17.3972 2.5 16.775 2.5C15.3905 2.5 14.4526 3.48167 13.8287 4.61596C13.5226 5.17258 13.3116 5.73384 13.1771 6.15876C13.1672 6.18998 13.1577 6.22041 13.1487 6.25H16.775Z" fill="currentColor"/>
</svg>
