<svg width="24" height="24" viewBox="0 0 24 24" fill="currentColor" stroke="currentColor" xmlns="http://www.w3.org/2000/svg">
  <path fill-rule="evenodd" clip-rule="evenodd"
        d="M11.9994 4.86584C13.5411 4.86584 13.9559 2.40344 15.6838 3.11954C17.3881 3.82585 15.9653 5.86951 17.0489 6.95485C18.1375 8.04524 20.166 6.594 20.8808 8.32305C21.586 10.0287 19.132 10.4669 19.132 12.0024C19.132 13.5382 21.5873 13.9769 20.8805 15.683C20.174 17.3883 18.1284 15.9635 17.0432 17.049C15.9551 18.1372 17.4027 20.1615 15.677 20.8769C13.9754 21.5822 13.5353 19.1366 12.0034 19.1366C10.4628 19.1366 10.0513 21.5949 8.32456 20.881C6.62044 20.1765 8.04183 18.1346 6.95799 17.0506C5.86769 15.9601 3.83795 17.4142 3.12008 15.6867C2.41158 13.9817 4.86593 13.5414 4.86593 12.0064C4.86593 10.4652 2.40599 10.0527 3.12035 8.32564C3.82548 6.62086 5.87046 8.04407 6.95469 6.95862C8.04321 5.86888 6.59662 3.83831 8.32375 3.12321C10.0505 2.40828 10.4597 4.86584 11.9994 4.86584Z"
        fill="none" stroke-linecap="round" stroke-linejoin="round"/>
  <path fill-rule="evenodd" clip-rule="evenodd"
        d="M12 15C13.6569 15 15 13.6569 15 12C15 10.3431 13.6569 9 12 9C10.3431 9 9 10.3431 9 12C9 13.6569 10.3431 15 12 15Z"
        fill="none" stroke-linecap="round" stroke-linejoin="round"/>
</svg>
