<svg width="24" height="24" viewBox="0 0 24 24" fill="none" xmlns="http://www.w3.org/2000/svg">
  <path fill-rule="evenodd" clip-rule="evenodd" d="M20 12C20 16.4183 16.4183 20 12 20C7.58172 20 4 16.4183 4 12C4 7.58172 7.58172 4 12 4C16.4183 4 20 7.58172 20 12ZM21 12C21 16.9706 16.9706 21 12 21C7.02944 21 3 16.9706 3 12C3 7.02944 7.02944 3 12 3C16.9706 3 21 7.02944 21 12ZM12 8.40912C11.7239 8.40912 11.5 8.18526 11.5 7.90912V7.09094C11.5 6.81479 11.7239 6.59094 12 6.59094C12.2761 6.59094 12.5 6.81479 12.5 7.09094V7.90912C12.5 8.18526 12.2761 8.40912 12 8.40912ZM12 17.4091C11.7239 17.4091 11.5 17.1853 11.5 16.9091V10.3637C11.5 10.0875 11.7239 9.86366 12 9.86366C12.2761 9.86366 12.5 10.0875 12.5 10.3637V16.9091C12.5 17.1853 12.2761 17.4091 12 17.4091Z" fill="currentColor"/>
</svg>
