<svg width="24" height="24" viewBox="0 0 24 24" fill="none" xmlns="http://www.w3.org/2000/svg">
  <path
    d="M5.93156 9.99278L5.00409 2.57296C5.00131 2.55077 5 2.52906 5 2.50786C5.00002 2.23174 5.2256 2 5.50989 2H18.4901C18.7744 2 19 2.23174 19 2.50786C19 2.52907 18.9987 2.55078 18.9959 2.57296L18.0684 9.99278C17.8042 12.1068 16.9602 13.9893 15.3346 15.2409C14.783 15.6656 14.5153 16.2969 14.5216 16.9168C14.5337 18.115 15.4304 18.8152 16.1121 19.3476C16.1457 19.3739 16.1788 19.3998 16.2113 19.4253C16.9813 20.0301 17.5039 20.495 17.5039 21.2803C17.5039 21.6778 17.1817 22 16.7842 22H7.21582C6.81833 22 6.4961 21.6778 6.4961 21.2803C6.4961 20.495 7.01866 20.0301 7.78871 19.4253C7.82117 19.3998 7.85429 19.3739 7.88794 19.3476C8.56963 18.8152 9.46629 18.115 9.47842 16.9168C9.4847 16.2969 9.21695 15.6656 8.6654 15.2409C7.03982 13.9893 6.19582 12.1068 5.93156 9.99278Z"
    stroke="currentColor"/>
  <path d="M18.5 5.5H20.8C21.1866 5.5 21.5 5.8134 21.5 6.2V10.5C21.5 12.7091 19.7091 14.5 17.5 14.5H16"
        stroke="currentColor"/>
  <path d="M5.5 5.5H3.2C2.8134 5.5 2.5 5.8134 2.5 6.2V10.5C2.5 12.7091 4.29086 14.5 6.5 14.5H8" stroke="currentColor"/>
</svg>
