<svg width="24" height="24" viewBox="0 0 24 24" fill="none" xmlns="http://www.w3.org/2000/svg">
  <path
    d="M21.2987 20.6689C21.3633 20.8792 21.3096 21.0682 21.1701 21.2215C21.0228 21.3833 20.779 21.5 20.4992 21.5H20.4611H20.423H20.385H20.347H20.3091H20.2713H20.2335H20.1958H20.1582H20.1206H20.0831H20.0457H20.0083H19.971H19.9338H19.8966H19.8595H19.8224H19.7854H19.7485H19.7116H19.6748H19.6381H19.6014H19.5648H19.5282H19.4917H19.4553H19.4189H19.3826H19.3463H19.3101H19.274H19.2379H19.2019H19.1659H19.13H19.0942H19.0584H19.0226H18.987H18.9513H18.9158H18.8803H18.8448H18.8094H18.7741H18.7388H18.7035H18.6683H18.6332H18.5981H18.5631H18.5282H18.4932H18.4584H18.4236H18.3888H18.3541H18.3194H18.2848H18.2503H18.2158H18.1813H18.1469H18.1125H18.0782H18.044H18.0098H17.9756H17.9415H17.9074H17.8734H17.8394H17.8055H17.7716H17.7378H17.704H17.6703H17.6366H17.603H17.5693H17.5358H17.5023H17.4688H17.4354H17.402H17.3687H17.3354H17.3021H17.2689H17.2357H17.2026H17.1695H17.1365H17.1035H17.0705H17.0376H17.0047H16.9719H16.9391H16.9063H16.8736H16.8409H16.8082H16.7756H16.7431H16.7105H16.678H16.6456H16.6132H16.5808H16.5484H16.5161H16.4838H16.4516H16.4194H16.3872H16.3551H16.323H16.2909H16.2589H16.2269H16.1949H16.163H16.131H16.0992H16.0673H16.0355H16.0037H15.972H15.9403H15.9086H15.8769H15.8453H15.8137H15.7822H15.7506H15.7191H15.6876H15.6562H15.6248H15.5934H15.562H15.5307H15.4993H15.468H15.4368H15.4055H15.3743H15.3432H15.312H15.2809H15.2497H15.2187H15.1876H15.1566H15.1255H15.0946H15.0636H15.0326H15.0017H14.9708H14.9399H14.9091H14.8782H14.8474H14.8166H14.7858H14.7551H14.7243H14.6936H14.6629H14.6323H14.6016H14.571H14.5403H14.5097H14.4791H14.4486H14.418H14.3875H14.3569H14.3264H14.2959H14.2655H14.235H14.2046H14.1741H14.1437H14.1133H14.0829H14.0526H14.0222H13.9918H13.9615H13.9312H13.9009H13.8706H13.8403H13.81H13.7797H13.7495H13.7192H13.689H13.6588H13.6286H13.5984H13.5682H13.538H13.5078H13.4776H13.4474H13.4173H13.3871H13.357H13.3269H13.2967H13.2666H13.2365H13.2064H13.1763H13.1462H13.1161H13.086H13.0559H13.0258H12.9957H12.9656H12.9356H12.9055H12.8754H12.8453H12.8153H12.7852H12.7551H12.7251H12.695H12.665H12.6349H12.6048H12.5748H12.5447H12.5146H12.4846H12.4545H12.4244H12.3944H12.3643H12.3342H12.3041H12.2741H12.244H12.2139H12.1838H12.1537H12.1236H12.0935H12.0634H12.0333H12.0031H11.973H11.9429H11.9127H11.8826H11.8524H11.8222H11.7921H11.7619H11.7317H11.7015H11.6713H11.6411H11.6108H11.5806H11.5504H11.5201H11.4898H11.4596H11.4293H11.399H11.3687H11.3383H11.308H11.2776H11.2473H11.2169H11.1865H11.1561H11.1257H11.0953H11.0648H11.0344H11.0039H10.9734H10.9429H10.9124H10.8818H10.8513H10.8207H10.7901H10.7595H10.7289H10.6982H10.6676H10.6369H10.6062H10.5755H10.5447H10.514H10.4832H10.4524H10.4216H10.3907H10.3599H10.329H10.2981H10.2672H10.2362H10.2052H10.1742H10.1432H10.1122H10.0811H10.05H10.0189H9.98779H9.95663H9.92544H9.89423H9.86299H9.83173H9.80044H9.76912H9.73778H9.70641H9.67501H9.64358H9.61213H9.58065H9.54914H9.5176H9.48603H9.45443H9.4228H9.39115H9.35946H9.32774H9.29599H9.26421H9.2324H9.20056H9.16868H9.13678H9.10484H9.07286H9.04086H9.00882H8.97675H8.94464H8.9125H8.88033H8.84812H8.81587H8.78359H8.75127H8.71892H8.68653H8.65411H8.62165H8.58915H8.55662H8.52404H8.49143H8.45878H8.42609H8.39337H8.3606H8.3278H8.29495H8.26207H8.22914H8.19618H8.16317H8.13013H8.09704H8.06391H8.03074H7.99752H7.96427H7.93097H7.89763H7.86424H7.83081H7.79734H7.76382H7.73026H7.69666H7.66301H7.62931H7.59557H7.56178H7.52795H7.49407H7.46014H7.42617H7.39215H7.35808H7.32396H7.2898H7.25559H7.22132H7.18701H7.15266H7.11825H7.08379H7.04928H7.01472H6.98011H6.94545H6.91074H6.87597H6.84116H6.80629H6.77137H6.73639H6.70137H6.66629H6.63116H6.59597H6.56073H6.52544H6.49009H6.45468H6.41922H6.38371H6.34814H6.31251H6.27683H6.24109H6.20529H6.16944H6.13353H6.09756H6.06153H6.02545H5.9893H5.9531H5.91684H5.88052H5.84413H5.80769H5.77119H5.73463H5.69801H5.66132H5.62458H5.58777H5.5509H5.51397H5.47697H5.43992H5.4028H5.36561H5.32836H5.29105H5.25368H5.21624H5.17873H5.14116H5.10352H5.06582H5.02806H4.99022H4.95232H4.91435H4.87632H4.83822H4.80005H4.76181H4.72351H4.68513H4.64669H4.60818H4.56959H4.53094H4.49222H4.45343H4.41457H4.37564H4.33663H4.29756H4.25841H4.21919H4.1799H4.14054H4.1011H4.06159H4.02201H3.98235H3.94262H3.90282H3.86294H3.82298H3.78295H3.74285H3.70267H3.66241H3.62208H3.58167H3.54119H3.50062C3.22087 21.5 2.97714 21.3833 2.82989 21.2215C2.69042 21.0683 2.63666 20.8793 2.70126 20.6689C3.57975 17.8076 7.31689 15.5 12 15.5C16.6831 15.5 20.4202 17.8076 21.2987 20.6689Z"
    stroke="currentColor"/>
  <circle cx="12" cy="8" r="5.5" stroke="currentColor"/>
</svg>
