<svg width="24" height="24" viewBox="0 0 24 24" fill="none" xmlns="http://www.w3.org/2000/svg">
  <path fill-rule="evenodd" clip-rule="evenodd" d="M10.0475 3.30435C10.0475 2.2989 10.8756 1.5 11.8769 1.5C12.8783 1.5 13.7063 2.2989 13.7063 3.30435V7.16919L14.2141 4.96615C14.4489 4.00811 15.4132 3.42275 16.3753 3.6259C17.3394 3.82947 17.9766 4.75645 17.7895 5.72726C17.7894 5.72785 17.7893 5.72845 17.7892 5.72904L17.0564 9.65121L17.6297 8.45112C17.6399 8.42975 17.6516 8.40912 17.6648 8.3894C17.8621 8.09326 18.145 7.70549 18.555 7.49627C19.0218 7.25806 19.5513 7.29484 20.1112 7.63241C20.6034 7.92915 20.7976 8.44669 20.8285 8.91463C20.8584 9.36754 20.7451 9.84699 20.5293 10.232C20.2862 10.8564 20.0168 11.4046 19.751 11.9456C19.1121 13.2459 18.4937 14.5045 18.3105 16.6784L18.3089 16.6941C18.0504 18.9207 17.5863 20.4137 16.6772 21.3301C15.7474 22.2674 14.4579 22.5 12.8546 22.5H10.9906C9.76696 22.4994 8.59457 22.0075 7.74721 21.1354C7.73353 21.1213 7.7207 21.1064 7.70877 21.0909L3.07776 15.0407C2.61135 14.6092 2.4045 13.9653 2.54152 13.3422C2.68228 12.7021 3.16195 12.1919 3.78927 12.0008C4.41259 11.8108 5.09305 11.9624 5.57331 12.4016L7.19926 13.7945L5.96324 5.40525C5.75947 4.42819 6.39714 3.4836 7.3724 3.27774C8.35093 3.07119 9.32835 3.68029 9.54338 4.6606C9.54339 4.66064 9.54337 4.66055 9.54338 4.6606L10.0475 6.95658V3.30435ZM11.8769 2.5C11.4098 2.5 11.0475 2.86905 11.0475 3.30435V11.5652C11.0475 11.8205 10.8552 12.0348 10.6014 12.0623C10.3477 12.0898 10.1139 11.9218 10.0591 11.6724L8.56665 4.87506C8.47276 4.44688 8.036 4.1597 7.57893 4.25618C7.12467 4.35206 6.85077 4.78442 6.94396 5.20943C6.94644 5.22076 6.94853 5.23217 6.95022 5.24364L8.38333 14.9706C8.41373 15.1769 8.31288 15.3804 8.1303 15.4812C7.94772 15.582 7.72177 15.5589 7.56339 15.4232L4.91607 13.1554C4.91124 13.1512 4.90649 13.147 4.90183 13.1427C4.68447 12.9416 4.37037 12.8691 4.08078 12.9573C3.79191 13.0454 3.57975 13.277 3.51818 13.557C3.45676 13.8363 3.55254 14.1291 3.7751 14.323C3.80035 14.345 3.82333 14.3695 3.84369 14.3961L8.48434 20.4589C9.13982 21.1225 10.0437 21.4995 10.9906 21.5C10.9907 21.5 10.9906 21.5 10.9906 21.5H12.8546C14.4019 21.5 15.3343 21.2639 15.9672 20.6259C16.62 19.9678 17.0591 18.781 17.3147 16.5864C17.5156 14.2192 18.2515 12.7177 18.9149 11.3642C19.1686 10.8466 19.4117 10.3506 19.6102 9.83615C19.62 9.81079 19.6318 9.78627 19.6456 9.76283C19.7752 9.54216 19.8482 9.24525 19.8307 8.98055C19.8132 8.71609 19.7159 8.56174 19.5949 8.4888C19.2685 8.29204 19.1088 8.33635 19.0096 8.38699C18.8587 8.46399 18.704 8.63708 18.5164 8.915L16.3163 13.5199C16.2081 13.7464 15.9488 13.8575 15.7102 13.7797C15.4715 13.7019 15.3276 13.4592 15.3737 13.2125L16.8068 5.54208L16.8074 5.53878C16.8888 5.11889 16.6152 4.6986 16.1687 4.60432C15.7206 4.50971 15.2901 4.78402 15.1861 5.20133L13.6936 11.6775C13.6365 11.9253 13.4025 12.0908 13.1498 12.062C12.8972 12.0333 12.7063 11.8195 12.7063 11.5652V3.30435C12.7063 2.86905 12.344 2.5 11.8769 2.5Z" fill="currentColor"/>
</svg>
