<svg width="36" height="36" viewBox="0 0 36 36" fill="none" xmlns="http://www.w3.org/2000/svg">
  <path d="M18 31.75C21.6231 31.75 25.3126 31.291 28.1077 29.4322C30.9669 27.5307 32.75 24.2649 32.75 19C32.75 15.5945 32.0178 12.3637 29.7168 9.99243C27.4133 7.61852 23.6785 6.25 18 6.25C12.3215 6.25 8.58665 7.61852 6.28317 9.99243C3.98223 12.3637 3.25 15.5945 3.25 19C3.25 24.2649 5.03309 27.5307 7.89229 29.4322C10.6874 31.291 14.3769 31.75 18 31.75Z" fill="#E23000" stroke="white" stroke-width="1.5"/>
  <path d="M25 19C25 20.1046 25 21 22 21C19 21 19 20.1046 19 19C19 17.8954 18.5 17 22 17C25 17 25 17.8954 25 19Z" fill="#1B324F"/>
  <path d="M17 19C17 20.1046 17 21 14 21C11 21 11 20.1046 11 19C11 17.8954 11 17 14 17C17.5 17 17 17.8954 17 19Z" fill="#1B324F"/>
  <path d="M9 14C8.44772 14 8 14.4477 8 15C8 15.5523 8.44772 16 9 16V14ZM15.1056 18.4472C15.3526 18.9412 15.9532 19.1414 16.4472 18.8944C16.9412 18.6474 17.1414 18.0468 16.8944 17.5528L15.1056 18.4472ZM9 16C9.87086 16 11.2553 16.2251 12.5333 16.6898C13.8657 17.1743 14.7883 17.8126 15.1056 18.4472L16.8944 17.5528C16.2117 16.1874 14.6343 15.3257 13.2167 14.8102C11.7447 14.2749 10.1291 14 9 14V16Z" fill="#1B324F"/>
  <path d="M27 15C25 15 21 16 20 18" stroke="#1B324F" stroke-width="2" stroke-linecap="round" stroke-linejoin="bevel"/>
  <path d="M25.2604 23.2434C25.4172 23.8285 24.6946 24.4746 24.094 24.3959C23.2313 24.2828 22.0229 24.2946 20.4767 24.7089C18.9306 25.1232 17.8782 25.7172 17.1875 26.2465C16.7068 26.6149 15.7579 26.4167 15.6012 25.8316C15.5469 25.629 15.5569 25.4138 15.6584 25.2302C16.0164 24.5823 17.1317 23.017 19.8297 22.2941C22.5276 21.5712 24.2762 22.3691 24.9102 22.7512C25.0898 22.8595 25.2061 23.0408 25.2604 23.2434Z" fill="#1B324F"/>
</svg>
