<svg width="36" height="36" viewBox="0 0 36 36" fill="none" xmlns="http://www.w3.org/2000/svg">
  <mask id="path-1-outside-1_26:89" maskUnits="userSpaceOnUse" x="4.57812" y="-0.206909" width="28" height="33"
        fill="black">
    <rect fill="white" x="4.57812" y="-0.206909" width="28" height="33"/>
    <path
      d="M29.7924 21.5085C30.3443 20.7504 30.609 19.9378 30.5753 19.1009C30.5415 18.1791 30.1585 17.4575 29.8431 17.0148C30.2092 16.0323 30.35 14.4859 29.1278 13.2851C28.2322 12.4058 26.7115 12.0116 24.605 12.1208C23.1237 12.1936 21.8846 12.4907 21.8339 12.5028H21.8283C21.5467 12.5574 21.2482 12.6241 20.944 12.6969C20.9215 12.3088 20.9834 11.3445 21.6481 9.17348C22.4366 6.59004 22.3915 4.61304 21.5016 3.291C20.5667 1.90225 19.0741 1.79309 18.6348 1.79309C18.2123 1.79309 17.8237 1.98109 17.5477 2.32676C16.9226 3.10907 16.9958 4.5524 17.0746 5.21948C16.3312 7.36628 14.2145 11.8316 12.4843 14.0917C11.4872 15.1777 11.2514 15.6563 10.1751 15.6563H8.92116C7.62573 15.6563 6.57812 16.7904 6.57812 18.1791V28.0338C6.57812 29.4286 7.47015 29.6777 8.75994 29.6777H10.1751C11.0846 29.6777 11.6736 29.8532 12.6014 29.9723C12.8042 30.0026 16.4088 30.4938 20.1093 30.415C20.7795 30.4696 21.4103 30.4999 21.9961 30.4999C23.0043 30.4999 23.8829 30.415 24.6151 30.2452C26.3386 29.851 27.7647 29.3558 28.3618 28.1975C28.818 27.3121 28.818 26.4328 28.7448 25.8749C29.8656 24.7833 30.0627 23.5764 30.0233 22.7274C30.0008 22.2362 29.8994 21.8178 29.7924 21.5085Z"/>
  </mask>
  <path
    d="M29.7924 21.5085C30.3443 20.7504 30.609 19.9378 30.5753 19.1009C30.5415 18.1791 30.1585 17.4575 29.8431 17.0148C30.2092 16.0323 30.35 14.4859 29.1278 13.2851C28.2322 12.4058 26.7115 12.0116 24.605 12.1208C23.1237 12.1936 21.8846 12.4907 21.8339 12.5028H21.8283C21.5467 12.5574 21.2482 12.6241 20.944 12.6969C20.9215 12.3088 20.9834 11.3445 21.6481 9.17348C22.4366 6.59004 22.3915 4.61304 21.5016 3.291C20.5667 1.90225 19.0741 1.79309 18.6348 1.79309C18.2123 1.79309 17.8237 1.98109 17.5477 2.32676C16.9226 3.10907 16.9958 4.5524 17.0746 5.21948C16.3312 7.36628 14.2145 11.8316 12.4843 14.0917C11.4872 15.1777 11.2514 15.6563 10.1751 15.6563H8.92116C7.62573 15.6563 6.57812 16.7904 6.57812 18.1791V28.0338C6.57812 29.4286 7.47015 29.6777 8.75994 29.6777H10.1751C11.0846 29.6777 11.6736 29.8532 12.6014 29.9723C12.8042 30.0026 16.4088 30.4938 20.1093 30.415C20.7795 30.4696 21.4103 30.4999 21.9961 30.4999C23.0043 30.4999 23.8829 30.415 24.6151 30.2452C26.3386 29.851 27.7647 29.3558 28.3618 28.1975C28.818 27.3121 28.818 26.4328 28.7448 25.8749C29.8656 24.7833 30.0627 23.5764 30.0233 22.7274C30.0008 22.2362 29.8994 21.8178 29.7924 21.5085Z"
    fill="#38BD60"/>
  <path
    d="M29.7924 21.5085C30.3443 20.7504 30.609 19.9378 30.5753 19.1009C30.5415 18.1791 30.1585 17.4575 29.8431 17.0148C30.2092 16.0323 30.35 14.4859 29.1278 13.2851C28.2322 12.4058 26.7115 12.0116 24.605 12.1208C23.1237 12.1936 21.8846 12.4907 21.8339 12.5028H21.8283C21.5467 12.5574 21.2482 12.6241 20.944 12.6969C20.9215 12.3088 20.9834 11.3445 21.6481 9.17348C22.4366 6.59004 22.3915 4.61304 21.5016 3.291C20.5667 1.90225 19.0741 1.79309 18.6348 1.79309C18.2123 1.79309 17.8237 1.98109 17.5477 2.32676C16.9226 3.10907 16.9958 4.5524 17.0746 5.21948C16.3312 7.36628 14.2145 11.8316 12.4843 14.0917C11.4872 15.1777 11.2514 15.6563 10.1751 15.6563H8.92116C7.62573 15.6563 6.57812 16.7904 6.57812 18.1791V28.0338C6.57812 29.4286 7.47015 29.6777 8.75994 29.6777H10.1751C11.0846 29.6777 11.6736 29.8532 12.6014 29.9723C12.8042 30.0026 16.4088 30.4938 20.1093 30.415C20.7795 30.4696 21.4103 30.4999 21.9961 30.4999C23.0043 30.4999 23.8829 30.415 24.6151 30.2452C26.3386 29.851 27.7647 29.3558 28.3618 28.1975C28.818 27.3121 28.818 26.4328 28.7448 25.8749C29.8656 24.7833 30.0627 23.5764 30.0233 22.7274C30.0008 22.2362 29.8994 21.8178 29.7924 21.5085Z"
    stroke="white" stroke-width="3" mask="url(#path-1-outside-1_26:89)"/>
  <path
    d="M26.5084 18.3376C26.6853 19.4279 26.0883 20.4319 23.8674 20.7922C21.6464 21.1524 20.7627 20.3886 20.5859 19.2983C20.409 18.208 21.5914 17.109 23.2269 16.8438C24.8624 16.5785 26.3316 17.2473 26.5084 18.3376Z"
    fill="#1B324F"/>
  <path
    d="M15.4357 25.0397C15.3182 24.3152 16.1312 23.7256 16.8316 23.9453C17.5848 24.1816 18.4943 24.3515 19.3537 24.2121C20.2131 24.0727 21.0224 23.624 21.6623 23.1618C22.2573 22.7319 23.215 23.0343 23.3325 23.7588C23.4317 24.3706 23.1982 24.9912 22.6741 25.322C21.9667 25.7684 20.8795 26.342 19.7295 26.5285C18.5795 26.7151 17.3667 26.5145 16.5545 26.3146C15.9527 26.1665 15.5349 25.6515 15.4357 25.0397Z"
    fill="#1B324F"/>
  <path
    d="M16.6336 19.939C16.4568 18.8487 15.5731 18.0849 13.3521 18.4452C11.1311 18.8054 10.5342 19.8094 10.711 20.8997C10.8879 21.99 12.3571 22.6588 13.9925 22.3936C15.628 22.1283 16.8105 21.0293 16.6336 19.939Z"
    fill="#1B324F"/>
</svg>
