<svg width="36" height="36" viewBox="0 0 36 36" fill="none" xmlns="http://www.w3.org/2000/svg">
  <path d="M10.1259 7.57509C10.3568 7.42742 10.6498 7.41743 10.8902 7.54902C11.1306 7.68062 11.28 7.93285 11.28 8.2069C11.28 9.73604 11.3464 11.7078 12.6832 12.946C16.1648 10.116 16.2229 6.04087 15.6878 2.10094C15.6541 1.8528 15.7464 1.60421 15.934 1.43828C16.1215 1.27235 16.3795 1.21097 16.6217 1.27467C19.7504 2.09751 21.84 3.7805 22.8862 6.2314C23.8112 8.39805 23.8777 11.0666 23.2833 14.0821C24.1103 13.9117 24.9014 13.5293 25.5378 12.9977C26.4153 12.2647 26.9458 11.2974 26.9458 10.2759C26.9458 9.97038 27.131 9.69543 27.4142 9.58073C27.6973 9.46604 28.0217 9.53453 28.2343 9.75388C36.1468 17.9175 29.8938 32.75 17.7391 32.75C12.1474 32.75 6.59109 29.4894 4.89709 23.7483C3.2501 18.1666 4.67209 11.0635 10.1259 7.57509Z" fill="#FF7842" stroke="white" stroke-width="1.5" stroke-linecap="round" stroke-linejoin="round"/>
  <path d="M16 20.5C16 22.433 15.375 24 13.5 24C11.625 24 11 22.433 11 20.5C11 18.567 12.1193 17 13.5 17C14.8807 17 16 18.567 16 20.5Z" fill="#1B324F"/>
  <path d="M25 20.5C25 22.433 24.375 24 22.5 24C20.625 24 20 22.433 20 20.5C20 18.567 21.1193 17 22.5 17C23.8807 17 25 18.567 25 20.5Z" fill="#1B324F"/>
  <path d="M14 25.8973C14 25.1971 14.9017 24.791 15.4974 25.1589C16.2127 25.6007 17.1063 26 18 26C18.8937 26 19.7873 25.6007 20.5026 25.1589C21.0983 24.791 22 25.1971 22 25.8973C22 26.6111 21.7641 27.3159 21.2091 27.7648C20.5112 28.3294 19.3897 29 18 29C16.6103 29 15.4888 28.3294 14.7909 27.7648C14.2359 27.3159 14 26.6111 14 25.8973Z" fill="#1B324F"/>
</svg>
