<svg width="36" height="36" viewBox="0 0 36 36" fill="none" xmlns="http://www.w3.org/2000/svg">
  <path d="M18 32.75C24.53 32.75 28.1119 31.5531 29.9684 29.151C30.8903 27.9582 31.3267 26.5402 31.5397 25.0072C31.75 23.4941 31.75 21.8034 31.75 20.0353V20C31.75 11.1111 25.6188 5.25 18 5.25C10.3812 5.25 4.25 11.1111 4.25 20L4.25 20.0353C4.24999 21.8034 4.24998 23.4941 4.46026 25.0072C4.67332 26.5402 5.10968 27.9582 6.03158 29.151C7.88811 31.5531 11.47 32.75 18 32.75Z" fill="#9EB0C5" stroke="white" stroke-width="1.5"/>
  <path d="M13 15C12.5 14 10.5 14 10 15" stroke="#1B324F" stroke-width="2" stroke-linecap="round" stroke-linejoin="bevel"/>
  <path d="M23 13C23 13 22.375 12 20.5 12C18.625 12 18 13 18 13" stroke="#1B324F" stroke-width="2" stroke-linecap="round" stroke-linejoin="bevel"/>
  <path d="M20 24C20 25 20 25 16 25C12 25 12 25 12 24C12 23.4477 12 23 16 23C20 23 20 23.4477 20 24Z" fill="#1B324F"/>
  <path d="M22 18C22 20.1429 21.1046 21 20 21C18.8954 21 18 20.1429 18 18C18 15.8571 18.8954 15 20 15C21.1046 15 22 15.8571 22 18Z" fill="#1B324F"/>
  <circle cx="12" cy="19" r="2" fill="#1B324F"/>
</svg>
