<svg width="36" height="36" viewBox="0 0 36 36" fill="none" xmlns="http://www.w3.org/2000/svg">
  <path d="M18.416 2.37596L18 2.09861L17.584 2.37596C14.5069 4.42735 11.4363 7.37009 9.12959 10.7661C6.82534 14.1585 5.25 18.0537 5.25 22C5.25 29.5364 11.7196 33.75 18 33.75C24.2804 33.75 30.75 29.5364 30.75 22C30.75 18.0537 29.1747 14.1585 26.8704 10.7661C24.5637 7.37009 21.4931 4.42735 18.416 2.37596Z" fill="#1C92FF" stroke="white" stroke-width="1.5"/>
  <path d="M24.1006 19.3186C25.1806 18.6951 25.352 16.9701 24.4835 15.4658C23.615 13.9615 22.0354 13.2475 20.9555 13.871C19.8755 14.4945 19.7041 16.2195 20.5726 17.7238C21.4411 19.2281 23.0206 19.9421 24.1006 19.3186Z" fill="#1B324F"/>
  <path d="M11.9318 19.3123C10.8638 18.6956 10.6996 16.9805 11.5651 15.4814C12.4306 13.9822 13.9981 13.2669 15.0661 13.8835C16.1342 14.5001 16.2984 16.2153 15.4328 17.7144C14.5673 19.2135 12.9999 19.9289 11.9318 19.3123Z" fill="#1B324F"/>
  <path d="M22.9993 25.8748C22.9983 26.2922 22.4593 26.5396 22.1115 26.3089C21.2489 25.7368 19.8037 25.0173 17.9913 25.0173C16.1875 25.0173 14.7524 25.73 13.8923 26.3009C13.5439 26.5321 13.0018 26.2825 13.0028 25.8643C13.0033 25.6974 13.0253 25.531 13.0844 25.3749C13.3889 24.5701 14.6249 22 17.9913 22C21.3456 22 22.5995 24.5516 22.9143 25.3661C22.977 25.5282 22.9998 25.701 22.9993 25.8748Z" fill="#1B324F"/>
</svg>
