<svg width="36" height="36" viewBox="0 0 36 36" fill="none" xmlns="http://www.w3.org/2000/svg">
  <path d="M18 32.75C25.6453 32.75 31.75 26.0929 31.75 18C31.75 9.90711 25.6453 3.25 18 3.25C10.3547 3.25 4.25 9.90711 4.25 18C4.25 26.0929 10.3547 32.75 18 32.75Z" fill="#FFDC40" stroke="white" stroke-width="1.5"/>
  <path d="M20.775 13.1919C21.2038 14.7923 22.1551 15.9279 23.9662 15.4426C25.7773 14.9573 26.0334 13.4982 25.6046 11.8978C25.1758 10.2974 23.747 9.28969 22.4133 9.64705C21.0796 10.0044 20.3461 11.5915 20.775 13.1919Z" fill="#1B324F"/>
  <path d="M15.6079 13.1919C15.179 14.7923 14.2277 15.9279 12.4166 15.4426C10.6055 14.9573 10.3494 13.4982 10.7782 11.8978C11.2071 10.2974 12.6358 9.28969 13.9695 9.64705C15.3032 10.0044 16.0367 11.5915 15.6079 13.1919Z" fill="#1B324F"/>
  <path d="M23 22.5C23 28 21.125 28 18 28C14.875 28 13 28 13 22.5C13 19.4624 15.5 17 18 17C20.5 17 23 19.4624 23 22.5Z" fill="#1B324F"/>
</svg>
