<svg width="17" height="17" viewBox="0 0 17 17" fill="none"
     xmlns="http://www.w3.org/2000/svg">
  <path fill="currentColor" fill-rule="evenodd" clip-rule="evenodd"
        d="M9.66861 7.20064C9.53654 7.52394 9.36795 7.82844 9.16797 8.10901C9.78715 8.66309 10.6048 9 11.5011 9C13.434 9 15.0011 7.433 15.0011 5.5C15.0011 3.567 13.434 2 11.5011 2C10.6048 2 9.78715 2.33691 9.16797 2.89099C9.36795 3.17156 9.53654 3.47606 9.6686 3.79936C10.1251 3.30766 10.7772 3 11.5011 3C12.8818 3 14.0011 4.11929 14.0011 5.5C14.0011 6.88071 12.8818 8 11.5011 8C10.7772 8 10.1251 7.69234 9.66861 7.20064Z"
        />
  <path  fill="currentColor" fill-rule="evenodd" clip-rule="evenodd"
        d="M12.0014 15H16.0014H17.0014C17.0014 14.6575 16.9635 14.3231 16.8914 14C16.3818 11.7178 14.1623 10 11.5014 10C10.8702 10 10.2638 10.0967 9.69921 10.2746C10.009 10.5174 10.2944 10.79 10.5509 11.0881C10.8554 11.0305 11.1731 11 11.5014 11C13.6632 11 15.3646 12.3217 15.8569 14H15.8482H15.8249H15.8016H15.7783H15.7551H15.7319H15.7088H15.6857H15.6626H15.6396H15.6167H15.5938H15.5709H15.5481H15.5253H15.5026H15.4799H15.4572H15.4346H15.412H15.3895H15.367H15.3446H15.3222H15.2998H15.2775H15.2552H15.2329H15.2107H15.1885H15.1664H15.1443H15.1223H15.1003H15.0783H15.0563H15.0344H15.0126H14.9907H14.9689H14.9472H14.9255H14.9038H14.8821H14.8605H14.839H14.8174H14.7959H14.7744H14.753H14.7316H14.7102H14.6889H14.6676H14.6463H14.6251H14.6039H14.5827H14.5616H14.5405H14.5194H14.4984H14.4774H14.4564H14.4354H14.4145H14.3936H14.3728H14.3519H14.3312H14.3104H14.2896H14.2689H14.2483H14.2276H14.207H14.1864H14.1658H14.1453H14.1248H14.1043H14.0838H14.0634H14.043H14.0226H14.0023H13.9819H13.9616H13.9414H13.9211H13.9009H13.8807H13.8605H13.8404H13.8202H13.8001H13.7801H13.76H13.74H13.72H13.7H13.68H13.6601H13.6401H13.6202H13.6003H13.5805H13.5607H13.5408H13.521H13.5013H13.4815H13.4618H13.4421H13.4224H13.4027H13.383H13.3634H13.3438H13.3241H13.3046H13.285H13.2654H13.2459H13.2264H13.2069H13.1874H13.1679H13.1485H13.129H13.1096H13.0902H13.0708H13.0515H13.0321H13.0127H12.9934H12.9741H12.9548H12.9355H12.9162H12.897H12.8777H12.8585H12.8392H12.82H12.8008H12.7816H12.7624H12.7433H12.7241H12.705H12.6858H12.6667H12.6476H12.6285H12.6094H12.5903H12.5712H12.5521H12.5331H12.514H12.495H12.4759H12.4569H12.4379H12.4188H12.3998H12.3808H12.3618H12.3428H12.3239H12.3049H12.2859H12.2669H12.248H12.229H12.2101H12.1911H12.1722H12.1532H12.1343H12.1153H12.0964H12.0775H12.0586H12.0396H12.0207H12.0018H11.9829H11.964H11.945H11.9261H11.9185C11.973 14.3252 12.0014 14.6593 12.0014 15Z"
        />
  <path
    d="M0.530878 14.5C0.805908 12.2839 2.88662 10.5 5.5 10.5C8.11338 10.5 10.1941 12.2839 10.4691 14.5H10.4461H10.4215H10.397H10.3726H10.3482H10.3238H10.2995H10.2752H10.251H10.2268H10.2027H10.1787H10.1546H10.1307H10.1068H10.0829H10.0591H10.0353H10.0116H9.9879H9.96427H9.94068H9.91714H9.89365H9.87021H9.84681H9.82345H9.80015H9.77688H9.75366H9.73049H9.70736H9.68428H9.66123H9.63824H9.61528H9.59237H9.56951H9.54668H9.5239H9.50116H9.47847H9.45581H9.4332H9.41063H9.38809H9.36561H9.34316H9.32075H9.29838H9.27605H9.25376H9.23152H9.20931H9.18714H9.165H9.14291H9.12086H9.09884H9.07687H9.05492H9.03302H9.01116H8.98933H8.96754H8.94578H8.92406H8.90238H8.88073H8.85912H8.83755H8.81601H8.7945H8.77303H8.75159H8.73019H8.70882H8.68749H8.66619H8.64492H8.62368H8.60248H8.58131H8.56018H8.53907H8.518H8.49696H8.47595H8.45497H8.43402H8.41311H8.39222H8.37136H8.35054H8.32974H8.30897H8.28824H8.26753H8.24685H8.2262H8.20557H8.18498H8.16441H8.14388H8.12336H8.10288H8.08242H8.06199H8.04159H8.02121H8.00086H7.98053H7.96023H7.93996H7.91971H7.89948H7.87928H7.85911H7.83896H7.81883H7.79872H7.77864H7.75859H7.73855H7.71854H7.69855H7.67859H7.65864H7.63872H7.61882H7.59894H7.57908H7.55924H7.53943H7.51963H7.49985H7.4801H7.46036H7.44064H7.42095H7.40127H7.38161H7.36197H7.34234H7.32274H7.30315H7.28358H7.26403H7.2445H7.22498H7.20548H7.18599H7.16652H7.14707H7.12763H7.10821H7.08881H7.06942H7.05004H7.03068H7.01133H6.992H6.97268H6.95338H6.93408H6.91481H6.89554H6.87629H6.85705H6.83782H6.8186H6.7994H6.78021H6.76103H6.74186H6.7227H6.70355H6.68441H6.66528H6.64616H6.62705H6.60796H6.58887H6.56978H6.55071H6.53165H6.51259H6.49355H6.47451H6.45548H6.43645H6.41743H6.39842H6.37942H6.36042H6.34143H6.32245H6.30347H6.28449H6.26553H6.24656H6.2276H6.20865H6.1897H6.17075H6.15181H6.13287H6.11394H6.09501H6.07608H6.05715H6.03823H6.01931H6.00039H5.98147H5.96255H5.94364H5.92472H5.90581H5.8869H5.86799H5.84908H5.83016H5.81125H5.79234H5.77342H5.75451H5.73559H5.71668H5.69776H5.67883H5.65991H5.64099H5.62206H5.60313H5.58419H5.56525H5.54631H5.52737H5.50842H5.48946H5.4705H5.45154H5.43257H5.4136H5.39462H5.37563H5.35664H5.33765H5.31864H5.29963H5.28062H5.26159H5.24256H5.22352H5.20448H5.18542H5.16636H5.14729H5.12821H5.10912H5.09002H5.07091H5.05179H5.03266H5.01353H4.99438H4.97522H4.95605H4.93687H4.91768H4.89847H4.87926H4.86003H4.84079H4.82154H4.80227H4.783H4.76371H4.7444H4.72508H4.70575H4.68641H4.66705H4.64767H4.62828H4.60887H4.58945H4.57002H4.55057H4.5311H4.51162H4.49212H4.4726H4.45307H4.43351H4.41395H4.39436H4.37476H4.35513H4.33549H4.31583H4.29616H4.27646H4.25674H4.23701H4.21725H4.19748H4.17768H4.15787H4.13803H4.11817H4.0983H4.0784H4.05847H4.03853H4.01857H3.99858H3.97857H3.95853H3.93848H3.9184H3.8983H3.87817H3.85802H3.83785H3.81765H3.79742H3.77718H3.7569H3.7366H3.71628H3.69593H3.67555H3.65515H3.63472H3.61426H3.59378H3.57327H3.55274H3.53217H3.51158H3.49096H3.47031H3.44963H3.42892H3.40819H3.38742H3.36663H3.3458H3.32495H3.30406H3.28315H3.2622H3.24122H3.22022H3.19918H3.1781H3.157H3.13587H3.1147H3.0935H3.07227H3.051H3.0297H3.00837H2.987H2.9656H2.94417H2.9227H2.90119H2.87965H2.85808H2.83647H2.81483H2.79315H2.77143H2.74968H2.72789H2.70606H2.6842H2.6623H2.64036H2.61838H2.59637H2.57432H2.55223H2.5301H2.50793H2.48572H2.46347H2.44119H2.41886H2.3965H2.37409H2.35164H2.32916H2.30663H2.28406H2.26145H2.23879H2.2161H2.19336H2.17058H2.14776H2.1249H2.10199H2.07904H2.05604H2.033H2.00992H1.9868H1.96362H1.94041H1.91715H1.89384H1.87049H1.84709H1.82365H1.80016H1.77662H1.75304H1.72941H1.70574H1.68201H1.65824H1.63442H1.61056H1.58664H1.56268H1.53867H1.51461H1.4905H1.46634H1.44213H1.41787H1.39356H1.3692H1.34479H1.32033H1.29582H1.27125H1.24664H1.22197H1.19725H1.17248H1.14766H1.12279H1.09786H1.07288H1.04784H1.02275H0.99761H0.972413H0.947162H0.921857H0.896497H0.871082H0.845612H0.820086H0.794504H0.768867H0.743173H0.717423H0.691617H0.665753H0.639833H0.613855H0.587819H0.561726H0.535574H0.530878Z"
    stroke="currentColor"/>
  <circle cx="5.5" cy="5.5" r="3" stroke="currentColor"/>
</svg>
