<svg width="17" height="17" viewBox="0 0 17 17" fill="none" xmlns="http://www.w3.org/2000/svg">
  <path
    d="M8.0219 13.1742L8.02187 13.1742L8.01787 13.1784L5.75017 15.5705V13.7727C5.75017 13.2573 5.36391 12.9389 5.06086 12.7797C4.73802 12.61 4.34452 12.5235 4 12.5235L2.8272 12.5235C2.82707 12.5235 2.82695 12.5235 2.82682 12.5235C2.66058 12.523 2.5 12.3778 2.5 12.1718V3.85168C2.5 3.6447 2.66143 3.5 2.82631 3.5H14.1753C14.3379 3.5 14.5 3.64405 14.5 3.85168V3.85173L14.5008 12.1718C14.5008 12.1718 14.5008 12.1718 14.5008 12.1718C14.5008 12.3791 14.3391 12.5235 14.1753 12.5235H9.5C8.89231 12.5235 8.42282 12.761 8.0219 13.1742Z"
    stroke="currentColor"/>
</svg>
