<svg width="17" height="17" viewBox="0 0 17 17" fill="currentColor" stroke="currentColor"
     xmlns="http://www.w3.org/2000/svg">
  <mask id="icon-small-shared-in-universe-1" fill="white" stroke="none">
    <path
      d="M8.47961 0.999884L8.48156 0.999878L8.52196 0.999881C10.4322 1.00562 12.3449 1.73653 13.8048 3.19635C14.6851 4.07479 15.3003 5.12107 15.6512 6.23006C15.6536 6.2371 15.6561 6.24468 15.6586 6.25279L15.6611 6.26126L15.6663 6.27813L15.6852 6.33814V6.34018C16.1069 7.74873 16.107 9.2563 15.6834 10.6653V10.6671L15.6656 10.7238L15.6592 10.7445L15.6568 10.7524C15.6543 10.7606 15.6518 10.7682 15.6494 10.7753C15.2981 11.8832 14.6827 12.9257 13.8048 13.8035C12.345 15.2633 10.4341 15.9942 8.52196 16L8.52001 16H8.48206L8.47961 16C6.56712 15.9942 4.65653 15.2613 3.19702 13.8038C2.31915 12.926 1.70341 11.8832 1.3522 10.7753C1.34975 10.7682 1.34725 10.7605 1.34476 10.7524L1.34259 10.7451L1.33381 10.7169L1.31812 10.6671V10.6656C1.19537 10.2585 1.10901 9.84521 1.05744 9.42756C0.998143 8.95297 0.984749 8.47619 1.01729 7.99956L1.01767 7.99398C1.01936 7.97205 1.02106 7.95174 1.02261 7.93311L1.02321 7.92591C1.03457 7.78601 1.04953 7.64626 1.06598 7.51102L1.06702 7.50245C1.08604 7.36173 1.1089 7.22116 1.13547 7.08073C1.18928 6.79823 1.26029 6.51819 1.34596 6.24404L1.34631 6.24295C1.69691 5.12802 2.31554 4.07935 3.19622 3.19684C4.65611 1.73708 6.5675 1.00562 8.47961 0.999884Z"/>
  </mask>
  <path
    d="M8.47961 0.999884L8.48156 0.999878L8.52196 0.999881C10.4322 1.00562 12.3449 1.73653 13.8048 3.19635C14.6851 4.07479 15.3003 5.12107 15.6512 6.23006C15.6536 6.2371 15.6561 6.24468 15.6586 6.25279L15.6611 6.26126L15.6663 6.27813L15.6852 6.33814V6.34018C16.1069 7.74873 16.107 9.2563 15.6834 10.6653V10.6671L15.6656 10.7238L15.6592 10.7445L15.6568 10.7524C15.6543 10.7606 15.6518 10.7682 15.6494 10.7753C15.2981 11.8832 14.6827 12.9257 13.8048 13.8035C12.345 15.2633 10.4341 15.9942 8.52196 16L8.52001 16H8.48206L8.47961 16C6.56712 15.9942 4.65653 15.2613 3.19702 13.8038C2.31915 12.926 1.70341 11.8832 1.3522 10.7753C1.34975 10.7682 1.34725 10.7605 1.34476 10.7524L1.34259 10.7451L1.33381 10.7169L1.31812 10.6671V10.6656C1.19537 10.2585 1.10901 9.84521 1.05744 9.42756C0.998143 8.95297 0.984749 8.47619 1.01729 7.99956L1.01767 7.99398C1.01936 7.97205 1.02106 7.95174 1.02261 7.93311L1.02321 7.92591C1.03457 7.78601 1.04953 7.64626 1.06598 7.51102L1.06702 7.50245C1.08604 7.36173 1.1089 7.22116 1.13547 7.08073C1.18928 6.79823 1.26029 6.51819 1.34596 6.24404L1.34631 6.24295C1.69691 5.12802 2.31554 4.07935 3.19622 3.19684C4.65611 1.73708 6.5675 1.00562 8.47961 0.999884Z"
    fill="none" stroke-width="2" stroke-miterlimit="10" mask="url(#icon-small-shared-in-universe-1)"/>
  <path d="M2 6.5H15" fill="none" stroke-miterlimit="10"/>
  <path d="M2 10.5L15 10.5" fill="none" stroke-miterlimit="10"/>
  <path
    d="M8.19372 14.9875C8.37619 15.1948 8.35609 15.5107 8.14883 15.6932C7.94156 15.8757 7.62562 15.8556 7.44315 15.6483L8.19372 14.9875ZM7.44213 1.35121C7.62462 1.14397 7.94057 1.12389 8.14782 1.30638C8.35507 1.48887 8.37514 1.80482 8.19265 2.01207L7.44213 1.35121ZM7.44315 15.6483C3.97752 11.7118 3.95521 5.31125 7.44213 1.35121L8.19265 2.01207C5.03971 5.59281 5.05932 11.4273 8.19372 14.9875L7.44315 15.6483Z"
    stroke="none"/>
  <path
    d="M8.80628 14.9875C8.62381 15.1948 8.64391 15.5107 8.85117 15.6932C9.05844 15.8757 9.37438 15.8556 9.55685 15.6483L8.80628 14.9875ZM9.5552 1.35121C9.37271 1.14397 9.05677 1.12389 8.84952 1.30638C8.64227 1.48887 8.6222 1.80482 8.80468 2.01207L9.5552 1.35121ZM9.55685 15.6483C13.1386 11.5799 13.2089 5.50064 9.5552 1.35121L8.80468 2.01207C12.1218 5.77925 12.0594 11.2924 8.80628 14.9875L9.55685 15.6483Z"
    stroke="none"/>
</svg>
