<svg width="17" height="17" viewBox="0 0 17 17" fill="none" xmlns="http://www.w3.org/2000/svg">
  <path
    d="M13.0399 7.10351H12.6088L12.6068 5.05213C12.6038 2.81605 10.6977 0.998126 8.35549 1C6.01129 1.00094 4.10614 2.82074 4.10714 5.05494L4.11114 7.10726H3.95713C3.15206 7.1082 2.498 7.73167 2.5 8.50047V14.6077C2.5 15.3765 3.15506 16 3.96013 16L13.0429 15.9953C13.8479 15.9953 14.502 15.3728 14.5 14.604V8.49297C14.5 7.72511 13.8449 7.10351 13.0399 7.10351ZM5.70327 6.99944L5.70027 4.99775C5.70027 3.62048 6.95337 2.50197 8.4975 2.49916C10.0416 2.49916 11.2967 3.6186 11.2967 4.994L11.2997 6.99475L5.70327 6.99944Z"
    fill="currentColor"/>
</svg>
