<svg width="17" height="17" viewBox="0 0 17 17" fill="none" xmlns="http://www.w3.org/2000/svg">
  <mask id="path-1-inside-1_94:54" fill="white">
    <path d="M17 8.5C16 10 13 14.5 8.5 14.5C4 14.5 1 10 0 8.5C1 7 4 2.5 8.5 2.5C13 2.5 16 7 17 8.5Z"/>
  </mask>
  <path
    d="M17 8.5L17.8321 9.0547L18.2019 8.5L17.8321 7.9453L17 8.5ZM0 8.5L-0.832051 7.9453L-1.20185 8.5L-0.83205 9.0547L0 8.5ZM16.1679 7.9453C15.6697 8.69262 14.7274 10.1013 13.3882 11.324C12.046 12.5495 10.4017 13.5 8.5 13.5V15.5C11.0983 15.5 13.204 14.2005 14.7368 12.801C16.2726 11.3987 17.3303 9.80738 17.8321 9.0547L16.1679 7.9453ZM8.5 13.5C6.59827 13.5 4.95396 12.5495 3.61177 11.324C2.27257 10.1013 1.33026 8.69262 0.83205 7.9453L-0.83205 9.0547C-0.330265 9.80738 0.727432 11.3987 2.26323 12.801C3.79605 14.2005 5.90173 15.5 8.5 15.5V13.5ZM0.832051 9.0547C1.33026 8.30738 2.27257 6.89874 3.61177 5.67599C4.95396 4.45051 6.59827 3.5 8.5 3.5V1.5C5.90173 1.5 3.79604 2.79949 2.26323 4.19901C0.727432 5.60127 -0.330265 7.19262 -0.832051 7.9453L0.832051 9.0547ZM8.5 3.5C10.4017 3.5 12.046 4.45051 13.3882 5.67599C14.7274 6.89874 15.6697 8.30738 16.1679 9.0547L17.8321 7.9453C17.3303 7.19262 16.2726 5.60127 14.7368 4.19901C13.204 2.79949 11.0983 1.5 8.5 1.5V3.5Z"
    fill="currentColor" mask="url(#path-1-inside-1_94:54)"/>
  <circle cx="8.5" cy="8.5" r="3" stroke="currentColor"/>
</svg>
