<svg width="36" height="36" viewBox="0 0 36 36" fill="none" xmlns="http://www.w3.org/2000/svg">
  <path
    d="M17.7656 28.5235C19.7016 28.5235 21.2656 27.4575 21.2656 25.5215H14.2656C14.2656 27.4575 15.8306 28.5235 17.7656 28.5235Z"
    fill="currentColor"/>
  <path
    d="M13.412 22.5135C14.1918 22.5135 14.824 21.8813 14.824 21.1015C14.824 20.3216 14.1918 19.6895 13.412 19.6895C12.6322 19.6895 12 20.3216 12 21.1015C12 21.8813 12.6322 22.5135 13.412 22.5135Z"
    fill="currentColor"/>
  <path
    d="M22.12 22.5115C22.8993 22.5115 23.531 21.8797 23.531 21.1005C23.531 20.3212 22.8993 19.6895 22.12 19.6895C21.3407 19.6895 20.709 20.3212 20.709 21.1005C20.709 21.8797 21.3407 22.5115 22.12 22.5115Z"
    fill="currentColor"/>
  <path
    d="M31.0517 18.232C30.5607 17.941 29.9397 17.899 29.3887 18.08C29.3877 18.07 29.3857 18.061 29.3847 18.051H29.5247C29.5237 17.708 29.5047 17.372 29.4807 17.039C30.1277 15.805 30.5007 14.404 30.5007 12.912C30.5007 7.989 26.5107 4 21.5877 4C20.3087 4 19.1007 4.289 18.0007 4.775C16.9007 4.289 15.6937 4 14.4137 4C9.49166 4 5.50066 7.989 5.50066 12.913C5.50066 14.404 5.87266 15.806 6.52066 17.04C6.49666 17.373 6.47765 17.709 6.47666 18.052H6.61666C6.61566 18.062 6.61466 18.072 6.61266 18.082C6.06466 17.903 5.44666 17.942 4.95566 18.229C4.52266 18.482 3.82866 19.138 4.03866 20.686C4.25266 22.265 5.28066 22.953 6.10666 23.506C6.51066 23.777 6.85966 24.01 7.03866 24.292L7.30966 24.719C8.96966 29.121 12.9627 32 18.0007 32C23.0387 32 27.0317 29.121 28.6907 24.716L28.9627 24.289C29.1417 24.008 29.4897 23.775 29.8937 23.505C30.7197 22.952 31.7477 22.264 31.9617 20.685C32.1717 19.143 31.4817 18.486 31.0517 18.232ZM5.22865 20.523C5.17866 20.155 5.15566 19.502 5.56266 19.263C5.84866 19.096 6.26066 19.17 6.47966 19.335L6.50166 19.352C6.49266 19.56 6.47466 19.765 6.47466 19.977C6.47466 20.831 6.54966 21.656 6.68966 22.447C6.00066 21.985 5.36365 21.524 5.22865 20.523ZM18.0007 30.8C12.0177 30.8 7.67465 26.249 7.67465 19.978C7.67465 18.017 8.09966 16.223 8.86666 14.685C9.72866 15.133 10.4387 15.384 11.6627 15.384C13.6877 15.384 15.3237 13.873 16.4957 12.419C17.9797 13.906 20.1297 15.384 22.3377 15.384C23.9027 15.384 25.6227 14.978 26.9007 14.269C27.8087 15.898 28.3257 17.833 28.3257 19.978C28.3267 26.249 23.9837 30.8 18.0007 30.8ZM30.7727 20.523C30.6377 21.524 30.0007 21.985 29.3107 22.448C29.4517 21.657 29.5257 20.832 29.5257 19.977C29.5257 19.765 29.5067 19.56 29.4987 19.352L29.5237 19.333C29.7437 19.17 30.1587 19.098 30.4407 19.265C30.8467 19.505 30.8237 20.156 30.7727 20.523Z"
    fill="currentColor"/>
</svg>
