<svg width="32" height="32" viewBox="0 0 32 32" fill="none" xmlns="http://www.w3.org/2000/svg">
  <path fill-rule="evenodd" clip-rule="evenodd" d="M3.5 9.5V22.5H21.5V9.5H3.5ZM3.08333 8C2.48502 8 2 8.48502 2 9.08333V22.9167C2 23.515 2.48503 24 3.08333 24H21.9167C22.515 24 23 23.515 23 22.9167V20.2876L27.1924 22.2225C28.1532 22.6659 29.25 21.9642 29.25 20.906V11.094C29.25 10.0358 28.1532 9.33405 27.1924 9.77751L23 11.7125V9.08333C23 8.48502 22.515 8 21.9167 8H3.08333ZM27.75 20.8278L23 18.6355V13.3645L27.75 11.1722V20.8278ZM6.5 11.75C6.08579 11.75 5.75 12.0858 5.75 12.5C5.75 12.9142 6.08579 13.25 6.5 13.25H10.5C10.9142 13.25 11.25 12.9142 11.25 12.5C11.25 12.0858 10.9142 11.75 10.5 11.75H6.5Z" fill="currentColor"/>
</svg>
