<svg width="36" height="36" viewBox="0 0 36 36" fill="none" xmlns="http://www.w3.org/2000/svg">
  <path fill-rule="evenodd" clip-rule="evenodd"
        d="M23.9993 28H28.9976C30.1022 28 31.026 27.0891 30.7379 26.0227C29.8027 22.5608 26.4689 20 22.4995 20C21.7511 20 21.0254 20.091 20.334 20.262C20.8074 20.65 21.2446 21.0806 21.6397 21.548C21.9208 21.5163 22.2077 21.5 22.4995 21.5C25.8231 21.5 28.5301 23.6342 29.2851 26.3967C29.2446 26.4388 29.1434 26.5 28.9976 26.5H28.9657H28.9337H28.9019H28.8701H28.8383H28.8066H28.775H28.7434H28.7118H28.6803H28.6489H28.6175H28.5862H28.5549H28.5237H28.4925H28.4614H28.4303H28.3993H28.3683H28.3374H28.3065H28.2757H28.2449H28.2141H28.1835H28.1528H28.1222H28.0917H28.0612H28.0308H28.0004H27.97H27.9397H27.9095H27.8792H27.8491H27.8189H27.7889H27.7588H27.7289H27.6989H27.669H27.6392H27.6093H27.5796H27.5498H27.5202H27.4905H27.4609H27.4314H27.4019H27.3724H27.3429H27.3136H27.2842H27.2549H27.2256H27.1964H27.1672H27.1381H27.1089H27.0799H27.0508H27.0218H26.9929H26.964H26.9351H26.9062H26.8774H26.8486H26.8199H26.7912H26.7625H26.7339H26.7053H26.6768H26.6482H26.6198H26.5913H26.5629H26.5345H26.5061H26.4778H26.4495H26.4213H26.3931H26.3649H26.3367H26.3086H26.2805H26.2524H26.2244H26.1964H26.1684H26.1405H26.1126H26.0847H26.0569H26.029H26.0013H25.9735H25.9458H25.918H25.8904H25.8627H25.8351H25.8075H25.7799H25.7524H25.7249H25.6974H25.6699H25.6425H25.6151H25.5877H25.5603H25.533H25.5057H25.4784H25.4511H25.4239H25.3966H25.3694H25.3423H25.3151H25.288H25.2609H25.2338H25.2067H25.1797H25.1526H25.1256H25.0987H25.0717H25.0448H25.0178H24.9909H24.964H24.9372H24.9103H24.8835H24.8567H24.8299H24.8031H24.7764H24.7496H24.7229H24.6962H24.6695H24.6428H24.6162H24.5895H24.5629H24.5363H24.5097H24.4831H24.4565H24.43H24.4034H24.3769H24.3504H24.3239H24.2974H24.2709H24.2444H24.218H24.1915H24.1651H24.1387H24.1122H24.0858H24.0595H24.0331H24.0067H23.9803H23.954H23.9276H23.9013H23.8875C23.9611 26.9893 23.9993 27.4902 23.9993 28Z"
        fill="currentColor"/>
  <path fill-rule="evenodd" clip-rule="evenodd"
        d="M20.2383 16.799C20.0163 17.2514 19.7501 17.6783 19.4453 18.0738C20.3193 18.6588 21.3702 19 22.5009 19C25.5385 19 28.0009 16.5376 28.0009 13.5C28.0009 10.4624 25.5385 8 22.5009 8C21.3702 8 20.3193 8.34118 19.4453 8.9262C19.7501 9.32174 20.0163 9.74855 20.2383 10.201C20.8818 9.7588 21.6611 9.5 22.5009 9.5C24.7101 9.5 26.5009 11.2909 26.5009 13.5C26.5009 15.7091 24.7101 17.5 22.5009 17.5C21.6611 17.5 20.8818 17.2412 20.2383 16.799Z"
        fill="currentColor"/>
  <path
    d="M21.0143 26.2183C21.0846 26.4786 21.0151 26.712 20.8392 26.9027C20.6532 27.1043 20.3486 27.25 19.9981 27.25H19.9696H19.9412H19.9128H19.8844H19.8561H19.8278H19.7996H19.7714H19.7432H19.7151H19.687H19.659H19.631H19.6031H19.5752H19.5473H19.5195H19.4917H19.464H19.4363H19.4086H19.381H19.3534H19.3259H19.2984H19.2709H19.2435H19.2161H19.1888H19.1615H19.1342H19.107H19.0798H19.0526H19.0255H18.9984H18.9714H18.9444H18.9174H18.8904H18.8635H18.8367H18.8099H18.7831H18.7563H18.7296H18.7029H18.6762H18.6496H18.623H18.5965H18.57H18.5435H18.5171H18.4907H18.4643H18.4379H18.4116H18.3853H18.3591H18.3329H18.3067H18.2806H18.2544H18.2284H18.2023H18.1763H18.1503H18.1243H18.0984H18.0725H18.0466H18.0208H17.995H17.9692H17.9435H17.9178H17.8921H17.8664H17.8408H17.8152H17.7896H17.7641H17.7386H17.7131H17.6876H17.6622H17.6368H17.6114H17.5861H17.5607H17.5354H17.5102H17.4849H17.4597H17.4345H17.4094H17.3842H17.3591H17.334H17.309H17.2839H17.2589H17.2339H17.209H17.184H17.1591H17.1342H17.1094H17.0845H17.0597H17.0349H17.0101H16.9854H16.9607H16.936H16.9113H16.8866H16.862H16.8374H16.8128H16.7882H16.7636H16.7391H16.7146H16.6901H16.6656H16.6412H16.6168H16.5924H16.568H16.5436H16.5192H16.4949H16.4706H16.4463H16.422H16.3978H16.3735H16.3493H16.3251H16.3009H16.2768H16.2526H16.2285H16.2044H16.1803H16.1562H16.1321H16.1081H16.084H16.06H16.036H16.012H15.9881H15.9641H15.9402H15.9162H15.8923H15.8684H15.8445H15.8207H15.7968H15.773H15.7491H15.7253H15.7015H15.6777H15.654H15.6302H15.6064H15.5827H15.559H15.5353H15.5116H15.4879H15.4642H15.4405H15.4168H15.3932H15.3696H15.3459H15.3223H15.2987H15.2751H15.2515H15.2279H15.2044H15.1808H15.1573H15.1337H15.1102H15.0866H15.0631H15.0396H15.0161H14.9926H14.9691H14.9457H14.9222H14.8987H14.8753H14.8518H14.8284H14.8049H14.7815H14.758H14.7346H14.7112H14.6878H14.6644H14.641H14.6176H14.5942H14.5708H14.5474H14.524H14.5006H14.4773H14.4539H14.4305H14.4072H14.3838H14.3604H14.3371H14.3137H14.2904H14.267H14.2437H14.2203H14.197H14.1736H14.1503H14.1269H14.1036H14.0802H14.0569H14.0336H14.0102H13.9869H13.9635H13.9402H13.9168H13.8935H13.8701H13.8468H13.8234H13.8001H13.7767H13.7534H13.73H13.7066H13.6833H13.6599H13.6365H13.6132H13.5898H13.5664H13.543H13.5196H13.4962H13.4728H13.4494H13.426H13.4026H13.3792H13.3558H13.3324H13.3089H13.2855H13.262H13.2386H13.2151H13.1917H13.1682H13.1447H13.1212H13.0977H13.0742H13.0507H13.0272H13.0037H12.9801H12.9566H12.9331H12.9095H12.8859H12.8624H12.8388H12.8152H12.7916H12.768H12.7443H12.7207H12.697H12.6734H12.6497H12.626H12.6024H12.5787H12.5549H12.5312H12.5075H12.4837H12.46H12.4362H12.4124H12.3886H12.3648H12.341H12.3171H12.2933H12.2694H12.2455H12.2217H12.1977H12.1738H12.1499H12.1259H12.102H12.078H12.054H12.03H12.0059H11.9819H11.9578H11.9338H11.9097H11.8856H11.8614H11.8373H11.8131H11.7889H11.7647H11.7405H11.7163H11.692H11.6678H11.6435H11.6192H11.5949H11.5705H11.5461H11.5218H11.4974H11.4729H11.4485H11.424H11.3996H11.375H11.3505H11.326H11.3014H11.2768H11.2522H11.2276H11.2029H11.1783H11.1536H11.1288H11.1041H11.0793H11.0545H11.0297H11.0049H10.98H10.9552H10.9302H10.9053H10.8804H10.8554H10.8304H10.8054H10.7803H10.7552H10.7301H10.705H10.6798H10.6547H10.6294H10.6042H10.579H10.5537H10.5284H10.503H10.4776H10.4523H10.4268H10.4014H10.3759H10.3504H10.3249H10.2993H10.2737H10.2481H10.2224H10.1968H10.1711H10.1453H10.1196H10.0938H10.0679H10.0421H10.0162H9.99026H9.96432H9.93833H9.91232H9.88628H9.86021H9.8341H9.80796H9.78179H9.75559H9.72935H9.70308H9.67678H9.65045H9.62408H9.59768H9.57124H9.54478H9.51827H9.49174H9.46517H9.43856H9.41192H9.38524H9.35853H9.33179H9.30501H9.27819H9.25134H9.22445H9.19753H9.17057H9.14357H9.11653H9.08946H9.06235H9.03521H9.00802H8.9808H8.95354H8.92625H8.89891H8.87154H8.84413H8.81668H8.78919H8.76166H8.73409H8.70648H8.67883H8.65115H8.62342H8.59565H8.56784H8.54H8.51211H8.48418H8.4562H8.42819H8.40014H8.37204H8.3439H8.31572H8.2875H8.25923H8.23093H8.20258H8.17418H8.14575H8.11727H8.08874H8.06018H8.03156H8.00291H7.97421H7.94547H7.91668H7.88784H7.85896H7.83004H7.80107H7.77206H7.743H7.71389H7.68474H7.65554H7.62629H7.597H7.56766H7.53827H7.50884H7.47936H7.44983H7.42026H7.39063H7.36096H7.33124H7.30147H7.27165H7.24179H7.21187H7.1819H7.15189H7.12183H7.09171H7.06155H7.03133H7.00107C6.65065 27.25 6.34626 27.1044 6.16055 26.9029C5.98484 26.7123 5.91529 26.4788 5.98565 26.2183C6.82747 23.1019 9.85007 20.75 13.5 20.75C17.1499 20.75 20.1725 23.1019 21.0143 26.2183Z"
    stroke="currentColor" stroke-width="1.5"/>
  <circle cx="13.5" cy="13.5" r="4.75" stroke="currentColor" stroke-width="1.5"/>
</svg>
