<svg width="36" height="36" viewBox="0 0 36 36" fill="none" xmlns="http://www.w3.org/2000/svg">
  <mask id="path-1-inside-1_20:34" fill="white">
    <path
      d="M17.9691 7.00001L17.972 7L18.0313 7C20.8327 7.00842 23.6377 8.08041 25.7788 10.2215C27.0698 11.5098 27.9719 13.0444 28.4866 14.6709C28.4901 14.6812 28.4938 14.6923 28.4974 14.7042L28.5011 14.7166L28.5088 14.7414L28.5364 14.8294V14.8324C29.1549 16.8983 29.155 19.1094 28.5339 21.1758V21.1785L28.5077 21.2617L28.4982 21.292L28.4948 21.3037C28.4911 21.3156 28.4875 21.3268 28.4839 21.3372C27.9688 22.9622 27.0662 24.4911 25.7788 25.7785C23.6378 27.9195 20.8354 28.9916 18.0313 29L18.0284 29H17.9727L17.9691 29C15.1644 28.9916 12.3624 27.9166 10.222 25.779C8.93459 24.4916 8.03157 22.9621 7.51652 21.3371C7.51293 21.3267 7.50925 21.3155 7.5056 21.3035L7.50242 21.2929L7.48954 21.2516L7.46654 21.1785V21.1763C7.28651 20.5792 7.15987 19.9731 7.08424 19.3605C6.99728 18.6645 6.97763 17.9652 7.02536 17.2661L7.02592 17.258C7.02839 17.2258 7.03088 17.196 7.03316 17.1687L7.03404 17.1581C7.0507 16.9529 7.07263 16.748 7.09676 16.5496L7.09829 16.537C7.12618 16.3307 7.1597 16.1245 7.19867 15.9185L7.19889 15.9174C7.27781 15.503 7.38172 15.0935 7.50737 14.6914L7.50787 14.6898C8.02205 13.0546 8.9293 11.5165 10.2208 10.2222C12.3618 8.08123 15.165 7.00842 17.9691 7.00001Z"/>
  </mask>
  <path
    d="M17.9691 7.00001L17.972 7L18.0313 7C20.8327 7.00842 23.6377 8.08041 25.7788 10.2215C27.0698 11.5098 27.9719 13.0444 28.4866 14.6709C28.4901 14.6812 28.4938 14.6923 28.4974 14.7042L28.5011 14.7166L28.5088 14.7414L28.5364 14.8294V14.8324C29.1549 16.8983 29.155 19.1094 28.5339 21.1758V21.1785L28.5077 21.2617L28.4982 21.292L28.4948 21.3037C28.4911 21.3156 28.4875 21.3268 28.4839 21.3372C27.9688 22.9622 27.0662 24.4911 25.7788 25.7785C23.6378 27.9195 20.8354 28.9916 18.0313 29L18.0284 29H17.9727L17.9691 29C15.1644 28.9916 12.3624 27.9166 10.222 25.779C8.93459 24.4916 8.03157 22.9621 7.51652 21.3371C7.51293 21.3267 7.50925 21.3155 7.5056 21.3035L7.50242 21.2929L7.48954 21.2516L7.46654 21.1785V21.1763C7.28651 20.5792 7.15987 19.9731 7.08424 19.3605C6.99728 18.6645 6.97763 17.9652 7.02536 17.2661L7.02592 17.258C7.02839 17.2258 7.03088 17.196 7.03316 17.1687L7.03404 17.1581C7.0507 16.9529 7.07263 16.748 7.09676 16.5496L7.09829 16.537C7.12618 16.3307 7.1597 16.1245 7.19867 15.9185L7.19889 15.9174C7.27781 15.503 7.38172 15.0935 7.50737 14.6914L7.50787 14.6898C8.02205 13.0546 8.9293 11.5165 10.2208 10.2222C12.3618 8.08123 15.165 7.00842 17.9691 7.00001Z"
    stroke="currentColor" stroke-width="3" stroke-miterlimit="10" mask="url(#path-1-inside-1_20:34)"/>
  <path d="M8.5 14.5H27.5" stroke="currentColor" stroke-width="1.5" stroke-miterlimit="10"/>
  <path d="M8.5 21.5H27.5" stroke="currentColor" stroke-width="1.5" stroke-miterlimit="10"/>
  <path
    d="M16.9687 8C14.4466 10.8091 13.0004 14.2182 13 18C12.9995 21.7826 14.4721 25.1839 17 28M17 28C17.0401 28.0462 17.0433 28.0453 17 28Z"
    stroke="currentColor" stroke-width="1.5" stroke-miterlimit="10" stroke-linecap="round"/>
  <path
    d="M18.9999 8C21.5865 10.881 23.0004 14.1652 22.9999 17.984C22.9994 21.7652 21.5266 25.185 18.9998 28M18.9998 28C18.9597 28.0462 18.9564 28.0453 18.9998 28Z"
    stroke="currentColor" stroke-width="1.5" stroke-miterlimit="10" stroke-linecap="round" stroke-linejoin="round"/>
</svg>
