<svg width="36" height="36" viewBox="0 0 36 36" fill="none" xmlns="http://www.w3.org/2000/svg">
  <path fill-rule="evenodd" clip-rule="evenodd" d="M22.5303 9.59099L10.0911 22.0303L13.9692 25.9085L26.4085 13.4692L22.5303 9.59099ZM27.4573 12.3966L23.6029 8.54224C24.0106 8.17824 24.4698 7.84119 24.9743 7.67301C25.3063 7.56233 25.6355 7.53497 25.9876 7.62504C26.3466 7.71689 26.8375 7.95884 27.4393 8.5606C28.041 9.16233 28.2829 9.65317 28.3747 10.0122C28.4647 10.3642 28.4373 10.6933 28.3266 11.0254C28.1583 11.5298 27.8213 11.9889 27.4573 12.3966ZM12.7144 26.775L9.22483 23.2854L8.06158 27.9383L12.7144 26.775ZM8.00001 22L6.40425 28.383C6.22115 29.1154 6.88457 29.7788 7.61696 29.5957L13.9991 27.9999L27.9991 13.9999C28.9994 12.9997 31.4995 10.4995 28.4999 7.49994C25.5 4.5 23 6.99996 22.0001 7.99993L8.00001 22Z" fill="currentColor"/>
</svg>
