<svg width="36" height="36" viewBox="0 0 36 36" fill="none" xmlns="http://www.w3.org/2000/svg">
  <path d="M18 28.5254C19.936 28.5254 21.5 27.4594 21.5 25.5234H14.5C14.5 27.4594 16.065 28.5254 18 28.5254Z"
        fill="currentColor"/>
  <path
    d="M13.6464 22.5154C14.4262 22.5154 15.0584 21.8832 15.0584 21.1034C15.0584 20.3236 14.4262 19.6914 13.6464 19.6914C12.8665 19.6914 12.2344 20.3236 12.2344 21.1034C12.2344 21.8832 12.8665 22.5154 13.6464 22.5154Z"
    fill="currentColor"/>
  <path
    d="M22.3544 22.5134C23.1336 22.5134 23.7654 21.8817 23.7654 21.1024C23.7654 20.3231 23.1336 19.6914 22.3544 19.6914C21.5751 19.6914 20.9434 20.3231 20.9434 21.1024C20.9434 21.8817 21.5751 22.5134 22.3544 22.5134Z"
    fill="currentColor"/>
  <path
    d="M30.748 5.744C30.904 4.767 30.914 4 30.914 4C30.914 4 29.618 4.567 28.385 5.41C28.321 4.854 28.235 4.463 28.235 4.463C28.235 4.463 24.975 6.219 26.15 8.402C24.537 7.222 22.659 6.631 21.079 6.631C19.986 6.631 18.948 6.852 18 7.25C17.053 6.853 16.013 6.631 14.921 6.631C13.341 6.631 11.463 7.221 9.85 8.402C11.025 6.219 7.766 4.463 7.766 4.463C7.766 4.463 7.68 4.855 7.615 5.411C6.383 4.568 5.086 4.001 5.086 4.001C5.086 4.001 5.095 4.768 5.252 5.745C4.533 5.605 4 5.613 4 5.613C4 5.613 5.03 11.311 8.178 9.981C6.349 12.211 5.428 15.561 6.863 20.046C6.376 20.009 5.887 20.135 5.518 20.427C5.201 20.675 4.693 21.27 4.852 22.456C5.042 23.857 6.172 24.525 6.997 25.013C7.408 25.255 7.796 25.485 7.944 25.716L8.193 26.108C10.065 29.61 13.757 32.004 18 32.004C22.243 32.004 25.936 29.61 27.807 26.108L28.057 25.716C28.204 25.485 28.592 25.255 29.003 25.013C29.828 24.526 30.958 23.858 31.149 22.456C31.309 21.269 30.8 20.675 30.483 20.427C30.112 20.135 29.624 20.009 29.137 20.046C30.574 15.561 29.651 12.211 27.823 9.981C30.971 11.311 32 5.613 32 5.613C32 5.613 31.467 5.605 30.748 5.744ZM5.973 22.305C5.928 21.975 5.934 21.537 6.217 21.315C6.405 21.168 6.677 21.143 6.903 21.19C6.927 22.121 7.067 23.022 7.308 23.882C6.65 23.484 6.075 23.063 5.973 22.305ZM26.825 25.545L26.799 25.585L26.805 25.589C25.121 28.731 21.807 30.874 18 30.874C14.193 30.874 10.879 28.73 9.196 25.589L9.201 25.585L9.175 25.545C8.439 24.152 8.017 22.57 8.017 20.891C8.017 19.172 8.454 17.554 9.222 16.141C9.438 17.573 9.702 18.626 9.702 18.626C9.702 18.626 12.562 15.194 12.765 12.406C12.793 12.389 12.821 12.372 12.848 12.356C14.448 16.55 17.342 17.707 17.342 17.707C17.342 17.707 17.082 15.909 16.555 14.496C17.384 15.968 19.055 16.937 19.984 17.418C19.984 17.418 19.029 13.995 17.492 12.36C17.492 12.36 21.392 16.342 24.197 18.61C23.669 15.777 22.126 14.249 20.994 12.21C22.301 13.84 25.15 16.811 26.49 17.359C26.49 17.359 26.177 15.783 25.57 14.43C25.941 14.897 26.288 15.381 26.615 15.873C27.478 17.35 27.982 19.061 27.982 20.894C27.982 22.57 27.561 24.154 26.825 25.545ZM29.783 21.315C30.066 21.538 30.072 21.975 30.027 22.305C29.924 23.063 29.349 23.485 28.693 23.882C28.933 23.022 29.073 22.12 29.097 21.19C29.322 21.143 29.596 21.167 29.783 21.315Z"
    fill="currentColor"/>
</svg>
