<svg width="36" height="36" viewBox="0 0 36 36" fill="none" xmlns="http://www.w3.org/2000/svg">
  <path fill-rule="evenodd" clip-rule="evenodd"
        d="M27.2185 24.9546C27.6214 20.1744 29.4553 18.0304 30.6151 15.0242C31.1543 14.1066 31.1995 12.6454 30.2797 12.0909C28.9503 11.2894 28.2122 12.1135 27.6214 13L24.2979 19.9565L26.4476 8.45087C26.6498 7.40736 25.9665 6.39614 24.9081 6.17266C23.8497 5.94918 22.8029 6.59507 22.5497 7.62783L20.3096 17.3478V4.95652C20.3096 3.87596 19.4168 3 18.3155 3C17.2142 3 16.3214 3.87596 16.3214 4.95652V17.3478L14.0827 7.15174C13.851 6.09531 12.7904 5.42316 11.7136 5.65044C10.6369 5.87771 9.95183 6.91836 10.1835 7.97478L12.3331 22.5652L8.36217 19.1635C7.83865 18.6792 7.08982 18.5091 6.40267 18.7186C5.71553 18.928 5.19665 19.4843 5.0449 20.1744C4.89316 20.8645 5.13208 21.5813 5.6701 22.05L12.6588 31.1804C13.7872 32.3417 15.3508 32.9992 16.9861 33H19.782C24.508 33 26.4476 31.5938 27.2185 24.9546Z"
        fill="currentColor"/>
</svg>
