<svg width="32" height="32" viewBox="0 0 32 32" fill="none" xmlns="http://www.w3.org/2000/svg">
  <path
    d="M5.68348 26.2995L5.68348 26.2994L4.82326 17.0834L16 17.0835L27.1657 17.0837L26.1789 26.3337L26.1789 26.3337C26.1323 26.7708 25.9859 27.1116 25.8184 27.3251C25.6505 27.5391 25.5025 27.5834 25.4183 27.5834H6.44758C6.36223 27.5834 6.21099 27.5377 6.04063 27.3163C5.87096 27.0957 5.72506 26.7452 5.68348 26.2995Z"
    stroke="currentColor" stroke-width="1.5" stroke-linejoin="round"/>
  <mask id="path-2-inside-1_1833:4576" fill="white">
    <path fill-rule="evenodd" clip-rule="evenodd"
          d="M10.2857 4.07274C10.3669 3.46859 10.8076 3.02395 11.3246 3.02395L20.6721 3C21.197 3 21.6417 3.45775 21.7143 4.07274L22.3883 7H25.3419C26.0848 7 26.7138 7.67486 26.8164 8.58171L28 18H4L5.35751 8.54648C5.47268 7.65555 6.09596 7 6.82784 7H9.61172L10.2857 4.07274Z"/>
  </mask>
  <path
    d="M11.3246 3.02395V4.52395L11.3285 4.52394L11.3246 3.02395ZM10.2857 4.07274L11.7475 4.40931C11.7579 4.36412 11.7662 4.31846 11.7724 4.2725L10.2857 4.07274ZM20.6721 3V1.5L20.6683 1.5L20.6721 3ZM21.7143 4.07274L20.2246 4.24856C20.231 4.30261 20.2403 4.35627 20.2525 4.40931L21.7143 4.07274ZM22.3883 7L20.9265 7.33656C21.0833 8.01751 21.6895 8.5 22.3883 8.5V7ZM26.8164 8.58171L25.326 8.75047C25.3266 8.75657 25.3274 8.76266 25.3281 8.76874L26.8164 8.58171ZM28 18V19.5C28.4304 19.5 28.8401 19.3151 29.1248 18.9923C29.4096 18.6696 29.542 18.24 29.4883 17.813L28 18ZM4 18L2.51523 17.7868C2.4534 18.2174 2.58155 18.6536 2.86646 18.9824C3.15137 19.3111 3.56497 19.5 4 19.5V18ZM5.35751 8.54648L6.84228 8.7597C6.84328 8.75273 6.84423 8.74576 6.84514 8.73879L5.35751 8.54648ZM9.61172 7V8.5C10.3105 8.5 10.9167 8.01751 11.0735 7.33656L9.61172 7ZM11.3246 1.52395C9.8744 1.52395 8.954 2.71998 8.79907 3.87299L11.7724 4.2725C11.7722 4.27377 11.766 4.31821 11.7073 4.37749C11.6456 4.43982 11.5135 4.52395 11.3246 4.52395V1.52395ZM20.6683 1.5L11.3208 1.52395L11.3285 4.52394L20.676 4.5L20.6683 1.5ZM23.2039 3.89693C23.0661 2.72915 22.1451 1.5 20.6721 1.5V4.5C20.4803 4.5 20.3475 4.41329 20.2869 4.35095C20.2573 4.32049 20.2419 4.29408 20.2342 4.27751C20.2263 4.26046 20.2248 4.25022 20.2246 4.24856L23.2039 3.89693ZM23.85 6.66344L23.176 3.73618L20.2525 4.40931L20.9265 7.33656L23.85 6.66344ZM25.3419 5.5H22.3883V8.5H25.3419V5.5ZM28.3069 8.41296C28.1473 7.00363 27.0802 5.5 25.3419 5.5V8.5C25.2966 8.5 25.2584 8.48899 25.2341 8.47757C25.2118 8.4671 25.2101 8.46082 25.222 8.47359C25.2483 8.5018 25.3078 8.59017 25.326 8.75047L28.3069 8.41296ZM29.4883 17.813L28.3047 8.39468L25.3281 8.76874L26.5117 18.187L29.4883 17.813ZM4 19.5H28V16.5H4V19.5ZM3.87274 8.33327L2.51523 17.7868L5.48477 18.2132L6.84228 8.7597L3.87274 8.33327ZM6.82784 5.5C5.11595 5.5 4.04966 6.96349 3.86989 8.35418L6.84514 8.73879C6.86533 8.58254 6.92401 8.49845 6.9485 8.4727C6.95954 8.46108 6.95713 8.46766 6.93465 8.47804C6.91025 8.48932 6.87251 8.5 6.82784 8.5V5.5ZM9.61172 5.5H6.82784V8.5H9.61172V5.5ZM8.82396 3.73618L8.14997 6.66344L11.0735 7.33656L11.7475 4.40931L8.82396 3.73618Z"
    fill="currentColor" mask="url(#path-2-inside-1_1833:4576)"/>
  <rect x="1" y="14" width="30" height="6" rx="3" fill="white"/>
  <rect x="1.75" y="14.75" width="28.5" height="4.5" rx="2.25" stroke="currentColor" stroke-width="1.5"/>
</svg>
