<svg width="36" height="36" viewBox="0 0 36 36" fill="currentColor" stroke="currentColor" xmlns="http://www.w3.org/2000/svg">
  <mask id="path-1-outside-1" maskUnits="userSpaceOnUse" x="7" y="8" width="22" height="23" fill="black">
    <rect fill="white" stroke="none" x="7" y="8" width="22" height="23"/>
    <path fill-rule="evenodd" clip-rule="evenodd" stroke="none"
          d="M27 9L24.9429 27.2609C24.9429 27.8277 24.4929 29 23.1429 29H12.8571C11.5071 29 11.0571 27.8277 11.0571 27.2609L9 9"/>
  </mask>
  <path
    d="M24.9429 27.2609L23.4523 27.0929C23.446 27.1487 23.4429 27.2048 23.4429 27.2609H24.9429ZM11.0571 27.2609H12.5571C12.5571 27.2048 12.554 27.1487 12.5477 27.0929L11.0571 27.2609ZM25.5094 8.83208L23.4523 27.0929L26.4334 27.4288L28.4906 9.16792L25.5094 8.83208ZM23.4429 27.2609C23.4429 27.2208 23.4477 27.2398 23.4286 27.2969C23.4116 27.3479 23.3872 27.3935 23.3622 27.4258C23.34 27.4545 23.3229 27.4662 23.3102 27.4727C23.3012 27.4773 23.2559 27.5 23.1429 27.5V30.5C24.3188 30.5 25.1938 29.9619 25.736 29.2602C26.229 28.6223 26.4429 27.8616 26.4429 27.2609H23.4429ZM23.1429 27.5H12.8571V30.5H23.1429V27.5ZM12.8571 27.5C12.7441 27.5 12.6988 27.4773 12.6898 27.4727C12.6771 27.4662 12.66 27.4545 12.6378 27.4258C12.6128 27.3935 12.5884 27.3479 12.5714 27.2969C12.5523 27.2398 12.5571 27.2208 12.5571 27.2609H9.55714C9.55714 27.8616 9.771 28.6223 10.264 29.2602C10.8062 29.9619 11.6812 30.5 12.8571 30.5V27.5ZM12.5477 27.0929L10.4906 8.83208L7.50943 9.16792L9.56657 27.4288L12.5477 27.0929Z"
    stroke="none" mask="url(#path-1-outside-1)"/>
  <mask id="path-3-outside-2" maskUnits="userSpaceOnUse" x="11" y="4" width="14" height="5" fill="black">
    <rect fill="white" stroke="none" x="11" y="4" width="14" height="5"/>
    <path fill-rule="evenodd" clip-rule="evenodd" stroke="none"
          d="M13 9V7C13 6.34818 13.3247 6 13.9421 6H22C22.6174 6 23 6.34818 23 7V9"/>
  </mask>
  <path
    d="M14.5 9V7H11.5V9H14.5ZM14.5 7C14.5 6.90413 14.5237 7.07939 14.3327 7.28272C14.1267 7.50191 13.9124 7.5 13.9421 7.5V4.5C13.3544 4.5 12.669 4.67218 12.1464 5.22842C11.6386 5.76879 11.5 6.44405 11.5 7H14.5ZM13.9421 7.5H22V4.5H13.9421V7.5ZM22 7.5C22.0333 7.5 21.8649 7.5056 21.6843 7.32952C21.4973 7.14717 21.5 6.96842 21.5 7H24.5C24.5 6.37976 24.3114 5.70101 23.7787 5.18161C23.2525 4.66849 22.5841 4.5 22 4.5V7.5ZM21.5 7V9H24.5V7H21.5Z"
    stroke="none" mask="url(#path-3-outside-2)"/>
  <path d="M5 9H31" fill="none" stroke-width="1.5" stroke-linecap="round" stroke-linejoin="round"/>
</svg>
