<svg width="142" height="33" viewBox="0 0 142 33" fill="none" xmlns="http://www.w3.org/2000/svg">
  <g clip-path="url(#clip0_81_15512)">
    <path d="M21.1527 25.7354L14.4125 32.3756L7.64355 25.707L21.1527 25.7354Z" fill="#602B7A"/>
    <path d="M14.3256 7.05664L16.4619 12.8961H12.1895L14.3256 7.05664Z" fill="#602B7A"/>
    <path d="M47.3256 16.1794C46.3998 16.1794 45.6212 15.8657 44.9899 15.2385C44.3586 14.6112 44.043 13.8237 44.043 12.8758C44.043 11.928 44.3586 11.1404 44.9899 10.5132C45.6212 9.8859 46.3998 9.57227 47.3256 9.57227C48.2515 9.57227 49.0301 9.8859 49.6614 10.5132C50.2927 11.1404 50.6083 11.928 50.6083 12.8758C50.6083 13.8237 50.2927 14.6112 49.6614 15.2385C49.0301 15.8657 48.2515 16.1794 47.3256 16.1794Z" fill="#602B7A"/>
    <path d="M57.6531 15.2791C58.2844 15.9063 59.0769 16.22 60.0309 16.22C60.9848 16.22 61.7775 15.9063 62.4088 15.2791C63.0401 14.6379 63.3557 13.8364 63.3557 12.8746C63.3557 11.9128 63.0401 11.1183 62.4088 10.4911C61.7775 9.8499 60.9848 9.5293 60.0309 9.5293C59.0769 9.5293 58.2844 9.8499 57.6531 10.4911C57.0218 11.1183 56.7061 11.9128 56.7061 12.8746C56.7061 13.8364 57.0218 14.6379 57.6531 15.2791Z" fill="#602B7A"/>
    <path d="M125.983 15.2791C126.615 15.9063 127.407 16.22 128.361 16.22C129.315 16.22 130.108 15.9063 130.739 15.2791C131.37 14.6379 131.686 13.8364 131.686 12.8746C131.686 11.9128 131.37 11.1183 130.739 10.4911C130.108 9.8499 129.315 9.5293 128.361 9.5293C127.407 9.5293 126.615 9.8499 125.983 10.4911C125.353 11.1183 125.037 11.9128 125.037 12.8746C125.037 13.8364 125.353 14.6379 125.983 15.2791Z" fill="#602B7A"/>
    <path fill-rule="evenodd" clip-rule="evenodd" d="M142 0H0V25.7504H142V0ZM17.2159 15.1539L18.503 18.102H21.1123L15.5823 4.20891H13.069L7.53977 18.102H10.1701L11.4354 15.1539H17.2159ZM43.3905 16.7848C44.4707 17.8442 45.7823 18.3738 47.3255 18.3738C48.8827 18.3738 50.1944 17.8442 51.2605 16.7848C52.3407 15.7254 52.8808 14.4221 52.8808 12.8749C52.8808 11.3277 52.3407 10.0244 51.2605 8.96504C50.1944 7.90567 48.8827 7.37599 47.3255 7.37599C45.7823 7.37599 44.4707 7.90567 43.3905 8.96504C42.3103 10.0244 41.7702 11.3277 41.7702 12.8749C41.7702 14.4221 42.3103 15.7254 43.3905 16.7848ZM31.5325 7.6478V18.102H29.2599V9.82228H25.7457V13.7113C25.7457 15.37 25.381 16.5478 24.6515 17.2448C23.922 17.9417 22.884 18.2275 21.5372 18.102V15.9903C22.1825 16.1018 22.6665 15.9694 22.9892 15.593C23.3118 15.2167 23.4732 14.5546 23.4732 13.6067V7.6478H31.5325ZM41.23 7.6478V9.82228H36.4533V18.102H34.1807V7.6478H41.23ZM60.3882 7.37599C61.8332 7.37599 63.0678 7.91264 64.0918 8.98594C65.1159 10.0453 65.6279 11.3416 65.6279 12.8749C65.6279 14.4221 65.1159 15.7254 64.0918 16.7848C63.0678 17.8442 61.8332 18.3738 60.3882 18.3738C58.789 18.3738 57.5614 17.7884 56.7057 16.6175V21.5409H54.4331V7.6478H56.7057V9.15321C57.5614 7.9684 58.789 7.37599 60.3882 7.37599ZM76.5492 7.6478H74.8027L69.4156 14.2758V7.6478H67.185V18.102H68.9316L74.3186 11.4531V18.102H76.5492V7.6478ZM87.2244 7.6478V9.82228H83.7944V18.102H81.5218V9.82228H78.0708V7.6478H87.2244ZM97.2844 18.102H99.4939V7.6478H97.1792L94.128 12.4777L91.0769 7.6478H88.7622V18.102H90.9716V11.2441L93.9807 16.0112H94.2543L97.2844 11.2232V18.102ZM109.737 7.6478H111.483V18.102H109.253V11.4531L103.866 18.102H102.119V7.6478H104.35V14.2758L109.737 7.6478ZM120.456 18.102H123.17L118.372 12.7704L123.001 7.6478H120.223L116.142 12.2686V7.6478H113.869V18.102H116.142V13.2722L120.456 18.102ZM131.686 7.6478H133.959V18.102H131.686V16.5966C130.831 17.7814 129.603 18.3738 128.004 18.3738C126.559 18.3738 125.324 17.8442 124.3 16.7848C123.276 15.7115 122.764 14.4082 122.764 12.8749C122.764 11.3277 123.276 10.0244 124.3 8.96504C125.324 7.90567 126.559 7.37599 128.004 7.37599C129.603 7.37599 130.831 7.96143 131.686 9.1323V7.6478Z" fill="#602B7A"/>
  </g>
  <defs>
    <clipPath id="clip0_81_15512">
      <rect width="142" height="33" fill="white"/>
    </clipPath>
  </defs>
</svg>
