<svg width="278" height="188" viewBox="0 0 278 188" fill="none" xmlns="http://www.w3.org/2000/svg">
  <mask id="mask0_69_5177" style="mask-type:alpha" maskUnits="userSpaceOnUse" x="0" y="0" width="278" height="188">
    <rect width="278" height="188" fill="#D9D9D9"/>
  </mask>
  <g mask="url(#mask0_69_5177)">
    <rect x="142.051" y="-114.189" width="172.973" height="239.391" transform="rotate(34.3428 142.051 -114.189)" fill="#6D1896"/>
    <path d="M73.1527 79.5284L66.4125 86.1686L59.6436 79.5L73.1527 79.5284Z" fill="white"/>
    <path d="M66.3254 61.0563L68.4617 66.8958H64.1893L66.3254 61.0563Z" fill="white"/>
    <path d="M99.3256 70.1785C98.3997 70.1785 97.6212 69.8648 96.9899 69.2376C96.3586 68.6103 96.0429 67.8228 96.0429 66.8749C96.0429 65.9271 96.3586 65.1395 96.9899 64.5123C97.6212 63.885 98.3997 63.5714 99.3256 63.5714C100.252 63.5714 101.03 63.885 101.661 64.5123C102.293 65.1395 102.608 65.9271 102.608 66.8749C102.608 67.8228 102.293 68.6103 101.661 69.2376C101.03 69.8648 100.252 70.1785 99.3256 70.1785Z" fill="white"/>
    <path d="M109.653 69.2796C110.284 69.9068 111.077 70.2205 112.031 70.2205C112.985 70.2205 113.777 69.9068 114.409 69.2796C115.04 68.6384 115.356 67.8369 115.356 66.8751C115.356 65.9133 115.04 65.1188 114.409 64.4916C113.777 63.8504 112.985 63.5298 112.031 63.5298C111.077 63.5298 110.284 63.8504 109.653 64.4916C109.022 65.1188 108.706 65.9133 108.706 66.8751C108.706 67.8369 109.022 68.6384 109.653 69.2796Z" fill="white"/>
    <path d="M177.983 69.2794C178.615 69.9066 179.407 70.2203 180.361 70.2203C181.315 70.2203 182.107 69.9066 182.739 69.2794C183.37 68.6382 183.686 67.8367 183.686 66.8749C183.686 65.9131 183.37 65.1186 182.739 64.4914C182.107 63.8501 181.315 63.5295 180.361 63.5295C179.407 63.5295 178.615 63.8501 177.983 64.4914C177.352 65.1186 177.037 65.9131 177.037 66.8749C177.037 67.8367 177.352 68.6382 177.983 69.2794Z" fill="white"/>
    <path fill-rule="evenodd" clip-rule="evenodd" d="M194 54H52V79.7504H194V54ZM69.2159 69.1539L70.503 72.102H73.1123L67.5823 58.2089H65.069L59.5398 72.102H62.1701L63.4354 69.1539H69.2159ZM95.3905 70.7848C96.4707 71.8442 97.7823 72.3738 99.3255 72.3738C100.883 72.3738 102.194 71.8442 103.26 70.7848C104.341 69.7254 104.881 68.4221 104.881 66.8749C104.881 65.3277 104.341 64.0244 103.26 62.965C102.194 61.9057 100.883 61.376 99.3255 61.376C97.7823 61.376 96.4707 61.9057 95.3905 62.965C94.3103 64.0244 93.7702 65.3277 93.7702 66.8749C93.7702 68.4221 94.3103 69.7254 95.3905 70.7848ZM83.5325 61.6478V72.102H81.2599V63.8223H77.7457V67.7113C77.7457 69.37 77.381 70.5478 76.6515 71.2448C75.922 71.9417 74.884 72.2275 73.5372 72.102V69.9903C74.1825 70.1018 74.6665 69.9694 74.9892 69.593C75.3118 69.2167 75.4732 68.5546 75.4732 67.6067V61.6478H83.5325ZM93.23 61.6478V63.8223H88.4533V72.102H86.1807V61.6478H93.23ZM112.388 61.376C113.833 61.376 115.068 61.9126 116.092 62.9859C117.116 64.0453 117.628 65.3416 117.628 66.8749C117.628 68.4221 117.116 69.7254 116.092 70.7848C115.068 71.8442 113.833 72.3738 112.388 72.3738C110.789 72.3738 109.561 71.7884 108.706 70.6175V75.5409H106.433V61.6478H108.706V63.1532C109.561 61.9684 110.789 61.376 112.388 61.376ZM128.549 61.6478H126.803L121.416 68.2758V61.6478H119.185V72.102H120.932L126.319 65.4531V72.102H128.549V61.6478ZM139.224 61.6478V63.8223H135.794V72.102H133.522V63.8223H130.071V61.6478H139.224ZM149.284 72.102H151.494V61.6478H149.179L146.128 66.4777L143.077 61.6478H140.762V72.102H142.972V65.2441L145.981 70.0112H146.254L149.284 65.2232V72.102ZM161.737 61.6478H163.483V72.102H161.253V65.4531L155.866 72.102H154.119V61.6478H156.35V68.2758L161.737 61.6478ZM172.456 72.102H175.17L170.372 66.7704L175.001 61.6478H172.223L168.142 66.2686V61.6478H165.869V72.102H168.142V67.2722L172.456 72.102ZM183.686 61.6478H185.959V72.102H183.686V70.5966C182.831 71.7814 181.603 72.3738 180.004 72.3738C178.559 72.3738 177.324 71.8442 176.3 70.7848C175.276 69.7115 174.764 68.4082 174.764 66.8749C174.764 65.3277 175.276 64.0244 176.3 62.965C177.324 61.9057 178.559 61.376 180.004 61.376C181.603 61.376 182.831 61.9614 183.686 63.1323V61.6478Z" fill="white"/>
  </g>
</svg>
