<svg
  width="36"
  height="36"
  viewBox="0 0 36 36"
  fill="none"
  xmlns="http://www.w3.org/2000/svg"
>
  <path
    fill-rule="evenodd"
    clip-rule="evenodd"
    d="M2.5306 2.5306C0 5.06119 0 9.1341 0 17.28V18.72C0 26.8659 0 30.9388 2.5306 33.4694C5.06119 36 9.1341 36 17.28 36H18.72C26.8659 36 30.9388 36 33.4694 33.4694C36 30.9388 36 26.8659 36 18.72V17.28C36 9.1341 36 5.06119 33.4694 2.5306C30.9388 0 26.8659 0 18.72 0H17.28C9.1341 0 5.06119 0 2.5306 2.5306ZM6.07535 10.95C6.27035 20.31 10.9503 25.935 19.1553 25.935H19.6204V20.58C22.6354 20.88 24.9152 23.085 25.8302 25.935H30.0903C28.9203 21.675 25.8452 19.32 23.9252 18.42C25.8452 17.31 28.5452 14.61 29.1902 10.95H25.3201C24.4801 13.92 21.9904 16.62 19.6204 16.875V10.95H15.7503V21.33C13.3503 20.73 10.3203 17.82 10.1853 10.95H6.07535Z"
    fill="#0F1C2C"
  />
</svg>
