<svg
  width="35"
  height="35"
  viewBox="0 0 35 35"
  fill="none"
  xmlns="http://www.w3.org/2000/svg"
>
  <path
    d="M16.6444 0.0202409C7.32564 0.460362 -0.0281884 8.15838 8.12319e-05 17.4123C0.00868871 20.2308 0.694671 22.8911 1.90478 25.2417L0.0468317 34.1875C-0.0536733 34.6714 0.386321 35.0951 0.870956 34.9813L9.70822 32.9045C11.9787 34.0263 14.5288 34.6743 17.2278 34.7151C26.7525 34.8594 34.6944 27.3577 34.9913 17.9135C35.3095 7.78999 26.8861 -0.463574 16.6444 0.0202409Z"
    fill="#0F1C2C"
  />
  <path
    d="M25.9911 21.1219L22.6014 20.1565C22.1557 20.0296 21.6758 20.155 21.3511 20.4832L20.5222 21.3209C20.1726 21.6741 19.6423 21.7876 19.1796 21.602C17.5761 20.9583 14.203 17.9834 13.3416 16.4954C13.0931 16.0661 13.1342 15.5295 13.4393 15.1379L14.163 14.2091C14.4465 13.8453 14.5064 13.3566 14.3189 12.936L12.8927 9.73654C12.5511 8.97022 11.5639 8.74715 10.9189 9.28821C9.97285 10.0819 8.85033 11.288 8.71388 12.6242C8.47329 14.98 9.49184 17.9497 13.3435 21.5155C17.7933 25.6351 21.3566 26.1793 23.6766 25.6218C24.9926 25.3057 26.0442 24.0382 26.7079 23.0004C27.1604 22.2929 26.8031 21.3532 25.9911 21.1219Z"
    fill="#F5F8FA"
  />
</svg>
