<svg width="17" height="17" viewBox="0 0 17 17" fill="none" xmlns="http://www.w3.org/2000/svg">
  <path d="M8.5 16.5C11.77 16.5 13.6163 15.9029 14.5831 14.652C15.0623 14.032 15.2855 13.2992 15.3937 12.5208C15.5 11.7557 15.5 10.903 15.5 10.0231V10C15.5 7.63893 14.7341 5.75551 13.4514 4.46063C12.1705 3.16751 10.4123 2.5 8.5 2.5C6.58769 2.5 4.82947 3.16751 3.54858 4.46063C2.26594 5.75551 1.5 7.63893 1.5 10L1.5 10.0231C1.49999 10.903 1.49998 11.7557 1.60632 12.5208C1.71451 13.2992 1.9377 14.032 2.41689 14.652C3.38374 15.9029 5.23001 16.5 8.5 16.5Z" fill="#9EB0C5" stroke="white"/>
  <path d="M5.5 8C5 7.50001 4 7.5 3.5 8" stroke="#1B324F" stroke-linecap="round" stroke-linejoin="bevel"/>
  <path d="M11 7C11 7 10.625 6 9.5 6C8.375 6 8 7 8 7" stroke="#1B324F" stroke-linecap="round" stroke-linejoin="bevel"/>
  <path d="M9 12.5C9 13 9 13 7 13C5 13 5 13 5 12.5C5 12.2239 5 12 7 12C9 12 9 12.2239 9 12.5Z" fill="#1B324F"/>
  <path d="M10 9.5C10 10.5714 9.55228 11 9 11C8.44772 11 8 10.5714 8 9.5C8 8.42857 8.44772 8 9 8C9.55228 8 10 8.42857 10 9.5Z" fill="#1B324F"/>
  <circle cx="5" cy="10" r="1" fill="#1B324F"/>
</svg>
