<svg width="17" height="17" viewBox="0 0 17 17" fill="none" xmlns="http://www.w3.org/2000/svg">
  <mask id="path-1-outside-1_94:75" maskUnits="userSpaceOnUse" x="1" y="2" width="15" height="15" fill="black">
    <rect fill="white" x="1" y="2" width="15" height="15"/>
    <path
      d="M11.7439 3C10.4979 2.99944 9.29697 3.73608 8.49888 4.65878C7.71069 3.74787 6.4923 2.99944 5.25391 3C3.27416 3 2.00515 4.78102 2 6.61455C2.00462 10.2062 5.71536 13.3047 8.50022 15C11.285 13.3046 14.9954 10.2061 15 6.61455C14.9893 4.80007 13.6559 3 11.7439 3Z"/>
  </mask>
  <path
    d="M11.7439 3C10.4979 2.99944 9.29697 3.73608 8.49888 4.65878C7.71069 3.74787 6.4923 2.99944 5.25391 3C3.27416 3 2.00515 4.78102 2 6.61455C2.00462 10.2062 5.71536 13.3047 8.50022 15C11.285 13.3046 14.9954 10.2061 15 6.61455C14.9893 4.80007 13.6559 3 11.7439 3Z"
    fill="#FF5018"/>
  <path
    d="M11.7439 3C10.4979 2.99944 9.29697 3.73608 8.49888 4.65878C7.71069 3.74787 6.4923 2.99944 5.25391 3C3.27416 3 2.00515 4.78102 2 6.61455C2.00462 10.2062 5.71536 13.3047 8.50022 15C11.285 13.3046 14.9954 10.2061 15 6.61455C14.9893 4.80007 13.6559 3 11.7439 3Z"
    stroke="white" stroke-width="2" mask="url(#path-1-outside-1_94:75)"/>
</svg>
