<svg width="17" height="17" viewBox="0 0 17 17" fill="none" xmlns="http://www.w3.org/2000/svg">
  <mask id="path-1-outside-1_94:74" maskUnits="userSpaceOnUse" x="1" y="0" width="15" height="16" fill="black">
    <rect fill="white" x="1" width="15" height="16"/>
    <path
      d="M14.5745 10.7774C14.8734 10.4214 15.0167 10.0398 14.9984 9.64672C14.9801 9.21383 14.7727 8.87491 14.6019 8.66701C14.8002 8.20563 14.8764 7.47938 14.2145 6.91548C13.7295 6.50251 12.906 6.31739 11.7651 6.36866C10.9629 6.40283 10.2919 6.54239 10.2644 6.54808H10.2614C10.1088 6.57371 9.94718 6.60504 9.78246 6.63922C9.77026 6.45694 9.80382 6.00411 10.1637 4.98452C10.5908 3.77126 10.5357 2.32433 10.0538 1.70346C9.54742 1.05126 8.73909 1 8.50117 1C8.2724 1 8.06193 1.08829 7.91247 1.25063C7.57389 1.61802 7.61354 2.29585 7.65624 2.60913C7.25361 3.61733 6.13796 6.23283 5.20094 7.29426C4.66096 7.80428 4.75151 7.74076 4.16862 7.74076H3.18395C2.48238 7.74076 2 8.01481 2 8.66701V13.9187C2 14.5738 2.48543 14.6139 3.18395 14.6139H3.95033C4.44293 14.6139 4.76189 14.6963 5.26437 14.7522C5.37418 14.7665 7.32636 14.9972 9.33039 14.9601C9.69338 14.9858 10.035 15 10.3522 15C10.8982 15 11.3741 14.9601 11.7706 14.8804C12.704 14.6953 13.4764 14.4627 13.7997 13.9187C14.0468 13.5029 14.0468 13.09 14.0071 12.828C14.6141 12.3153 14.7209 11.7486 14.6995 11.3498C14.6873 11.1191 14.6324 10.9226 14.5745 10.7774Z"/>
  </mask>
  <path
    d="M14.5745 10.7774C14.8734 10.4214 15.0167 10.0398 14.9984 9.64672C14.9801 9.21383 14.7727 8.87491 14.6019 8.66701C14.8002 8.20563 14.8764 7.47938 14.2145 6.91548C13.7295 6.50251 12.906 6.31739 11.7651 6.36866C10.9629 6.40283 10.2919 6.54239 10.2644 6.54808H10.2614C10.1088 6.57371 9.94718 6.60504 9.78246 6.63922C9.77026 6.45694 9.80382 6.00411 10.1637 4.98452C10.5908 3.77126 10.5357 2.32433 10.0538 1.70346C9.54742 1.05126 8.73909 1 8.50117 1C8.2724 1 8.06193 1.08829 7.91247 1.25063C7.57389 1.61802 7.61354 2.29585 7.65624 2.60913C7.25361 3.61733 6.13796 6.23283 5.20094 7.29426C4.66096 7.80428 4.75151 7.74076 4.16862 7.74076H3.18395C2.48238 7.74076 2 8.01481 2 8.66701V13.9187C2 14.5738 2.48543 14.6139 3.18395 14.6139H3.95033C4.44293 14.6139 4.76189 14.6963 5.26437 14.7522C5.37418 14.7665 7.32636 14.9972 9.33039 14.9601C9.69338 14.9858 10.035 15 10.3522 15C10.8982 15 11.3741 14.9601 11.7706 14.8804C12.704 14.6953 13.4764 14.4627 13.7997 13.9187C14.0468 13.5029 14.0468 13.09 14.0071 12.828C14.6141 12.3153 14.7209 11.7486 14.6995 11.3498C14.6873 11.1191 14.6324 10.9226 14.5745 10.7774Z"
    fill="#38BD60"/>
  <path
    d="M14.5745 10.7774C14.8734 10.4214 15.0167 10.0398 14.9984 9.64672C14.9801 9.21383 14.7727 8.87491 14.6019 8.66701C14.8002 8.20563 14.8764 7.47938 14.2145 6.91548C13.7295 6.50251 12.906 6.31739 11.7651 6.36866C10.9629 6.40283 10.2919 6.54239 10.2644 6.54808H10.2614C10.1088 6.57371 9.94718 6.60504 9.78246 6.63922C9.77026 6.45694 9.80382 6.00411 10.1637 4.98452C10.5908 3.77126 10.5357 2.32433 10.0538 1.70346C9.54742 1.05126 8.73909 1 8.50117 1C8.2724 1 8.06193 1.08829 7.91247 1.25063C7.57389 1.61802 7.61354 2.29585 7.65624 2.60913C7.25361 3.61733 6.13796 6.23283 5.20094 7.29426C4.66096 7.80428 4.75151 7.74076 4.16862 7.74076H3.18395C2.48238 7.74076 2 8.01481 2 8.66701V13.9187C2 14.5738 2.48543 14.6139 3.18395 14.6139H3.95033C4.44293 14.6139 4.76189 14.6963 5.26437 14.7522C5.37418 14.7665 7.32636 14.9972 9.33039 14.9601C9.69338 14.9858 10.035 15 10.3522 15C10.8982 15 11.3741 14.9601 11.7706 14.8804C12.704 14.6953 13.4764 14.4627 13.7997 13.9187C14.0468 13.5029 14.0468 13.09 14.0071 12.828C14.6141 12.3153 14.7209 11.7486 14.6995 11.3498C14.6873 11.1191 14.6324 10.9226 14.5745 10.7774Z"
    stroke="white" stroke-width="2" stroke-linecap="round" stroke-linejoin="round" mask="url(#path-1-outside-1_94:74)"/>
</svg>
