<svg width="17" height="17" viewBox="0 0 17 17" fill="none" xmlns="http://www.w3.org/2000/svg">
  <path d="M8.5 16.5C10.4458 16.5 12.4482 16.2516 13.9714 15.2274C15.5362 14.1752 16.5 12.373 16.5 9.5C16.5 7.6451 16.106 5.8671 14.8493 4.5576C13.5898 3.24519 11.5575 2.5 8.5 2.5C5.44255 2.5 3.41021 3.24519 2.15073 4.5576C0.894047 5.8671 0.5 7.6451 0.5 9.5C0.5 12.373 1.46376 14.1752 3.02865 15.2274C4.55178 16.2516 6.55419 16.5 8.5 16.5Z" fill="#E23000" stroke="white"/>
  <path d="M12 10C12 10.5523 12 11 10.5062 11C9.01233 11 9.01233 10.5523 9.01233 10C9.01233 9 9.01233 9 10.5062 9C12 9 12 9.44772 12 10Z" fill="#1B324F"/>
  <path d="M7.9877 10C7.9877 10.5523 7.9877 11 6.49385 11C5 11 5 10.5523 5 10C5 9.44772 5 9 6.49385 9C7.9877 9 7.9877 9 7.9877 10Z" fill="#1B324F"/>
  <path d="M3 7.25C2.58579 7.25 2.25 7.58579 2.25 8C2.25 8.41421 2.58579 8.75 3 8.75V7.25ZM6.46423 9.52483C6.75409 9.82073 7.22894 9.82563 7.52484 9.53577C7.82073 9.24591 7.82563 8.77106 7.53577 8.47516L6.46423 9.52483ZM3 8.75C3.59958 8.75 4.38208 8.82761 5.08325 8.98237C5.43299 9.05957 5.74589 9.15236 5.9976 9.25601C6.26046 9.36425 6.40359 9.46293 6.46423 9.52483L7.53577 8.47516C7.26988 8.20374 6.91301 8.01076 6.56873 7.86899C6.2133 7.72264 5.8119 7.6071 5.40655 7.51763C4.59751 7.33906 3.70655 7.25 3 7.25V8.75Z" fill="#1B324F"/>
  <path d="M14 8C12.6939 8 10.6531 8.33333 10 9" stroke="#1B324F" stroke-width="1.5" stroke-linecap="round" stroke-linejoin="bevel"/>
  <path d="M12.2658 12.4326C12.3498 12.746 11.9627 13.0922 11.641 13.05C11.1788 12.9894 10.5314 12.9957 9.70313 13.2177C8.87483 13.4396 8.31105 13.7578 7.94107 14.0414C7.68353 14.2388 7.17521 14.1325 7.09123 13.8191C7.06214 13.7106 7.06753 13.5953 7.12188 13.4969C7.31367 13.1498 7.91117 12.3113 9.3565 11.924C10.8018 11.5367 11.7386 11.9642 12.0782 12.1689C12.1744 12.2269 12.2367 12.324 12.2658 12.4326Z" fill="#1B324F"/>
</svg>
