<svg width="17" height="17" viewBox="0 0 17 17" fill="none" xmlns="http://www.w3.org/2000/svg">
  <path d="M8.79062 1.09313L8.5 0.885548L8.20938 1.09313C4.6619 3.62705 2.5 6.75746 2.5 9.5C2.5 11.6166 3.20875 13.2514 4.33761 14.3572C5.46172 15.4583 6.96693 16 8.5 16C10.0331 16 11.5383 15.4583 12.6624 14.3572C13.7912 13.2514 14.5 11.6166 14.5 9.5C14.5 6.75746 12.3381 3.62705 8.79062 1.09313Z" fill="#1C92FF" stroke="white"/>
  <path d="M11.2976 9.91318C11.8076 9.61874 11.8563 8.74831 11.4063 7.96903C10.9564 7.18974 10.1783 6.7967 9.66828 7.09114C9.1583 7.38558 9.10961 8.256 9.55953 9.03529C10.0094 9.81457 10.7876 10.2076 11.2976 9.91318Z" fill="#1B324F"/>
  <path d="M5.71192 9.90402C5.20194 9.60958 5.15098 8.74308 5.59811 7.96863C6.04523 7.19418 6.82113 6.80506 7.33111 7.0995C7.84109 7.39394 7.89205 8.26044 7.44492 9.03489C6.9978 9.80933 6.2219 10.1985 5.71192 9.90402Z" fill="#1B324F"/>
  <path d="M10.9996 12.5842C10.999 12.7525 10.7962 12.8576 10.6495 12.7749C10.2339 12.5404 9.47116 12.2069 8.49567 12.2069C7.5248 12.2069 6.7676 12.5373 6.35266 12.7715C6.20523 12.8548 6.00079 12.7482 6.00131 12.5789C6.00159 12.4903 6.01583 12.4027 6.05513 12.3233C6.22754 11.9749 6.85651 11 8.49567 11C10.1278 11 10.7653 11.9666 10.9434 12.3187C10.985 12.4008 10.9999 12.4921 10.9996 12.5842Z" fill="#1B324F"/>
</svg>
