<svg width="17" height="17" viewBox="0 0 17 17" fill="none" xmlns="http://www.w3.org/2000/svg">
  <circle cx="8.5" cy="9.5" r="7" fill="#FFDC40" stroke="white"/>
  <path d="M10.0283 7.26758C10.2496 8.01062 10.7403 8.53787 11.6746 8.31256C12.6089 8.08725 12.741 7.40979 12.5198 6.66675C12.2986 5.9237 11.5615 5.45585 10.8735 5.62177C10.1855 5.78768 9.80712 6.52453 10.0283 7.26758Z" fill="#1B324F"/>
  <path d="M6.89207 7.26758C6.67085 8.01062 6.18008 8.53787 5.24578 8.31256C4.31148 8.08725 4.17937 7.40979 4.40059 6.66675C4.62181 5.9237 5.35888 5.45585 6.04689 5.62177C6.73489 5.78768 7.11329 6.52453 6.89207 7.26758Z" fill="#1B324F"/>
  <path d="M11 11.5C11 14 10.0625 14 8.5 14C6.9375 14 6 14 6 11.5C6 10.1193 7.25 9 8.5 9C9.75 9 11 10.1193 11 11.5Z" fill="#1B324F"/>
</svg>
