<svg width="17" height="17" viewBox="0 0 17 17" fill="none" xmlns="http://www.w3.org/2000/svg">
  <path d="M4.09559 3.70591C4.22297 3.53077 4.44863 3.45754 4.65458 3.52451C4.86054 3.59148 4.99996 3.78343 4.99996 4C4.99996 4.29832 5.10813 4.91445 5.34712 5.54356C5.52048 5.99991 5.74034 6.40313 5.98892 6.68703C6.54343 6.04624 6.89084 5.41813 7.06848 4.76332C7.27822 3.99016 7.26299 3.1366 7.01425 2.11869C6.97261 1.94827 7.02333 1.7685 7.14789 1.64497C7.27246 1.52144 7.45265 1.47223 7.62272 1.5153C9.24446 1.92603 10.2288 3.06844 10.7282 4.40955C11.1275 5.48154 11.2251 6.69368 11.1084 7.81656C11.359 7.67211 11.6112 7.44537 11.8416 7.14704C12.2576 6.6081 12.5 5.96272 12.5 5.5C12.5 5.29076 12.6302 5.10365 12.8265 5.03106C13.0227 4.95846 13.2434 5.01574 13.3796 5.1746C15.0241 7.0932 15.2366 9.92117 14.3594 12.2395C13.4759 14.5743 11.443 16.5 8.49996 16.5C5.58087 16.5 3.40476 14.7239 2.51243 12.231C1.62296 9.74606 2.00929 6.57458 4.09559 3.70591Z" fill="#FF7842" stroke="white" stroke-linecap="round" stroke-linejoin="round"/>
</svg>
