<svg width="36" height="36" viewBox="0 0 36 36" fill="none" xmlns="http://www.w3.org/2000/svg">
  <path fill-rule="evenodd" clip-rule="evenodd" d="M15.8214 4.95652C15.8214 3.59089 16.9471 2.5 18.3155 2.5C19.684 2.5 20.8097 3.59089 20.8097 4.95652V12.9518L22.0641 7.50876C22.3833 6.20647 23.6966 5.40581 25.0114 5.68345C26.3284 5.96153 27.1934 7.22568 26.9388 8.54441C26.9387 8.54494 26.9386 8.54547 26.9385 8.546L25.4891 16.3034L27.1703 12.7845C27.1805 12.7631 27.1922 12.7425 27.2054 12.7227C27.5012 12.2788 27.8948 11.7485 28.4463 11.4671C29.0546 11.1567 29.7564 11.1916 30.5379 11.6627C31.1834 12.0519 31.4505 12.7374 31.4935 13.3884C31.5355 14.0247 31.3735 14.7024 31.0675 15.2407C30.7136 16.1523 30.3148 16.9645 29.9176 17.7733C28.9519 19.7398 27.9957 21.687 27.7168 24.9966L27.7152 25.0123C27.3281 28.3454 26.6382 30.5089 25.3384 31.8191C24.018 33.1502 22.173 33.5 19.782 33.5H16.9861C15.2174 33.4992 13.5237 32.7881 12.3003 31.5289C12.2866 31.5148 12.2738 31.4999 12.2618 31.4843L5.30199 22.3916C4.65574 21.8039 4.36891 20.9206 4.5566 20.067C4.74795 19.1969 5.40058 18.5012 6.25695 18.2403C7.10939 17.9805 8.03954 18.1888 8.69433 18.7896L11.6438 21.3163L9.69124 8.06391C9.41002 6.73452 10.2761 5.44285 11.6104 5.16122C12.9479 4.8789 14.2789 5.71212 14.5711 7.04465L15.8214 12.7392V4.95652ZM18.3155 3.5C17.4814 3.5 16.8214 4.16104 16.8214 4.95652V17.3478C16.8214 17.6031 16.6291 17.8174 16.3754 17.8449C16.1216 17.8724 15.8878 17.7044 15.8331 17.4551L13.5943 7.25897C13.4232 6.47865 12.6329 5.96742 11.8169 6.13966C11.0038 6.3113 10.5015 7.09054 10.6719 7.86769C10.6744 7.87902 10.6765 7.89043 10.6782 7.9019L12.8278 22.4923C12.8582 22.6987 12.7574 22.9022 12.5748 23.003C12.3922 23.1037 12.1663 23.0806 12.0079 22.9449L8.03692 19.5432C8.03209 19.5391 8.02734 19.5348 8.02267 19.5305C7.63081 19.168 7.0671 19.0388 6.54846 19.1968C6.03055 19.3547 5.64542 19.7718 5.53327 20.2818C5.42127 20.7911 5.59669 21.3229 5.99859 21.673C6.02384 21.695 6.04682 21.7195 6.06718 21.7461L13.0376 30.8526C14.0692 31.9031 15.4942 32.4992 16.9861 32.5C16.9862 32.5 16.9861 32.5 16.9861 32.5H19.782C22.1171 32.5 23.6049 32.1467 24.6285 31.1149C25.6719 30.063 26.3369 28.2059 26.721 24.9047C27.0176 21.4018 28.0913 19.2117 29.0814 17.1919C29.4667 16.406 29.8394 15.6459 30.1487 14.8442C30.1585 14.8188 30.1703 14.7943 30.1841 14.7709C30.4036 14.3973 30.5252 13.9021 30.4956 13.4543C30.4661 13.0068 30.2958 12.6845 30.0216 12.5191C29.4736 12.1888 29.1416 12.2349 28.9009 12.3578C28.6099 12.5063 28.3445 12.8203 28.0571 13.2481L24.7491 20.1721C24.6409 20.3985 24.3815 20.5097 24.1429 20.4319C23.9043 20.3541 23.7603 20.1114 23.8064 19.8647L25.9561 8.35904L25.9567 8.35574C26.1055 7.58801 25.6041 6.83065 24.8048 6.66187C24.004 6.49278 23.2246 6.98232 23.0361 7.74373L20.7969 17.4601C20.7398 17.7079 20.5058 17.8734 20.2532 17.8446C20.0005 17.8159 19.8097 17.6021 19.8097 17.3478V4.95652C19.8097 4.16104 19.1497 3.5 18.3155 3.5Z" fill="currentColor"/>
</svg>
