<svg width="36" height="36" viewBox="0 0 36 36" fill="none" xmlns="http://www.w3.org/2000/svg">
  <path fill-rule="evenodd" clip-rule="evenodd" d="M21.9997 8.00028C22.0083 7.99165 22.0174 7.98256 22.0263 7.97371C22.1234 7.87665 22.2339 7.76668 22.3569 7.64975C23.5219 6.54216 25.8099 4.80989 28.4999 7.49994C31.19 10.19 29.4571 12.4781 28.3493 13.6431C28.2219 13.7771 28.1027 13.8963 27.9995 13.9995L13.9991 27.9999L7.61696 29.5957C6.88457 29.7788 6.22115 29.1154 6.40425 28.383L8.00001 22L21.9997 8.00028ZM8.8832 22.5903L7.37439 28.6256L13.4088 27.1168L8.8832 22.5903ZM14.1455 26.4393L9.56065 21.8536L22.3535 9.0607L26.9385 13.6463L14.1455 26.4393ZM27.6416 12.9352C28.0894 12.4613 28.5724 11.8686 28.8009 11.1835C28.9372 10.7747 28.9764 10.3469 28.8591 9.88829C28.7406 9.42501 28.444 8.8582 27.7928 8.20705C27.1417 7.55588 26.5748 7.25916 26.1115 7.14064C25.6528 7.02331 25.225 7.06238 24.8162 7.19867C24.1312 7.42702 23.5384 7.90985 23.0646 8.35759L27.6416 12.9352Z" fill="currentColor"/>
</svg>
