<svg width="36" height="36" viewBox="0 0 36 36" fill="currentColor" stroke="currentColor"
     xmlns="http://www.w3.org/2000/svg">
  <path fill-rule="evenodd" clip-rule="evenodd"
        d="M28.6064 20.1217C30.9496 22.4648 30.9496 26.2638 28.6064 28.607C26.2633 30.9501 22.4643 30.9501 20.1211 28.607L7.39321 15.879C5.05006 13.5359 5.05006 9.73691 7.3932 7.39377C9.73635 5.05062 13.5353 5.05062 15.8785 7.39377L28.6064 20.1217Z"
        stroke="none"/>
  <path
    d="M29.3135 29.3141C32.0472 26.5804 32.0472 22.1483 29.3135 19.4146L27.8993 20.8288C29.8519 22.7814 29.8519 25.9472 27.8993 27.8999L29.3135 29.3141ZM19.414 29.3141C22.1477 32.0477 26.5798 32.0477 29.3135 29.3141L27.8993 27.8999C25.9467 29.8525 22.7809 29.8525 20.8282 27.8999L19.414 29.3141ZM20.8282 27.8999L8.10031 15.1719L6.6861 16.5862L19.414 29.3141L20.8282 27.8999ZM6.6861 6.68666C3.95243 9.42033 3.95243 13.8525 6.6861 16.5862L8.10031 15.1719C6.14769 13.2193 6.14769 10.0535 8.10031 8.10087L6.6861 6.68666ZM16.5856 6.68666C13.8519 3.95299 9.41977 3.95299 6.6861 6.68666L8.10031 8.10087C10.0529 6.14825 13.2188 6.14825 15.1714 8.10087L16.5856 6.68666ZM15.1714 8.10087L27.8993 20.8288L29.3135 19.4146L16.5856 6.68666L15.1714 8.10087Z"
    stroke="none"/>
  <path fill-rule="evenodd" clip-rule="evenodd"
        d="M15.8788 28.6069C13.5357 30.95 9.73667 30.95 7.39352 28.6069C5.05037 26.2638 5.05037 22.4648 7.39352 20.1216L20.1214 7.3937C22.4646 5.05055 26.2636 5.05055 28.6067 7.3937C30.9499 9.73684 30.9499 13.5358 28.6067 15.879L15.8788 28.6069Z"
        fill="#EFEFEF" stroke="none"/>
  <path
    d="M6.68641 29.314C9.42008 32.0477 13.8522 32.0477 16.5859 29.314L15.1717 27.8998C13.2191 29.8524 10.0532 29.8524 8.10063 27.8998L6.68641 29.314ZM6.68641 19.4145C3.95274 22.1482 3.95274 26.5803 6.68641 29.314L8.10063 27.8998C6.148 25.9472 6.148 22.7813 8.10063 20.8287L6.68641 19.4145ZM8.10063 20.8287L20.8285 8.1008L19.4143 6.68659L6.68641 19.4145L8.10063 20.8287ZM29.3138 6.68659C26.5802 3.95292 22.148 3.95292 19.4143 6.68659L20.8285 8.1008C22.7812 6.14818 25.947 6.14818 27.8996 8.1008L29.3138 6.68659ZM29.3138 16.5861C32.0475 13.8524 32.0475 9.42026 29.3138 6.68659L27.8996 8.1008C29.8522 10.0534 29.8522 13.2192 27.8996 15.1719L29.3138 16.5861ZM27.8996 15.1719L15.1717 27.8998L16.5859 29.314L29.3138 16.5861L27.8996 15.1719Z"
    stroke="none"/>
  <circle cx="13.7575" cy="18" r="1" transform="rotate(-45 13.7575 18)" stroke="none"/>
  <circle cx="15.8786" cy="20.1211" r="1" transform="rotate(-45 15.8786 20.1211)" stroke="none"/>
  <circle cx="18.0002" cy="22.2422" r="1" transform="rotate(-45 18.0002 22.2422)" stroke="none"/>
  <circle cx="15.8786" cy="15.8789" r="1" transform="rotate(-45 15.8786 15.8789)" stroke="none"/>
  <circle cx="18.0002" cy="18" r="1" transform="rotate(-45 18.0002 18)" stroke="none"/>
  <circle cx="20.1212" cy="20.1211" r="1" transform="rotate(-45 20.1212 20.1211)" stroke="none"/>
  <circle cx="18.0002" cy="13.7578" r="1" transform="rotate(-45 18.0002 13.7578)" stroke="none"/>
  <circle cx="20.1212" cy="15.8789" r="1" transform="rotate(-45 20.1212 15.8789)" stroke="none"/>
  <circle cx="22.2428" cy="18" r="1" transform="rotate(-45 22.2428 18)" stroke="none"/>
</svg>
