<svg width="36" height="36" viewBox="0 0 36 36" fill="currentColor" stroke="currentColor" xmlns="http://www.w3.org/2000/svg">
  <path fill-rule="evenodd" clip-rule="evenodd"
        d="M18 8C20.0402 8 21.7236 6.47264 21.9692 4.49901C22.0033 4.22498 22.2239 4 22.5 4H22.9934C22.9971 4 23 4.00294 23 4.00657C23 4.01007 23.0028 4.01295 23.0063 4.01313C28.5701 4.30242 33 9.33461 33 15.5C33 15.5087 33 15.5173 33 15.526C32.9983 16.3688 32.2768 17 31.434 17H28.6636C27.7448 17 27 17.7448 27 18.6636V29.3364C27 30.2552 26.2552 31 25.3364 31H10.6636C9.74484 31 9 30.2552 9 29.3364V18.6636C9 17.7448 8.25516 17 7.33636 17H4.56601C3.72321 17 3.00173 16.3688 3.00003 15.526C3.00001 15.5173 3 15.5087 3 15.5C3 9.33461 7.42986 4.30242 12.9937 4.01313C12.9972 4.01295 13 4.01007 13 4.00657C13 4.00294 13.0029 4 13.0066 4H13.5C13.7761 4 13.9967 4.22498 14.0308 4.49901C14.2764 6.47264 15.9598 8 18 8Z"
        stroke="none"/>
</svg>
