<svg width="36" height="36" viewBox="0 0 36 36" fill="currentColor" stroke="currentColor" xmlns="http://www.w3.org/2000/svg">
  <path
    d="M22.3146 7.86291C19.4664 7.29328 16.5336 7.29328 13.6854 7.86291L10.555 8.48899C9.00191 8.79962 7.77835 9.99742 7.43476 11.5436L6.07642 17.6561C6.02696 17.8787 5.90295 18.0776 5.72493 18.2201L1.54449 21.5644C1.21734 21.8261 1.08126 22.2697 1.29819 22.6281C2.57239 24.7333 7.15563 28 18 28C28.8444 28 33.4276 24.7333 34.7018 22.6281C34.9187 22.2697 34.7827 21.8261 34.4555 21.5644L30.2751 18.2201C30.0971 18.0776 29.973 17.8787 29.9236 17.6561L28.5652 11.5436C28.2216 9.99742 26.9981 8.79962 25.445 8.48899L22.3146 7.86291Z"
    stroke="none"/>
  <path d="M5 18C6.5 18.6667 10 20 18 20" fill="none" stroke-width="2" stroke-linecap="round"
        stroke-linejoin="round"/>
  <path d="M31 18C29.5 18.6667 26 20 18 20" fill="none" stroke-width="2" stroke-linecap="round"
        stroke-linejoin="round"/>
</svg>
