<svg width="36" height="36" viewBox="0 0 36 36" fill="currentColor" stroke="currentColor" xmlns="http://www.w3.org/2000/svg">
  <path
    d="M28 13C27.4477 13 27 13.4477 27 14C27 14.5523 27.4477 15 28 15V13ZM27.2387 13.3444L26.2437 13.4445L27.2387 13.3444ZM8.76149 22.6558L7.76652 22.7559L8.76149 22.6558ZM27.2387 22.6556L28.2336 22.7558L27.2387 22.6556ZM8.76149 13.3442L9.75646 13.4444L8.76149 13.3442ZM5 18C5 16.3431 6.34315 15 8 15V13C5.23858 13 3 15.2386 3 18H5ZM8 21C6.34315 21 5 19.6569 5 18H3C3 20.7614 5.23858 23 8 23V21ZM7.76652 22.7559C8.2893 27.9479 12.6708 32 18.0001 32V30C13.7082 30 10.1774 26.736 9.75646 22.5556L7.76652 22.7559ZM18.0001 32C23.3293 32 27.7109 27.9478 28.2336 22.7558L26.2437 22.5555C25.8228 26.736 22.292 30 18.0001 30V32ZM28 23C30.7614 23 33 20.7614 33 18H31C31 19.6569 29.6569 21 28 21V23ZM33 18C33 15.2386 30.7614 13 28 13V15C29.6569 15 31 16.3431 31 18H33ZM28.2336 13.2442C27.7109 8.05221 23.3293 4 18.0001 4V6C22.292 6 25.8228 9.26403 26.2437 13.4445L28.2336 13.2442ZM18.0001 4C12.6708 4 8.2893 8.05214 7.76652 13.2441L9.75646 13.4444C10.1774 9.26398 13.7082 6 18.0001 6V4ZM28 13C28.0545 13 28.1006 13.0188 28.137 13.0496C28.176 13.0825 28.224 13.1482 28.2336 13.2442L26.2437 13.4445C26.339 14.3912 27.1697 15 28 15V13ZM8 23C7.94556 23 7.8995 22.9812 7.86312 22.9505C7.82418 22.9176 7.77619 22.8519 7.76652 22.7559L9.75646 22.5556C9.66113 21.6088 8.83035 21 8 21V23ZM28.2336 22.7558C28.224 22.8518 28.176 22.9175 28.137 22.9504C28.1006 22.9812 28.0545 23 28 23V21C27.1697 21 26.339 21.6088 26.2437 22.5555L28.2336 22.7558ZM8 15C8.83035 15 9.66113 14.3912 9.75646 13.4444L7.76652 13.2441C7.77619 13.1481 7.82418 13.0824 7.86312 13.0495C7.8995 13.0188 7.94556 13 8 13V15Z"
    stroke="none"/>
  <path
    d="M29 10.7935V16.1047C29 16.8938 28.1288 17.372 27.4631 16.9483L21.4702 13.1346C21.1426 12.9262 20.724 12.9262 20.3964 13.1346L13.5434 17.4956C13.148 17.7473 12.6308 17.6905 12.2994 17.3591L11.2187 16.2784C10.8943 15.9539 10.3906 15.8919 9.99712 16.128L8.5145 17.0176C7.84797 17.4175 7 16.9374 7 16.1601V10.7935C7 4.71838 11.9249 2.72656 18 2.72656C24.0751 2.72656 29 4.71838 29 10.7935Z"
    stroke="none"/>
</svg>
