<svg width="36" height="36" viewBox="0 0 36 36" fill="currentColor" stroke="currentColor" xmlns="http://www.w3.org/2000/svg">
  <path fill-rule="evenodd" clip-rule="evenodd"
        d="M13.4415 2C12.5807 2 11.8164 2.55086 11.5442 3.36754L11.2447 4.26592C6.72922 5.34834 3.30102 9.6133 3.01881 14.806C3.00647 14.8688 3 14.9336 3 15V15.5V26C3 26.5523 3.44772 27 4 27H8V14H9V26V27V29.3364C9 30.2552 9.74484 31 10.6636 31H25.3364C26.2552 31 27 30.2552 27 29.3364V27V26V14H28V27H32C32.5523 27 33 26.5523 33 26V15.5V15C33 14.9336 32.9935 14.8688 32.9812 14.806C32.699 9.6133 29.2708 5.34834 24.7553 4.26592L24.4558 3.36754C24.1836 2.55086 23.4193 2 22.5585 2H13.4415Z"
        stroke="none"/>
  <circle cx="18" cy="11" r="1" fill="none"/>
  <circle cx="18" cy="17" r="1" fill="none"/>
  <circle cx="18" cy="23" r="1" fill="none"/>
</svg>
