<svg width="24" height="24" viewBox="0 0 24 24" fill="currentColor" stroke="currentColor"
     xmlns="http://www.w3.org/2000/svg">
  <path fill-rule="evenodd" clip-rule="evenodd"
        d="M9.47718 1C8.59917 1 7.82384 1.57264 7.56562 2.41181L7.46305 2.74516C7.45128 2.78341 7.44071 2.82168 7.43132 2.85993C4.3206 3.63995 2 6.68984 2 10.3333V17C2 17.5523 2.44772 18 3 18H5V8.99999H6V17V18V19.3364C6 20.2552 6.74484 21 7.66364 21H16.3364C17.2552 21 18 20.2552 18 19.3364V18V17V8.99999H19V18L21 18C21.5523 18 22 17.5523 22 17V10.3333C22 6.68986 19.6794 3.63999 16.5687 2.85995C16.5593 2.8217 16.5488 2.78344 16.537 2.74519L16.4344 2.41185C16.1762 1.57265 15.4009 1 14.5229 1H9.47718Z"
        stroke="none"/>
  <ellipse cx="12" cy="7.33332" rx="0.666667" ry="0.666667" stroke="none"  />
  <ellipse cx="12" cy="11.3333" rx="0.666667" ry="0.666667" stroke="none" />
  <circle cx="12" cy="15.3333" r="0.666667" stroke="none"/>
</svg>
