<svg width="24" height="24" viewBox="0 0 24 24" fill="currentColor" stroke="currentColor"
     xmlns="http://www.w3.org/2000/svg">
  <path
    d="M18.6666 13.9167C18.2524 13.9167 17.9166 14.2525 17.9166 14.6667C17.9166 15.0809 18.2524 15.4167 18.6666 15.4167V13.9167ZM18.1591 8.8963L17.4129 8.97142L18.1591 8.8963ZM5.33329 13.9167C4.27475 13.9167 3.41663 13.0586 3.41663 12H1.91663C1.91663 13.887 3.44632 15.4167 5.33329 15.4167V13.9167ZM3.41663 12C3.41663 10.9415 4.27475 10.0834 5.33329 10.0834V8.58335C3.44632 8.58335 1.91663 10.113 1.91663 12H3.41663ZM6.58722 8.97129C6.86361 6.22648 9.18202 4.08334 12 4.08334V2.58334C8.40402 2.58334 5.44755 5.3176 5.09477 8.82101L6.58722 8.97129ZM12 4.08334C14.8181 4.08334 17.1366 6.22654 17.4129 8.97142L18.9053 8.82117C18.5526 5.31768 15.5961 2.58334 12 2.58334V4.08334ZM18.6666 10.0834C19.7252 10.0834 20.5833 10.9415 20.5833 12H22.0833C22.0833 10.113 20.5536 8.58335 18.6666 8.58335V10.0834ZM20.5833 12C20.5833 13.0586 19.7252 13.9167 18.6666 13.9167V15.4167C20.5536 15.4167 22.0833 13.887 22.0833 12H20.5833ZM17.4129 15.0286C17.1365 17.7735 14.8181 19.9167 12 19.9167V21.4167C15.5961 21.4167 18.5526 18.6824 18.9053 15.1789L17.4129 15.0286ZM12 19.9167C9.18202 19.9167 6.86362 17.7736 6.58723 15.0287L5.09477 15.179C5.44755 18.6824 8.40402 21.4167 12 21.4167V19.9167ZM17.4129 8.97142C17.4812 9.65002 18.0755 10.0834 18.6666 10.0834V8.58335C18.7233 8.58335 18.7729 8.60327 18.8118 8.63608C18.8525 8.67052 18.8965 8.73347 18.9053 8.82117L17.4129 8.97142ZM5.33329 10.0834C5.92452 10.0834 6.51888 9.64999 6.58722 8.97129L5.09477 8.82101C5.1036 8.73334 5.14757 8.67043 5.18829 8.63603C5.22709 8.60325 5.2767 8.58335 5.33329 8.58335V10.0834ZM18.6666 13.9167C18.0755 13.9167 17.4812 14.35 17.4129 15.0286L18.9053 15.1789C18.8965 15.2666 18.8525 15.3295 18.8118 15.364C18.7729 15.3968 18.7233 15.4167 18.6666 15.4167V13.9167ZM5.33329 15.4167C5.2767 15.4167 5.22709 15.3968 5.18829 15.364C5.14757 15.3296 5.1036 15.2667 5.09477 15.179L6.58723 15.0287C6.51888 14.35 5.92452 13.9167 5.33329 13.9167V15.4167Z"
    stroke="none"/>
  <path
    d="M19.3333 7.19569V10.1292C19.3333 10.9183 18.4621 11.3965 17.7964 10.9729L14.4924 8.87031C14.1648 8.66185 13.7462 8.66185 13.4186 8.87031L9.25448 11.5202C8.85905 11.7718 8.34191 11.7151 8.01049 11.3837L7.66314 11.0363C7.33867 10.7118 6.83501 10.6498 6.44154 10.8859L6.18112 11.0422C5.5146 11.4421 4.66663 10.962 4.66663 10.1847V7.19569C4.66663 3.1456 7.94987 1.81772 12 1.81772C16.05 1.81772 19.3333 3.1456 19.3333 7.19569Z"
    stroke="none"/>
</svg>
