<svg width="24" height="24" viewBox="0 0 24 24" fill="currentColor" stroke="currentColor"
     xmlns="http://www.w3.org/2000/svg">
  <path
    d="M16 10.6667L14.0415 10.6667C13.5758 10.6667 13.1223 10.5321 12.6684 10.4277C12.2287 10.3266 11.7713 10.3266 11.3316 10.4277C10.8777 10.5321 10.4242 10.6667 9.95846 10.6667L8 10.6667"
    stroke-width="1.5" stroke-linecap="round" stroke-linejoin="round"/>
  <path
    d="M13.4781 13.2749L13.3756 12.6082C13.0028 10.1852 14.8775 8 17.3291 8H19.8365C21.6751 8 23.0812 9.6389 22.8016 11.4562L22.5218 13.2749C22.2216 15.2262 20.5426 16.6667 18.5683 16.6667H17.4316C15.4574 16.6667 13.7784 15.2262 13.4781 13.2749Z"
    stroke="none"/>
  <path
    d="M1.47815 13.2749L1.37558 12.6082C1.00281 10.1852 2.87753 8 5.32907 8H7.83646C9.67511 8 11.0812 9.6389 10.8016 11.4562L10.5218 13.2749C10.2216 15.2262 8.54257 16.6667 6.56828 16.6667H5.43164C3.45735 16.6667 1.77835 15.2262 1.47815 13.2749Z"
    stroke="none"/>
</svg>
