<svg width="24" height="24" viewBox="0 0 24 24" fill="currentColor" stroke="currentColor"
     xmlns="http://www.w3.org/2000/svg">
  <path
    d="M17 6.66665V5.33331C17 4.22874 16.1046 3.33331 15 3.33331C13.8954 3.33331 13 4.22874 13 5.33331V6.66665C13 7.77122 13.8954 8.66665 15 8.66665C16.1046 8.66665 17 7.77122 17 6.66665Z"
    stroke="none"/>
  <path
    d="M11 5.36491L11.0002 5.33334C11.0002 4.22877 10.1048 3.33334 9.00024 3.33334C7.89568 3.33334 7.00026 4.22876 7.00024 5.33331L7 6.66665C7 7.77122 7.89567 8.66668 9.00024 8.66668C10.1048 8.66668 11.0002 7.77125 11.0002 6.66668L11 6.63511V5.36491Z"
    stroke="none"/>
  <path
    d="M7 9.99997V11.3333C7 12.4379 6.10457 13.3333 5 13.3333C3.89543 13.3333 3 12.4379 3 11.3333V9.99997C3 8.8954 3.89543 7.99997 5 7.99997C6.10457 7.99997 7 8.8954 7 9.99997Z"
    stroke="none"/>
  <path
    d="M17 11.3333C17 12.4379 17.8954 13.3333 19 13.3333C20.1046 13.3333 21 12.4379 21 11.3333V9.99997C21 8.8954 20.1046 7.99997 19 7.99997C17.8954 7.99997 17 8.8954 17 9.99997V11.3333Z"
    stroke="none"/>
  <path
    d="M9.35005 11.4369C10.6656 9.52101 13.3344 9.52101 14.6499 11.4369L17.3524 15.3725C18.9538 17.7047 17.4021 21 14.7025 21H9.29755C6.59793 21 5.04619 17.7047 6.6476 15.3725L9.35005 11.4369Z"
    stroke="nones"/>
</svg>
