<svg width="24" height="24" viewBox="0 0 24 24" fill="currentColor" stroke="currentColor" xmlns="http://www.w3.org/2000/svg">
  <mask id="path-1-outside-1" maskUnits="userSpaceOnUse" x="1.75732" y="1.75775" width="20" height="20" fill="black">
    <rect fill="white" stroke="none" x="1.75732" y="1.75775" width="20" height="20"/>
    <path
      d="M19.071 4.92932C20.6331 6.49142 20.6331 9.02408 19.071 10.5862C19.071 10.5862 19.071 10.5862 19.071 10.5862L10.5988 19.0583C10.5945 19.0627 10.5901 19.0671 10.5858 19.0715C9.02365 20.6336 6.49099 20.6336 4.9289 19.0715C3.36681 17.5094 3.3668 14.9767 4.92887 13.4146L13.4141 4.92933C13.4141 4.92932 13.4141 4.92933 13.4141 4.92933C14.9762 3.36723 17.5089 3.36722 19.071 4.92932Z" stroke="none"/>
  </mask>
  <path
    d="M19.071 10.5862L18.0103 9.52551V9.52552L19.071 10.5862ZM10.5988 19.0583L9.53814 17.9977L9.53333 18.0025L10.5988 19.0583ZM4.92887 13.4146L3.86821 12.354L3.8682 12.354L4.92887 13.4146ZM13.4141 4.92933L12.3535 3.86867L12.3535 3.86867L13.4141 4.92933ZM20.1316 11.6468C22.2795 9.49895 22.2795 6.01654 20.1316 3.86866L18.0103 5.98998C18.9866 6.96629 18.9866 8.5492 18.0103 9.52551L20.1316 11.6468ZM20.1316 11.6468C20.1316 11.6468 20.1316 11.6468 20.1316 11.6468C20.1316 11.6468 20.1316 11.6468 20.1316 11.6468C20.1316 11.6468 20.1316 11.6468 20.1316 11.6468C20.1317 11.6468 20.1316 11.6468 20.1316 11.6469C19.071 10.5862 18.0103 9.52551 18.0103 9.52551C18.0103 9.52551 18.0103 9.52552 18.0103 9.52552C18.0103 9.52551 18.0103 9.52552 18.0103 9.52551C18.0103 9.52551 18.0103 9.52552 18.0103 9.52552C18.0103 9.52551 18.0103 9.52551 18.0103 9.52551C18.0103 9.52551 18.0103 9.52552 18.0103 9.52552C18.0103 9.52551 18.0103 9.52552 18.0103 9.52552C18.0103 9.52551 18.0103 9.52551 18.0103 9.52551C18.0103 9.52551 18.0103 9.52551 18.0103 9.52552C18.0103 9.52551 18.0103 9.52551 18.0103 9.52551C18.0103 9.52551 18.0103 9.52551 18.0103 9.52551C18.0103 9.52551 18.0103 9.52551 18.0103 9.52551C18.0103 9.52551 18.0103 9.52551 18.0103 9.52551L18.0103 9.52551C18.0103 9.52551 18.0103 9.52551 18.0103 9.52551C18.0103 9.52551 18.0103 9.52551 18.0103 9.52551C18.0103 9.52551 18.0103 9.52551 18.0103 9.52551C18.0103 9.52551 18.0103 9.52551 18.0103 9.52551C18.0103 9.52551 18.0103 9.52551 18.0103 9.52551C18.0103 9.52551 18.0103 9.52551 18.0103 9.52551C18.0103 9.52551 18.0103 9.52551 18.0103 9.52551C18.0103 9.52551 18.0103 9.52551 18.0103 9.52551C18.0103 9.52551 18.0103 9.52551 18.0103 9.52551C18.0103 9.52551 18.0103 9.52551 18.0103 9.52551C18.0103 9.52551 18.0103 9.52551 18.0103 9.52551C18.0103 9.52551 18.0103 9.52551 18.0103 9.52551C18.0103 9.52551 18.0103 9.52551 18.0103 9.52551C18.0103 9.52551 18.0103 9.52551 18.0103 9.52551C18.0103 9.52551 18.0103 9.52551 18.0103 9.52551H18.0103C18.0103 9.52551 18.0103 9.52551 18.0103 9.52551C18.0103 9.52551 18.0103 9.52551 18.0103 9.52552C18.0103 9.52551 18.0103 9.52551 18.0103 9.52551C18.0103 9.52552 18.0103 9.52552 18.0103 9.52552C18.0103 9.52551 18.0103 9.52551 18.0103 9.52551V9.52552C18.0103 9.52551 18.0103 9.52551 18.0103 9.52551C18.0103 9.52552 18.0103 9.52551 18.0103 9.52551C18.0103 9.52552 18.0103 9.52552 18.0103 9.52552C18.0103 9.52552 18.0103 9.52551 18.0103 9.52552V9.52551C18.0103 9.52552 18.0103 9.52552 18.0103 9.52552C18.0103 9.52551 18.0103 9.52551 18.0103 9.52551C18.0103 9.52552 18.0103 9.52552 18.0103 9.52552V9.52552C18.0103 9.52552 18.0103 9.52552 18.0103 9.52552C18.0103 9.52552 18.0103 9.52552 18.0103 9.52552C18.0103 9.52552 18.0103 9.52552 18.0103 9.52552C18.0103 9.52552 18.0103 9.52551 18.0103 9.52551C18.0103 9.52552 18.0103 9.52552 18.0103 9.52552C18.0103 9.52552 19.071 10.5862 20.1316 11.6468C20.1316 11.6468 20.1317 11.6468 20.1316 11.6468C20.1316 11.6468 20.1316 11.6468 20.1316 11.6468C20.1316 11.6468 20.1316 11.6468 20.1316 11.6468C20.1316 11.6468 20.1316 11.6468 20.1316 11.6468L20.1316 11.6468C20.1316 11.6468 20.1316 11.6468 20.1316 11.6468C20.1316 11.6468 20.1316 11.6468 20.1316 11.6468C20.1316 11.6468 20.1316 11.6468 20.1316 11.6468V11.6468C20.1316 11.6468 20.1316 11.6468 20.1316 11.6468C20.1316 11.6468 20.1316 11.6468 20.1316 11.6468C20.1316 11.6468 20.1316 11.6468 20.1316 11.6468C20.1316 11.6468 20.1316 11.6468 20.1316 11.6468C20.1316 11.6468 20.1316 11.6468 20.1316 11.6468L18.0103 9.52551C18.0103 9.52552 18.0103 9.52551 18.0103 9.52551V9.52552C18.0103 9.52551 18.0103 9.52551 18.0103 9.52551V9.52552V9.52551C18.0103 9.52552 18.0103 9.52552 18.0103 9.52552C18.0103 9.52552 18.0103 9.52552 18.0103 9.52552C18.0103 9.52552 18.0103 9.52552 18.0103 9.52552C18.0103 9.52552 18.0103 9.52552 18.0103 9.52552C18.0103 9.52555 18.0103 9.5255 18.0104 9.52547C19.071 10.5862 20.1316 11.6468 20.1316 11.6468C20.1316 11.6468 20.1316 11.6468 20.1316 11.6468C20.1316 11.6468 20.1316 11.6468 20.1316 11.6468C20.1316 11.6468 20.1316 11.6468 20.1316 11.6468C20.1316 11.6468 20.1316 11.6468 20.1316 11.6468C20.1316 11.6468 20.1316 11.6468 20.1316 11.6468C20.1316 11.6468 20.1316 11.6468 20.1316 11.6468C20.1316 11.6468 20.1316 11.6468 20.1316 11.6468C20.1316 11.6468 20.1316 11.6468 20.1316 11.6468C20.1316 11.6468 20.1316 11.6468 20.1316 11.6468C20.1316 11.6468 20.1316 11.6468 20.1316 11.6468C20.1316 11.6468 20.1316 11.6468 20.1316 11.6468C20.1316 11.6468 20.1316 11.6468 20.1316 11.6468C20.1316 11.6468 20.1316 11.6468 20.1316 11.6468V11.6468V11.6468C20.1316 11.6468 20.1316 11.6468 20.1316 11.6468V11.6468C20.1316 11.6468 20.1316 11.6468 20.1316 11.6468V11.6468C20.1316 11.6468 20.1316 11.6468 20.1316 11.6468C20.1316 11.6468 20.1316 11.6468 20.1316 11.6468C20.1316 11.6468 20.1316 11.6468 20.1316 11.6468C20.1316 11.6468 20.1316 11.6468 20.1316 11.6468C20.1316 11.6468 20.1316 11.6468 20.1316 11.6468C20.1316 11.6468 20.1316 11.6468 20.1316 11.6468C20.1316 11.6468 20.1316 11.6468 20.1316 11.6468C20.1316 11.6468 20.1316 11.6468 20.1316 11.6468C20.1316 11.6468 20.1316 11.6468 20.1316 11.6468C20.1316 11.6468 20.1316 11.6468 20.1316 11.6468C20.1316 11.6468 20.1316 11.6468 20.1316 11.6468V11.6468V11.6468V11.6468C20.1316 11.6468 20.1316 11.6468 20.1316 11.6468C20.1316 11.6468 20.1316 11.6468 20.1316 11.6468C20.1316 11.6468 20.1316 11.6468 20.1316 11.6468C20.1316 11.6468 20.1316 11.6468 20.1316 11.6468C20.1316 11.6468 19.071 10.5862 18.0103 9.52551C18.0103 9.5255 18.0103 9.52554 18.0103 9.52552C18.0103 9.52551 18.0103 9.52551 18.0103 9.52551C18.0103 9.52551 18.0103 9.52551 18.0103 9.52551C18.0103 9.52551 18.0103 9.52551 18.0103 9.52551C18.0103 9.52551 18.0103 9.52551 18.0103 9.52551C18.0103 9.52551 18.0103 9.52551 18.0103 9.52551C18.0103 9.52551 18.0103 9.52551 18.0103 9.52551C18.0103 9.52551 18.0103 9.52551 18.0103 9.52551C18.0103 9.52551 18.0103 9.52551 18.0103 9.52551L20.1316 11.6468ZM18.0103 9.52552L9.53815 17.9977L11.6595 20.119L20.1316 11.6468L18.0103 9.52552ZM11.6464 20.1321C11.6524 20.1262 11.6583 20.1202 11.6643 20.1142L9.53333 18.0025C9.5306 18.0053 9.52785 18.008 9.52509 18.0108L11.6464 20.1321ZM3.86824 20.1321C6.01612 22.28 9.49853 22.28 11.6464 20.1321L9.52509 18.0108C8.54878 18.9871 6.96587 18.9871 5.98956 18.0108L3.86824 20.1321ZM3.8682 12.354C1.72035 14.5019 1.72037 17.9843 3.86824 20.1321L5.98956 18.0108C5.01325 17.0345 5.01325 15.4516 5.98954 14.4753L3.8682 12.354ZM5.98953 14.4753L14.4748 5.98998L12.3535 3.86867L3.86821 12.354L5.98953 14.4753ZM12.3535 3.86867C12.3535 3.86867 12.3535 3.86867 12.3535 3.86867C12.3535 3.86867 12.3535 3.86867 12.3535 3.86867C12.3535 3.86867 12.3535 3.86867 12.3535 3.86867C12.3535 3.86867 12.3535 3.86867 12.3535 3.86867C12.3535 3.86867 12.3535 3.86867 12.3535 3.86867C12.3535 3.86867 12.3535 3.86867 12.3535 3.86867C12.3535 3.86867 12.3535 3.86867 12.3535 3.86867C12.3535 3.86866 12.3535 3.86867 12.3535 3.86867C12.3535 3.86866 12.3535 3.86866 12.3535 3.86866C12.3535 3.86867 12.3535 3.86864 12.3535 3.86862C14.4748 3.86867 14.4748 5.98998 14.4748 5.98998C14.4748 5.98998 14.4748 5.98998 14.4748 5.98998C14.4748 5.98999 14.4748 5.98998 14.4748 5.98998C14.4748 5.98999 14.4748 5.98999 14.4748 5.99C14.4748 5.98999 14.4748 5.98999 14.4748 5.98999C14.4748 5.98999 14.4748 5.98999 14.4748 5.98999C14.4748 5.98999 14.4748 5.98999 14.4748 5.98999C14.4748 5.98999 14.4748 5.98999 14.4748 5.98999C14.4748 5.98999 14.4748 5.98999 14.4748 5.98999C14.4748 5.98999 14.4748 5.98999 14.4748 5.98999C14.4748 5.98999 14.4748 5.98999 14.4748 5.98999C14.4748 5.98999 14.4748 5.98999 14.4748 5.98999C14.4748 5.98999 14.4748 5.98999 14.4748 5.98999C14.4748 5.98999 14.4748 5.98999 14.4748 5.98999V5.98999C14.4748 5.98999 14.4748 5.98999 14.4748 5.98999C14.4748 5.98999 14.4748 5.98999 14.4748 5.98999C14.4748 5.98999 14.4748 5.98999 14.4748 5.98999C14.4748 5.98999 14.4748 5.98999 14.4748 5.98999C14.4748 5.98999 14.4748 5.98999 14.4748 5.98999V5.98999C14.4748 5.98999 14.4748 5.98999 14.4748 5.98999C14.4748 5.98999 14.4748 5.98999 14.4748 5.98999C14.4748 5.98999 14.4748 5.98999 14.4748 5.98999C14.4748 5.98999 14.4748 5.98999 14.4748 5.98999C14.4748 5.98999 14.4748 5.98999 14.4748 5.98999V5.98999C14.4748 5.98999 14.4748 5.98999 14.4748 5.98999C14.4748 5.98999 14.4748 5.98999 14.4748 5.98999C14.4748 5.98999 14.4748 5.98999 14.4748 5.98999C14.4748 5.98999 14.4748 5.98999 14.4748 5.98999C14.4748 5.98999 14.4748 5.98999 14.4748 5.98999C14.4748 5.98998 14.4748 5.98999 14.4748 5.99C14.4748 5.98998 14.4748 5.98998 14.4748 5.98998C14.4748 5.98998 14.4748 3.86867 12.3535 3.86864C12.3535 3.86864 12.3535 3.86867 12.3534 3.86868C12.3535 3.86865 12.3535 3.86866 12.3535 3.86867C12.3535 3.86867 12.3535 3.86866 12.3535 3.86866C12.3535 3.86867 12.3535 3.86867 12.3535 3.86867C12.3535 3.86867 12.3535 3.86867 12.3535 3.86867C12.3535 3.86867 12.3535 3.86867 12.3535 3.86867C12.3535 3.86867 12.3535 3.86867 12.3535 3.86867C12.3535 3.86867 12.3535 3.86867 12.3535 3.86867C12.3535 3.86867 12.3535 3.86867 12.3535 3.86867C12.3535 3.86867 12.3535 3.86867 12.3535 3.86867L14.4748 5.98999C14.4748 5.98998 14.4748 5.98999 14.4748 5.98999V5.98999C14.4748 5.98999 14.4748 5.98999 14.4748 5.98999C14.4748 5.98999 14.4748 5.98998 14.4748 5.98998C14.4748 5.98999 14.4748 5.98999 14.4748 5.98998C14.4748 5.98999 14.4748 5.99 14.4748 5.99C14.4748 5.98998 14.4748 5.99001 14.4747 5.99003C12.3535 5.98998 12.3535 3.86868 12.3535 3.86867C12.3535 3.86867 12.3535 3.86867 12.3535 3.86867C12.3535 3.86866 12.3535 3.86867 12.3535 3.86867C12.3535 3.86866 12.3535 3.86866 12.3535 3.86866C12.3535 3.86867 12.3535 3.86867 12.3535 3.86867C12.3535 3.86867 12.3535 3.86867 12.3535 3.86867C12.3535 3.86867 12.3535 3.86867 12.3535 3.86867C12.3535 3.86867 12.3535 3.86867 12.3535 3.86867C12.3535 3.86867 12.3535 3.86867 12.3535 3.86867C12.3535 3.86867 12.3535 3.86867 12.3535 3.86867C12.3535 3.86867 12.3535 3.86867 12.3535 3.86867C12.3535 3.86867 12.3535 3.86867 12.3535 3.86867C12.3535 3.86867 12.3535 3.86867 12.3535 3.86867C12.3535 3.86867 12.3535 3.86867 12.3535 3.86867C12.3535 3.86867 12.3535 3.86867 12.3535 3.86867C12.3535 3.86867 12.3535 3.86867 12.3535 3.86867C12.3535 3.86867 12.3535 3.86867 12.3535 3.86867C12.3535 3.86867 12.3535 3.86867 12.3535 3.86867C12.3535 3.86867 12.3535 3.86867 12.3535 3.86867C12.3535 3.86867 12.3535 3.86867 12.3535 3.86867C12.3535 3.86867 12.3535 3.86867 12.3535 3.86867C12.3535 3.86867 12.3535 3.86867 12.3535 3.86867C12.3535 3.86867 12.3535 3.86867 12.3535 3.86867C12.3535 3.86867 12.3535 3.86867 12.3535 3.86867C12.3535 3.86867 12.3535 3.86867 12.3535 3.86867C12.3535 3.86867 12.3535 3.86867 12.3535 3.86867C12.3535 3.86867 12.3535 3.86867 12.3535 3.86867C12.3535 3.86867 12.3535 3.86867 12.3535 3.86867C12.3535 3.86867 12.3535 3.86867 12.3535 3.86867C12.3535 3.86867 12.3535 3.86867 12.3535 3.86867C12.3535 3.86867 12.3535 3.86867 12.3535 3.86867C12.3535 3.86867 12.3535 3.86867 12.3535 3.86867C12.3535 3.86867 12.3535 3.86867 12.3535 3.86867C12.3535 3.86867 12.3535 3.86867 12.3535 3.86867C12.3535 3.86867 12.3535 3.86867 12.3535 3.86867C12.3535 3.86867 12.3535 3.86867 12.3535 3.86867C12.3535 3.86866 12.3535 3.86866 12.3535 3.86866C12.3535 3.86867 12.3535 3.86866 12.3535 3.86865C12.3535 3.86867 12.3535 3.86867 12.3535 3.86867C12.3535 3.86868 12.3535 5.98998 14.4748 5.99001C14.4748 5.99002 14.4748 5.98998 14.4748 5.98997C14.4748 5.99 14.4748 5.98999 14.4748 5.98999C14.4748 5.98999 14.4748 5.98999 14.4748 5.98999C14.4748 5.98998 14.4748 5.98999 14.4748 5.98999C14.4748 5.98999 14.4748 5.98999 14.4748 5.98999C14.4748 5.98999 14.4748 5.98999 14.4748 5.98999V5.98999C14.4748 5.98999 14.4748 5.98999 14.4748 5.98999C14.4748 5.98999 14.4748 5.98999 14.4748 5.98999C14.4748 5.98999 14.4748 5.98999 14.4748 5.98999C14.4748 5.98999 14.4748 5.98999 14.4748 5.98999C14.4748 5.98999 14.4748 5.98999 14.4748 5.98999L12.3535 3.86867ZM20.1316 3.86866C17.9838 1.72078 14.5013 1.72079 12.3535 3.86867L14.4748 5.98999C15.4511 5.01367 17.034 5.01367 18.0103 5.98998L20.1316 3.86866Z"
    stroke="none" mask="url(#path-1-outside-1)"/>
  <path fill-rule="evenodd" clip-rule="evenodd"
        d="M4.22155 4.22224C6.17417 2.26962 9.34 2.26963 11.2926 4.22224L12.7069 5.63654L5.63588 12.7076L4.22989 11.3016L4.22155 11.2933C2.26892 9.34069 2.26892 6.17487 4.22155 4.22224ZM11.2927 18.3645L12.7068 19.7786C14.6595 21.7312 17.8253 21.7312 19.7779 19.7786C21.7305 17.826 21.7305 14.6602 19.7779 12.7075L18.3638 11.2934L11.2927 18.3645Z"
        stroke="none"/>
  <path
    d="M9.64295 11.5288C9.9033 11.7892 9.9033 12.2113 9.64295 12.4716C9.3826 12.732 8.96049 12.732 8.70014 12.4716C8.4398 12.2113 8.4398 11.7892 8.70014 11.5288C8.96049 11.2685 9.3826 11.2685 9.64295 11.5288Z"
    stroke="none"/>
  <path
    d="M11.057 12.9429C11.3174 13.2032 11.3174 13.6253 11.057 13.8857C10.7967 14.146 10.3746 14.146 10.1142 13.8857C9.85386 13.6253 9.85386 13.2032 10.1142 12.9429C10.3746 12.6825 10.7967 12.6825 11.057 12.9429Z"
    stroke="none"/>
  <path
    d="M12.4714 14.3569C12.7318 14.6173 12.7318 15.0394 12.4714 15.2998C12.2111 15.5601 11.7889 15.5601 11.5286 15.2998C11.2682 15.0394 11.2682 14.6173 11.5286 14.3569C11.7889 14.0966 12.2111 14.0966 12.4714 14.3569Z"
    stroke="none"/>
  <path
    d="M11.057 10.1148C11.3174 10.3751 11.3174 10.7972 11.057 11.0576C10.7967 11.3179 10.3746 11.3179 10.1142 11.0576C9.85386 10.7972 9.85386 10.3751 10.1142 10.1148C10.3746 9.85441 10.7967 9.85441 11.057 10.1148Z"
    stroke="none"/>
  <path
    d="M12.4714 11.5288C12.7318 11.7892 12.7318 12.2113 12.4714 12.4716C12.2111 12.732 11.7889 12.732 11.5286 12.4716C11.2682 12.2113 11.2682 11.7892 11.5286 11.5288C11.7889 11.2685 12.2111 11.2685 12.4714 11.5288Z"
    stroke="none"/>
  <path
    d="M13.8855 12.9429C14.1458 13.2032 14.1458 13.6253 13.8855 13.8857C13.6251 14.146 13.203 14.146 12.9427 13.8857C12.6823 13.6253 12.6823 13.2032 12.9427 12.9429C13.203 12.6825 13.6251 12.6825 13.8855 12.9429Z"
    stroke="none"/>
  <path
    d="M12.4714 8.70069C12.7318 8.96104 12.7318 9.38315 12.4714 9.6435C12.2111 9.90385 11.7889 9.90385 11.5286 9.6435C11.2682 9.38315 11.2682 8.96104 11.5286 8.70069C11.7889 8.44034 12.2111 8.44034 12.4714 8.70069Z"
    stroke="none"/>
  <path
    d="M13.8855 10.1148C14.1458 10.3751 14.1458 10.7972 13.8855 11.0576C13.6251 11.3179 13.203 11.3179 12.9427 11.0576C12.6823 10.7972 12.6823 10.3751 12.9427 10.1148C13.203 9.85441 13.6251 9.85441 13.8855 10.1148Z"
    stroke="none"/>
  <path
    d="M15.2999 11.5288C15.5602 11.7892 15.5602 12.2113 15.2999 12.4716C15.0395 12.732 14.6174 12.732 14.357 12.4716C14.0967 12.2113 14.0967 11.7892 14.357 11.5288C14.6174 11.2685 15.0395 11.2685 15.2999 11.5288Z"
    stroke="none"/>
</svg>
