<svg width="24" height="24" viewBox="0 0 24 24" fill="currentColor" stroke="currentColor"
     xmlns="http://www.w3.org/2000/svg">
  <path
    d="M15.25 16.25C15.25 18.0449 13.7949 19.5 12 19.5C10.2051 19.5 8.75 18.0449 8.75 16.25C8.75 14.4551 10.2051 13 12 13C13.7949 13 15.25 14.4551 15.25 16.25Z"
    stroke="none"/>
  <path fill-rule="evenodd" clip-rule="evenodd"
        d="M7.28321 9.03887C5.93603 7.60187 6.95493 5.25 8.92467 5.25H12H15.0753C17.045 5.25 18.0639 7.60187 16.7167 9.03887L13.9976 11.9392C14.4625 12.155 14.8867 12.4438 15.2553 12.7909L17.811 10.0648C20.0564 7.66978 18.3582 3.75 15.0753 3.75H12H8.92467C5.64177 3.75 3.9436 7.66978 6.18891 10.0648L8.74464 12.7909C9.11329 12.4438 9.53742 12.155 10.0023 11.9392L7.28321 9.03887Z"
        stroke="none"/>
</svg>
