<svg width="24" height="24" viewBox="0 0 24 24" fill="currentColor" stroke="currentColor" xmlns="http://www.w3.org/2000/svg">
  <path fill-rule="evenodd" clip-rule="evenodd"
        d="M7.59292 5.49159C10.4947 4.8387 13.5052 4.8387 16.407 5.49159C17.7863 5.80193 18.8623 6.88085 19.169 8.26098L19.8912 11.5105C18.7678 11.9438 16.4892 12.5833 12 12.5833C7.5106 12.5833 5.23206 11.9438 4.10873 11.5104L4.83083 8.26098C5.13753 6.88085 6.2136 5.80193 7.59292 5.49159ZM3.10256 12.7179L1.2111 14.2311C0.883943 14.4928 0.748559 14.9386 0.997321 15.2758C2.00583 16.6425 5.10409 18.5 12 18.5C18.8959 18.5 21.9941 16.6425 23.0026 15.2758C23.2513 14.9386 23.1159 14.4928 22.7888 14.2311L20.8974 12.718C19.7591 13.2154 17.3101 14.0833 12 14.0833C6.68974 14.0833 4.24078 13.2153 3.10256 12.7179Z"
        stroke="none"/>
</svg>
