<svg width="24" height="24" viewBox="0 0 24 24" fill="currentColor" stroke="currentColor"
     xmlns="http://www.w3.org/2000/svg">
  <path
    d="M9.42363 3.35715C9.37054 3.15855 9.20558 3 9 3C5.13401 3 2 6.09914 2 10.3333C2 10.7101 2.31671 11 2.69346 11H4.33636C5.25516 11 6 11.7448 6 12.6636V19.3364C6 20.2552 6.74484 21 7.66364 21H16.3364C17.2552 21 18 20.2552 18 19.3364V12.6636C18 11.7448 18.7448 11 19.6636 11H21.3065C21.6833 11 22 10.7101 22 10.3333C22 6.09914 18.866 3 15 3C14.7945 3 14.6295 3.15851 14.5765 3.35707C14.2723 4.49516 13.234 5.33333 12 5.33333C10.7661 5.33333 9.72786 4.4952 9.42363 3.35715Z"
    stroke="none"/>
</svg>
