<svg width="36" height="36" viewBox="0 0 36 36" fill="none" xmlns="http://www.w3.org/2000/svg">
  <path d="M25.279 15.6731H24.5724L24.5691 12.0859C24.5642 8.17571 21.4392 4.99672 17.5995 5C13.7564 5.00164 10.6331 8.1839 10.6347 12.0908L10.6413 15.6797H10.3888C9.06898 15.6813 7.99673 16.7716 8.00001 18.116V28.7957C8.00001 30.14 9.0739 31.2303 10.3937 31.2303L25.2839 31.2221C26.6037 31.2221 27.676 30.1335 27.6727 28.7891V18.1029C27.6727 16.7601 26.5988 15.6731 25.279 15.6731ZM13.2514 15.4911L13.2465 11.9908C13.2465 9.58239 15.3008 7.62648 17.8323 7.62156C20.3637 7.62156 22.4213 9.57912 22.4213 11.9843L22.4262 15.4829L13.2514 15.4911Z" fill="#CCCCCC"/>
</svg>
