<svg width="36" height="36" viewBox="0 0 36 36" fill="none" xmlns="http://www.w3.org/2000/svg">
  <circle cx="18" cy="18" r="12" fill="#00ABEE"/>
  <path d="M20.7884 10.8016C20.8742 10.5233 20.7582 10.2212 20.5108 10.0785C20.2633 9.9358 19.9525 9.99184 19.7668 10.2126L12.6627 17.9818C12.5095 18.1639 12.4737 18.4213 12.5709 18.6404C12.6682 18.8595 12.8806 19 13.1146 19H16.9999L14.867 25.1984C14.7828 25.4715 14.8928 25.7683 15.1324 25.9142C15.372 26.0601 15.6776 26.0165 15.8696 25.809L23.3978 18.0398C23.5627 17.8615 23.6085 17.5992 23.5143 17.373C23.4201 17.1467 23.204 17 22.9649 17H18.9999L20.7884 10.8016Z" fill="white"/>
</svg>
